<?xml version="1.0" encoding="UTF-8" standalone="no"?>
<!-- Created with Inkscape (http://www.inkscape.org/) -->

<svg
   xmlns:dc="http://purl.org/dc/elements/1.1/"
   xmlns:cc="http://creativecommons.org/ns#"
   xmlns:rdf="http://www.w3.org/1999/02/22-rdf-syntax-ns#"
   xmlns:svg="http://www.w3.org/2000/svg"
   xmlns="http://www.w3.org/2000/svg"
   xmlns:sodipodi="http://sodipodi.sourceforge.net/DTD/sodipodi-0.dtd"
   xmlns:inkscape="http://www.inkscape.org/namespaces/inkscape"
   width="19.021511"
   height="20.787592"
   id="svg7020"
   version="1.1"
   inkscape:version="0.48.2 r9819"
   sodipodi:docname="console_wii.svg">
  <metadata
     id="metadata26">
    <rdf:RDF>
      <cc:Work
         rdf:about="">
        <dc:format>image/svg+xml</dc:format>
        <dc:type
           rdf:resource="http://purl.org/dc/dcmitype/StillImage" />
      </cc:Work>
    </rdf:RDF>
  </metadata>
  <defs
     id="defs7022">
    <filter
       color-interpolation-filters="sRGB"
       inkscape:collect="always"
       id="filter12872"
       x="-0.16756572"
       width="1.3351314"
       y="-0.081974879"
       height="1.1639498">
      <feGaussianBlur
         inkscape:collect="always"
         stdDeviation="0.67367286"
         id="feGaussianBlur12874" />
    </filter>
  </defs>
  <sodipodi:namedview
     id="base"
     pagecolor="#ffffff"
     bordercolor="#666666"
     borderopacity="1.0"
     inkscape:pageopacity="0.0"
     inkscape:pageshadow="2"
     inkscape:zoom="15.839192"
     inkscape:cx="4.1043009"
     inkscape:cy="11.129175"
     inkscape:document-units="px"
     inkscape:current-layer="layer1"
     showgrid="false"
     fit-margin-top="0"
     fit-margin-left="0"
     fit-margin-right="0"
     fit-margin-bottom="0"
     inkscape:window-width="1366"
     inkscape:window-height="712"
     inkscape:window-x="0"
     inkscape:window-y="27"
     inkscape:window-maximized="1" />
  <g
     inkscape:label="Layer 1"
     inkscape:groupmode="layer"
     id="layer1"
     transform="translate(-393.37289,-339.1315)">
    <g
       id="g3003">
      <path
         inkscape:connector-curvature="0"
         id="path12882"
         d="m 397.55877,351.85784 c 1.30087,0.3947 2.54868,0.98367 3.66594,1.75188 0.92565,0.71063 -1.02655,1.90806 -1.56581,1.19328 -0.87502,-0.64644 -2.06817,-0.8654 -2.83385,-1.6154 0.51369,-0.66648 1.05528,-1.74224 1.95225,-0.93378 1.16995,0.16515 1.12758,1.20351 0.27267,1.7895 -0.59461,0.6088 -1.65032,-0.28854 -2.26083,-0.65096 -1.0017,-0.82447 -0.61551,-2.34167 0.0882,-3.23158 0.43639,-0.83333 1.66732,-1.54889 2.28196,-0.48755 0.38802,0.83886 -0.2416,1.78146 -0.56054,2.56798 -0.23125,0.88423 -1.20591,2.36482 -1.96652,1.03377 -0.97925,-0.87641 0.52047,-1.99918 0.68466,-2.97164 0.75433,-1.57505 1.58701,-3.12816 2.11574,-4.79682 -0.22831,0.95134 1.04994,0.89817 1.45536,0.8408 -0.86255,1.827 -1.47363,3.77408 -2.24744,5.63441 -0.58565,-0.46375 -2.27102,-0.43827 -1.42052,-1.48968 1.05312,-2.71405 2.65494,-5.16158 3.83258,-7.81731 0.19677,-1.46198 1.61399,0.10439 1.98141,0.47555 -0.69034,1.42621 -1.5713,2.78096 -2.0007,4.31836 0.19078,-1.05 -0.97236,-1.08674 -1.70927,-0.87926 0.79544,-1.78914 1.70555,-3.52969 2.51579,-5.31257 0.52976,-0.19561 1.38881,0.7876 1.81053,1.05073 -0.19024,0.42493 -0.53158,1.99639 -0.47306,0.91398 -0.75383,-0.11613 -2.49847,-0.0752 -1.5859,-1.22756 0.0396,-0.47718 0.60537,-1.09014 0.4512,-0.95564 0.13259,-0.59944 -0.062,0.31029 0.0523,-0.43515 0.13962,-1.07607 1.40684,-0.91187 1.9839,-0.66555 0.94705,0.3542 1.97977,0.0798 2.94589,0.30615 0.22048,0.0985 1.51241,0.12848 0.75091,0.1531 0.79118,-0.26704 1.79221,-0.33924 2.49863,-0.36406 1.01909,-0.23367 1.95068,0.72149 1.73945,1.72824 -0.4041,1.2367 -1.13411,2.3251 -1.54149,3.56116 -0.36455,0.66598 -0.60212,2.38262 -0.75847,2.4557 0.0545,-1.02378 -1.59645,-0.14757 -2.24211,-0.56895 -0.91576,-0.0714 0.27899,-1.83945 0.93233,-0.91816 0.58699,0.48402 2.05303,0.94741 0.97375,1.72913 -0.70251,0.95795 -1.84562,1.42336 -2.59065,2.34225 -1.01243,1.01723 -1.89323,2.17869 -3.02764,3.06462 -1.00523,0.55067 -2.27778,1.25058 -3.39927,0.59155 -0.82985,-0.18503 -1.86831,-0.44476 -2.0927,-1.40601 -0.36844,-1.13569 0.21552,-2.29488 0.54636,-3.37204 1.10326,-2.82791 2.51661,-5.52408 3.60954,-8.35741 0.18235,-1.08279 1.20382,-1.75048 2.03564,-0.78021 0.86482,0.32266 1.06717,1.00184 0.6116,1.7844 -1.146,3.51067 -2.7171,6.89609 -3.47512,10.524 0.34277,-1.11358 -1.00399,-1.19358 -1.74872,-1.16257 -0.50765,8e-5 -0.62902,0.20924 -0.24437,-0.36088 1.34392,-2.55304 2.81073,-5.04518 4.0347,-7.65916 0.31516,-0.53257 0.66484,-2.11382 0.43861,-0.81735 0.8122,0.0647 1.81078,0.88621 2.47233,0.57511 -0.21039,0.67346 -0.87978,2.19116 -1.19207,3.17614 -0.54051,1.50507 -1.09597,3.0138 -1.44364,4.57698 0.27177,-0.93453 -1.21756,-1.17003 -1.8252,-1.5403 -0.46493,0.20512 -0.66878,0.53293 -0.30051,-0.0977 1.24896,-2.48813 2.69325,-4.87642 3.93452,-7.36425 0.81357,0.35895 2.00747,0.92698 2.41396,1.58056 -0.66226,1.93881 -1.32006,3.88169 -1.92187,5.83904 0.10763,-1.0599 -0.92197,-2.02479 -1.96003,-1.85776 -0.38286,0.23402 -0.51743,0.95897 -0.20748,0.15514 0.9355,-1.7833 1.83802,-3.58505 2.7694,-5.36986 0.29888,-0.70429 1.11096,0.71872 1.66148,0.8298 0.52234,0.34102 1.26027,0.56435 0.65166,1.23461 -0.46265,1.16014 -0.94051,2.33352 -1.17225,3.5647 0.22064,-0.87069 -0.94251,-1.72708 -1.72344,-1.66422 -0.45906,0.2611 -0.88813,0.49505 -0.42765,-0.14451 0.59928,-1.22001 1.15983,-2.4716 1.49026,-3.79379 0.67326,-0.5666 1.68473,0.76425 2.5211,0.81126 0.84204,0.40651 -0.21685,1.81727 -0.38349,2.5456 -1.36957,2.69257 -2.94729,5.36298 -5.19161,7.42479 -1.00521,0.83905 -2.17431,1.76407 -3.5513,1.71652 -0.87739,0.2637 -1.98771,0.26151 -2.61687,-0.50423 -0.42252,-0.87441 0.0157,-2.149 0.9417,-2.50024 0.63323,-0.0801 1.40954,-0.60853 1.44918,0.40846 0.91649,-0.81048 1.67655,0.63214 1.0515,1.29905 0.13313,1.10974 -1.38125,1.20166 -2.15351,1.22138 0.07,-0.86271 1.03415,-1.50292 0.94312,-2.42868 -0.22903,-0.53974 -1.29178,-0.33362 -0.20458,-0.51378 0.35196,-0.11866 0.85213,-0.0261 0.76198,-0.0724 2.25508,-1.19391 3.52701,-3.52794 4.8698,-5.58863 0.60616,-1.03772 1.21971,-2.15143 1.44538,-3.32202 0.99685,0.16529 2.02111,0.0947 3.01376,0.13996 -0.0847,0.91945 -0.5057,1.83898 -0.82985,2.71934 -0.55894,1.09283 -0.91278,2.45496 -1.94207,3.18903 -0.80995,0.89844 -2.40796,-0.009 -2.44223,-1.08267 0.17324,-1.48631 0.778,-2.89189 1.28652,-4.29102 0.22147,-0.61238 0.40459,-1.24731 1.12213,-0.62092 0.628,0.30737 1.88813,0.60749 2.21743,0.72546 -0.81018,0.80334 -1.08673,2.02483 -1.69107,2.99053 -0.72202,1.27693 -1.21303,2.74829 -2.28047,3.78958 -0.93831,0.72774 -2.59729,-0.29895 -2.26939,-1.48581 0.59787,-2.13899 1.33975,-4.24093 2.09617,-6.32993 0.81439,0.22603 1.93557,1.46064 2.60789,1.01754 -1.30891,2.54788 -2.73164,5.03739 -4.08024,7.56478 -0.51623,1.47843 -1.90445,0.48627 -2.78479,-0.0167 -0.24507,-0.81386 0.30605,-1.67454 0.46407,-2.49191 0.74943,-2.37661 1.57224,-4.73933 2.59948,-7.01066 0.49386,-0.81874 1.80752,0.009 2.49832,0.28405 0.4053,0.76914 -0.25852,1.6242 -0.47427,2.37606 -1.21484,2.76942 -2.81286,5.34901 -4.202,8.03106 -0.36929,1.06732 -1.21481,1.48035 -2.28416,1.25868 -1.2134,0.0346 -1.00554,-1.3924 -0.71538,-2.16082 0.86419,-3.64294 2.43319,-7.06253 3.56023,-10.6231 0.46052,0.59398 1.506,0.93303 2.29032,1.13551 0.57657,-1.03044 -0.21506,0.75232 -0.33185,1.09374 -1.05341,2.70311 -2.45937,5.25796 -3.42398,7.99528 -0.22023,0.56119 -0.19914,1.51172 -0.61988,0.5155 -0.84868,-0.46635 1.64794,0.37832 0.8138,0.23899 1.08264,-0.24977 1.70363,-1.23297 2.45613,-1.96004 0.97218,-1.02146 1.89078,-2.12269 3.09188,-2.88581 0.48868,-0.85943 1.51377,-1.10292 2.33793,-0.54187 1.22322,0.42946 0.55911,2.09205 -0.59566,1.85751 -0.82429,0.12835 -2.10059,-0.48704 -1.32015,-1.43319 0.007,0.17691 0.22697,-1.1763 0.38574,-1.54895 0.41881,-1.06965 0.82938,-2.14056 1.39879,-3.14161 0.15952,-0.38678 0.46568,-1.28776 0.35462,-0.32252 -0.22479,0.6639 1.22619,1.04493 0.97784,1.03966 -0.89921,-0.005 -1.50087,0.11214 -2.35985,0.32741 -0.79732,-0.0799 -1.58078,-0.25281 -2.41478,-0.45854 -0.94626,0.0169 -1.87176,-0.35654 -2.71589,-0.6523 -1.13494,-0.67968 1.2818,0.21255 1.14399,-0.78911 0.1478,-0.58171 -0.0396,0.71095 0.0428,0.11055 -0.17199,0.93803 -0.72392,1.69788 -1.00998,2.623 -0.69418,-0.26416 -2.55783,0.36452 -1.90307,-0.94894 0.1404,-0.96269 0.57328,-1.45665 1.41471,-0.73603 0.33323,0.0982 0.79921,0.87198 0.97034,0.21053 -0.71256,1.76228 -1.68117,3.4062 -2.42408,5.156 -0.29432,0.87618 -2.12221,1.17821 -2.14321,-0.0514 -0.14396,-0.94159 0.51066,-1.84753 0.84515,-2.71268 0.54759,-0.82229 0.85312,-2.21065 1.58914,-2.65264 0.88828,0.14186 2.31572,0.40903 1.35651,1.54846 -1.26269,2.60454 -2.75144,5.0984 -3.88975,7.76475 -0.1101,1.21746 -1.1697,0.39844 -1.80844,0.10364 -0.77489,-0.37624 0.45386,-1.47419 0.45337,-2.14186 0.60599,-1.46291 1.01574,-3.03489 1.89806,-4.36482 0.92952,-0.71468 2.38003,0.12132 1.68994,1.31646 -0.82238,2.35549 -2.14044,4.50038 -3.09954,6.79781 -0.32932,-0.68353 -1.71391,-1.26712 -1.62219,-0.79697 0.39654,-0.53854 0.72697,-1.76397 1.03618,-1.997 -0.0161,0.675 1.33605,0.6652 1.14942,0.57807 -0.33014,0.48389 -1.21584,1.21601 -0.11523,1.3883 0.90773,0.2392 -1.14996,1.38254 -0.16235,1.84003 -0.39853,-0.42432 -1.63256,-0.4579 -0.77394,-1.16355 0.48202,-0.37783 0.10831,-1.41801 0.76897,-0.85966 0.90498,0.36148 1.75747,0.85297 2.58376,1.36904 -0.20608,0.33836 -1.80867,0.80153 -0.99217,1.47434 -0.25335,-0.56904 -1.43245,-0.93382 -2.14055,-1.3384 -0.64322,-0.27543 -1.85294,-1.0267 -0.9535,-1.73242 0.20567,-0.12941 0.47802,-0.11089 0.68185,0.003 z"
         style="color:#000000;fill:#f9f9f9;fill-opacity:1;fill-rule:nonzero;stroke:none;stroke-width:2;marker:none;visibility:visible;display:inline;overflow:visible;enable-background:accumulate" />
      <path
         inkscape:connector-curvature="0"
         id="path12862"
         d="m 395.05829,353.94704 c 0.0176,0.81302 -0.0807,2.19946 -0.47768,2.62953 -0.62014,-0.26463 -1.08104,-0.63828 -0.33954,-1.13122 0.52138,-0.29598 0.81419,-1.77898 1.14203,-1.53602 0.56702,0.35894 1.32835,0.69649 0.58507,1.31227 -0.31557,0.44407 -0.79078,1.7334 -0.85014,1.74841 -0.0535,-0.74656 -1.39724,-0.34082 -0.64094,-0.88262 0.73068,-0.60387 0.89639,-2.26759 2.0791,-1.95006 1.13532,0.32967 0.15703,1.82018 0.003,2.56412 -0.25858,0.59716 -0.0915,0.99533 -0.43645,0.3274 -0.4129,-0.24929 -1.08699,0.005 -0.44896,-0.54601 0.50556,-0.68804 0.82244,-1.51658 1.14344,-2.28211 0.71155,0.15365 1.93412,-0.0439 1.44593,1.05487 -0.0614,0.82906 -0.3009,1.6899 -0.0947,2.50821 -0.30063,-0.63989 -0.80583,-0.48631 -1.25987,-0.14525 -0.56093,0.50966 -0.43316,-1.12967 -0.89259,-1.45187 -0.26233,-0.4987 -0.7432,-1.2079 -0.97597,-1.50765 0.7378,0.49636 0.96606,-1.33903 1.22739,-1.03533 1.08685,0.4512 2.16859,1.05138 3.37375,1.07588 -0.79256,0.0262 -0.13568,1.46131 -0.9914,0.6614 -1.14224,-0.56703 -2.35438,-1.00082 -3.58899,-1.31095 0.63823,-0.0318 0.18396,-1.88063 1.16908,-1.14394 0.92589,0.35016 1.89233,0.62973 2.74892,1.13615 1.01586,0.82002 -0.39151,2.08941 -1.36244,1.47634 -0.98973,-0.007 -2.34393,-1.46707 -1.05218,-2.08289 1.05449,-0.31912 1.88682,0.75693 2.21981,1.62688 0.37934,1.07866 0.58576,2.46164 -0.16472,3.4218 -1.26234,0.71638 -1.7288,-1.17167 -1.15853,-2.03478 -0.0195,-0.99546 1.16524,-2.3299 1.94335,-1.18856 0.23604,0.80387 -0.0388,2.17221 -0.0399,2.65526 -0.0608,-0.71381 -1.37329,-0.32826 -0.47512,-0.95092 0.70223,-0.75704 1.31942,-1.62391 2.14889,-2.24177 0.99825,-0.42541 1.80086,0.99602 0.86256,1.65148 -0.5769,0.71754 -1.35177,1.24206 -1.94567,1.94251 0.49333,-0.66421 -0.0354,-1.49863 -0.85578,-1.20384 1.28391,-0.85036 2.49233,-1.86629 3.60958,-2.89031 0.0391,-0.22743 0.53316,1.56373 0.85213,1.1495 -1.528,1.19501 -3.03042,2.46583 -4.32587,3.90519 -0.40473,-0.55734 -1.86697,-0.84153 -0.75136,-1.53717 0.67406,-0.73151 1.38823,-1.42479 2.06218,-2.15655 -0.83293,0.45251 0.5658,1.19035 0.48169,1.26911 -0.80217,0.0459 -1.82955,1.35658 -2.45563,0.76288 -0.63159,-0.61102 -0.6011,-1.37958 0.30217,-1.68756 1.92314,-1.36978 4.10251,-2.42758 5.76242,-4.13407 -0.54727,0.87828 0.58488,0.95097 0.83758,1.29395 -1.29864,1.17955 -2.57487,2.40003 -4.0494,3.36366 -0.45485,-0.70646 -1.20486,-1.5766 0.006,-1.86568 1.71141,-1.0936 3.44388,-2.29334 4.62928,-3.96888 -0.18347,0.57906 -0.40299,1.62552 0.57832,1.02944 -0.0463,0.30326 -1.21061,0.83873 -1.55386,1.31779 -0.43882,0.28767 -1.22028,1.47148 -1.32822,1.32064 0.10577,-0.58929 -0.26552,-1.12445 -0.91496,-0.98607 1.55873,-1.19501 3.13014,-2.44314 4.30071,-4.0345 0.50157,0.44473 1.96469,0.96086 0.87072,1.65047 -0.56267,0.96863 0.21464,-0.62746 -0.59472,-0.67015 -0.45355,-0.16491 -1.12577,0.12139 -0.44085,-0.40293 0.55553,-0.65122 1.19671,-1.21815 1.88025,-1.72992 -0.56148,0.4803 0.0938,1.46585 0.48968,1.46686 -1.29191,0.33118 -1.14121,-2.10086 -0.34094,-1.82744 0.34292,0.62417 1.44576,1.22172 0.4043,1.73436 -1.48132,1.35161 -3.22829,2.40365 -4.53333,3.94842 -1.14513,1.30379 -2.73154,2.16811 -3.75767,3.57764 -0.0851,0.85447 -0.28731,1.98353 -1.37802,2.02441 -0.81515,0.0774 -1.74765,0.2633 -2.49234,-0.1683 -0.93876,-0.44142 -0.7884,-1.54336 0.18559,-1.83378 0.6107,-0.0664 1.81162,0.88419 1.9748,0.98203 -0.56761,0.56702 -0.86301,1.84678 -1.77214,1.00785 -1.15086,-0.61607 -2.62035,-0.91299 -3.31953,-2.1276 -0.79768,-0.76631 -0.45951,-2.53008 0.88937,-2.16803 0.71409,0.66835 1.4086,1.39803 2.19425,2.00424 0.5158,0.85356 1.82185,0.1756 2.24403,1.16574 -0.1898,-0.53364 -1.36528,-0.21585 -0.355,-0.62302 0.98556,-0.47471 1.82635,-1.47716 3.02502,-1.26568 1.28567,0.3651 -0.2055,1.70162 -0.74964,2.19042 -0.38369,0.52698 -1.77689,1.08724 -1.71124,0.9918 -0.88477,0.67992 -2.25351,0.10221 -2.95748,-0.59778 -0.52887,-0.84727 -1.34324,-1.50671 -2.24976,-1.91402 -1.09482,-0.56049 -0.39148,-2.0315 -0.002,-2.6075 -0.40969,0.43755 0.92957,1.28824 0.0896,0.70712 -0.42901,-0.58897 -0.002,0.20023 0.35046,-0.26952 0.60569,-0.25431 1.42575,-0.34706 0.85271,0.49821 -0.15733,0.4794 -0.35513,1.29772 -1.00934,0.74417 -0.27221,0.46975 -1.36353,-0.49332 -0.69929,-1.00512 0.16066,-0.82591 1.08551,-2.4055 1.78331,-1.04093 0.36289,0.3337 -0.75937,-0.68667 -0.0735,-0.14706 0.79512,0.42836 0.036,1.91737 -0.23465,1.93181 -0.4834,-0.64091 0.93939,0.32299 1.16767,0.5645 0.8468,0.44529 1.10448,1.64122 2.11354,1.73562 -0.11742,0.0669 -0.7529,0.48457 -0.1151,0.008 0.88426,-0.23306 1.59386,-0.78083 2.20771,-1.44619 0.30994,0.47281 1.24112,1.45955 0.17012,1.69383 -0.81135,0.42293 -1.59898,1.28824 -2.58515,1.08752 -0.31333,-0.10699 -0.728,-0.64774 -0.17722,-0.21772 -1.07036,0.13103 -1.85927,-0.5941 -2.58712,-1.25803 -0.46909,-0.37952 -1.54851,-1.36917 -1.52394,-1.50419 0.49769,-0.0802 1.23626,-8.1e-4 1.22117,-0.71207 0.16687,0.62107 -0.1806,0.27962 0.042,0.39448 0.63577,0.98809 1.9147,1.16679 2.87696,1.72181 1.23593,0.0851 0.0178,1.68841 0.13041,2.05882 -0.54132,-0.59158 -1.4486,-0.78497 -1.9659,-1.42459 -0.23946,-0.90074 1.63426,-1.29512 1.39014,-0.79542 0.39346,0.2529 1.8598,-0.41313 1.21387,0.30555 -0.0131,-1.12126 0.6021,-2.08452 1.43051,-2.79376 1.18,-1.07679 2.46852,-2.03652 3.52508,-3.24492 1.3616,-1.4353 3.07898,-2.46246 4.48936,-3.84074 0.34454,0.14542 1.38913,1.73507 1.28498,0.74015 0.072,-0.69256 -1.50882,-0.78121 -0.36686,-0.65475 0.81981,0.82139 0.38832,1.69806 -0.54496,2.14577 -0.74341,0.48008 -1.12879,1.6916 -2.11722,1.65062 -1.28169,-0.0673 -0.73699,-1.50196 -0.13921,-2.07309 0.34498,-0.77383 1.28564,0.18277 1.80323,0.3752 -0.8716,1.42215 -2.21171,2.50693 -3.47697,3.57759 -0.68633,0.46365 -1.30055,1.27835 -2.19167,1.23431 -1.13663,-0.0776 -0.66945,-1.47852 -0.0229,-1.93216 1.01332,-1.10315 2.08648,-2.2679 3.49384,-2.85221 0.96801,-0.0925 1.54015,1.18196 0.7653,1.84392 -1.59884,1.88549 -3.66981,3.288 -5.73681,4.60251 -0.562,-0.50089 -1.57359,-1.37455 -0.39502,-1.76384 1.32898,-0.90845 2.44278,-2.07745 3.64886,-3.13041 1.03574,-0.12606 1.76941,0.88466 0.80725,1.60193 -1.91083,1.7716 -4.27167,2.94337 -6.36845,4.46137 0.0752,-0.4986 -0.43965,-1.60528 -0.73462,-1.35041 0.87302,-0.42736 1.73094,-0.99796 2.7121,-1.11298 1.62251,0.33796 0.49308,1.9106 -0.33642,2.44037 -0.64308,0.45423 -1.14058,1.56755 -1.84536,1.67469 -0.47582,-0.58891 -1.48242,-1.05322 -0.41579,-1.64762 1.28947,-1.31143 2.6823,-2.52502 4.14473,-3.6392 0.83717,-0.97944 2.13214,0.72177 1.09723,1.36114 -1.22512,1.15719 -2.54358,2.22501 -3.95192,3.1515 -0.95198,0.61611 -1.90934,-1.17191 -0.74669,-1.62691 0.54431,-0.54086 1.12233,-1.04808 1.64424,-1.61094 -0.39014,0.81236 1.41245,0.78963 0.98084,0.9056 -0.88323,0.85971 -1.53972,1.9603 -2.55838,2.67525 -1.25135,0.51446 -1.65232,-1.02082 -1.31785,-1.94289 0.0948,-0.49915 -0.1458,-1.37195 0.39255,-0.64071 0.38909,0.17406 1.06349,0.0532 1.04603,-0.2676 -0.20935,0.37127 -0.30577,1.41348 -0.46106,1.49424 -0.19252,-0.78827 -1.44468,-0.37687 -1.38711,-0.14173 0.25339,-0.82862 -0.13482,-1.86512 -0.49916,-2.43694 0.78799,0.10547 0.59708,-1.25706 0.53537,-1.15988 0.4309,0.26255 1.01421,0.0543 0.4918,0.54719 -0.33795,0.3148 -0.063,1.06603 0.0278,0.98912 -1.01635,-0.52993 -2.12669,-0.84884 -3.18832,-1.26517 -0.0596,-0.72459 0.0876,-1.99814 1.10759,-1.35801 1.55259,0.4333 3.15061,0.96891 4.41527,2.00013 0.79457,1.08707 -0.66075,1.8591 -1.56443,1.22566 -1.17681,-0.39226 -2.45648,-0.50964 -3.56189,-1.08991 -1.05968,-0.44652 0.56083,-2.29608 1.10962,-1.09015 0.95424,1.24412 1.86035,2.66622 1.99229,4.26488 -0.36654,1.07338 -1.95504,0.83322 -1.77618,-0.41072 -0.0337,-0.98024 -0.005,-1.96924 0.18285,-2.93442 0.6349,0.2207 2.09016,-0.0813 1.25578,0.96891 -0.517,0.91745 -1.02522,1.89233 -1.8215,2.59751 -1.04682,0.44884 -1.62073,-0.85602 -1.09801,-1.66366 0.18486,-0.51457 0.41878,-1.36385 0.57511,-1.65472 0.11577,0.89183 1.8779,-0.18894 0.96666,0.69607 -0.56232,0.77879 -1.02392,1.72097 -1.8813,2.21512 -1.30535,0.16151 -1.06163,-1.42917 -0.58157,-2.16528 0.30763,-0.7129 0.73014,-1.4235 1.19099,-2.01683 0.60273,0.21543 1.88012,0.58973 0.8507,1.27795 -0.67156,0.39897 -0.98802,1.82145 -1.76194,1.73775 -1.33961,-0.15544 -0.2223,-1.25634 -0.26752,-2.09533 -0.14271,-0.67525 0.51759,-1.64941 0.92387,-0.6051 z"
         style="color:#000000;fill:#b3b3b3;fill-opacity:1;fill-rule:nonzero;stroke:none;stroke-width:2;marker:none;visibility:visible;display:inline;overflow:visible;enable-background:accumulate" />
      <path
         inkscape:connector-curvature="0"
         id="path12774"
         d="m 397.00826,353.15953 c 0.92384,0.65897 1.9659,1.13739 2.88321,1.79618 -0.10057,0.65594 -1.38447,-0.33945 -1.83705,-0.58767 -0.33035,-0.37437 -1.64263,-0.70013 -1.21606,-1.24716 l 0.0818,-1.2e-4 0.0881,0.0388 -2e-5,10e-6 z"
         style="color:#000000;fill:#000000;fill-opacity:1;fill-rule:nonzero;stroke:none;stroke-width:2;marker:none;visibility:visible;display:inline;overflow:visible;enable-background:accumulate" />
      <path
         inkscape:connector-curvature="0"
         id="path12776"
         d="m 401.01526,354.39262 c 1.65774,-1.57201 3.55441,-2.86809 5.25881,-4.38945 1.52383,-1.25531 2.95515,-2.61754 4.36605,-3.99469 0.94833,-0.37697 -0.15342,1.01119 -0.52474,1.21955 -2.76962,2.68855 -5.92298,4.93154 -8.90861,7.36585 -0.1273,0.1453 -0.34296,-0.0813 -0.19151,-0.20126 z"
         style="color:#000000;fill:#000000;fill-opacity:1;fill-rule:nonzero;stroke:none;stroke-width:2;marker:none;visibility:visible;display:inline;overflow:visible;enable-background:accumulate" />
      <path
         inkscape:connector-curvature="0"
         id="path12804"
         d="m 400.89142,353.65973 c 0.23041,-1.47142 1.142,-2.71433 1.73777,-4.05507 1.27534,-2.45278 2.25677,-5.04814 3.07286,-7.68414 0.87054,-0.40084 -0.009,1.41784 -0.10417,1.84796 -1.04894,3.11511 -2.6456,5.9971 -4.09278,8.93455 -0.18957,0.1234 -0.31213,1.57409 -0.61368,0.9567 z"
         style="color:#000000;fill:#000000;fill-opacity:1;fill-rule:nonzero;stroke:none;stroke-width:2;marker:none;visibility:visible;display:inline;overflow:visible;enable-background:accumulate" />
      <path
         inkscape:connector-curvature="0"
         id="path12808"
         d="m 397.27776,350.51197 c 1.29265,-3.58017 2.86318,-7.05768 4.65103,-10.41756 0.0878,-0.53899 1.10015,-1.62183 0.80235,-0.41282 -0.81851,1.74633 -1.81903,3.40886 -2.6029,5.17555 -0.89776,1.90529 -1.67176,3.86658 -2.58537,5.76455 -0.0595,0.19089 -0.35824,0.0661 -0.26511,-0.10972 z"
         style="color:#000000;fill:#000000;fill-opacity:1;fill-rule:nonzero;stroke:none;stroke-width:2;marker:none;visibility:visible;display:inline;overflow:visible;enable-background:accumulate" />
      <path
         inkscape:connector-curvature="0"
         id="path12810"
         d="m 402.66924,339.40413 c 1.25755,0.10791 2.44274,0.70332 3.43768,1.45744 0.33457,0.99052 -1.05696,-0.21771 -1.41742,-0.36383 -0.56156,-0.53091 -2.04361,-0.37686 -2.15954,-1.06329 l 0.0605,-0.0285 0.0786,-0.002 10e-5,2e-5 z"
         style="color:#000000;fill:#000000;fill-opacity:1;fill-rule:nonzero;stroke:none;stroke-width:2;marker:none;visibility:visible;display:inline;overflow:visible;enable-background:accumulate" />
      <path
         inkscape:connector-curvature="0"
         id="path12814"
         d="m 406.42801,340.77551 c 1.57267,0.36083 3.20876,0.31555 4.81228,0.32626 0.70621,-0.43695 1.33499,0.64691 0.33486,0.58658 -1.67111,-0.0231 -3.37694,0.025 -5.01471,-0.35185 -0.45128,0.0112 -0.77442,-0.66805 -0.13243,-0.56099 z"
         style="color:#000000;fill:#000000;fill-opacity:1;fill-rule:nonzero;stroke:none;stroke-width:2;marker:none;visibility:visible;display:inline;overflow:visible;enable-background:accumulate" />
      <path
         inkscape:connector-curvature="0"
         id="path12816"
         d="m 412.37346,341.29127 c -0.70051,1.21957 -0.94594,2.63814 -1.46443,3.9387 -0.0232,0.48526 -0.76904,1.45622 -0.53653,0.39931 0.49608,-1.39626 0.90614,-2.83464 1.52767,-4.18224 0.003,-0.28876 0.61362,-0.69573 0.47329,-0.15577 z"
         style="color:#000000;fill:#000000;fill-opacity:1;fill-rule:nonzero;stroke:none;stroke-width:2;marker:none;visibility:visible;display:inline;overflow:visible;enable-background:accumulate" />
      <path
         inkscape:connector-curvature="0"
         id="path12818"
         d="m 403.7028,339.78608 c 1.82246,0.28831 3.6661,0.4334 5.50192,0.59301 1.04199,0.30735 -0.80123,0.52893 -1.1581,0.37834 -1.49184,-0.15597 -3.00382,-0.25498 -4.4649,-0.60671 -0.25655,-0.0665 -0.12373,-0.46481 0.12108,-0.36464 z"
         style="color:#000000;fill:#000000;fill-opacity:1;fill-rule:nonzero;stroke:none;stroke-width:2;marker:none;visibility:visible;display:inline;overflow:visible;enable-background:accumulate" />
      <path
         inkscape:connector-curvature="0"
         id="path12820"
         d="m 408.86008,340.30132 c 0.99188,0.30862 2.24957,-0.003 3.08891,0.58526 -1.00834,0.24462 -2.19207,-0.102 -3.22937,-0.28347 -0.15785,-0.10323 -0.033,-0.35321 0.14046,-0.30179 z"
         style="color:#000000;fill:#000000;fill-opacity:1;fill-rule:nonzero;stroke:none;stroke-width:2;marker:none;visibility:visible;display:inline;overflow:visible;enable-background:accumulate" />
      <path
         inkscape:connector-curvature="0"
         id="path12822"
         d="m 401.04622,355.37232 c -0.067,1.48665 -0.87231,2.9103 -1.29965,4.22731 -0.31788,-0.46392 -0.058,0.58206 -0.49882,-0.0164 0.33327,-1.47393 1.27408,-2.77599 1.40545,-4.31196 0.0877,-0.20825 0.41525,-0.12451 0.39302,0.10103 z"
         style="color:#000000;fill:#000000;fill-opacity:1;fill-rule:nonzero;stroke:none;stroke-width:2;marker:none;visibility:visible;display:inline;overflow:visible;enable-background:accumulate" />
      <path
         inkscape:connector-curvature="0"
         id="path12824"
         d="m 395.9708,352.37602 c -0.44402,1.74166 -1.71457,3.1467 -2.15039,4.89941 -0.11894,0.3462 -0.17715,-0.13282 -0.31803,0.18128 -0.41921,-0.28618 0.29765,-1.38681 0.48222,-1.94464 0.56774,-1.11175 1.24362,-2.1914 1.66761,-3.35809 0.14942,-0.10455 0.36816,0.0428 0.31859,0.22204 z"
         style="color:#000000;fill:#000000;fill-opacity:1;fill-rule:nonzero;stroke:none;stroke-width:2;marker:none;visibility:visible;display:inline;overflow:visible;enable-background:accumulate" />
      <path
         inkscape:connector-curvature="0"
         id="path12826"
         d="m 393.8153,356.25766 c 1.49041,1.47185 3.43121,2.38829 5.28173,3.30063 0.12063,0.91212 -1.35165,-0.17152 -1.83058,-0.34867 -1.35219,-0.75045 -2.79283,-1.4951 -3.78684,-2.71289 -0.18268,-0.22085 0.18676,-0.48385 0.33569,-0.23907 z"
         style="color:#000000;fill:#000000;fill-opacity:1;fill-rule:nonzero;stroke:none;stroke-width:2;marker:none;visibility:visible;display:inline;overflow:visible;enable-background:accumulate" />
      <path
         inkscape:connector-curvature="0"
         id="path12830"
         d="m 400.89838,358.3164 c 0.99079,-1.69323 2.51111,-2.98902 3.85103,-4.3973 1.50062,-1.51396 3.02666,-3.01456 4.37555,-4.66513 1.02308,-0.77001 0.17142,0.83977 -0.2823,1.05601 -2.31576,2.69491 -5.10703,4.95306 -7.32235,7.73745 -0.11376,0.20055 -0.60619,0.95856 -0.62193,0.26897 z"
         style="color:#000000;fill:#000000;fill-opacity:1;fill-rule:nonzero;stroke:none;stroke-width:2;marker:none;visibility:visible;display:inline;overflow:visible;enable-background:accumulate" />
      <path
         inkscape:connector-curvature="0"
         id="path12832"
         d="m 410.16179,347.34735 c -0.4754,1.19462 -0.95883,2.3886 -1.32214,3.62337 -0.62021,0.47022 -0.001,-1.02825 0.11722,-1.35339 0.33049,-0.81639 0.57969,-1.69606 1.08338,-2.4216 0.0834,-0.0295 0.17357,0.0725 0.12154,0.15162 z"
         style="color:#000000;fill:#000000;fill-opacity:1;fill-rule:nonzero;stroke:none;stroke-width:2;marker:none;visibility:visible;display:inline;overflow:visible;enable-background:accumulate" />
      <path
         inkscape:connector-curvature="0"
         id="path12840"
         d="m 399.62992,352.24481 c 1.21186,-2.55857 2.31468,-5.16708 3.55314,-7.71385 0.41154,-0.79016 0.7068,-1.71564 1.2383,-2.40295 0.0836,0.68188 -0.65894,1.45075 -0.86902,2.16615 -1.30726,2.64994 -2.41241,5.39227 -3.71545,8.04374 -0.0514,0.14922 -0.28442,0.0444 -0.20697,-0.0931 z"
         style="color:#000000;fill:#000000;fill-opacity:1;fill-rule:nonzero;stroke:none;stroke-width:2;marker:none;visibility:visible;display:inline;overflow:visible;enable-background:accumulate" />
      <path
         transform="matrix(0.52651616,0,0,0.52651616,171.95194,-128.46277)"
         inkscape:connector-curvature="0"
         id="path12846"
         d="m 431.62386,912.38525 c 1.18186,-3.19052 2.84882,-6.17993 4.10577,-9.34407 1.35544,-3.21828 3.14532,-6.23439 4.41409,-9.48915 1.67276,-1.34098 0.85215,1.64015 0.25165,2.33184 -1.851,3.7953 -3.81021,7.53972 -5.56867,11.38169 -0.93003,1.83992 -1.78443,3.76394 -2.76343,5.55031 -0.26526,0.12859 -0.56115,-0.17482 -0.43941,-0.43062 z"
         style="color:#000000;fill:#03e4e7;fill-opacity:1;fill-rule:nonzero;stroke:none;stroke-width:2;marker:none;visibility:visible;display:inline;overflow:visible;filter:url(#filter12872);enable-background:accumulate" />
    </g>
  </g>
</svg>
