<?xml version="1.0" encoding="UTF-8" standalone="no"?>
<!-- Created with Inkscape (http://www.inkscape.org/) -->

<svg
   xmlns:dc="http://purl.org/dc/elements/1.1/"
   xmlns:cc="http://creativecommons.org/ns#"
   xmlns:rdf="http://www.w3.org/1999/02/22-rdf-syntax-ns#"
   xmlns:svg="http://www.w3.org/2000/svg"
   xmlns="http://www.w3.org/2000/svg"
   xmlns:sodipodi="http://sodipodi.sourceforge.net/DTD/sodipodi-0.dtd"
   xmlns:inkscape="http://www.inkscape.org/namespaces/inkscape"
   id="svg2"
   height="32"
   width="32"
   version="1.1"
   inkscape:version="0.48.2 r9819"
   sodipodi:docname="facebook_logout.svg">
  <metadata
     id="metadata15">
    <rdf:RDF>
      <cc:Work
         rdf:about="">
        <dc:format>image/svg+xml</dc:format>
        <dc:type
           rdf:resource="http://purl.org/dc/dcmitype/StillImage" />
      </cc:Work>
    </rdf:RDF>
  </metadata>
  <sodipodi:namedview
     pagecolor="#ffffff"
     bordercolor="#666666"
     borderopacity="1"
     objecttolerance="10"
     gridtolerance="10"
     guidetolerance="10"
     inkscape:pageopacity="0"
     inkscape:pageshadow="2"
     inkscape:window-width="640"
     inkscape:window-height="480"
     id="namedview13"
     showgrid="false"
     inkscape:zoom="7.375"
     inkscape:cx="16"
     inkscape:cy="16"
     inkscape:window-x="0"
     inkscape:window-y="27"
     inkscape:window-maximized="0"
     inkscape:current-layer="layer1" />
  <defs
     id="defs4">
    <linearGradient
       id="linearGradient3762"
       y2="326.67"
       gradientUnits="userSpaceOnUse"
       x2="324.6"
       y1="326.67"
       x1="292.6">
      <stop
         id="stop3771"
         stop-color="#b4b5b8"
         offset="0" />
      <stop
         id="stop3773"
         stop-color="#494a4c"
         offset="1" />
    </linearGradient>
  </defs>
  <g
     id="layer1"
     transform="translate(-292.57144,-310.64789)">
    <rect
       id="rect2998"
       fill-rule="evenodd"
       rx="3.8448"
       ry="3.8482"
       height="32"
       width="32"
       y="310.67"
       x="292.6"
       fill="url(#linearGradient3762)" />
    <g
       transform="scale(0.9995472,1.000453)"
       style="font-size:19.23252106px;font-style:normal;font-weight:normal;text-align:start;line-height:125%;letter-spacing:0px;word-spacing:0px;text-anchor:start;fill:#ffffff;font-family:Sans"
       id="text2993">
      <path
         d="m 316.10982,323.72842 0,16.75333 -5.2589,0 0,-16.75333 -2.96751,0 0,-3.56853 2.96751,0 0,-2.12234 c 0,-0.77629 0.0939,-1.49 0.28173,-2.14112 0.18781,-0.6636 0.5071,-1.23957 0.95787,-1.72792 0.45076,-0.4883 1.05803,-0.8702 1.82183,-1.14569 0.76378,-0.27544 1.71539,-0.41317 2.85483,-0.4132 0.601,3e-5 1.1895,0.0313 1.76548,0.0939 0.58849,0.0626 1.11437,0.1315 1.57767,0.2066 l 0,3.3995 c -0.22539,-0.0501 -0.48208,-0.0876 -0.77005,-0.11269 -0.27548,-0.0375 -0.53216,-0.0563 -0.77005,-0.0564 -0.48834,3e-5 -0.89528,0.0501 -1.22082,0.15026 -0.31304,0.10019 -0.56346,0.25044 -0.75127,0.45076 -0.1753,0.20036 -0.30052,0.45704 -0.37563,0.77005 -0.0751,0.30053 -0.1127,0.65112 -0.11269,1.05178 l 0,1.59645 4.00051,0 0,3.56853 -4.00051,0"
         style="font-size:38.46504211px;font-variant:normal;font-weight:bold;font-stretch:normal;fill:#ffffff;font-family:Arial"
         id="path2993" />
    </g>
    <rect
       id="rect3784"
       fill-rule="evenodd"
       fill-opacity="0.29412"
       rx="0.98926"
       ry="0.96206"
       height="6.6703"
       width="28.623"
       y="333.96"
       x="294.21"
       fill="#FFF" />
  </g>
</svg>
