<?xml version="1.0" encoding="UTF-8" standalone="no"?>
<!-- Created with Inkscape (http://www.inkscape.org/) -->

<svg
   xmlns:dc="http://purl.org/dc/elements/1.1/"
   xmlns:cc="http://creativecommons.org/ns#"
   xmlns:rdf="http://www.w3.org/1999/02/22-rdf-syntax-ns#"
   xmlns:svg="http://www.w3.org/2000/svg"
   xmlns="http://www.w3.org/2000/svg"
   xmlns:sodipodi="http://sodipodi.sourceforge.net/DTD/sodipodi-0.dtd"
   xmlns:inkscape="http://www.inkscape.org/namespaces/inkscape"
   width="23.609743"
   height="13.52666"
   id="svg7342"
   version="1.1"
   inkscape:version="0.48.2 r9819"
   sodipodi:docname="poop1.svg">
  <defs
     id="defs7344" />
  <sodipodi:namedview
     id="base"
     pagecolor="#ffffff"
     bordercolor="#666666"
     borderopacity="1.0"
     inkscape:pageopacity="0.0"
     inkscape:pageshadow="2"
     inkscape:zoom="7.919596"
     inkscape:cx="-14.830945"
     inkscape:cy="-1.869603"
     inkscape:document-units="px"
     inkscape:current-layer="layer1"
     showgrid="false"
     inkscape:window-width="1366"
     inkscape:window-height="712"
     inkscape:window-x="0"
     inkscape:window-y="27"
     inkscape:window-maximized="1"
     fit-margin-top="0"
     fit-margin-left="0"
     fit-margin-right="0"
     fit-margin-bottom="0" />
  <g
     inkscape:label="Layer 1"
     inkscape:groupmode="layer"
     id="layer1"
     transform="translate(-393.90942,-508.45599)">
    <path
       style="color:#000000;fill:#552200;fill-opacity:1;fill-rule:nonzero;stroke:none;stroke-width:0.30000001;marker:none;visibility:visible;display:inline;overflow:visible;enable-background:accumulate"
       d="m 395.29879,518.88103 c 0.096,-1.03924 0.63324,-2.24474 1.69884,-2.57994 1.24219,-0.15097 1.29773,1.69614 0.26108,2.05768 -0.49887,0.33368 -1.03202,1.7542 -1.52483,0.78614 -0.57717,-0.14341 -1.41566,-0.62389 -0.42471,-1.0083 1.63468,-1.22008 3.75506,-2.19584 5.82261,-1.66598 1.194,0.52095 2.33837,1.33077 3.69597,1.30135 1.15218,0.30644 0.82599,2.32398 -0.40614,2.21577 -2.74415,0.53907 -5.59374,0.44645 -8.34205,-0.0216 -1.28728,-0.0552 -1.70485,-2.03406 -0.41696,-2.45723 1.76943,-1.14742 3.91268,-1.50204 5.97915,-1.65153 0.75476,0.19786 0.25335,1.56903 0.16002,1.89209 -1.59556,0.23322 -3.23909,0.2458 -4.8173,-0.11345 0.51216,-0.68435 -0.63761,-2.09551 0.66301,-1.92172 1.08949,-0.36437 1.86361,0.71966 1.72564,1.67099 -0.44842,0.85832 -1.41244,0.10736 -1.08438,-0.67523 -0.0189,-0.65532 -0.41057,-1.00975 0.48232,-0.9791 2.31959,-0.40271 4.6977,-0.58456 7.04193,-0.29485 0.87577,0.81223 0.0285,2.42125 -1.1727,1.86029 -1.01062,-0.0725 -3.06028,-0.34333 -2.5593,-1.79722 0.39892,-1.00491 1.56012,-0.75261 2.4138,-0.78264 0.84093,0.0235 1.67922,0.14843 2.48959,0.37459 -1.44828,-0.53621 -0.18563,2.21689 -1.58458,1.81798 -0.85895,-0.0442 -2.64998,0.27773 -2.44927,-1.09912 -0.39147,-1.21726 1.16651,-1.40588 2.00255,-1.23257 1.49699,-0.01 2.9906,0.13166 4.4845,0.1698 0.39105,-0.01 0.47428,-0.97801 0.91285,-0.30843 0.39921,0.55519 1.46705,1.12742 0.31905,1.55757 -1.56689,0.81183 -2.18023,-1.34494 -1.37638,-2.38461 0.23837,-0.40084 1.11992,-1.64826 0.97599,-0.5931 0.26138,0.51843 1.65298,1.09655 0.62663,1.61401 -0.49646,1.21067 -2.87858,0.80256 -2.31875,-0.63843 0.45162,-1.30264 2.06901,-2.27848 3.39448,-1.68962 1.01483,0.61758 0.79548,2.1414 0.0861,2.91338 -0.45707,0.23453 -1.54317,-0.70937 -1.53055,-0.36614 0.54259,0.14086 2.07212,-0.14253 1.39946,0.86353 -0.33875,1.04019 -1.65613,2.01938 -2.70322,1.3105 -0.94434,-0.86545 0.22943,-2.19955 1.28119,-2.09867 1.08678,-0.18767 2.50366,0.18424 2.85514,1.3571 0.2816,1.25525 -1.13159,2.09829 -2.23993,1.93196 -1.02771,0.0924 -2.50008,-1.12023 -1.37386,-2.03067 0.96246,-0.71285 2.14261,-0.0727 3.18491,0.0688 1.35384,0.33114 2.84037,1.13783 3.20707,2.58375 0.0642,1.25617 -1.31888,1.76639 -2.3485,1.92496 -2.49648,0.46544 -5.00863,-0.17409 -7.4966,-0.38727 -1.4156,-0.17068 -2.83309,-0.32603 -4.2526,-0.46049 -1.2135,-0.55498 -0.49684,-2.4599 0.69013,-2.54684 2.12844,-0.76161 4.40735,-0.92495 6.64883,-1.00509 0.26611,0.33932 -0.85194,0.97843 -0.0343,1.22547 0.28592,1.26485 -1.6602,0.60746 -2.38907,0.9287 -1.57915,0.13605 -3.14759,0.36934 -4.71523,0.59882 0.4523,-0.45494 -0.32051,-1.94951 0.8161,-1.51841 1.10654,0.1659 2.73422,0.42577 2.86459,1.80563 -0.0264,1.45534 -1.79255,1.65564 -2.91582,1.66968 -1.80421,0.0886 -3.63955,-0.0566 -5.39713,-0.43785 0.33288,-0.0505 -1.39678,0.50733 -0.56546,0.009 0.0127,-0.71374 -0.75359,-1.90684 0.59723,-1.64388 5.06821,-0.52697 10.15558,0.10317 15.22685,0.17403 1.1199,-0.20244 1.46593,-1.7204 2.66489,-1.7511 0.36314,-0.0998 1.41614,0.19304 0.44358,0.0974 -0.68565,0.2149 -0.34693,1.98691 0.0167,1.6347 0.052,-0.4889 0.59778,-1.98796 1.00721,-0.91253 0.40414,1.00742 -0.66176,1.77757 -1.50336,1.24492 1.17659,-0.32767 -0.22535,0.78639 -0.48717,1.09245 -0.92362,0.88255 -2.28226,0.68039 -3.44847,0.80129 -1.1281,0.0628 -2.25871,0.003 -3.38629,0.0219 0.39366,0.0554 -0.87179,0.0844 -1.15602,0.12395 -3.73695,0.24689 -7.52817,0.35019 -11.22847,-0.31037 -1.30177,-0.46671 -0.69942,-2.36534 0.54533,-2.40238 1.66479,-0.52902 3.43794,-0.37982 5.15808,-0.47221 0.79996,0.2069 2.03499,-0.20729 2.53604,0.47939 -0.51292,0.42895 -0.21823,0.9189 -0.0761,1.4319 -1.13802,-0.10843 -2.60547,-0.20346 -3.36715,-1.20856 -0.60413,-0.87742 0.19356,-1.90617 1.02127,-2.26664 2.75083,-1.10355 5.84138,-1.37266 8.74202,-0.77372 1.09632,0.32843 1.31541,2.02006 0.25401,2.52364 -1.17651,0.64065 -2.56231,0.64023 -3.85291,0.86919 -1.19244,0.14011 -2.38892,0.25787 -3.58964,0.29252 -0.49817,-0.47509 0.0429,-1.80289 -0.44929,-1.92662 3.17553,-0.37835 6.35628,0.13141 9.48816,0.6217 0.6697,0.19399 2.25924,-0.54782 1.90911,0.73023 -0.82375,-0.35976 -2.20032,-0.57525 -3.22772,-0.93646 -0.50731,-0.11171 -0.95617,-0.32956 -0.16246,-0.37264 0.89803,-0.27665 0.34636,-1.57338 0.44978,-1.82871 0.6862,0.0497 -0.46648,-0.0617 0.1544,0.21514 0.0912,0.36174 -0.1155,1.22293 -0.32349,0.93235 0.3189,0.065 -0.63261,-0.0432 -0.2794,-0.47483 0.38781,-0.85502 -0.39347,-1.38999 -1.10417,-1.4767 0.29267,-0.86549 1.14997,-1.75033 2.14388,-1.28535 0.43163,-0.0486 0.69407,0.46192 0.25131,-0.0648 -0.27551,-0.62863 -1.82368,0.21837 -1.41054,-0.0419 0.19701,0.49597 1.198,0.28483 0.36295,0.64816 -0.81085,0.44891 -0.40786,-1.11807 -1.40012,-0.80464 -0.47795,0.036 -0.94426,0.13345 -0.3835,-0.38413 0.5686,-1.15486 2.12315,-1.35129 2.67345,-0.1024 0.27902,0.65491 -0.80131,2.35742 -1.28774,1.24668 -0.31384,-0.37287 -1.6498,0.35421 -0.82959,-0.38255 0.6387,-0.89374 2.63399,-0.0677 2.0421,1.03105 -0.36964,1.2599 -1.64562,1.90649 -2.88492,1.94176 -1.62796,0.19033 -3.26282,-0.0281 -4.88572,-0.16377 -0.46156,-0.23381 -1.64746,-0.65589 -0.98455,-1.5358 0.87355,-0.96423 2.44238,-0.62227 3.55704,-0.35705 1.13599,0.38435 0.7771,2.43066 -0.50947,2.0545 -0.91063,-0.34185 -2.00654,0.16857 -2.82211,-0.40676 -0.0952,-0.48992 0.25135,-1.03192 0.24701,-1.51886 0.4986,0.0119 2.01465,0.18212 1.93876,0.44609 -0.56164,0.5795 0.30928,2.09646 -0.98536,1.87669 -2.24994,0.29623 -4.52611,0.62616 -6.79835,0.39238 -1.24679,-0.63969 -0.0353,-2.63023 1.14013,-1.9267 1.01267,0.36628 1.08931,2.24195 -0.28035,1.82922 -0.90382,0.16508 -2.41889,0.24119 -2.0859,-1.12989 0.0177,-1.20514 1.46254,-0.80574 2.25375,-0.96688 1.24644,-0.0614 2.51195,-0.074 3.74341,0.13464 1.26128,0.29126 0.99863,2.14301 -0.19076,2.33867 -1.00921,0.21336 -2.00721,0.45995 -3.0149,0.6833 -0.86807,0.18152 -1.73882,0.34991 -2.60718,0.53006 -0.036,-0.73629 -0.58721,-1.80387 0.69461,-1.48936 2.43362,-0.19088 4.88285,-0.10411 7.30789,0.15697 0.51302,0.88086 0.0861,2.37934 -1.11995,1.68773 -1.28308,-0.0477 -2.28352,-1.13885 -3.50571,-1.20861 -1.62612,0.20897 -2.93848,1.339 -4.52732,1.64551 -1.40861,-0.0666 -0.94088,-1.93612 -0.0858,-2.46789 0.55208,-0.69863 1.51594,-1.88341 2.46738,-1.12192 1.10817,0.85563 -0.39252,1.93091 -1.05017,2.48143 -0.4874,0.17117 -1.00127,0.007 -1.49012,-0.0581 z"
       id="path6276"
       inkscape:connector-curvature="0" />
    <path
       style="color:#000000;fill:#000000;fill-opacity:1;fill-rule:nonzero;stroke:none;stroke-width:0.30000001;marker:none;visibility:visible;display:inline;overflow:visible;enable-background:accumulate"
       d="m 395.11592,517.092 c 0.93639,-0.82569 2.02566,-1.67668 3.33148,-1.7041 1.32961,0.38524 2.67522,0.7671 4.07343,0.74234 2.02192,0.0507 3.99944,-0.4468 5.98657,-0.71717 2.07112,-0.0234 4.11792,0.3843 6.13574,0.79991 0.82098,0.46641 1.52536,1.23973 2.49348,1.27224 0.76578,0.80744 0.43259,2.3297 -0.4509,2.91178 -1.17334,0.57838 -2.50989,0.65362 -3.78102,0.86125 -1.33728,0.13867 -2.64318,-0.23421 -3.95349,-0.41197 -1.29347,-0.18593 -2.45639,0.47749 -3.69981,0.6493 -1.51442,0.17202 -3.06055,0.0739 -4.54746,0.45726 -1.40683,0.16367 -2.90682,-0.14812 -4.04079,-1.01893 -1.05212,-0.35469 -2.88315,-0.21644 -2.66286,-1.8566 -0.0776,-0.62358 0.0702,-2.20799 0.92908,-1.89096 -0.16429,0.81521 -0.61689,1.67605 -0.2148,2.51231 0.54588,0.63483 1.57076,0.24062 2.23263,0.77212 0.9998,0.55669 2.09635,1.04946 3.27176,0.92327 1.31528,-0.11942 2.60313,-0.50994 3.93637,-0.42041 1.2613,0.10715 2.38375,-0.52559 3.59526,-0.71459 1.70806,-0.20448 3.36867,0.49776 5.08159,0.38846 1.0383,-0.0365 2.04123,-0.33916 3.0571,-0.52884 1.11733,-0.13441 1.18254,-1.53025 0.84978,-2.2872 -1.25456,0.37733 -1.76065,-1.33192 -2.94883,-1.25518 -1.59122,-0.30172 -3.20297,-0.50481 -4.80458,-0.72595 -1.85653,0.0368 -3.60241,0.87787 -5.47361,0.80199 -1.8053,0.0595 -3.63735,-0.24695 -5.28487,-1.0018 -1.12261,0.19871 -2.09143,1.37421 -3.07504,1.47317 l -0.0362,-0.0317 3e-5,0 z"
       id="path6278"
       inkscape:connector-curvature="0" />
    <path
       style="color:#000000;fill:#000000;fill-opacity:1;fill-rule:nonzero;stroke:none;stroke-width:0.30000001;marker:none;visibility:visible;display:inline;overflow:visible;enable-background:accumulate"
       d="m 400.47197,515.70221 c 0.46757,-1.2803 2.01682,-1.55096 3.21799,-1.50404 2.39403,0.0733 4.79113,0.15382 7.18319,0.22138 0.91328,0.28994 1.93721,0.4569 2.68526,1.08599 0.66842,0.25106 0.81896,1.60512 -0.0752,0.9032 -0.56074,-1.13178 -1.8243,-1.15961 -2.90545,-1.4663 -1.68697,-0.11353 -3.38495,-0.0242 -5.07383,-0.16137 -1.14023,0.0441 -2.33854,-0.38644 -3.43334,0.0227 -0.56838,0.17852 -1.02831,0.86648 -1.59859,0.89848 z"
       id="path6280"
       inkscape:connector-curvature="0" />
    <path
       style="color:#000000;fill:#000000;fill-opacity:1;fill-rule:nonzero;stroke:none;stroke-width:0.30000001;marker:none;visibility:visible;display:inline;overflow:visible;enable-background:accumulate"
       d="m 407.26873,514.0192 c 0.8051,-0.59969 2.77597,-0.612 2.33649,-2.05066 0.13587,-1.30765 1.28735,0.33825 1.94626,0.41913 0.8233,0.39035 1.91156,1.35955 1.3529,2.34888 -0.80695,0.62737 -0.24471,-1.13552 -0.93682,-1.35841 -0.59541,-0.76953 -1.98518,-0.67148 -2.24171,-1.71584 0.89727,-0.4434 0.67641,1.49018 -0.0299,1.74432 -0.66472,0.27952 -1.76636,1.30663 -2.42726,0.61258 z"
       id="path6282"
       inkscape:connector-curvature="0" />
    <path
       style="color:#000000;fill:#000000;fill-opacity:1;fill-rule:nonzero;stroke:none;stroke-width:0.30000001;marker:none;visibility:visible;display:inline;overflow:visible;enable-background:accumulate"
       d="m 413.13441,509.42274 c 0.49744,-0.97368 1.17087,0.81191 0.14773,0.53606 -1.6988,-0.25844 0.81807,-2.54178 0.52383,-0.76511 -0.552,0.61807 -1.11763,-0.86678 -0.33432,-0.35925 -0.41653,0.37431 0.0883,0.74728 0.0174,0.64849 -0.10783,0.0677 -0.31008,0.1113 -0.3546,-0.0602 z"
       id="path6284"
       inkscape:connector-curvature="0" />
    <path
       style="color:#000000;fill:#000000;fill-opacity:1;fill-rule:nonzero;stroke:none;stroke-width:0.30000001;marker:none;visibility:visible;display:inline;overflow:visible;enable-background:accumulate"
       d="m 400.96196,512.63256 c 0.39904,-1.11357 2.17507,0.0546 0.90429,0.68848 -1.10864,0.79657 -1.45109,-1.82358 -0.41227,-1.06077 -0.30775,0.52815 0.22786,0.83576 0.41562,0.32126 -0.21674,0.065 -0.90663,0.58257 -0.90764,0.051 z"
       id="path6286"
       inkscape:connector-curvature="0" />
    <path
       style="color:#000000;fill:#000000;fill-opacity:1;fill-rule:nonzero;stroke:none;stroke-width:0.30000001;marker:none;visibility:visible;display:inline;overflow:visible;enable-background:accumulate"
       d="m 394.9104,513.78412 c -1.28792,0.23755 -0.99207,-1.94214 0.19354,-1.193 0.57297,0.39876 -0.20556,0.79964 -0.56734,0.44838 0.28404,0.0997 0.92957,0.50718 0.3738,0.74462 z"
       id="path6288"
       inkscape:connector-curvature="0" />
    <path
       style="color:#000000;fill:#000000;fill-opacity:1;fill-rule:nonzero;stroke:none;stroke-width:0.30000001;marker:none;visibility:visible;display:inline;overflow:visible;enable-background:accumulate"
       d="m 406.00625,512.40531 c -1.32542,-0.15313 -0.77605,-2.35408 0.46827,-1.90121 1.36667,0.0874 0.76191,2.24617 -0.42986,1.51528 -0.78279,-0.12456 -0.56547,-1.82197 0.0182,-0.8372 0.37177,0.4615 1.08717,0.18244 0.2716,-0.1003 -0.86377,-0.0755 -0.37001,0.83744 -0.0904,1.01102 -0.0543,0.12239 -0.16218,0.20521 -0.23781,0.31241 z"
       id="path6290"
       inkscape:connector-curvature="0" />
  </g>
</svg>
