<?xml version="1.0" encoding="UTF-8" standalone="no"?>
<!-- Created with Inkscape (http://www.inkscape.org/) -->

<svg
   xmlns:dc="http://purl.org/dc/elements/1.1/"
   xmlns:cc="http://creativecommons.org/ns#"
   xmlns:rdf="http://www.w3.org/1999/02/22-rdf-syntax-ns#"
   xmlns:svg="http://www.w3.org/2000/svg"
   xmlns="http://www.w3.org/2000/svg"
   xmlns:sodipodi="http://sodipodi.sourceforge.net/DTD/sodipodi-0.dtd"
   xmlns:inkscape="http://www.inkscape.org/namespaces/inkscape"
   width="68.584991"
   height="35.785381"
   id="svg7585"
   version="1.1"
   inkscape:version="0.48.2 r9819"
   sodipodi:docname="poop5.svg">
  <defs
     id="defs7587" />
  <sodipodi:namedview
     id="base"
     pagecolor="#ffffff"
     bordercolor="#666666"
     borderopacity="1.0"
     inkscape:pageopacity="0.0"
     inkscape:pageshadow="2"
     inkscape:zoom="1.4"
     inkscape:cx="49.339824"
     inkscape:cy="-13.845936"
     inkscape:document-units="px"
     inkscape:current-layer="layer1"
     showgrid="false"
     fit-margin-top="0"
     fit-margin-left="0"
     fit-margin-right="0"
     fit-margin-bottom="0"
     inkscape:window-width="511"
     inkscape:window-height="434"
     inkscape:window-x="1"
     inkscape:window-y="55"
     inkscape:window-maximized="0" />
  <g
     inkscape:label="Layer 1"
     inkscape:groupmode="layer"
     id="layer1"
     transform="translate(-79.993214,-383.04092)">
    <path
       style="color:#000000;fill:#552200;fill-opacity:1;fill-rule:nonzero;stroke:none;stroke-width:0.30000001;marker:none;visibility:visible;display:inline;overflow:visible;enable-background:accumulate"
       d="m 82.724665,412.507 c -4.273819,0.30542 -2.673596,-6.30793 0.842588,-6.17861 4.009571,-0.34724 4.223129,6.07935 0.304011,6.35564 -4.405762,1.25434 -4.75381,-5.16362 -0.807786,-5.85597 3.633292,-1.40438 2.015731,5.84934 -0.757115,3.3601 -1.433541,-2.6923 4.026843,-3.81602 2.756916,-0.30077 0.04408,3.03179 -4.646276,2.20833 -2.728385,-0.49562 1.107365,-3.01878 5.704738,-0.6514 3.088658,1.62198 -1.912929,1.8343 -5.916231,-0.74419 -2.79577,-2.45457 3.695341,-1.93362 5.737657,5.11643 1.108199,4.25334 -2.699843,-0.19292 -3.477196,-4.0555 -0.24309,-3.94297 2.55635,-1.04584 6.49098,3.06098 2.61944,4.01492 -4.186908,0.63227 -4.610008,-6.77299 -0.0779,-5.39758 3.537013,0.75899 2.244077,6.8886 -1.229428,4.27775 -2.500643,-0.80185 -1.845072,-4.98933 0.902784,-2.9689 2.611007,0.8856 1.508279,4.01291 -1.007927,2.99556 -1.337845,0.28409 -5.199447,-2.23027 -2.728064,-2.43486 0.793435,0.52579 5.806838,2.15243 3.198585,0.51026 -3.021922,-1.73563 3.081087,3.63601 1.573062,-0.13573 -1.325378,-2.68463 -4.159916,0.31304 -1.806558,1.71245 2.015456,1.12695 2.179159,-1.53542 0.03339,-1.23856 -1.650408,-0.66173 -3.789513,0.56712 -1.175643,1.39874 3.345981,0.33021 0.06766,-3.70245 -1.010382,-1.45529 1.363157,1.46137 3.252917,-1.87458 1.21306,-0.82975 -0.885865,0.76942 -1.216634,2.35091 -0.149935,0.53859 0.767847,-1.76019 -0.29027,-1.25661 -0.939154,-0.0299 1.735121,-0.16743 1.31037,-3.71655 -0.105829,-1.51559 -2.90921,1.22756 -0.08883,4.90754 2.071907,2.7087 2.780179,-2.03275 -1.876182,-5.41742 -3.18354,-2.19053 -1.739354,1.49652 0.568669,2.35059 1.033909,3.67717 z"
       id="path8385"
       inkscape:connector-curvature="0" />
    <path
       style="color:#000000;fill:#552200;fill-opacity:1;fill-rule:nonzero;stroke:none;stroke-width:0.30000001;marker:none;visibility:visible;display:inline;overflow:visible;enable-background:accumulate"
       d="m 91.231411,394.16994 c -3.226931,-0.25008 -2.834637,-6.8467 0.262675,-3.65646 1.098399,1.38594 2.619282,4.97192 0.817339,5.76667 -2.885947,-0.7546 -2.603438,-7.78768 0.712358,-5.1872 1.921639,1.41006 0.890167,6.61391 -1.594342,3.65357 -1.066768,-0.72782 -1.869687,-4.9662 0.03867,-3.31516 0.79935,1.64027 -1.036563,3.5438 -1.090677,0.81631 0.699858,-3.72614 4.064965,0.10273 4.016715,2.24222 1.184035,2.85344 -2.333352,2.65177 -2.805952,0.37837 -1.312316,-0.90568 -1.68651,-5.55824 0.428778,-3.24828 1.016567,1.8987 2.424636,5.00084 1.874803,6.6824 -1.800274,0.0883 0.808825,-2.37567 0.470572,-0.21179 -2.591123,0.70896 -1.616273,-4.12552 -3.363139,-5.33949 -0.08912,-3.44443 1.431291,1.36673 2.160131,2.29311 0.977543,1.71514 -0.705978,-2.01367 -1.179537,-2.69319 -0.552885,-2.95707 0.03608,3.34862 -1.46981,0.84335 -1.444013,-1.80408 1.120454,-3.72889 1.129904,-0.88146 0.157115,1.04673 1.933474,3.83598 1.011395,1.10241 0.114529,-1.22936 -1.496232,-2.99546 -1.117569,-0.76123 0.417032,1.16479 1.358701,4.33633 0.484997,1.43152 -0.09334,-0.83617 -1.912757,-4.76278 -2.120514,-2.66276 0.23191,0.84195 2.572871,1.8643 1.333202,2.74709 z"
       id="path8387"
       inkscape:connector-curvature="0" />
    <path
       style="color:#000000;fill:#552200;fill-opacity:1;fill-rule:nonzero;stroke:none;stroke-width:0.30000001;marker:none;visibility:visible;display:inline;overflow:visible;enable-background:accumulate"
       d="m 118.96518,394.80766 c 1.73708,-2.99729 5.02014,-4.68485 8.16112,-5.81316 1.9333,-0.72413 2.61647,1.26264 0.57387,1.92667 -2.45922,1.81684 -4.77768,4.1013 -7.87982,4.73264 -2.27028,-2.119 2.91414,-3.59527 4.36205,-4.67117 1.9934,-1.33915 5.56918,0.45303 3.1638,2.68216 -1.80412,1.96747 -6.04376,4.40684 -8.12213,2.36226 0.66463,-2.69491 4.20708,-3.78066 6.49266,-4.87333 2.80245,-0.7763 2.64049,2.47403 0.19851,2.85012 -1.88063,0.71212 -5.76954,2.51817 -6.82178,0.84178 1.70971,-1.98638 4.81155,-2.21646 6.98742,-3.68616 1.91518,-1.25 3.40845,0.79747 1.05535,1.75926 -3.52721,2.08811 -8.28348,2.33195 -10.80808,5.9131 -1.7044,0.74937 0.93348,-2.88854 1.87654,-3.00008 1.68247,-1.21858 5.68519,-4.46221 6.76766,-2.37943 -1.70166,2.22457 -4.90016,3.43005 -7.45932,3.7713 0.95489,-1.13123 5.9576,-1.39332 3.09324,0.33651 -1.31095,0.56138 -4.82195,0.86502 -2.25248,-0.88699 1.2084,-1.45112 5.5604,0.16814 2.25591,0.77042 -1.25116,0.99762 -5.63443,0.45047 -2.85166,-1.2614 1.99912,-0.65487 5.37078,-3.16586 6.61982,-2.61181 -2.06634,1.55003 -4.82429,2.17366 -6.46789,4.26523 -0.4861,1.70022 -3.89028,2.85983 -2.43944,0.0868 2.1731,-3.71209 6.81766,-4.44538 10.55039,-5.78442 1.00146,-0.68866 2.5588,-0.90336 0.79322,0.13888 -2.44586,0.75871 -4.52865,2.72117 -7.16259,2.73847 0.004,-1.44967 4.00171,-1.13545 5.49181,-2.11907 1.35471,-0.5175 2.30343,-1.1354 0.48745,-0.25918 -1.82347,0.6636 -4.20967,2.43743 -5.3126,3.00889 2.51615,-0.55884 5.72961,-1.32581 6.7351,-4.00705 -2.60455,0.17398 -5.34971,2.80248 -7.25013,3.00592 2.23642,-1.21646 4.49295,-2.41727 6.40163,-4.22331 0.77588,-1.17761 3.8387,-0.86699 1.26761,-0.28535 -2.95863,1.04397 -5.58222,2.85667 -7.91837,4.92224 -0.15388,-0.17667 -0.50273,0.0127 -0.58887,-0.25077 z"
       id="path8389"
       inkscape:connector-curvature="0" />
    <path
       style="color:#000000;fill:#552200;fill-opacity:1;fill-rule:nonzero;stroke:none;stroke-width:0.30000001;marker:none;visibility:visible;display:inline;overflow:visible;enable-background:accumulate"
       d="m 135.45073,405.6594 c 3.21894,-2.07604 7.28174,-2.21486 10.96514,-1.96817 3.09969,0.96743 1.08268,4.18225 -1.43655,3.87493 -3.63996,0.85155 -7.4356,1.19573 -11.15043,0.66828 0.11433,-2.79477 4.42051,-2.28473 6.45056,-3.17176 1.42842,-0.67882 5.96203,0.13919 3.50398,2.00286 -2.65971,0.75201 -7.29789,1.14782 -8.81626,-1.05524 1.73726,-1.81263 4.86351,-0.75291 7.17044,-1.06457 1.6687,-0.40767 6.14041,0.94061 2.86062,2.41081 -2.87209,0.85976 -6.02013,0.90046 -8.9935,0.63893 -3.40747,-0.82466 0.91788,-2.87125 2.45856,-2.94885 2.27263,-0.60299 4.72834,-0.82373 7.00346,-0.11153 0.89278,3.06755 -4.20019,1.93414 -6.06943,2.41715 -1.69079,0.47211 -4.85423,-1.57505 -1.61765,-2.15656 2.49013,-0.41355 6.63422,-1.18598 7.99851,1.07436 -0.94784,1.65719 -5.30918,1.95003 -5.57282,0.45128 0.79611,-1.07035 5.03764,-0.54148 4.15257,-0.45993 -2.44839,-0.68717 -5.23748,1.0495 -7.48172,-0.43719 2.25855,0.12072 7.12803,-0.38204 7.76181,0.0172 -2.87957,-0.41574 -6.88696,1.0368 -8.98203,1.02929 2.72702,-0.34288 5.47385,-0.0433 8.18058,-0.64699 1.22716,-0.0912 2.31445,0.48274 0.47731,0.15661 -2.90697,-0.2318 -5.9704,0.69904 -8.74108,-0.5146 2.34923,0.25114 6.64069,0.4543 7.79177,0.27148 -3.05538,-0.0322 -6.01885,1.12196 -8.8878,1.5824 0.48513,-0.72753 3.97395,-0.3342 5.55557,-0.70271 2.23582,-0.30791 4.62332,-0.34893 6.70046,-1.24078 0.0871,-1.94213 -4.36312,-0.72731 -6.05743,-0.59574 -1.62112,-0.18912 -4.07468,1.64266 -5.22464,0.47902 z"
       id="path8391"
       inkscape:connector-curvature="0" />
    <path
       style="color:#000000;fill:#552200;fill-opacity:1;fill-rule:nonzero;stroke:none;stroke-width:0.30000001;marker:none;visibility:visible;display:inline;overflow:visible;enable-background:accumulate"
       d="m 132.79981,415.30791 c -2.59789,-1.08151 3.04851,-1.75446 4.20715,-1.53031 3.56787,-0.14292 7.45186,-0.35127 10.64945,1.49142 2.78361,2.94498 -3.05568,4.55945 -5.20929,3.22552 -3.92314,-0.72024 -7.84699,-2.01817 -11.86105,-1.83435 -3.25344,-1.23419 0.89507,-2.50491 2.48379,-2.27569 3.5778,-0.41028 7.25847,-0.42999 10.75993,0.50625 2.2336,2.29887 -3.15587,2.06837 -4.51972,1.61715 -2.06391,-0.46544 -5.48307,-0.26193 -6.55909,-1.81274 2.21617,-1.63487 5.36992,0.10523 7.93325,0.0196 1.7631,0.65275 5.68985,0.36476 5.90775,2.2059 -2.30093,1.19669 -5.27199,-0.14723 -7.77547,-0.24377 -3.25913,-1.28889 1.25868,-2.01586 2.59225,-1.61625 1.70408,-0.0192 5.46693,0.27557 5.47386,1.89105 -1.89153,1.13173 -6.48264,0.54036 -6.61273,-1.34929 2.17416,-1.10231 6.22193,-0.9069 7.44158,1.17627 -0.9396,1.79894 -6.54058,-0.0491 -3.3832,-1.04437 1.41962,-0.34657 3.89695,1.54926 1.10016,0.88751 -1.17345,-0.14239 -4.95689,0.23289 -4.2255,-1.05572 1.44048,0.58025 4.61634,-0.40159 4.94149,1.47364 -2.51543,-0.67161 -6.12839,-0.11769 -7.99671,-1.22582 1.77649,-1.52933 4.5606,0.5863 6.75665,0.0659 2.19573,0.53652 0.94478,1.72029 -0.64207,1.01457 -3.6163,-0.53541 -7.2384,-1.03511 -10.84279,-1.64766 0.56293,-2.37227 4.42348,0.18492 6.33709,-0.12924 1.44197,-0.41846 6.05642,1.17848 2.4038,0.80435 -3.2767,-0.31046 -6.55732,-0.33102 -9.82219,0.0964 -1.35104,0.30061 -3.62538,-1.22478 -1.00628,-0.84929 5.11414,-0.0122 10.00178,1.80342 15.00649,2.47292 3.04449,-1.58128 -1.74845,-2.71483 -3.28547,-2.60737 -3.49555,-0.34951 -7.00539,-0.006 -10.50631,0.0332 -1.67996,-0.35556 1.18269,-0.6898 0.25318,0.24021 z"
       id="path8393"
       inkscape:connector-curvature="0" />
    <path
       style="color:#000000;fill:#552200;fill-opacity:1;fill-rule:nonzero;stroke:none;stroke-width:0.30000001;marker:none;visibility:visible;display:inline;overflow:visible;enable-background:accumulate"
       d="m 107.4046,388.47864 c -4.40858,0.92776 -1.04551,-8.16268 0.98845,-4.00437 1.10104,1.85097 -0.93221,6.58571 -2.73235,3.45613 -0.73726,-1.57616 2.1643,-4.62525 1.99887,-1.55687 -2.57534,1.4898 -0.26926,-4.90836 0.74645,-1.0881 0.94619,2.1705 -3.18391,4.39819 -2.11489,0.89848 1.67612,-3.69754 2.81614,3.61008 0.11805,2.19123 -2.19505,-1.79626 1.9606,-2.25086 0.27402,-0.5129 -0.95401,-1.59766 1.83545,-3.06903 0.62456,-0.84825 -1.34609,1.56551 0.60163,-4.39692 0.39414,-1.01536 -1.04527,1.67091 -1.43216,-1.39008 -0.41726,-0.2695 -0.12796,1.01992 -0.57626,3.76417 0.20747,1.3251 0.17119,-1.14992 0.0945,-4.53681 -1.05045,-1.80689 -1.00132,1.64319 0.91673,2.34565 0.96294,3.2313 z"
       id="path8405"
       inkscape:connector-curvature="0" />
  </g>
</svg>
