<?xml version="1.0" encoding="UTF-8" standalone="no"?>
<!-- Created with Inkscape (http://www.inkscape.org/) -->

<svg
   xmlns:dc="http://purl.org/dc/elements/1.1/"
   xmlns:cc="http://creativecommons.org/ns#"
   xmlns:rdf="http://www.w3.org/1999/02/22-rdf-syntax-ns#"
   xmlns:svg="http://www.w3.org/2000/svg"
   xmlns="http://www.w3.org/2000/svg"
   xmlns:sodipodi="http://sodipodi.sourceforge.net/DTD/sodipodi-0.dtd"
   xmlns:inkscape="http://www.inkscape.org/namespaces/inkscape"
   width="77.524902"
   height="19.289217"
   id="svg6256"
   version="1.1"
   inkscape:version="0.48.2 r9819"
   sodipodi:docname="poop_tiled.svg">
  <defs
     id="defs6258" />
  <sodipodi:namedview
     id="base"
     pagecolor="#ffffff"
     bordercolor="#666666"
     borderopacity="1.0"
     inkscape:pageopacity="0.0"
     inkscape:pageshadow="2"
     inkscape:zoom="7.9195959"
     inkscape:cx="51.87569"
     inkscape:cy="15.842007"
     inkscape:document-units="px"
     inkscape:current-layer="layer1"
     showgrid="false"
     fit-margin-top="0"
     fit-margin-left="0"
     fit-margin-right="0"
     fit-margin-bottom="0"
     inkscape:window-width="1366"
     inkscape:window-height="712"
     inkscape:window-x="0"
     inkscape:window-y="27"
     inkscape:window-maximized="1" />
  <metadata
     id="metadata6261">
    <rdf:RDF>
      <cc:Work
         rdf:about="">
        <dc:format>image/svg+xml</dc:format>
        <dc:type
           rdf:resource="http://purl.org/dc/dcmitype/StillImage" />
        <dc:title />
      </cc:Work>
    </rdf:RDF>
  </metadata>
  <g
     inkscape:label="Layer 1"
     inkscape:groupmode="layer"
     id="layer1"
     transform="translate(-557.83826,-364.54782)">
    <g
       id="g3026"
       transform="translate(-6.6168061,-0.99280885)">
      <path
         inkscape:connector-curvature="0"
         id="path6242"
         d="m 635.03345,375.0144 c -0.64975,0.19823 -1.93751,0.009 -1.84375,1 -0.49546,0.35292 -0.6816,1.15602 -0.59736,1.53842 -1.20934,0.0848 -2.4392,0.0597 -3.62139,-0.22592 -0.94026,-0.26122 -1.61433,0.40206 -2.42209,0.65038 -0.67744,0.33798 -1.65764,0.0813 -2.45291,0.31837 -0.77462,-0.0974 -1.54214,0.11241 -2.304,0.0994 -0.95854,0.10705 -1.31779,0.95988 -1.95831,1.48955 -0.59434,0.65062 -1.26445,1.54263 -1.02197,2.47386 0.29238,0.43129 0.71751,0.39914 0.60904,1.01293 0.59761,0.91048 1.83489,0.91072 2.79935,1.07499 4.4779,0.51902 8.96282,-0.35053 13.44829,-0.15957 1.42135,0.0174 3.11081,-0.16125 3.97838,-1.44629 0.26808,-0.28984 0.1857,-0.58911 0.20829,-0.17649 0.54547,-0.27137 1.71876,-1.12582 1.0739,-1.71629 -0.82306,-0.52583 -0.21024,1.65832 -1.13625,0.80289 -0.4279,-0.51298 -0.0613,-1.11809 0.39783,-1.30873 -0.27115,-0.47007 -1.02151,0.44221 -1.14503,-0.40645 -0.54787,-1.06626 -2.03565,-0.70688 -2.50325,-1.70212 -0.236,-0.30803 -0.79888,-0.50107 -0.15741,-0.59378 0.82619,-0.46489 0.3634,-1.6291 -0.0251,-2.2441 -0.3088,-0.39946 -0.84014,-0.54906 -1.32629,-0.48107 z m -0.28125,6.03125 c 0.50405,0.0233 -0.25169,0.0721 0,0 z"
         style="color:#000000;fill:#552200;fill-opacity:1;fill-rule:nonzero;stroke:none;stroke-width:0.30000001;marker:none;visibility:visible;display:inline;overflow:visible;enable-background:accumulate" />
      <path
         inkscape:connector-curvature="0"
         id="path6214"
         d="m 619.18487,379.97111 c 2.46383,-3.21189 6.57871,-0.11462 9.78933,-1.16448 4.03195,-0.65033 8.71084,-0.91998 12.11312,1.72234 1.86862,3.5892 -4.12308,3.89287 -6.45918,3.47971 -3.81065,-0.7253 -7.58283,1.24998 -11.46084,0.73407 -2.24831,-0.28466 -7.0253,-1.99806 -4.40112,-4.89845 -1.04288,4.16187 4.29036,4.53273 7.34093,4.22326 3.27443,-0.2264 6.38231,-1.48814 9.6968,-0.59579 1.83263,1.01554 7.11695,-1.18853 4.2124,-3.01859 -2.88099,-1.51968 -6.41056,-2.04585 -9.5781,-1.2751 -3.71416,1.6731 -7.7095,-2.04415 -10.84513,0.76148 l -0.40821,0.0315 0,2e-5 z"
         style="color:#000000;fill:#000000;fill-opacity:1;fill-rule:nonzero;stroke:none;stroke-width:0.30000001;marker:none;visibility:visible;display:inline;overflow:visible;enable-background:accumulate" />
      <path
         inkscape:connector-curvature="0"
         id="path6216"
         d="m 624.54092,378.58132 c 2.5806,-3.01387 6.86592,-0.73562 10.21262,-1.33498 1.59249,-0.55655 5.00777,3.55157 2.31735,1.45167 -2.72807,-1.57012 -6.00022,-0.68041 -8.97496,-1.15139 -1.25102,-0.0504 -2.60323,0.14703 -3.55501,1.0347 z"
         style="color:#000000;fill:#000000;fill-opacity:1;fill-rule:nonzero;stroke:none;stroke-width:0.30000001;marker:none;visibility:visible;display:inline;overflow:visible;enable-background:accumulate" />
      <path
         inkscape:connector-curvature="0"
         id="path6218"
         d="m 631.33768,376.89831 c 1.72623,-0.17562 2.42234,-1.74565 2.84595,-2.49454 1.40848,-0.14779 3.68177,3.4097 2.32375,2.85974 0.002,-0.97993 -3.64029,-3.45727 -2.12135,-2.10884 -0.14572,1.29682 -1.87654,2.21678 -3.04835,1.74364 z"
         style="color:#000000;fill:#000000;fill-opacity:1;fill-rule:nonzero;stroke:none;stroke-width:0.30000001;marker:none;visibility:visible;display:inline;overflow:visible;enable-background:accumulate" />
      <path
         inkscape:connector-curvature="0"
         id="path6220"
         d="m 617.7897,373.85836 c 2.04695,-0.36894 -1.36291,1.36372 -0.33196,-0.58707 1.79057,-1.25936 0.0919,1.46217 0.56379,-0.14116 -0.28045,0.58931 0.72139,1.12951 -0.23183,0.72823 z"
         style="color:#000000;fill:#000000;fill-opacity:1;fill-rule:nonzero;stroke:none;stroke-width:0.30000001;marker:none;visibility:visible;display:inline;overflow:visible;enable-background:accumulate" />
      <path
         inkscape:connector-curvature="0"
         id="path6222"
         d="m 629.18086,368.16907 c 2.25859,-1.83337 0.20917,2.56449 -0.1395,-0.13851 0.52836,-1.12161 0.73205,1.10036 0.95817,0.20253 -0.22743,0.11695 -0.64805,0.22439 -0.81867,-0.064 z"
         style="color:#000000;fill:#000000;fill-opacity:1;fill-rule:nonzero;stroke:none;stroke-width:0.30000001;marker:none;visibility:visible;display:inline;overflow:visible;enable-background:accumulate" />
      <path
         inkscape:connector-curvature="0"
         id="path6224"
         d="m 624.63746,374.10394 c -2.43641,-0.56074 1.11892,-1.56517 0.0552,-0.58919 0.26562,0.10093 0.18189,0.50558 -0.0552,0.58919 z"
         style="color:#000000;fill:#000000;fill-opacity:1;fill-rule:nonzero;stroke:none;stroke-width:0.30000001;marker:none;visibility:visible;display:inline;overflow:visible;enable-background:accumulate" />
      <path
         inkscape:connector-curvature="0"
         id="path6226"
         d="m 640.7183,373.42337 c -2.91981,-1.14025 2.35323,-2.84768 1.05068,-0.43113 -1.5793,0.97537 -1.77084,-2.33385 -0.4614,-0.44566 0.22774,-0.88085 -1.73525,0.13573 -0.40986,0.59037 -0.008,0.11294 -0.16951,0.1741 -0.17942,0.28642 z"
         style="color:#000000;fill:#000000;fill-opacity:1;fill-rule:nonzero;stroke:none;stroke-width:0.30000001;marker:none;visibility:visible;display:inline;overflow:visible;enable-background:accumulate" />
    </g>
    <g
       id="g3016"
       transform="translate(-1.4299755,-1.1729998)">
      <path
         inkscape:connector-curvature="0"
         id="path6244"
         d="m 603.03345,375.0144 c -0.65306,0.1949 -1.90856,-0.003 -1.875,0.96875 -0.6188,0.3373 -0.50946,1.34858 -0.66238,1.57653 -1.18904,0.0843 -2.39315,0.0213 -3.55637,-0.23278 -0.95511,-0.27685 -1.60448,0.44933 -2.42984,0.65748 -0.67748,0.32443 -1.65266,0.0788 -2.44516,0.31127 -0.80704,-0.0841 -1.60488,0.10387 -2.39782,0.12586 -0.91977,0.21649 -1.27497,0.99644 -1.94492,1.53227 -0.54892,0.63156 -1.15635,1.48013 -0.92893,2.36069 0.22769,0.4313 0.71214,0.37662 0.55527,0.94079 0.40101,0.84831 1.48604,0.97801 2.30835,1.11409 4.61431,0.67553 9.255,-0.27514 13.88445,-0.083 1.459,0.0243 3.20852,-0.12212 4.10563,-1.44582 0.26556,-0.28696 0.19011,-0.59264 0.20541,-0.1765 0.54187,-0.27287 1.69944,-1.13474 1.0463,-1.71628 -0.83797,-0.52632 -0.18059,1.57166 -1.10248,0.84778 -0.42254,-0.51941 -0.0835,-1.16199 0.39442,-1.35596 -0.28327,-0.48784 -1.04717,0.45723 -1.17331,-0.40192 -0.53875,-1.06055 -2.01229,-0.71527 -2.47485,-1.70431 -0.20597,-0.30024 -0.83294,-0.50729 -0.16229,-0.59378 0.81577,-0.52542 0.31999,-1.75092 -0.14419,-2.36003 -0.30654,-0.32012 -0.77465,-0.42248 -1.20229,-0.36514 z m -0.3125,6.03125 c 0.48735,-0.009 -0.17925,0.11824 0,0 z"
         style="color:#000000;fill:#552200;fill-opacity:1;fill-rule:nonzero;stroke:none;stroke-width:0.30000001;marker:none;visibility:visible;display:inline;overflow:visible;enable-background:accumulate" />
      <path
         inkscape:connector-curvature="0"
         id="path6246"
         d="m 587.1746,379.97111 c 2.46383,-3.21189 6.57871,-0.11462 9.78933,-1.16447 4.03195,-0.65034 8.71084,-0.91999 12.11312,1.72233 1.86862,3.5892 -4.12308,3.89287 -6.45918,3.47971 -3.81065,-0.7253 -7.58283,1.24998 -11.46084,0.73407 -2.24832,-0.28466 -7.0253,-1.99806 -4.40112,-4.89845 -1.04288,4.16187 4.29036,4.53272 7.34093,4.22326 3.27444,-0.2264 6.38232,-1.48814 9.69681,-0.59579 1.83264,1.01555 7.11695,-1.18854 4.2123,-3.01859 -2.881,-1.51967 -6.41056,-2.04585 -9.5781,-1.2751 -3.71414,1.67311 -7.70949,-2.04415 -10.8451,0.76147 l -0.40815,0.0315 0,2e-5 z"
         style="color:#000000;fill:#000000;fill-opacity:1;fill-rule:nonzero;stroke:none;stroke-width:0.30000001;marker:none;visibility:visible;display:inline;overflow:visible;enable-background:accumulate" />
      <path
         inkscape:connector-curvature="0"
         id="path6248"
         d="m 592.53065,378.58132 c 2.5806,-3.01387 6.86592,-0.73562 10.21263,-1.33498 1.59248,-0.55656 5.00775,3.55157 2.31734,1.45167 -2.72807,-1.57012 -6.00022,-0.68041 -8.97496,-1.15139 -1.25102,-0.0504 -2.60323,0.14703 -3.55501,1.0347 z"
         style="color:#000000;fill:#000000;fill-opacity:1;fill-rule:nonzero;stroke:none;stroke-width:0.30000001;marker:none;visibility:visible;display:inline;overflow:visible;enable-background:accumulate" />
      <path
         inkscape:connector-curvature="0"
         id="path6250"
         d="m 599.32742,376.89831 c 1.72626,-0.17561 2.42232,-1.74568 2.84585,-2.49454 1.40849,-0.14779 3.68176,3.40968 2.32376,2.85974 0.002,-0.97993 -3.6403,-3.45728 -2.12134,-2.10884 -0.14566,1.29683 -1.87674,2.2168 -3.04827,1.74364 z"
         style="color:#000000;fill:#000000;fill-opacity:1;fill-rule:nonzero;stroke:none;stroke-width:0.30000001;marker:none;visibility:visible;display:inline;overflow:visible;enable-background:accumulate" />
      <path
         inkscape:connector-curvature="0"
         id="path6252"
         d="m 594.48167,374.3213 c 2.04695,-0.36892 -1.36291,1.36372 -0.33196,-0.58706 1.79056,-1.25936 0.0919,1.46218 0.56379,-0.14116 -0.2805,0.58938 0.72146,1.12939 -0.23183,0.72822 z"
         style="color:#000000;fill:#000000;fill-opacity:1;fill-rule:nonzero;stroke:none;stroke-width:0.30000001;marker:none;visibility:visible;display:inline;overflow:visible;enable-background:accumulate" />
      <path
         inkscape:connector-curvature="0"
         id="path6254"
         d="m 603.46131,366.18346 c 2.25866,-1.83338 0.20904,2.56452 -0.13946,-0.13856 0.52812,-1.12149 0.73225,1.10032 0.95821,0.20245 -0.22745,0.11688 -0.64804,0.22447 -0.81875,-0.0639 z"
         style="color:#000000;fill:#000000;fill-opacity:1;fill-rule:nonzero;stroke:none;stroke-width:0.30000001;marker:none;visibility:visible;display:inline;overflow:visible;enable-background:accumulate" />
      <path
         inkscape:connector-curvature="0"
         id="path6256"
         d="m 599.62896,372.47822 c -2.43659,-0.56049 1.11901,-1.56539 0.0551,-0.58919 0.2654,0.10104 0.18174,0.50535 -0.0551,0.58919 z"
         style="color:#000000;fill:#000000;fill-opacity:1;fill-rule:nonzero;stroke:none;stroke-width:0.30000001;marker:none;visibility:visible;display:inline;overflow:visible;enable-background:accumulate" />
      <path
         inkscape:connector-curvature="0"
         id="path6258"
         d="m 607.67054,376.58098 c -2.91981,-1.14027 2.35324,-2.84767 1.05068,-0.43113 -1.57927,0.97544 -1.77086,-2.3339 -0.46139,-0.44576 0.22769,-0.88088 -1.73524,0.13575 -0.40987,0.59037 -0.007,0.11308 -0.1709,0.17404 -0.17942,0.28652 z"
         style="color:#000000;fill:#000000;fill-opacity:1;fill-rule:nonzero;stroke:none;stroke-width:0.30000001;marker:none;visibility:visible;display:inline;overflow:visible;enable-background:accumulate" />
    </g>
    <g
       id="g3006"
       transform="translate(-1.8438925e-7,-1.1727578)">
      <path
         inkscape:connector-curvature="0"
         id="path6260"
         d="m 574.90845,375.0144 c -0.60395,0.0733 -1.51755,-0.0987 -1.73266,0.67918 -0.35796,0.50307 -0.92227,1.18787 -0.51734,1.85207 -1.07832,0.17323 -2.18907,0.0345 -3.2551,-0.1375 -0.85403,-0.20904 -1.84731,-0.15514 -2.51728,0.39964 -0.53427,0.50274 -1.22804,0.32837 -1.91032,0.35293 -0.75799,0.01 -1.49385,0.19633 -2.2548,0.16618 -0.71984,0.10776 -1.72093,-0.13747 -2.13408,0.64351 -0.15104,0.74387 -1.40378,0.67148 -1.57874,1.58456 -0.74189,0.75977 -0.35318,1.84317 0.30636,2.29691 -0.18045,0.81607 0.71743,1.19446 1.35819,1.34103 3.6718,0.74173 7.43338,0.30483 11.13973,0.142 1.52849,-0.0901 3.06062,-0.0855 4.58928,-0.0522 1.68634,-0.0727 3.25155,-1.08437 4.20573,-2.44127 0.39029,-0.34535 0.14971,-1.09312 -0.27147,-0.41551 -0.38333,0.66149 -1.11843,0.15607 -0.69619,-0.47612 0.27422,-0.76407 -0.61565,-0.20734 -0.70532,-0.82724 -0.51978,-0.70865 -1.35696,-1.09638 -2.18224,-1.32687 -0.096,-0.59406 -1.44596,-0.9319 -0.47051,-1.15719 0.95954,-0.93376 -0.0857,-2.81428 -1.37324,-2.62406 z"
         style="color:#000000;fill:#552200;fill-opacity:1;fill-rule:nonzero;stroke:none;stroke-width:0.30000001;marker:none;visibility:visible;display:inline;overflow:visible;enable-background:accumulate" />
      <path
         inkscape:connector-curvature="0"
         id="path6262"
         d="m 559.02328,379.97111 c 2.46383,-3.21189 6.57871,-0.11462 9.78933,-1.16448 4.03195,-0.65033 8.71084,-0.91998 12.11312,1.72234 1.86862,3.5892 -4.12308,3.89287 -6.45918,3.47971 -3.81065,-0.7253 -7.58283,1.24998 -11.46084,0.73407 -2.24831,-0.28466 -7.02531,-1.99806 -4.40113,-4.89845 -1.04288,4.16187 4.29036,4.53273 7.34093,4.22326 3.27443,-0.2264 6.38231,-1.48814 9.6968,-0.59579 1.83263,1.01552 7.11698,-1.18852 4.2124,-3.01859 -2.88099,-1.51968 -6.41056,-2.04585 -9.5781,-1.2751 -3.71416,1.6731 -7.7095,-2.04414 -10.84512,0.76148 l -0.40821,0.0315 0,2e-5 z"
         style="color:#000000;fill:#000000;fill-opacity:1;fill-rule:nonzero;stroke:none;stroke-width:0.30000001;marker:none;visibility:visible;display:inline;overflow:visible;enable-background:accumulate" />
      <path
         inkscape:connector-curvature="0"
         id="path6264"
         d="m 564.37933,378.58132 c 2.5806,-3.01387 6.86592,-0.73562 10.21262,-1.33498 1.59249,-0.55655 5.00777,3.55157 2.31735,1.45167 -2.72807,-1.57012 -6.00022,-0.68041 -8.97496,-1.15139 -1.25103,-0.0504 -2.60324,0.14702 -3.55501,1.0347 z"
         style="color:#000000;fill:#000000;fill-opacity:1;fill-rule:nonzero;stroke:none;stroke-width:0.30000001;marker:none;visibility:visible;display:inline;overflow:visible;enable-background:accumulate" />
      <path
         inkscape:connector-curvature="0"
         id="path6266"
         d="m 571.17609,376.89831 c 1.72617,-0.17563 2.42237,-1.74555 2.84576,-2.49455 1.40845,-0.14772 3.68179,3.40972 2.32374,2.85975 0.002,-0.97993 -3.64029,-3.45727 -2.12135,-2.10884 -0.14556,1.29686 -1.87704,2.21683 -3.04815,1.74364 z"
         style="color:#000000;fill:#000000;fill-opacity:1;fill-rule:nonzero;stroke:none;stroke-width:0.30000001;marker:none;visibility:visible;display:inline;overflow:visible;enable-background:accumulate" />
      <path
         inkscape:connector-curvature="0"
         id="path6268"
         d="m 570.3892,373.12624 c 0.18692,-0.03 0.3774,-0.0677 0.56735,-0.0471 0.0543,-9.3e-4 0.13367,0.0469 0.085,0.10578 -0.0763,0.0941 -0.19182,0.14417 -0.30008,0.19194 -0.1906,0.075 -0.39896,0.12929 -0.60476,0.099 -0.11273,-0.0157 -0.22553,-0.0851 -0.25953,-0.1989 -0.0491,-0.16265 0.006,-0.33424 0.0633,-0.48714 0.0546,-0.12798 0.0975,-0.27451 0.23695,-0.33275 0.16347,-0.10355 0.33083,-0.21462 0.52255,-0.25663 0.068,-0.0152 0.16015,-0.005 0.18637,0.0709 0.0328,0.10728 -0.01,0.2192 -0.0494,0.31869 -0.0518,0.11356 -0.11357,0.22827 -0.21036,0.30977 -0.066,0.061 -0.10755,-0.0369 -0.0915,-0.0948 0.009,-0.13891 0.0484,-0.27364 0.086,-0.40696 -0.0817,0.164 -0.0575,0.36056 0.0188,0.52185 0.0451,0.10833 0.11893,0.20154 0.16766,0.3077 0.004,0.0745 -0.10501,0.0156 -0.14617,0.007 -0.092,-0.0326 -0.18209,-0.0705 -0.27213,-0.1081 z"
         style="color:#000000;fill:#000000;fill-opacity:1;fill-rule:nonzero;stroke:none;stroke-width:0.30000001;marker:none;visibility:visible;display:inline;overflow:visible;enable-background:accumulate" />
      <path
         inkscape:connector-curvature="0"
         id="path6270"
         d="m 566.98984,368.52897 c 2.25859,-1.83339 0.20919,2.56449 -0.1395,-0.13852 0.52825,-1.12155 0.73223,1.10022 0.95814,0.20242 -0.22739,0.11685 -0.648,0.2245 -0.81864,-0.0639 z"
         style="color:#000000;fill:#000000;fill-opacity:1;fill-rule:nonzero;stroke:none;stroke-width:0.30000001;marker:none;visibility:visible;display:inline;overflow:visible;enable-background:accumulate" />
      <path
         inkscape:connector-curvature="0"
         id="path6272"
         d="m 563.03351,373.73019 c -2.43642,-0.5607 1.11892,-1.5652 0.0552,-0.58918 0.26561,0.10093 0.18188,0.50556 -0.0552,0.58918 z"
         style="color:#000000;fill:#000000;fill-opacity:1;fill-rule:nonzero;stroke:none;stroke-width:0.30000001;marker:none;visibility:visible;display:inline;overflow:visible;enable-background:accumulate" />
      <path
         inkscape:connector-curvature="0"
         id="path6274"
         d="m 566.66704,373.73869 c -0.28736,-0.11741 -0.58873,-0.25281 -0.78682,-0.50164 -0.11062,-0.13537 -0.144,-0.33315 -0.0611,-0.49067 0.12587,-0.24537 0.37694,-0.39471 0.62142,-0.50187 0.32519,-0.13273 0.68987,-0.20799 1.03851,-0.13384 0.19041,0.0395 0.37834,0.16585 0.42839,0.36298 0.0679,0.26779 -0.0435,0.54092 -0.16036,0.77801 -0.0605,0.11619 -0.21158,0.14663 -0.32557,0.1963 -0.22379,0.0785 -0.48941,0.0537 -0.67612,-0.0999 -0.22843,-0.18519 -0.35416,-0.48278 -0.35525,-0.77407 0.002,-0.11493 0.034,-0.27053 0.16383,-0.30197 0.14306,-0.0188 0.26256,0.0878 0.36162,0.17648 0.12941,0.12376 0.23849,0.26689 0.34077,0.41334 0.0307,-0.10637 0.0354,-0.25615 -0.0764,-0.31731 -0.14158,-0.0676 -0.30608,-0.011 -0.43875,0.0521 -0.16057,0.0843 -0.32749,0.2166 -0.35632,0.4068 -0.019,0.16312 0.1186,0.28796 0.25035,0.35749 0.0602,0.0484 0.17977,0.0544 0.20808,0.11183 -0.029,0.10691 -0.16162,0.15228 -0.17619,0.26584 z"
         style="color:#000000;fill:#000000;fill-opacity:1;fill-rule:nonzero;stroke:none;stroke-width:0.30000001;marker:none;visibility:visible;display:inline;overflow:visible;enable-background:accumulate" />
    </g>
  </g>
</svg>
