<?xml version="1.0" encoding="UTF-8" standalone="no"?>
<!-- Created with Inkscape (http://www.inkscape.org/) -->

<svg
   xmlns:dc="http://purl.org/dc/elements/1.1/"
   xmlns:cc="http://creativecommons.org/ns#"
   xmlns:rdf="http://www.w3.org/1999/02/22-rdf-syntax-ns#"
   xmlns:svg="http://www.w3.org/2000/svg"
   xmlns="http://www.w3.org/2000/svg"
   xmlns:sodipodi="http://sodipodi.sourceforge.net/DTD/sodipodi-0.dtd"
   xmlns:inkscape="http://www.inkscape.org/namespaces/inkscape"
   width="20.152555"
   height="10.842815"
   id="svg7422"
   version="1.1"
   inkscape:version="0.48.2 r9819"
   sodipodi:docname="poop2.svg">
  <defs
     id="defs7424" />
  <sodipodi:namedview
     id="base"
     pagecolor="#ffffff"
     bordercolor="#666666"
     borderopacity="1.0"
     inkscape:pageopacity="0.0"
     inkscape:pageshadow="2"
     inkscape:zoom="3.959798"
     inkscape:cx="-5.5942839"
     inkscape:cy="-0.88449835"
     inkscape:document-units="px"
     inkscape:current-layer="layer1"
     showgrid="false"
     fit-margin-top="0"
     fit-margin-left="0"
     fit-margin-right="0"
     fit-margin-bottom="0"
     inkscape:window-width="511"
     inkscape:window-height="434"
     inkscape:window-x="1"
     inkscape:window-y="55"
     inkscape:window-maximized="0" />
  <g
     inkscape:label="Layer 1"
     inkscape:groupmode="layer"
     id="layer1"
     transform="translate(-389.92372,-506.94078)">
    <path
       style="color:#000000;fill:#552200;fill-opacity:1;fill-rule:nonzero;stroke:none;stroke-width:0.30000001;marker:none;visibility:visible;display:inline;overflow:visible;enable-background:accumulate"
       d="m 395.18669,517.78146 c -0.77779,-0.82191 -1.7131,-1.50044 -2.8063,-1.83302 -0.43956,-0.25571 -1.30508,-0.27189 -1.55,-0.45698 0.15426,-0.69957 1.39376,-0.38189 2.00138,-0.72812 1.37516,-0.27159 2.83416,-0.7418 4.22512,-0.30888 0.86715,0.38826 -0.12033,1.38435 -0.72375,0.80627 -0.75248,-0.26449 -2.19768,-1.16958 -1.32315,-2.04117 0.69575,-0.34786 1.44764,0.17746 2.04656,0.51282 0.5411,0.31601 1.21678,1.04567 1.48914,1.33768 -0.39827,-0.0711 -0.68614,0.16342 -0.49217,-0.38143 0.36281,-2.04 1.05132,-4.06211 2.2323,-5.77768 0.51786,-0.84419 1.49426,-0.0754 1.18634,0.72388 -0.13878,1.93112 -0.26617,3.86533 -0.29837,5.80163 -0.0738,-0.47912 -1.00941,-0.0134 -0.4664,-0.5885 1.34727,-2.52275 2.46254,-5.24754 4.44603,-7.35891 0.39588,-0.69056 1.67399,-0.71667 1.63709,0.23462 -0.14435,1.21467 -0.76308,2.30973 -1.21807,3.43003 -0.67858,1.4702 -1.31782,2.99462 -2.09325,4.39606 0.1447,-0.62837 -1.29882,-0.31943 -0.42278,-0.90025 1.62881,-1.6402 3.22259,-3.38183 5.21704,-4.58827 0.64368,-0.53327 1.67021,-0.1935 1.77718,0.66065 0.18791,1.0247 -0.8057,1.68219 -1.54714,2.1646 -2.30287,1.42524 -4.9247,2.20742 -7.47432,3.06409 -0.33611,0.0565 -0.96856,0.46446 -0.60304,-0.0875 -0.60435,-0.88471 1.15748,-0.28012 1.30676,0.18775 0.40148,0.93668 -0.81594,1.3291 -1.53133,1.35714 -1.40833,0.13433 -2.92412,0.26171 -4.24148,-0.3561 -0.82914,-0.36685 -1.10525,-1.46305 -0.57304,-2.19281 0.19751,-0.26354 0.36926,-0.66537 0.39483,-0.20282 0.41363,0.22999 0.90897,0.51312 0.17892,0.71119 -0.54889,0.38687 -1.52534,0.84739 -1.53481,-0.2398 0.34547,-0.59381 1.76681,-0.48272 2.521,-0.61275 0.93939,-0.0111 1.97711,-0.0953 2.81591,0.40148 0.70032,0.75138 -0.50308,1.27651 -1.1539,1.08437 -1.05583,-0.0108 -2.11708,-0.11305 -3.1464,-0.3485 0.78724,0.12405 0.18294,-1.35081 1.12707,-0.77245 1.28303,0.27176 2.6074,0.43435 3.83832,0.89695 0.0617,0.65596 -0.80305,1.18884 -1.36907,0.61599 -0.7387,-0.37562 -0.91915,-1.34031 -0.50129,-2.01722 0.1743,-0.45836 0.94797,-1.23558 1.08152,-1.26998 -0.32628,0.62321 1.29821,0.40805 0.45248,0.93266 -0.59215,0.62912 -1.09315,1.34187 -1.52457,2.08893 0.10553,-0.51024 -0.9403,-0.40358 -0.13738,-0.70627 1.97654,-1.15437 4.13009,-2.09504 6.40986,-2.41803 0.80913,-0.29476 1.85455,0.58759 1.08316,1.31618 -0.95386,0.84428 -2.22176,1.20764 -3.4114,1.58864 -0.76833,0.43341 -0.18321,-0.46533 -0.5215,-0.7997 1.3007,-0.1959 2.62189,-0.47359 3.9398,-0.3792 0.68454,0.83973 -0.38123,1.19426 -1.05705,1.30895 -2.60766,0.60493 -5.2705,0.93513 -7.89715,1.44424 -0.55336,-0.42488 -0.61904,-1.12446 0.0822,-1.45414 0.31795,-0.57526 0.52924,-0.0806 0.28442,0.1984 -0.72596,-0.0925 -2.25099,0.5752 -2.26922,-0.57255 -0.19273,-0.87397 1.27991,-0.46857 1.81641,-0.67066 0.74035,0.0763 2.16588,-0.34418 2.29358,0.70395 -0.0525,0.74557 -1.06305,0.67073 -1.61507,0.77937 -0.72763,0.23079 -1.60689,-0.1225 -1.4176,-0.94196 0.5346,-0.28611 1.21925,-0.20951 1.81942,-0.28464 0.52904,-0.21538 0.30963,0.7062 0.42456,0.85997 -0.65138,0.044 -1.51794,0.0608 -2.31057,0.14119 -0.58355,0.29109 -1.3135,-0.48063 -1.14128,-0.95613 0.95675,-0.23828 1.99556,-0.30735 2.96322,-0.0891 0.84688,0.22138 0.61475,1.33411 -0.0329,1.65965 -0.37464,0.70224 -1.13443,0.16638 -1.31124,-0.30305 1.31834,-0.6842 2.8096,-0.95783 4.25163,-1.26786 1.48942,-0.26005 2.99307,-0.47379 4.50613,-0.51961 0.36458,0.0222 0.15947,1.05244 0.55135,0.94725 -1.37966,0.25085 -2.78226,0.55155 -4.19183,0.47662 -1.03223,-0.35628 -0.10263,-1.49783 0.65535,-1.54183 0.92187,-0.36896 1.85712,-0.71093 2.79553,-1.03114 0.049,0.28454 0.20605,0.49717 0.412,0.35732 -0.56008,0.23803 -1.34213,0.34849 -1.95826,0.6332 -1.76003,0.60163 -3.43967,1.41105 -5.19274,2.02868 -1.26442,0.10206 -0.83394,-1.3371 -0.34366,-1.93979 0.46193,-0.69736 1.02424,-1.55655 1.84666,-1.78459 0.91311,-0.13063 0.89005,0.84517 0.24405,1.23712 -0.6474,0.44443 -1.03452,1.43762 0.0382,1.53656 0.41588,0.25315 -0.0211,1.36769 -0.67665,0.98523 -1.34705,-0.18508 -2.72308,-0.3839 -3.98362,-0.91248 -0.79318,-0.35855 -0.1366,-1.49379 0.62171,-1.13138 0.93383,0.0469 1.8661,0.12466 2.79502,0.23163 0.39592,0.0621 -0.12836,0.65782 0.1934,0.9309 -1.36693,-0.15503 -2.74515,0.0614 -4.1121,0.1388 -0.51681,-0.0214 -1.34698,-0.9478 -0.36492,-1.13456 0.6362,-0.3813 1.6254,-1.0391 2.09771,-0.1511 -0.13973,0.52072 -0.94375,1.34727 0.11611,1.37916 1.29093,0.18414 2.60363,0.17663 3.9013,0.1633 0.35923,0.80611 -0.63626,0.11668 -1.10483,0.0872 -0.79398,-0.87508 0.79214,-1.40458 1.4197,-1.71451 2.44882,-1.21522 5.21932,-1.6948 7.54597,-3.16508 0.39297,-0.008 0.38471,-0.71795 0.41734,-0.53204 0.39878,0.12227 0.0808,-0.28359 -0.17262,0.12375 -1.7045,1.42654 -3.21903,3.06883 -4.9572,4.45535 -0.53757,0.84521 -1.98491,0.21459 -1.29978,-0.72825 0.83422,-2.43699 2.07507,-4.71506 3.13662,-7.04545 0.1823,0.43599 1.01582,-0.0349 0.39923,0.42365 -1.72788,2.21715 -2.79716,4.84697 -4.33273,7.18534 -0.31254,0.82087 -1.72476,1.17861 -1.79749,0.028 -0.17204,-2.02332 -0.0332,-4.0753 0.41099,-6.05742 0.0128,0.40025 1.19676,-0.20729 0.6712,0.35292 -0.88496,1.75485 -1.45203,3.64304 -2.03238,5.51304 -0.15022,1.12075 -1.38797,0.85293 -1.8716,0.126 -0.54375,-0.4534 -1.14805,-0.88274 -1.79082,-1.14976 0.36252,-0.0356 0.0628,-0.83001 0.50864,-0.21288 0.17103,0.24385 1.4866,0.64326 0.89316,0.64298 -0.44264,0.15275 -0.19806,0.74209 -0.1953,0.803 -1.18401,-0.0725 -2.32447,0.39057 -3.47962,0.58689 -0.9784,0.16632 -2.13975,0.51481 -3.02258,-0.10769 -0.67078,-0.92592 0.74344,-1.45441 1.48055,-1.18194 1.69348,0.2817 3.42484,1.15497 4.27485,2.70524 -0.17073,0.19645 -0.50354,0.38994 -0.6783,0.4594 z"
       id="path7655"
       inkscape:connector-curvature="0" />
  </g>
</svg>
