<?xml version="1.0" encoding="UTF-8" standalone="no"?>
<!-- Created with Inkscape (http://www.inkscape.org/) -->

<svg
   xmlns:dc="http://purl.org/dc/elements/1.1/"
   xmlns:cc="http://creativecommons.org/ns#"
   xmlns:rdf="http://www.w3.org/1999/02/22-rdf-syntax-ns#"
   xmlns:svg="http://www.w3.org/2000/svg"
   xmlns="http://www.w3.org/2000/svg"
   xmlns:xlink="http://www.w3.org/1999/xlink"
   xmlns:sodipodi="http://sodipodi.sourceforge.net/DTD/sodipodi-0.dtd"
   xmlns:inkscape="http://www.inkscape.org/namespaces/inkscape"
   width="333.16974"
   height="302.94437"
   id="svg7669"
   version="1.1"
   inkscape:version="0.48.2 r9819"
   sodipodi:docname="quit_game.svg">
  <defs
     id="defs7671">
    <linearGradient
       inkscape:collect="always"
       xlink:href="#linearGradient3295"
       id="linearGradient3190"
       gradientUnits="userSpaceOnUse"
       gradientTransform="matrix(0.8126036,0,0,0.8126036,497.07799,86.281759)"
       x1="-407.03784"
       y1="544.94849"
       x2="-403.19193"
       y2="471.70853" />
    <linearGradient
       inkscape:collect="always"
       id="linearGradient3295">
      <stop
         style="stop-color:#c87137;stop-opacity:1;"
         offset="0"
         id="stop3297" />
      <stop
         style="stop-color:#c87137;stop-opacity:0;"
         offset="1"
         id="stop3299" />
    </linearGradient>
    <linearGradient
       inkscape:collect="always"
       xlink:href="#linearGradient3287"
       id="linearGradient3192"
       gradientUnits="userSpaceOnUse"
       gradientTransform="matrix(0.76693832,0,0,0.76693832,477.38764,81.770376)"
       x1="-402.93723"
       y1="567.53503"
       x2="-380.47284"
       y2="326.62192" />
    <linearGradient
       inkscape:collect="always"
       id="linearGradient3287">
      <stop
         style="stop-color:#f4e3d7;stop-opacity:1;"
         offset="0"
         id="stop3289" />
      <stop
         style="stop-color:#f4e3d7;stop-opacity:0;"
         offset="1"
         id="stop3291" />
    </linearGradient>
  </defs>
  <sodipodi:namedview
     id="base"
     pagecolor="#ffffff"
     bordercolor="#666666"
     borderopacity="1.0"
     inkscape:pageopacity="0.0"
     inkscape:pageshadow="2"
     inkscape:zoom="2.8"
     inkscape:cx="286.57571"
     inkscape:cy="210.03663"
     inkscape:document-units="px"
     inkscape:current-layer="layer1"
     showgrid="false"
     fit-margin-top="0"
     fit-margin-left="0"
     fit-margin-right="0"
     fit-margin-bottom="0"
     inkscape:window-width="1366"
     inkscape:window-height="712"
     inkscape:window-x="0"
     inkscape:window-y="27"
     inkscape:window-maximized="1" />
  <g
     inkscape:label="Layer 1"
     inkscape:groupmode="layer"
     id="layer1"
     transform="translate(55.157021,-329.3549)">
    <g
       id="g3182"
       transform="translate(-74.008852,55.731293)">
      <path
         inkscape:export-ydpi="30.99"
         inkscape:export-xdpi="30.99"
         inkscape:export-filename="/Users/mackay3/Desktop/Ponequita_Boton.png"
         inkscape:connector-curvature="0"
         id="path3227"
         d="m 184.28034,290.80976 c -4.92367,0.9843 -7.69175,6.49827 -7.03083,11.20799 0.45536,3.97102 3.66005,6.75665 5.80988,9.88918 1.65935,2.18729 3.48311,4.26279 5.5647,6.05908 -9.44939,8.91272 -21.60956,14.08819 -33.59876,18.62015 -10.29046,3.98861 -20.71317,7.63505 -30.96374,11.7236 -6.24187,2.66398 -12.1984,6.97068 -14.99543,13.35073 -1.88687,4.15255 -2.09097,8.8413 -1.53582,13.30552 0.0739,2.01446 -0.91448,3.86506 -2.4513,5.11897 -3.04499,2.60604 -7.268427,2.81113 -10.724737,4.64217 -9.26954,4.11894 -17.59133,9.99468 -26.21496,15.26599 -8.31578,5.48624 -16.43481,12.03921 -21.07971,21.05248 -3.87436,8.37187 -3.87393,17.98375 -2.11198,26.88411 0.42916,6.15765 -2.96551,11.64667 -5.86209,16.80723 -4.62573,7.95283 -6.5993,17.18165 -6.82145,26.31305 -0.20315,5.94239 0.05691,12.0377 2.26971,17.63314 2.04383,5.55062 5.7638,10.47729 10.68674,13.78679 9.88268,6.66633 21.14478,10.9293 32.43868,14.54567 12.14213,3.79047 24.676227,6.1354 37.177777,8.38877 14.43677,2.47681 28.94169,4.53758 43.39479,6.91285 21.05993,3.07863 42.36331,4.10776 63.62645,4.42192 8.6126,0.0621 17.22646,0.15417 25.83891,0.0984 16.75807,-0.15864 33.70288,-1.67222 49.69791,-6.94911 11.21366,-3.63945 22.19922,-8.64762 31.24408,-16.33054 6.79875,-6.21767 9.70308,-15.72112 9.57568,-24.74346 -0.0634,-5.04137 -0.6337,-10.19914 -2.58115,-14.88576 -2.29469,-4.78898 -5.99179,-8.68551 -9.13789,-12.90844 -3.50313,-4.67866 -8.66494,-7.57243 -13.33046,-10.91395 -3.36237,-2.37529 -6.18021,-5.58424 -7.62445,-9.47855 -3.44993,-8.2664 -2.97215,-17.41964 -4.75222,-26.07064 -1.20729,-6.39527 -2.28874,-12.88819 -4.69583,-18.96613 -1.98179,-4.79214 -5.00026,-9.18614 -9.09129,-12.41762 -9.92074,-8.85743 -21.65738,-15.76144 -34.42221,-19.58744 -2.06916,-0.80664 -4.49821,-0.95303 -6.26775,-2.36994 -2.81895,-2.76182 -2.63647,-7.18648 -1.48793,-10.67043 1.85602,-7.97336 -0.65746,-16.22798 -4.32415,-23.30603 -3.99555,-7.53063 -7.52605,-15.29051 -11.10869,-23.02132 -1.22634,-2.2746 -2.17526,-4.76228 -3.74524,-6.81325 -1.82928,-1.88557 -4.58198,-2.42843 -7.1067,-2.28875 -4.31467,-0.87282 -6.71664,-4.93405 -9.91413,-7.5506 -7.24051,-6.62938 -14.94758,-13.09291 -24.15691,-16.78712 l -0.18032,0.0301 -0.007,0.001 z m -45.9375,52.6875 c 0.22557,0.15998 -0.23244,-0.0128 0,0 z m -4.375,1.4375 c 9.9e-4,0.13372 -0.30698,-0.14885 0,0 z m 11.1875,25 c -0.2731,-0.008 -0.0773,-0.2793 0,0 z m 154.3125,67.53125 c 0.0468,0.29124 -0.11265,-0.13855 0,0 z m 1,5.8125 c 0.2583,0.24021 -0.22157,-0.0508 0,0 z m -24.28125,60.53125 c 0.0795,0.17171 -0.17171,-0.0795 0,0 z m -211.249997,29.4375 c 0.0884,0.1535 0.0884,-0.1535 0,0 z"
         style="color:#000000;fill:#a05a2c;fill-opacity:1;fill-rule:nonzero;stroke:none;stroke-width:5;marker:none;visibility:visible;display:inline;overflow:visible;enable-background:accumulate" />
      <g
         id="g3138">
        <path
           style="color:#000000;fill:url(#linearGradient3190);fill-opacity:1;fill-rule:nonzero;stroke:none;stroke-width:5;marker:none;visibility:visible;display:inline;overflow:visible;enable-background:accumulate"
           d="m 280.87465,457.18451 c -4.20664,0.34326 -8.40444,0.66755 -12.56997,0.88879 -4.70379,0.24983 -9.37428,0.42912 -14.01741,0.53327 -9.28628,0.20829 -18.45953,0.13374 -27.45076,-0.17776 -8.99125,-0.31149 -17.80869,-0.87788 -26.43501,-1.6252 -8.62633,-0.74733 -17.04998,-1.66874 -25.2415,-2.76793 -8.19152,-1.09921 -16.158,-2.3658 -23.84484,-3.7329 -7.68684,-1.36711 -15.10735,-2.84209 -22.21963,-4.39314 -7.11228,-1.55105 -13.92344,-3.1738 -20.39127,-4.82484 -6.46783,-1.65103 -12.580867,-3.33553 -18.334377,-5.00259 -5.69033,-1.64876 -10.99832,-3.29287 -15.92194,-4.87562 -0.49093,0.77319 -1.07466,1.48889 -1.49824,2.31084 -3.14832,6.80302 -3.15855,14.60626 -1.72679,21.83872 0.34874,5.00374 -2.39488,9.46842 -4.74864,13.6619 -3.75889,6.4625 -5.38074,13.96143 -5.56126,21.38164 -0.16508,4.82881 0.0556,9.77526 1.85375,14.32214 1.66082,4.51045 4.6843,8.50938 8.6847,11.19869 8.0307,5.41709 17.18136,8.89486 26.35883,11.83353 9.866737,3.08015 20.059887,4.97447 30.218697,6.80556 11.73137,2.01267 23.50203,3.68189 35.24668,5.61205 17.11338,2.50171 34.4234,3.35063 51.7019,3.60593 6.99863,0.0505 14.00222,0.12146 21.00072,0.0762 13.61767,-0.12891 27.40403,-1.34941 40.40164,-5.63744 9.11226,-2.95742 18.01858,-7.03782 25.36847,-13.28099 5.52469,-5.0525 7.89944,-12.78035 7.79591,-20.11193 -0.0515,-4.09663 -0.52518,-8.27912 -2.10768,-12.08748 -1.86468,-3.89154 -4.85848,-7.0561 -7.41501,-10.48766 -2.84666,-3.8019 -7.05197,-6.17253 -10.84318,-8.88786 -2.73228,-1.93017 -5.02251,-4.52981 -6.19611,-7.69434 -1.13998,-2.73153 -1.68524,-5.5876 -2.10768,-8.48155 z"
           id="path3253"
           inkscape:connector-curvature="0"
           inkscape:export-filename="/Users/mackay3/Desktop/Ponequita_Boton.png"
           inkscape:export-xdpi="30.99"
           inkscape:export-ydpi="30.99" />
        <path
           style="color:#000000;fill:url(#linearGradient3192);fill-opacity:1;fill-rule:nonzero;stroke:none;stroke-width:5;marker:none;visibility:visible;display:inline;overflow:visible;enable-background:accumulate"
           d="m 182.47589,309.57502 -0.1438,0.0239 c -3.77615,0.7549 -5.89942,4.99202 -5.39253,8.60409 0.34923,3.04553 2.80903,5.17106 4.45783,7.57352 1.27262,1.67752 2.66964,3.27192 4.26608,4.64956 -7.2471,6.8355 -16.56935,10.80849 -25.76432,14.28423 -7.89216,3.05901 -15.88958,5.85189 -23.75113,8.98755 -4.78712,2.04312 -9.35892,5.34073 -11.50407,10.23384 -1.44712,3.18475 -1.60014,6.78609 -1.17438,10.20987 0.0567,1.54496 -0.69076,2.96889 -1.86941,3.93055 -2.33531,1.99868 -5.59381,2.1428 -8.24459,3.5471 -7.10916,3.15896 -13.494357,7.677 -20.108157,11.71977 -5.66196,3.73541 -11.07421,8.19983 -14.73959,13.97266 4.64693,1.4938 9.65663,3.04553 15.02719,4.60163 5.43018,1.57337 11.199687,3.16322 17.304047,4.72146 6.10436,1.55825 12.53276,3.08981 19.24536,4.5537 6.71259,1.46388 13.7161,2.85597 20.97096,4.14626 7.25488,1.29028 14.77366,2.4857 22.50485,3.52312 7.73119,1.03743 15.68147,1.90705 23.82302,2.61238 8.14156,0.70533 16.4635,1.23989 24.94947,1.53388 8.48596,0.29399 17.14371,0.36436 25.90813,0.16777 4.38221,-0.0983 8.79023,-0.26751 13.22969,-0.5033 3.93144,-0.20882 7.89334,-0.51487 11.86357,-0.83884 -0.58177,-3.98549 -0.84365,-8.0466 -1.6537,-11.98342 -0.92592,-4.90477 -1.74894,-9.88645 -3.59503,-14.54785 -1.51991,-3.67528 -3.83678,-7.03649 -6.97435,-9.51483 -7.60859,-6.7931 -16.59763,-12.0929 -26.38747,-15.0272 -1.58691,-0.61865 -3.4602,-0.7348 -4.81732,-1.82148 -2.16197,-2.11815 -2.03127,-5.50071 -1.15041,-8.17269 1.42345,-6.11508 -0.49531,-12.45082 -3.30742,-17.87924 -3.06434,-5.77554 -5.76056,-11.7345 -8.50823,-17.66356 -0.94052,-1.74447 -1.67194,-3.6518 -2.87602,-5.22476 -1.40294,-1.44611 -3.52813,-1.85671 -5.46443,-1.74958 -3.30909,-0.6694 -5.1452,-3.79324 -7.59749,-5.79998 -5.55302,-5.08432 -11.46336,-10.03694 -18.52635,-12.87017 z"
           id="path3231"
           inkscape:connector-curvature="0"
           inkscape:export-filename="/Users/mackay3/Desktop/Ponequita_Boton.png"
           inkscape:export-xdpi="30.99"
           inkscape:export-ydpi="30.99" />
      </g>
      <path
         inkscape:export-ydpi="30.99"
         inkscape:export-xdpi="30.99"
         inkscape:export-filename="/Users/mackay3/Desktop/Ponequita_Boton.png"
         style="color:#000000;fill:#000000;fill-opacity:0;fill-rule:nonzero;stroke:#f4e3d7;stroke-width:20;stroke-miterlimit:4;stroke-opacity:0.1875;stroke-dasharray:none;marker:none;visibility:visible;display:inline;overflow:visible;enable-background:accumulate"
         d="m 151.56159,283.65351 c -20.55915,-0.64254 1.00561,12.60315 9.70238,13.85672 11.64765,1.87028 29.09642,15.64127 14.01637,25.95578 -21.63787,15.97249 -50.03191,18.03675 -72.19559,32.73647 -10.382607,5.57509 0.64012,18.34543 0.89587,21.13948 -21.744677,8.31446 -44.308107,19.10142 -58.617187,38.13843 -8.32888,11.78425 -9.06402,29.28351 0.88566,40.36062 -15.34385,14.84986 -24.14301,40.74944 -11.0711,59.73016 14.93233,21.59674 41.90617,29.3783 65.738837,36.74139 51.83608,13.61248 106.18273,16.61328 159.48966,12.62947 27.50842,-2.65404 59.42113,-7.64941 76.65164,-31.75703 12.88341,-20.90794 -1.09504,-46.41344 -17.49092,-60.72841 -20.44233,-7.00527 -10.93395,-28.7822 -18.86838,-45.04979 -7.16857,-25.12525 -30.03517,-44.46361 -55.41849,-49.15954 2.0509,-35.72569 -17.22253,-73.93395 -52.00918,-86.68318 -13.21705,-6.70753 -27.58189,-6.50167 -41.70957,-7.91057 z m 35.3125,16 c 22.17355,8.94536 44.27792,24.8023 50.04337,49.37687 5.67171,18.70192 4.37888,43.55534 -12.57723,56.04218 -14.82211,6.86351 1.35978,15.45279 8.40953,5.42119 11.43365,-6.54894 6.58772,-32.38252 23.28481,-19.36116 26.51646,11.51786 45.61272,39.38806 43.21452,68.73962 -23.05637,-9.59919 -50.33986,-13.86569 -74.08163,-4.40874 -11.97341,5.58427 1.94793,12.71084 8.74113,6.70543 21.95215,-3.65371 44.95498,-0.35999 65.05925,9.17206 4.40611,4.67617 21.70102,9.88334 27.56428,21.0774 9.16496,11.84551 10.58137,30.77366 -1.58014,41.14367 -17.70125,15.92912 -43.1823,17.20717 -65.82123,19.49402 -51.07096,3.07696 -102.89558,-0.47852 -152.57457,-13.06835 -21.495777,-6.65136 -45.598607,-12.95172 -60.548287,-31.02488 -11.92709,-14.61148 -4.12997,-34.84285 5.585,-48.37186 8.45514,7.52941 12.38176,-5.30831 6.3125,-9.15625 0.12789,-5.24514 -9.14326,-5.43965 -7.64976,-14.45696 0.3686,-20.57525 21.53361,-31.25417 37.15778,-40.14342 28.555567,-15.07793 61.179347,-19.35313 93.074397,-19.27851 7.5155,1.76792 19.62723,-4.27269 5.8271,-6.58125 -22.28865,-6.40476 -46.30352,-3.82624 -68.47202,1.96014 -6.58569,-5.75138 -13.16865,-10.01289 -0.87514,-11.94873 23.01049,-11.14145 50.81963,-14.28341 69.54718,-32.89835 7.85263,-7.803 8.52316,-20.59261 0.35916,-28.43412 z"
         id="path3303"
         inkscape:connector-curvature="0" />
      <path
         inkscape:export-ydpi="30.99"
         inkscape:export-xdpi="30.99"
         inkscape:export-filename="/Users/mackay3/Desktop/Ponequita_Boton.png"
         inkscape:connector-curvature="0"
         id="path3187"
         d="m 151.313,282.17611 c -20.55915,-0.64254 1.00561,12.60315 9.70238,13.85672 11.64765,1.87028 29.09642,15.64127 14.01637,25.95578 -21.63787,15.97249 -50.03191,18.03675 -72.19559,32.73647 -10.382607,5.57509 0.64012,18.34543 0.89587,21.13948 -21.744677,8.31446 -44.308107,19.10142 -58.617187,38.13843 -8.32888,11.78425 -9.06402,29.28351 0.88566,40.36062 -15.34385,14.84986 -24.14301,40.74944 -11.0711,59.73016 14.93233,21.59674 41.90617,29.3783 65.738837,36.74139 51.83608,13.61248 106.18273,16.61328 159.48966,12.62947 27.50842,-2.65404 59.42113,-7.64941 76.65164,-31.75703 12.88341,-20.90794 -1.09504,-46.41344 -17.49092,-60.72841 -20.44233,-7.00527 -10.93395,-28.7822 -18.86838,-45.04979 -7.16857,-25.12525 -30.03517,-44.46361 -55.41849,-49.15954 2.0509,-35.72569 -17.22253,-73.93395 -52.00918,-86.68318 -13.21705,-6.70753 -27.58189,-6.50167 -41.70957,-7.91057 z m 35.3125,16 c 22.17355,8.94536 44.27792,24.8023 50.04337,49.37687 5.67171,18.70192 4.37888,43.55534 -12.57723,56.04218 -14.82211,6.86351 1.35978,15.45279 8.40953,5.42119 11.43365,-6.54894 6.58772,-32.38252 23.28481,-19.36116 26.51646,11.51786 45.61272,39.38806 43.21452,68.73962 -23.05637,-9.59919 -50.33986,-13.86569 -74.08163,-4.40874 -11.97341,5.58427 1.94793,12.71084 8.74113,6.70543 21.95215,-3.65371 44.95498,-0.35999 65.05925,9.17206 4.40611,4.67617 21.70102,9.88334 27.56428,21.0774 9.16496,11.84551 10.58137,30.77366 -1.58014,41.14367 -17.70125,15.92912 -43.1823,17.20717 -65.82123,19.49402 -51.07096,3.07696 -102.89558,-0.47852 -152.57457,-13.06835 -21.495777,-6.65136 -45.598607,-12.95172 -60.548287,-31.02488 -11.92709,-14.61148 -4.12997,-34.84285 5.585,-48.37186 8.45514,7.52941 12.38176,-5.30831 6.3125,-9.15625 0.12789,-5.24514 -9.14326,-5.43965 -7.64976,-14.45696 0.3686,-20.57525 21.53361,-31.25417 37.15778,-40.14342 28.555567,-15.07793 61.179347,-19.35313 93.074397,-19.27851 7.5155,1.76792 19.62723,-4.27269 5.8271,-6.58125 -22.28865,-6.40476 -46.30352,-3.82624 -68.47202,1.96014 -6.58569,-5.75138 -13.16865,-10.01289 -0.87514,-11.94873 23.01049,-11.14145 50.81963,-14.28341 69.54718,-32.89835 7.85263,-7.803 8.52316,-20.59261 0.35916,-28.43412 z"
         style="color:#000000;fill:#000000;fill-opacity:1;fill-rule:nonzero;stroke:none;stroke-width:5;marker:none;visibility:visible;display:inline;overflow:visible;enable-background:accumulate" />
    </g>
  </g>
</svg>
