<?xml version="1.0" encoding="UTF-8" standalone="no"?>
<!-- Created with Inkscape (http://www.inkscape.org/) -->

<svg
   xmlns:dc="http://purl.org/dc/elements/1.1/"
   xmlns:cc="http://creativecommons.org/ns#"
   xmlns:rdf="http://www.w3.org/1999/02/22-rdf-syntax-ns#"
   xmlns:svg="http://www.w3.org/2000/svg"
   xmlns="http://www.w3.org/2000/svg"
   xmlns:xlink="http://www.w3.org/1999/xlink"
   xmlns:sodipodi="http://sodipodi.sourceforge.net/DTD/sodipodi-0.dtd"
   xmlns:inkscape="http://www.inkscape.org/namespaces/inkscape"
   version="1.2"
   width="1280"
   height="768"
   id="svg2"
   inkscape:version="0.48.2 r9819"
   sodipodi:docname="Logo Rosalila PATH.svg">
  <sodipodi:namedview
     pagecolor="#ffffff"
     bordercolor="#666666"
     borderopacity="1"
     objecttolerance="10"
     gridtolerance="10"
     guidetolerance="10"
     inkscape:pageopacity="0"
     inkscape:pageshadow="2"
     inkscape:window-width="1280"
     inkscape:window-height="689"
     id="namedview149"
     showgrid="false"
     inkscape:zoom="0.25"
     inkscape:cx="197.1344"
     inkscape:cy="384"
     inkscape:window-x="0"
     inkscape:window-y="0"
     inkscape:window-maximized="1"
     inkscape:current-layer="svg2" />
  <defs
     id="defs4">
    <linearGradient
       x1="631.24103"
       y1="256.26294"
       x2="631.9754"
       y2="201.78719"
       id="linearGradient4465"
       xlink:href="#linearGradient4459"
       gradientUnits="userSpaceOnUse" />
    <linearGradient
       x1="856.15698"
       y1="425.92419"
       x2="856.15698"
       y2="119.92435"
       id="linearGradient4364"
       xlink:href="#linearGradient4358"
       gradientUnits="userSpaceOnUse" />
    <linearGradient
       x1="697.03961"
       y1="69.925293"
       x2="697.03961"
       y2="5.9052691"
       id="linearGradient4354"
       xlink:href="#linearGradient4348"
       gradientUnits="userSpaceOnUse" />
    <linearGradient
       x1="397.82693"
       y1="1813.4432"
       x2="397.82693"
       y2="724.30463"
       id="linearGradient3877"
       xlink:href="#linearGradient3871"
       gradientUnits="userSpaceOnUse"
       gradientTransform="matrix(1,0,0,0.9333239,-488.54151,151.94418)" />
    <path
       d="m 3.1739527,640.08549 c 0,0 56.9207893,-126.5053 102.1480673,-173.54992 C 150.5493,419.49094 246.665,343.82844 323.91022,310.6979 401.15545,277.56735 537.14664,201.94245 753.19816,205.23294"
       transform="translate(0,62.362183)"
       id="path3047-8"
       style="fill:none;stroke:#000000;stroke-width:1px;stroke-linecap:butt;stroke-linejoin:miter;stroke-opacity:1"
       inkscape:connector-curvature="0" />
    <linearGradient
       id="linearGradient3871">
      <stop
         id="stop3873"
         style="stop-color:#05064c;stop-opacity:1"
         offset="0" />
      <stop
         id="stop3875"
         style="stop-color:#05064c;stop-opacity:0"
         offset="1" />
    </linearGradient>
    <linearGradient
       id="linearGradient4348">
      <stop
         id="stop4350"
         style="stop-color:#ffffff;stop-opacity:1"
         offset="0" />
      <stop
         id="stop4352"
         style="stop-color:#ffffff;stop-opacity:0"
         offset="1" />
    </linearGradient>
    <linearGradient
       id="linearGradient4358">
      <stop
         id="stop4360"
         style="stop-color:#ffffff;stop-opacity:1"
         offset="0" />
      <stop
         id="stop4362"
         style="stop-color:#ffffff;stop-opacity:0"
         offset="1" />
    </linearGradient>
    <linearGradient
       id="linearGradient4459">
      <stop
         id="stop4461"
         style="stop-color:#ffffff;stop-opacity:1"
         offset="0" />
      <stop
         id="stop4463"
         style="stop-color:#ffffff;stop-opacity:0"
         offset="1" />
    </linearGradient>
    <linearGradient
       x1="503.30637"
       y1="1548.4285"
       x2="508.74301"
       y2="1020.6517"
       id="linearGradient5456"
       xlink:href="#linearGradient5436"
       gradientUnits="userSpaceOnUse" />
    <linearGradient
       x1="-314.24606"
       y1="121.4586"
       x2="573.58142"
       y2="663.47034"
       id="linearGradient5454"
       xlink:href="#linearGradient5207"
       gradientUnits="userSpaceOnUse" />
    <linearGradient
       x1="682.1687"
       y1="535.46112"
       x2="452.07886"
       y2="207.53616"
       id="linearGradient5452"
       xlink:href="#linearGradient5223"
       gradientUnits="userSpaceOnUse" />
    <linearGradient
       x1="503.30637"
       y1="1548.4285"
       x2="508.74301"
       y2="1020.6517"
       id="linearGradient5442"
       xlink:href="#linearGradient5436"
       gradientUnits="userSpaceOnUse" />
    <filter
       color-interpolation-filters="sRGB"
       id="filter5415">
      <feGaussianBlur
         id="feGaussianBlur5417"
         stdDeviation="33.907456" />
    </filter>
    <linearGradient
       x1="682.1687"
       y1="535.46112"
       x2="452.07886"
       y2="207.53616"
       id="linearGradient5404"
       xlink:href="#linearGradient5223"
       gradientUnits="userSpaceOnUse" />
    <filter
       color-interpolation-filters="sRGB"
       id="filter5400">
      <feGaussianBlur
         id="feGaussianBlur5402"
         stdDeviation="33.907456" />
    </filter>
    <filter
       color-interpolation-filters="sRGB"
       id="filter5381">
      <feGaussianBlur
         id="feGaussianBlur5383"
         stdDeviation="37.063146" />
    </filter>
    <filter
       color-interpolation-filters="sRGB"
       id="filter5327">
      <feGaussianBlur
         id="feGaussianBlur5329"
         stdDeviation="17.002884" />
    </filter>
    <linearGradient
       x1="623.61847"
       y1="1774.4442"
       x2="426.24246"
       y2="1140.9639"
       id="linearGradient5285"
       xlink:href="#linearGradient5279"
       gradientUnits="userSpaceOnUse" />
    <linearGradient
       x1="728.50128"
       y1="573.83191"
       x2="469.4408"
       y2="47.806252"
       id="linearGradient5229"
       xlink:href="#linearGradient5223"
       gradientUnits="userSpaceOnUse" />
    <linearGradient
       x1="-314.24606"
       y1="121.4586"
       x2="573.58142"
       y2="663.47034"
       id="linearGradient5213"
       xlink:href="#linearGradient5207"
       gradientUnits="userSpaceOnUse" />
    <linearGradient
       id="linearGradient5207">
      <stop
         id="stop5209"
         style="stop-color:#ffffff;stop-opacity:1"
         offset="0" />
      <stop
         id="stop5211"
         style="stop-color:#ffffff;stop-opacity:0"
         offset="1" />
    </linearGradient>
    <linearGradient
       id="linearGradient5223">
      <stop
         id="stop5225"
         style="stop-color:#646464;stop-opacity:1"
         offset="0" />
      <stop
         id="stop5227"
         style="stop-color:#ffffff;stop-opacity:1"
         offset="1" />
    </linearGradient>
    <linearGradient
       id="linearGradient5279">
      <stop
         id="stop5281"
         style="stop-color:#b3b3b3;stop-opacity:1"
         offset="0" />
      <stop
         id="stop5283"
         style="stop-color:#b3b3b3;stop-opacity:0"
         offset="1" />
    </linearGradient>
    <linearGradient
       id="linearGradient5436">
      <stop
         id="stop5438"
         style="stop-color:#999999;stop-opacity:1"
         offset="0" />
      <stop
         id="stop5440"
         style="stop-color:#323232;stop-opacity:0"
         offset="1" />
    </linearGradient>
  </defs>
  <flowRoot
     style="font-size:40px;font-style:normal;font-weight:normal;text-align:center;line-height:125%;letter-spacing:0px;word-spacing:0px;text-anchor:middle;fill:#000000;fill-opacity:1;stroke:none;font-family:Bitstream Vera Sans"
     xml:space="preserve"
     id="flowRoot4544"
     transform="translate(1346.7906,-135.76611)"><flowRegion
       id="flowRegion4546"><rect
         id="rect4548"
         y="665.70654"
         x="193.95197"
         height="91.376869"
         width="410.64249" /></flowRegion><flowPara
       id="flowPara4550" /></flowRoot>  <g
     style="font-size:40px;font-style:normal;font-variant:normal;font-weight:normal;font-stretch:normal;text-align:start;line-height:125%;letter-spacing:0px;word-spacing:0px;writing-mode:lr-tb;text-anchor:start;fill:#000000;fill-opacity:1;stroke:none;font-family:AddLGBitmap09;-inkscape-font-specification:AddLGBitmap09"
     id="flowRoot3987"
     transform="matrix(0,-0.41235683,0.41235683,0,348.32429,298.15484)" />
  <g
     id="g3254"
     transform="matrix(4.4072386,0,0,4.4072386,-2646.6268,-2414.3218)">
    <g
       style="font-size:40px;font-style:normal;font-variant:normal;font-weight:normal;font-stretch:normal;text-align:start;line-height:125%;letter-spacing:0px;word-spacing:0px;writing-mode:lr-tb;text-anchor:start;fill:#000000;fill-opacity:1;stroke:none;font-family:AddLGBitmap09;-inkscape-font-specification:AddLGBitmap09"
       id="flowRoot3174"
       transform="matrix(0.49597645,0,0,0.49597645,843.03669,581.49932)">
      <path
         inkscape:connector-curvature="0"
         id="path3174"
         d="m -246.4375,118.03819 -13.33333,0 0,-4.44444 -4.44445,0 0,-4.44444 -4.44444,0 0,-4.44445 -4.44445,0 0,13.33333 -13.33333,0 0,-35.555551 35.55556,0 0,4.444444 4.44444,0 0,8.888889 -4.44444,0 0,4.444448 -4.44445,0 0,4.44444 4.44445,0 0,4.44445 4.44444,0 0,8.88888 m -13.33333,-22.222218 0,-4.444444 -13.33334,0 0,4.444444 13.33334,0" />
      <path
         inkscape:connector-curvature="0"
         id="path3176"
         d="m -201.98437,113.59375 -4.44445,0 0,4.44444 -31.11111,0 0,-4.44444 -4.44444,0 0,-26.666667 4.44444,0 0,-4.444444 31.11111,0 0,4.444444 4.44445,0 0,26.666667 m -13.33334,-4.44444 0,-17.777782 -13.33333,0 0,17.777782 13.33333,0" />
      <path
         inkscape:connector-curvature="0"
         id="path3178"
         d="m -157.53125,113.59375 -4.44444,0 0,4.44444 -35.55556,0 0,-8.88888 26.66667,0 0,-4.44445 -22.22223,0 0,-4.44444 -4.44444,0 0,-13.333337 4.44444,0 0,-4.444444 35.55556,0 0,8.888889 -26.66667,0 0,4.444444 22.22223,0 0,4.444448 4.44444,0 0,13.33333" />
      <path
         inkscape:connector-curvature="0"
         id="path3180"
         d="m -113.07813,118.03819 -13.33333,0 0,-8.88888 -13.33333,0 0,8.88888 -13.33333,0 0,-31.111107 4.44444,0 0,-4.444444 31.11111,0 0,4.444444 4.44444,0 0,31.111107 m -13.33333,-17.77777 0,-8.311114 -13.33333,-0.133334 0,8.444448 13.33333,0" />
      <path
         inkscape:connector-curvature="0"
         id="path3182"
         d="m -68.625,118.03819 -40,0 0,-35.555551 13.333333,0 0,26.666671 13.333334,0 0,-4.44445 13.333333,0 0,13.33333" />
      <path
         inkscape:connector-curvature="0"
         id="path3184"
         d="m -41.949653,118.03819 -22.222222,0 0,-8.88888 4.444444,0 0,-17.777782 -4.444444,0 0,-8.888889 22.222222,0 0,8.888889 -4.444444,0 0,17.777782 4.444444,0 0,8.88888" />
      <path
         inkscape:connector-curvature="0"
         id="path3186"
         d="m 2.46875,118.03819 -40,0 0,-35.555551 13.333333,0 0,26.666671 13.333334,0 0,-4.44445 13.333333,0 0,13.33333" />
      <path
         inkscape:connector-curvature="0"
         id="path3188"
         d="m 46.921875,118.03819 -13.333333,0 0,-8.88888 -13.333334,0 0,8.88888 -13.333333,0 0,-31.111107 4.444444,0 0,-4.444444 31.111112,0 0,4.444444 4.444444,0 0,31.111107 m -13.333333,-17.77777 0,-8.311114 -13.333334,-0.133334 0,8.444448 13.333334,0" />
      <path
         inkscape:connector-curvature="0"
         id="path3190"
         d="m -246.4375,163.59375 -4.44444,0 0,4.44444 -35.55556,0 0,-8.88888 26.66667,0 0,-4.44445 -22.22223,0 0,-4.44444 -4.44444,0 0,-13.33334 4.44444,0 0,-4.44444 35.55556,0 0,8.88889 -26.66667,0 0,4.44444 22.22223,0 0,4.44445 4.44444,0 0,13.33333" />
      <path
         inkscape:connector-curvature="0"
         id="path3192"
         d="m -201.98437,150.26042 -8.88889,0 0,-8.88889 -4.44445,0 0,17.77778 4.44445,0 0,8.88888 -22.22223,0 0,-8.88888 4.44445,0 0,-17.77778 -4.44445,0 0,8.88889 -8.88888,0 0,-17.77778 40,0 0,17.77778" />
      <path
         inkscape:connector-curvature="0"
         id="path3194"
         d="m -157.53125,132.48264 0,31.11111 -4.44444,0 0,4.44444 -31.11112,0 0,-4.44444 -4.44444,0 0,-31.11111 13.33333,0 0,26.66667 13.33334,0 0,-26.66667 13.33333,0" />
      <path
         inkscape:connector-curvature="0"
         id="path3197"
         d="m -113.07813,163.59375 -4.44444,0 0,4.44444 -35.55555,0 0,-35.55555 35.55555,0 0,4.44444 4.44444,0 0,26.66667 m -13.33333,-4.44444 0,-17.77778 -13.33333,0 c 0.0592,9.54076 0.0592,15.46668 0,17.77778 l 13.33333,0" />
      <path
         inkscape:connector-curvature="0"
         id="path3199"
         d="m -86.402778,168.03819 -22.222222,0 0,-8.88888 4.44444,0 0,-17.77778 -4.44444,0 0,-8.88889 22.222222,0 0,8.88889 -4.444444,0 0,17.77778 4.444444,0 0,8.88888" />
      <path
         inkscape:connector-curvature="0"
         id="path3201"
         d="m -41.984375,163.59375 -4.444444,0 0,4.44444 -31.111112,0 0,-4.44444 -4.444444,0 0,-26.66667 4.444444,0 0,-4.44444 31.111112,0 0,4.44444 4.444444,0 0,26.66667 m -13.333333,-4.44444 0,-17.77778 -13.333334,0 0,17.77778 13.333334,0" />
    </g>
    <path
       inkscape:connector-curvature="0"
       style="fill:#000000;fill-opacity:1;stroke:none"
       id="rect3184"
       d="m 673.33044,645.06091 20.53843,0 0,20.53843 -20.53843,0 z" />
    <path
       inkscape:connector-curvature="0"
       style="fill:#000000;fill-opacity:1;stroke:none"
       id="rect3186"
       d="m 650.66156,645.06091 20.53843,0 0,20.53843 -20.53843,0 z" />
    <path
       inkscape:connector-curvature="0"
       style="fill:#000000;fill-opacity:1;stroke:none"
       id="rect3188"
       d="m 627.99268,645.06091 20.53842,0 0,20.53843 -20.53842,0 z" />
    <path
       inkscape:connector-curvature="0"
       style="fill:#000000;fill-opacity:1;stroke:none"
       id="rect3190"
       d="m 650.66156,622.39197 20.53843,0 0,20.53843 -20.53843,0 z" />
    <path
       inkscape:connector-curvature="0"
       style="fill:#000000;fill-opacity:1;stroke:none"
       id="rect3192"
       d="m 627.99268,622.39197 20.53842,0 0,20.53843 -20.53842,0 z" />
    <path
       inkscape:connector-curvature="0"
       style="fill:#000000;fill-opacity:1;stroke:none"
       id="rect3194"
       d="m 627.99268,599.72314 20.53842,0 0,20.53843 -20.53842,0 z" />
    <path
       inkscape:connector-curvature="0"
       style="fill:#000000;fill-opacity:1;stroke:none"
       id="path3196"
       transform="matrix(0.41951747,0,0,0.41951747,568.63138,271.57238)"
       d="m 230.49873,808.18555 c 0,4.48757 -3.6379,8.12547 -8.12547,8.12547 -4.48757,0 -8.12547,-3.6379 -8.12547,-8.12547 0,-4.48758 3.6379,-8.12548 8.12547,-8.12548 4.48757,0 8.12547,3.6379 8.12547,8.12548 z" />
    <path
       inkscape:connector-curvature="0"
       style="fill:none;stroke:#000000;stroke-width:1.5978508;stroke-linecap:butt;stroke-linejoin:miter;stroke-miterlimit:4;stroke-opacity:1;stroke-dasharray:1.59785085, 3.1957017;stroke-dashoffset:0"
       id="path3198"
       d="m 662.17193,610.04262 c 0,0 11.07242,-59.0158 16.97843,29.4249 0,0 12.55161,-59.9218 24.86205,-60.4462" />
  </g>
</svg>
