<?xml version="1.0" encoding="UTF-8" standalone="no"?>
<!-- Created with Inkscape (http://www.inkscape.org/) -->

<svg
   xmlns:dc="http://purl.org/dc/elements/1.1/"
   xmlns:cc="http://creativecommons.org/ns#"
   xmlns:rdf="http://www.w3.org/1999/02/22-rdf-syntax-ns#"
   xmlns:svg="http://www.w3.org/2000/svg"
   xmlns="http://www.w3.org/2000/svg"
   xmlns:sodipodi="http://sodipodi.sourceforge.net/DTD/sodipodi-0.dtd"
   xmlns:inkscape="http://www.inkscape.org/namespaces/inkscape"
   width="20.250107"
   height="31.640875"
   id="svg12084"
   version="1.1"
   inkscape:version="0.48.2 r9819"
   sodipodi:docname="walk_right1.svg">
  <defs
     id="defs12086" />
  <sodipodi:namedview
     id="base"
     pagecolor="#ffffff"
     bordercolor="#666666"
     borderopacity="1.0"
     inkscape:pageopacity="0.0"
     inkscape:pageshadow="2"
     inkscape:zoom="0.35"
     inkscape:cx="103.84605"
     inkscape:cy="54.495693"
     inkscape:document-units="px"
     inkscape:current-layer="layer1"
     showgrid="false"
     fit-margin-top="0"
     fit-margin-left="0"
     fit-margin-right="0"
     fit-margin-bottom="0"
     inkscape:window-width="511"
     inkscape:window-height="434"
     inkscape:window-x="1"
     inkscape:window-y="55"
     inkscape:window-maximized="0" />
  <g
     inkscape:label="Layer 1"
     inkscape:groupmode="layer"
     id="layer1"
     transform="translate(-271.15395,-555.21701)">
    <g
       transform="translate(18.762533,-264.55322)"
       id="g10037">
      <path
         inkscape:connector-curvature="0"
         id="path11303"
         d="m 270.42025,832.97765 c 0.77156,0.69611 0.21364,2.44321 -0.82706,1.63759 -0.3744,-0.88671 -0.72747,-2.30483 0.82706,-1.63759 z"
         style="color:#000000;fill:#cccccc;fill-opacity:1;fill-rule:nonzero;stroke:none;stroke-width:10;marker:none;visibility:visible;display:inline;overflow:visible;enable-background:accumulate" />
      <path
         inkscape:connector-curvature="0"
         id="path11295"
         d="m 263.94087,831.22888 c -2.35394,0.22026 -4.71339,-0.0134 -7.06552,0.26061 -1.37242,0.31499 -1.67137,1.79121 -2.35249,2.77076 -1.04133,1.15461 -1.72869,2.79074 -1.77681,4.25028 0.89655,1.0276 2.92622,1.36176 3.69595,1.81081 0.2932,0.93643 1.43645,-0.67601 2.10084,0.0987 1.48509,0.34449 3.02212,0.2023 4.52303,0.0593 1.33062,0.51853 2.87274,0.15054 4.19696,-0.23225 1.70276,-0.27077 2.79913,-1.9681 1.50198,-3.40687 -0.80308,-1.04562 -1.26852,-2.37473 -2.38944,-3.17851 0.31955,-1.80676 -0.69184,-2.62922 -2.4345,-2.43284 z m -7.6875,9.15626 c -0.0753,0.0647 0.11286,0.0307 0,0 z m 10.90625,-4.6875 c 0.35856,-0.0132 -0.31173,0.12924 0,0 z m -9.15625,4.25 c 0.51431,-0.0539 -0.14108,0.1383 0,0 z"
         style="color:#000000;fill:#373e48;fill-opacity:1;fill-rule:nonzero;stroke:none;stroke-width:10;marker:none;visibility:visible;display:inline;overflow:visible;enable-background:accumulate" />
      <path
         inkscape:connector-curvature="0"
         id="path11315"
         d="m 254.48534,836.0666 c -0.98338,0.6142 0.92184,-2.71537 0.32693,-0.81094 -0.15776,0.63868 -1.02462,1.70663 -0.68635,0.39328 -0.0225,-0.75164 1.30263,-1.90878 0.56582,-0.58234 -0.24829,0.45531 -1.01466,1.89652 -0.73891,0.56677 0.14514,-0.46572 0.92294,-2.43711 1.09309,-1.55194 -0.14725,0.52113 -1.26563,2.54083 -0.84797,1.01229 0.13142,-0.53494 1.56192,-2.67641 1.40115,-1.11483 0.0765,0.63172 -1.24362,2.3797 -0.92101,0.88672 0.004,-0.90016 1.32312,-1.93055 1.22763,-0.41971 -0.1014,1.27132 -1.74959,0.86824 -0.69552,-0.15976 1.31595,-0.81147 0.10648,1.99136 -0.58999,0.86052 0.0592,-1.03441 1.77988,-0.38117 0.68293,0.12246 -1.41675,0.10097 1.00692,-1.5321 0.39344,-0.26466 -0.77165,0.62943 -0.70791,-0.1674 -0.002,-0.40723 0.66885,-0.68094 -0.74695,1.50199 -0.95526,0.59548 1.39415,0.12998 0.30482,-2.49294 1.23175,-1.06878 0.35173,0.88392 -0.58568,1.02323 -0.30077,0.036 0.0815,-1.34938 0.89156,1.18432 -0.28065,1.16047 -0.71266,0.55065 -0.51919,-0.61591 -0.1226,0.0156 -1.509,0.0894 1.06156,-0.29587 0.36209,-1.27308 -0.19398,-0.8052 -1.18035,1.06134 -0.84205,-0.0771 1.04169,-1.26768 -0.31203,0.92722 -0.30566,1.47203 0.15617,0.63254 -0.81895,1.33692 -0.57199,0.34116 0.74235,-0.81964 -0.12797,1.11123 0.044,0.1948 0.66699,-1.03164 0.25406,0.93159 0.12491,0.0421 0.70805,-0.77046 -0.0765,0.9291 -0.0381,-0.0321 0.74053,-0.88059 -0.21502,0.98599 -0.19396,0.0368 0.0815,-0.93751 0.69989,0.0721 0.12643,0.0883 0.39284,-0.72941 0.28578,-2.54348 1.39561,-2.68696 0.21879,0.54969 -1.2062,1.42679 -0.47448,0.41305 1.72734,-1.19765 1.02407,2.66987 -0.28496,1.43899 0.57331,-0.54032 0.95103,0.34685 0.13423,0.17144 0.23847,-0.47626 1.44365,-0.75448 0.90132,-1.64694 0.74909,-0.32221 0.0675,1.95125 0.0324,0.40341 -0.75785,-1.03917 0.68864,-0.46806 0.19357,0.3798 -4.1e-4,0.97985 -2.08601,0.98007 -0.70743,0.33889 0.26829,-0.31803 1.01025,-1.23585 0.80433,-0.22217 -0.64111,1.01218 -1.17496,0.12767 -0.36968,0.0402 -0.86918,0.48583 -0.28661,0.19757 -0.2715,0.1041 -1.09917,0.63561 0.34702,-0.12515 0.28005,-0.54145 -0.34747,0.51077 -0.78895,1.13816 -0.12063,0.34705 0.21546,-0.72853 0.0196,-1.1485 -0.23528,-0.25218 -0.16194,0.79883 -0.87971,1.34431 -0.25836,0.2799 0.10015,-0.52182 0.89776,-1.85264 0.19304,-0.63262 -0.18886,0.5974 -1.56038,2.46249 -0.91494,0.86803 0.12667,-0.69322 1.18306,-1.64437 0.547,-0.47151 -0.12907,0.49236 -1.22673,2.70905 -0.79634,1.09932 0.15276,-0.63761 1.30503,-1.78796 0.70311,-0.47809 -0.16601,0.57632 -0.94003,1.94271 -0.46575,0.55222 0.15069,-0.75362 1.10918,-1.31291 0.49753,-0.22383 0.0139,0.50536 -0.78433,0.80317 -0.2705,0.65709 z"
         style="color:#000000;fill:#ffffff;fill-opacity:1;fill-rule:nonzero;stroke:none;stroke-width:10;marker:none;visibility:visible;display:inline;overflow:visible;enable-background:accumulate" />
      <path
         inkscape:connector-curvature="0"
         id="path11289"
         d="m 266.56587,847.85388 c -0.8198,0.47055 -2.16403,-0.21297 -2.95577,0.83748 -0.448,0.93607 -1.14975,0.93077 -2.04672,0.57998 -1.021,0.0441 -2.16753,0.0703 -2.74578,0.31784 0.56868,0.1915 -1.11668,0.093 -0.25681,0.73107 1.00056,0.80007 2.38643,0.33763 3.5676,0.47363 1.16523,-0.11783 2.23492,-0.10895 3.26696,0.0528 0.96021,-0.1539 2.37753,-2.38158 1.17052,-2.99284 z m -6.875,1.65626 c 0.14695,-0.0772 0.0298,0.1009 0,0 z"
         style="color:#000000;fill:#008000;fill-opacity:1;fill-rule:nonzero;stroke:none;stroke-width:10;marker:none;visibility:visible;display:inline;overflow:visible;enable-background:accumulate" />
      <path
         inkscape:connector-curvature="0"
         id="path11285"
         d="m 268.59712,839.07263 c -0.92534,0.97006 -2.38684,1.39029 -3.78528,1.41009 -1.30601,-0.029 -2.679,0.14084 -3.83972,0.77771 -1.03204,-0.49439 -2.1338,-0.83034 -3.2924,-0.9149 -1.22048,-0.0512 -2.29145,-1.37657 -3.42717,-0.46158 -1.66369,-1.0427 -1.43919,1.51637 -0.99915,2.47 0.54471,1.40692 1.06099,2.82246 1.72059,4.17884 0.45274,1.06871 1.55467,1.53501 1.704,2.6245 1.39838,0.78964 2.95262,0.34425 4.41401,0.29334 1.66322,0.0964 3.5814,-0.27117 4.53637,-1.78378 0.72079,-1.38239 2.47641,-2.09143 2.77383,-3.69223 0.0311,-1.06503 0.65141,-2.05487 0.82215,-3.13231 0.26293,-0.63258 0.16913,-1.59754 -0.62723,-1.76968 z"
         style="color:#000000;fill:#214478;fill-opacity:1;fill-rule:nonzero;stroke:none;stroke-width:10;marker:none;visibility:visible;display:inline;overflow:visible;enable-background:accumulate" />
      <path
         inkscape:connector-curvature="0"
         id="path11281"
         d="m 259.37837,835.82264 c -1.26424,0.0827 -2.20634,0.12871 -2.1864,1.59028 0.12781,1.00883 0.48164,2.02609 1.0957,2.84792 1.07046,0.97988 2.55785,1.58586 4.02015,1.20689 1.4396,-0.23604 2.24763,-1.89319 1.75952,-3.22221 -0.2547,-0.86766 -0.27192,-3.01865 -1.66784,-2.03573 -0.98424,-0.14858 -1.92968,-0.54915 -3.02113,-0.38715 z"
         style="color:#000000;fill:#ffe6d5;fill-opacity:1;fill-rule:nonzero;stroke:none;stroke-width:10;marker:none;visibility:visible;display:inline;overflow:visible;enable-background:accumulate" />
      <path
         inkscape:connector-curvature="0"
         id="path11297"
         d="m 260.22212,831.47889 c -1.74809,-0.17303 -2.19527,1.69497 -3.01958,2.78941 -1.11052,1.67816 0.83155,2.90996 2.37773,2.49238 1.35326,-0.1005 2.8733,0.0141 4.02991,-0.81351 1.3964,-0.96579 0.44561,-2.84255 -0.58922,-3.69033 -0.7772,-0.69529 -1.79075,-0.857 -2.79884,-0.77795 z"
         style="color:#000000;fill:#800000;fill-opacity:1;fill-rule:nonzero;stroke:none;stroke-width:10;marker:none;visibility:visible;display:inline;overflow:visible;enable-background:accumulate" />
      <path
         inkscape:connector-curvature="0"
         id="path11279"
         d="m 266.72212,832.10389 c -0.85756,1.17711 0.25259,2.46105 1.00513,3.38509 0.78836,0.79228 1.15672,1.83258 1.3713,2.8349 1.31008,0.47471 1.06427,-1.73482 0.92324,-2.57819 -0.18625,-1.38974 -1.21876,-2.84732 -2.46364,-3.37014 -0.29644,-0.0403 -0.5178,-0.30073 -0.83603,-0.27166 z"
         style="color:#000000;fill:#800000;fill-opacity:1;fill-rule:nonzero;stroke:none;stroke-width:10;marker:none;visibility:visible;display:inline;overflow:visible;enable-background:accumulate" />
      <path
         inkscape:connector-curvature="0"
         id="path11265"
         d="m 268.62837,824.44764 c -1.08713,0.57192 -2.10803,1.38892 -3.11777,1.96971 -1.19404,0.20893 -1.23057,2.2794 -2.45648,1.14335 -0.6385,-0.0759 -1.44893,-1.17432 -2.44115,-0.40332 -1.49691,0.4206 -1.98137,2.39722 -3.66238,1.99111 -1.84521,-0.24278 -0.31082,2.25819 0.67041,1.82084 1.0484,0.50807 2.23831,0.488 3.3894,0.48022 1.20605,-0.10189 2.36533,-0.20418 3.55707,-0.26053 1.45379,-0.51815 3.03548,-0.92438 4.16946,-2.04561 1.14763,-1.13531 1.51875,-3.25466 0.35337,-4.49871 -0.12257,-0.11884 -0.28863,-0.1987 -0.46193,-0.19706 z m -11.4375,6.6875 c -0.21165,0.10311 0.0252,0.13902 0,0 z"
         style="color:#000000;fill:#ffe6d5;fill-opacity:1;fill-rule:nonzero;stroke:none;stroke-width:10;marker:none;visibility:visible;display:inline;overflow:visible;enable-background:accumulate" />
      <path
         inkscape:connector-curvature="0"
         id="path11255"
         d="m 255.47212,823.07264 c -0.71397,1.1401 -1.11465,2.51422 -0.99707,3.86187 0.1685,1.03938 0.21812,2.15606 1.61488,2.26457 1.12698,0.73943 2.41365,0.12299 3.57258,-0.18859 0.42585,-0.66374 0.50204,-2.5872 1.58547,-1.56131 1.22821,-0.52882 1.4667,0.65713 1.92117,1.43027 1.44202,0.27304 0.96748,-1.95632 2.3187,-2.05681 1.27138,-0.5173 0.0453,-1.48855 -0.78992,-0.79302 -1.24567,0.68396 -2.52624,0.22289 -3.78933,0.16254 -1.31577,0.40027 -2.6053,0.021 -3.91054,-0.0721 -0.97092,0.18265 -0.0834,-1.62419 -0.77279,-2.27944 -0.17026,-0.30612 -0.26148,-0.92051 -0.75315,-0.76795 z"
         style="color:#000000;fill:#d4aa00;fill-opacity:1;fill-rule:nonzero;stroke:none;stroke-width:10;marker:none;visibility:visible;display:inline;overflow:visible;enable-background:accumulate" />
      <path
         inkscape:connector-curvature="0"
         id="path11261"
         d="m 261.62837,819.91638 c -1.48501,-0.20897 -1.22347,2.06077 -2.86812,1.53074 -1.28377,0.13326 -3.65142,0.0729 -3.5528,1.87364 0.63647,0.25261 1.59065,0.0757 1.29449,1.18129 -0.5417,1.67 1.30105,2.58156 2.71707,2.28178 1.71844,0.12272 3.44946,0.006 5.15977,-0.13713 1.65173,-0.54366 2.93799,-2.07154 4.75007,-2.12257 1.20526,-0.17925 3.96412,-0.6342 2.96749,-2.41338 -0.9235,-0.70843 -2.20358,-0.45564 -3.29544,-0.45477 -1.18829,0.37642 -2.21263,-0.33834 -3.39323,-0.27278 -1.0422,0.12678 -2.07886,-0.71682 -2.79957,-0.18322 0.30256,-0.7113 0.39028,-1.49685 -0.7425,-1.29467 l -0.23723,0.0111 0,-3e-5 z m 1.09375,0.87501 c -0.0885,0.79201 0.57681,-0.81991 0,0 z m 0.28125,-0.28126 c 0.2822,-0.0903 -0.27769,-0.45473 0,0 z"
         style="color:#000000;fill:#333333;fill-opacity:1;fill-rule:nonzero;stroke:none;stroke-width:10;marker:none;visibility:visible;display:inline;overflow:visible;enable-background:accumulate" />
      <path
         inkscape:connector-curvature="0"
         id="path11277"
         d="m 268.17838,827.32646 c -1.65271,0.46956 -1.32134,-2.35715 0.0309,-1.30861 0.88863,1.14251 -1.78824,1.54784 -1.04781,0.53809 0.7388,-0.0508 0.0805,-0.11336 0.72715,-0.11507 -0.94699,0.1709 1.22524,0.12849 0.28972,0.88559 z"
         style="color:#000000;fill:#ffffff;fill-opacity:1;fill-rule:nonzero;stroke:none;stroke-width:10;marker:none;visibility:visible;display:inline;overflow:visible;enable-background:accumulate" />
      <path
         inkscape:connector-curvature="0"
         id="path11275"
         d="m 267.80017,826.92735 c -0.84637,-0.88309 1.22875,-0.74354 0.3014,0.009 -0.72739,0.089 -0.47746,-0.56067 0.0548,-0.36813 -0.4864,-0.27564 -0.20152,0.19318 0.027,0.0583 l -0.17557,0.17076 -0.2075,0.13013 -1.8e-4,3.8e-4 z"
         style="color:#000000;fill:#00ccff;fill-opacity:1;fill-rule:nonzero;stroke:none;stroke-width:10;marker:none;visibility:visible;display:inline;overflow:visible;enable-background:accumulate" />
      <path
         inkscape:connector-curvature="0"
         id="path10835"
         d="m 256.12963,831.54493 c 0.15439,-0.43901 0.98526,-2.1886 0.98016,-0.9466 -0.18529,0.353 -0.43505,1.31008 -0.98016,0.9466 z"
         style="color:#000000;fill:#000000;fill-opacity:1;fill-rule:nonzero;stroke:none;stroke-width:10;marker:none;visibility:visible;display:inline;overflow:visible;enable-background:accumulate" />
      <path
         inkscape:connector-curvature="0"
         id="path10841"
         d="m 256.62605,830.75873 c -1.13522,-0.6475 -2.22875,-1.80533 -2.46745,-3.13354 -0.28547,-1.79044 0.0267,-3.66036 1.04102,-5.18296 0.14923,-0.76004 1.58689,-1.5051 0.88906,-0.26899 -0.77337,1.35136 -1.52961,2.81242 -1.38101,4.42199 -0.33741,1.65849 1.04104,2.80168 2.12562,3.79143 l -0.0839,0.19705 -0.12338,0.17502 6e-5,0 z"
         style="color:#000000;fill:#000000;fill-opacity:1;fill-rule:nonzero;stroke:none;stroke-width:10;marker:none;visibility:visible;display:inline;overflow:visible;enable-background:accumulate" />
      <path
         inkscape:connector-curvature="0"
         id="path10843"
         d="m 255.54663,822.12938 c 1.60939,-1.27375 3.77737,-1.55121 5.77358,-1.62696 2.41135,0.0307 4.90653,0.46596 7.02003,1.67061 0.63917,0.14539 1.83872,2.10194 0.64708,1.35321 -1.30728,-1.3751 -3.3269,-1.56757 -5.07953,-1.98653 -2.74069,-0.51895 -5.58797,-0.16369 -8.19837,0.77442 l -0.16284,-0.18434 5e-5,-4.1e-4 z"
         style="color:#000000;fill:#000000;fill-opacity:1;fill-rule:nonzero;stroke:none;stroke-width:10;marker:none;visibility:visible;display:inline;overflow:visible;enable-background:accumulate" />
      <path
         inkscape:connector-curvature="0"
         id="path10847"
         d="m 268.70038,822.84647 c 0.98242,0.94745 1.31253,2.399 1.52889,3.70867 -0.39556,1.06759 -0.75809,-0.99425 -0.93164,-1.45081 -0.029,-0.7323 -1.15143,-1.74422 -0.59725,-2.25786 z"
         style="color:#000000;fill:#000000;fill-opacity:1;fill-rule:nonzero;stroke:none;stroke-width:10;marker:none;visibility:visible;display:inline;overflow:visible;enable-background:accumulate" />
      <path
         inkscape:connector-curvature="0"
         id="path10849"
         d="m 269.94424,826.8107 c 0.18565,1.38974 -0.82644,2.60805 -1.86029,3.39298 -0.84503,-0.49674 1.17041,-1.51462 1.20672,-2.29941 0.3105,-0.27951 0.0235,-1.3262 0.65357,-1.09357 z"
         style="color:#000000;fill:#000000;fill-opacity:1;fill-rule:nonzero;stroke:none;stroke-width:10;marker:none;visibility:visible;display:inline;overflow:visible;enable-background:accumulate" />
      <path
         inkscape:connector-curvature="0"
         id="path10851"
         d="m 268.14464,830.26457 c -0.70251,0.45729 -2.4717,1.31877 -2.79437,0.38401 0.85566,0.01 2.18758,-0.86787 2.79437,-0.38401 z"
         style="color:#000000;fill:#000000;fill-opacity:1;fill-rule:nonzero;stroke:none;stroke-width:10;marker:none;visibility:visible;display:inline;overflow:visible;enable-background:accumulate" />
      <path
         inkscape:connector-curvature="0"
         id="path10857"
         d="m 266.94104,830.48036 c 1.41445,1.36535 -1.40812,0.38055 0,0 z"
         style="color:#000000;fill:#000000;fill-opacity:1;fill-rule:nonzero;stroke:none;stroke-width:10;marker:none;visibility:visible;display:inline;overflow:visible;enable-background:accumulate" />
      <path
         inkscape:connector-curvature="0"
         id="path10867"
         d="m 254.33749,825.10252 c 2.09943,1.3255 4.71313,1.30038 7.11278,1.2852 2.48514,-0.0881 4.97934,-0.87373 6.91732,-2.46125 0.91966,0.46339 -1.16171,1.60373 -1.68439,1.97056 -3.19454,1.72597 -7.10169,1.75367 -10.52046,0.7306 -0.53556,-0.22284 -2.48378,-0.90088 -1.82525,-1.52511 z"
         style="color:#000000;fill:#000000;fill-opacity:1;fill-rule:nonzero;stroke:none;stroke-width:10;marker:none;visibility:visible;display:inline;overflow:visible;enable-background:accumulate" />
      <path
         inkscape:connector-curvature="0"
         id="path10899"
         d="m 260.16205,821.12626 c -0.007,-1.62005 1.9266,-1.55568 2.96236,-1.00337 0.79175,0.73429 -0.16991,0.87357 -0.56357,0.26718 -0.85651,-0.22588 -1.89489,-0.31654 -2.00442,0.82736 l -0.20186,-0.0247 -0.19252,-0.0665 1e-5,3e-5 z"
         style="color:#000000;fill:#000000;fill-opacity:1;fill-rule:nonzero;stroke:none;stroke-width:10;marker:none;visibility:visible;display:inline;overflow:visible;enable-background:accumulate" />
      <path
         inkscape:connector-curvature="0"
         id="path10903"
         d="m 267.5037,821.45853 c 1.47445,-0.18638 3.07035,-0.17696 4.45488,0.41653 1.43237,0.62891 0.3386,2.28549 -0.78817,2.46676 -1.09542,0.24539 -3.14209,0.79801 -3.72739,-0.0902 1.3557,-0.47377 2.99095,0.10341 4.24217,-0.78815 1.42593,-1.16524 -1.21393,-1.44991 -2.00694,-1.43562 -0.62941,-0.23405 -2.04523,0.27718 -2.17455,-0.56932 z"
         style="color:#000000;fill:#000000;fill-opacity:1;fill-rule:nonzero;stroke:none;stroke-width:10;marker:none;visibility:visible;display:inline;overflow:visible;enable-background:accumulate" />
      <path
         inkscape:connector-curvature="0"
         id="path11269"
         d="m 268.70942,829.41183 c -1.17442,1.30606 -1.55692,-1.19835 -0.19274,-1.17718 0.75319,-0.28463 1.9501,0.3859 1.17955,1.1948 -0.60026,0.98699 -1.96367,-0.19277 -0.86775,-0.74849 1.03334,0.8141 -0.50936,0.28207 -0.51493,1.02952 -1.21619,0.78181 -1.02795,-1.21772 0.20205,-1.06759 0.63723,-0.24058 0.7816,0.55789 0.34225,0.65086 -0.3863,0.78939 -0.50154,-0.30233 -0.40655,-0.18232 0.6355,-0.25441 0.66592,1.14574 -0.26636,0.67814 -1.11995,-0.80342 2.07589,-2.25718 1.25072,-0.63895 -0.63847,-0.003 -1.61179,0.62146 -1.45356,0.20526 -0.6881,0.098 0.55146,-1.04806 0.94153,-0.62208 0.7605,0.5424 -0.20868,0.5556 0.0486,0.39917 0.61428,-0.25782 0.1461,-0.38626 -0.10415,-0.3002 -0.71037,-0.20675 -0.50769,0.79574 -0.9673,0.44542 0.38356,-0.30762 0.52227,-0.314 0.80863,0.13364 z"
         style="color:#000000;fill:#ffaaaa;fill-opacity:1;fill-rule:nonzero;stroke:none;stroke-width:10;marker:none;visibility:visible;display:inline;overflow:visible;enable-background:accumulate" />
      <path
         inkscape:connector-curvature="0"
         id="path10907"
         d="m 268.10259,829.52228 c 0.65936,0.31798 2.50281,-0.50052 1.45163,-1.08272 -0.77324,-0.53989 -2.48223,0.74062 -1.75538,1.30585 0.69466,-0.57337 1.59658,0.0516 0.52058,0.18034 -1.74835,0.85508 -1.01671,-1.88507 0.20446,-1.85758 1.12239,-0.43946 2.47318,0.74074 1.10948,1.58682 -0.29241,0.17577 -1.77134,0.37028 -1.53077,-0.13271 z"
         style="color:#000000;fill:#000000;fill-opacity:1;fill-rule:nonzero;stroke:none;stroke-width:10;marker:none;visibility:visible;display:inline;overflow:visible;enable-background:accumulate" />
      <path
         inkscape:connector-curvature="0"
         id="path10909"
         d="m 269.56733,828.99666 c -0.57888,-0.25655 -2.18303,1.14506 -1.2866,-0.0629 0.26178,-0.18009 1.33265,-0.54744 1.2866,0.0629 z"
         style="color:#000000;fill:#000000;fill-opacity:1;fill-rule:nonzero;stroke:none;stroke-width:10;marker:none;visibility:visible;display:inline;overflow:visible;enable-background:accumulate" />
      <path
         inkscape:connector-curvature="0"
         id="path10917"
         d="m 268.15415,826.29647 c -0.76293,-1.15929 -1.74951,1.3086 -0.26132,0.76243 2.06251,0.0747 -1.84498,0.99951 -1.14533,-0.53724 -0.0363,-1.02859 1.80456,-1.12144 1.55847,-0.25412 l -0.1518,0.0298 -2e-5,-9.2e-4 z"
         style="color:#000000;fill:#000000;fill-opacity:1;fill-rule:nonzero;stroke:none;stroke-width:10;marker:none;visibility:visible;display:inline;overflow:visible;enable-background:accumulate" />
      <path
         inkscape:connector-curvature="0"
         id="path10921"
         d="m 267.7141,826.92522 c -0.83569,-0.83764 1.16202,-1.07227 0.66968,-0.022 -0.99802,0.39135 -0.70491,-0.13553 -0.19868,-0.31231 -0.33179,-0.57117 -0.41135,0.0938 -0.471,0.33433 z"
         style="color:#000000;fill:#000000;fill-opacity:1;fill-rule:nonzero;stroke:none;stroke-width:10;marker:none;visibility:visible;display:inline;overflow:visible;enable-background:accumulate" />
      <path
         inkscape:connector-curvature="0"
         id="path10937"
         d="m 269.91151,826.41568 c -0.44796,-1.11126 1.5016,0.47423 0.53454,1.05168 -0.88028,0.64282 -0.87755,-0.0186 -0.43173,-0.43482 -0.22135,-0.85559 0.5766,0.7943 -0.16879,0.30127 -0.21943,-0.87026 0.85626,-0.35879 0.26727,-0.15603 -0.7008,0.44247 -0.26419,-1.48232 0.27878,-0.21379 0.41011,1.16971 -1.78303,0.61808 -0.38196,0.37152 0.72349,-0.23322 -0.42185,-1.47528 0.10663,-1.02395 l -0.20427,0.10567 -4.7e-4,-0.002 z"
         style="color:#000000;fill:#000000;fill-opacity:1;fill-rule:nonzero;stroke:none;stroke-width:10;marker:none;visibility:visible;display:inline;overflow:visible;enable-background:accumulate" />
      <path
         inkscape:connector-curvature="0"
         id="path10941"
         d="m 255.36944,822.69306 c 1.25527,0.0798 1.97229,2.31422 1.0337,2.84159 0.0544,-0.96974 -0.0408,-2.21524 -1.14074,-2.57738 l 0.10698,-0.26422 6e-5,10e-6 z"
         style="color:#000000;fill:#000000;fill-opacity:1;fill-rule:nonzero;stroke:none;stroke-width:10;marker:none;visibility:visible;display:inline;overflow:visible;enable-background:accumulate" />
      <path
         inkscape:connector-curvature="0"
         id="path10959"
         d="m 258.39689,832.64943 c -0.78269,1.13242 -1.04795,2.51826 -1.47313,3.79245 -0.57241,-0.88412 0.28404,-2.32901 0.74582,-3.26474 0.16605,-0.15376 0.47065,-0.91024 0.72731,-0.52771 z"
         style="color:#000000;fill:#000000;fill-opacity:1;fill-rule:nonzero;stroke:none;stroke-width:10;marker:none;visibility:visible;display:inline;overflow:visible;enable-background:accumulate" />
      <path
         inkscape:connector-curvature="0"
         id="path10963"
         d="m 257.49724,836.23753 c 2.10998,0.14642 4.35736,0.1221 6.27891,-0.86256 -0.0611,1.02368 -2.23444,1.31777 -3.30221,1.41632 -1.02609,0.0369 -2.11374,0.0516 -3.06231,-0.38917 l 0.0856,-0.16506 10e-6,4.7e-4 z"
         style="color:#000000;fill:#000000;fill-opacity:1;fill-rule:nonzero;stroke:none;stroke-width:10;marker:none;visibility:visible;display:inline;overflow:visible;enable-background:accumulate" />
      <path
         inkscape:connector-curvature="0"
         id="path10967"
         d="m 258.0141,832.38298 c 0.90159,-1.03701 2.61461,-1.06222 3.88878,-0.82725 1.57429,0.47714 2.49374,2.2145 2.53091,3.77421 -0.75552,-0.18936 -0.64291,-2.19886 -1.64436,-2.74113 -1.18301,-1.09685 -2.98248,-0.68484 -4.36583,-0.27486 l -0.23577,0.12866 -0.17375,-0.06 2e-5,3.7e-4 z"
         style="color:#000000;fill:#000000;fill-opacity:1;fill-rule:nonzero;stroke:none;stroke-width:10;marker:none;visibility:visible;display:inline;overflow:visible;enable-background:accumulate" />
      <path
         inkscape:connector-curvature="0"
         id="path10971"
         d="m 257.62945,837.12004 c 0.12181,1.07633 0.0669,2.31442 0.91746,3.14629 1.18337,1.24015 3.61025,1.59485 4.67788,0.0221 0.76263,-1.25898 0.0755,-2.72046 0.0266,-4.0472 0.93667,0.51248 0.93814,2.43895 0.73469,3.53381 -0.44917,1.84085 -2.73165,2.5336 -4.34066,1.78918 -1.67186,-0.541 -2.70417,-2.45267 -2.21991,-4.14766 l 0.0329,-0.25119 0.17128,-0.0453 -1.5e-4,-3e-5 z"
         style="color:#000000;fill:#000000;fill-opacity:1;fill-rule:nonzero;stroke:none;stroke-width:10;marker:none;visibility:visible;display:inline;overflow:visible;enable-background:accumulate" />
      <path
         inkscape:connector-curvature="0"
         id="path10973"
         d="m 256.2426,832.06684 c -1.27084,1.79303 -2.56405,3.63165 -3.15715,5.78126 -0.5614,1.51656 -0.51394,-0.71808 -0.12545,-1.29641 0.60033,-1.7793 1.70077,-3.38389 3.11223,-4.61708 l 0.17037,0.13224 0,-1e-5 z"
         style="color:#000000;fill:#000000;fill-opacity:1;fill-rule:nonzero;stroke:none;stroke-width:10;marker:none;visibility:visible;display:inline;overflow:visible;enable-background:accumulate" />
      <path
         inkscape:connector-curvature="0"
         id="path10975"
         d="m 252.60584,838.71957 c 0.227,-0.26231 2.01551,0.89584 2.79194,1.16789 0.67722,0.0994 1.72091,1.30062 0.47046,0.81158 -1.1553,-0.64275 -2.85334,-0.98693 -3.47682,-2.16688 0.0945,-0.11021 0.49467,-0.0324 0.21442,0.18741 z"
         style="color:#000000;fill:#000000;fill-opacity:1;fill-rule:nonzero;stroke:none;stroke-width:10;marker:none;visibility:visible;display:inline;overflow:visible;enable-background:accumulate" />
      <path
         inkscape:connector-curvature="0"
         id="path10977"
         d="m 264.40989,840.55429 c 1.54511,-0.2549 3.0369,-0.80598 4.42844,-1.50609 0.17448,0.85259 -1.92281,1.34887 -2.76793,1.61349 -0.33996,0.0265 -1.8237,0.46918 -1.66051,-0.1074 z"
         style="color:#000000;fill:#000000;fill-opacity:1;fill-rule:nonzero;stroke:none;stroke-width:10;marker:none;visibility:visible;display:inline;overflow:visible;enable-background:accumulate" />
      <path
         inkscape:connector-curvature="0"
         id="path10979"
         d="m 269.30464,839.14967 c -0.13581,-1.89313 -1.57957,-3.24724 -2.59447,-4.7167 0.53415,-0.54989 1.51939,1.23153 2.00639,1.75764 0.42188,0.69459 1.38906,2.47622 0.58808,2.95906 z"
         style="color:#000000;fill:#000000;fill-opacity:1;fill-rule:nonzero;stroke:none;stroke-width:10;marker:none;visibility:visible;display:inline;overflow:visible;enable-background:accumulate" />
      <path
         inkscape:connector-curvature="0"
         id="path10981"
         d="m 266.47312,834.26038 c -0.32133,-0.81327 -0.71106,-2.32049 -0.10441,-2.88631 0.23278,0.85241 0.42142,2.22789 0.10441,2.88631 z"
         style="color:#000000;fill:#000000;fill-opacity:1;fill-rule:nonzero;stroke:none;stroke-width:10;marker:none;visibility:visible;display:inline;overflow:visible;enable-background:accumulate" />
      <path
         inkscape:connector-curvature="0"
         id="path10983"
         d="m 266.55508,831.7181 c 1.93887,0.41725 3.51213,2.07661 3.72946,4.06535 0.0904,0.69464 0.29833,2.68317 -0.47671,2.51027 0.1747,-1.97705 -0.15338,-4.35752 -1.9897,-5.50369 -0.25736,-0.36318 -1.58281,-0.61992 -1.26305,-1.07193 z"
         style="color:#000000;fill:#000000;fill-opacity:1;fill-rule:nonzero;stroke:none;stroke-width:10;marker:none;visibility:visible;display:inline;overflow:visible;enable-background:accumulate" />
      <path
         inkscape:connector-curvature="0"
         id="path10989"
         d="m 253.07154,840.33671 c 0.4629,1.69297 0.62711,3.50359 1.51692,5.06199 0.72921,1.59729 2.16249,2.65052 3.52926,3.6628 -0.0334,0.87176 -1.5672,-0.4689 -2.10301,-0.78781 -2.35691,-1.83463 -3.39641,-5.00477 -3.12813,-7.91346 l 0.18478,-0.0235 1.8e-4,-2e-5 z"
         style="color:#000000;fill:#000000;fill-opacity:1;fill-rule:nonzero;stroke:none;stroke-width:10;marker:none;visibility:visible;display:inline;overflow:visible;enable-background:accumulate" />
      <path
         inkscape:connector-curvature="0"
         id="path10993"
         d="m 258.33137,849.24643 c 1.84101,0.34949 3.69486,-0.26293 5.52878,-0.1053 0.15942,0.70844 -1.76845,0.51161 -2.4569,0.69529 -0.84145,-0.0202 -3.04029,0.2445 -3.07188,-0.58999 z"
         style="color:#000000;fill:#000000;fill-opacity:1;fill-rule:nonzero;stroke:none;stroke-width:10;marker:none;visibility:visible;display:inline;overflow:visible;enable-background:accumulate" />
      <path
         inkscape:connector-curvature="0"
         id="path11003"
         d="m 264.43168,848.39127 c 1.77451,-1.58273 3.58654,-3.41481 4.12872,-5.81424 0.4229,-1.07269 0.24042,-2.53831 0.61861,-3.42554 0.64643,1.0503 0.14408,2.42314 -0.0507,3.56733 -0.59136,2.40214 -2.25684,4.49658 -4.36275,5.75995 l -0.23949,0.0859 -0.0944,-0.1734 2e-5,4e-5 z"
         style="color:#000000;fill:#000000;fill-opacity:1;fill-rule:nonzero;stroke:none;stroke-width:10;marker:none;visibility:visible;display:inline;overflow:visible;enable-background:accumulate" />
      <path
         inkscape:connector-curvature="0"
         id="path11015"
         d="m 260.45051,844.34887 c 2.11977,-1.17599 4.26238,-2.4839 5.75234,-4.43677 0.48089,1.0098 -1.39093,2.28121 -2.19303,2.99322 -0.96695,0.57841 -2.57647,1.78803 -3.55931,1.44355 z"
         style="color:#000000;fill:#000000;fill-opacity:1;fill-rule:nonzero;stroke:none;stroke-width:10;marker:none;visibility:visible;display:inline;overflow:visible;enable-background:accumulate" />
      <path
         inkscape:connector-curvature="0"
         id="path11019"
         d="m 260.45839,841.54311 c 0.44754,2.28886 0.33468,4.68021 1.09332,6.91094 -0.65335,0.32887 -1.00616,-1.6764 -1.15225,-2.38157 -0.17091,-1.49747 -0.31014,-3.03743 -0.10181,-4.5345 l 0.16078,0.005 -4e-5,1.3e-4 z"
         style="color:#000000;fill:#000000;fill-opacity:1;fill-rule:nonzero;stroke:none;stroke-width:10;marker:none;visibility:visible;display:inline;overflow:visible;enable-background:accumulate" />
      <path
         inkscape:connector-curvature="0"
         id="path11021"
         d="m 254.31923,840.08527 c 0.40265,0.9976 0.87296,2.38312 0.23607,2.96271 -0.28449,0.64537 -1.39133,0.78817 -0.52358,-0.0218 0.20525,-0.41929 1.07625,-0.65721 0.54699,-0.57289 -0.0792,-0.68572 -0.7227,-1.93564 -0.25948,-2.36798 z"
         style="color:#000000;fill:#000000;fill-opacity:1;fill-rule:nonzero;stroke:none;stroke-width:10;marker:none;visibility:visible;display:inline;overflow:visible;enable-background:accumulate" />
      <path
         inkscape:connector-curvature="0"
         id="path11029"
         d="m 253.34068,838.02318 c 1.07957,0.28063 -0.58056,0.72777 0,0 z"
         style="color:#000000;fill:#000000;fill-opacity:1;fill-rule:nonzero;stroke:none;stroke-width:10;marker:none;visibility:visible;display:inline;overflow:visible;enable-background:accumulate" />
      <path
         inkscape:connector-curvature="0"
         id="path11031"
         d="m 254.36196,838.49301 c 1.05541,0.0676 -0.47706,0.76007 0,4.6e-4 l 0,-4.6e-4 z"
         style="color:#000000;fill:#000000;fill-opacity:1;fill-rule:nonzero;stroke:none;stroke-width:10;marker:none;visibility:visible;display:inline;overflow:visible;enable-background:accumulate" />
      <path
         inkscape:connector-curvature="0"
         id="path11033"
         d="m 255.22616,839.03352 c 1.11574,0.0814 -0.50943,0.76002 4e-5,-10e-6 l -4e-5,10e-6 z"
         style="color:#000000;fill:#000000;fill-opacity:1;fill-rule:nonzero;stroke:none;stroke-width:10;marker:none;visibility:visible;display:inline;overflow:visible;enable-background:accumulate" />
      <path
         inkscape:connector-curvature="0"
         id="path11035"
         d="m 256.14191,839.23587 c 0.98207,0.14825 -0.58824,0.70829 -10e-6,-10e-6 l 10e-6,10e-6 z"
         style="color:#000000;fill:#000000;fill-opacity:1;fill-rule:nonzero;stroke:none;stroke-width:10;marker:none;visibility:visible;display:inline;overflow:visible;enable-background:accumulate" />
      <path
         inkscape:connector-curvature="0"
         id="path11037"
         d="m 264.88608,839.72432 c 1.13621,-0.7271 0.55003,0.76594 0,0 z"
         style="color:#000000;fill:#000000;fill-opacity:1;fill-rule:nonzero;stroke:none;stroke-width:10;marker:none;visibility:visible;display:inline;overflow:visible;enable-background:accumulate" />
      <path
         inkscape:connector-curvature="0"
         id="path11039"
         d="m 266.5708,839.1931 c 0.68952,-0.44414 0.2866,0.7629 0,0 z"
         style="color:#000000;fill:#000000;fill-opacity:1;fill-rule:nonzero;stroke:none;stroke-width:10;marker:none;visibility:visible;display:inline;overflow:visible;enable-background:accumulate" />
      <path
         inkscape:connector-curvature="0"
         id="path11041"
         d="m 267.44222,838.63485 c 1.1302,-0.67559 0.35766,0.84913 0,0 z"
         style="color:#000000;fill:#000000;fill-opacity:1;fill-rule:nonzero;stroke:none;stroke-width:10;marker:none;visibility:visible;display:inline;overflow:visible;enable-background:accumulate" />
      <path
         inkscape:connector-curvature="0"
         id="path11043"
         d="m 267.99274,838.39422 c 0.49778,-0.47222 0.44364,0.68975 0,0 z"
         style="color:#000000;fill:#000000;fill-opacity:1;fill-rule:nonzero;stroke:none;stroke-width:10;marker:none;visibility:visible;display:inline;overflow:visible;enable-background:accumulate" />
      <path
         inkscape:connector-curvature="0"
         id="path11045"
         d="m 267.9357,837.67653 c -0.4355,-0.87081 0.8581,-0.0271 -2e-5,-7e-5 l 2e-5,7e-5 z"
         style="color:#000000;fill:#000000;fill-opacity:1;fill-rule:nonzero;stroke:none;stroke-width:10;marker:none;visibility:visible;display:inline;overflow:visible;enable-background:accumulate" />
      <path
         inkscape:connector-curvature="0"
         id="path11047"
         d="m 267.49131,836.70273 c -0.34463,-0.52819 0.74396,-0.14966 -10e-6,-3.4e-4 l 10e-6,3.4e-4 z"
         style="color:#000000;fill:#000000;fill-opacity:1;fill-rule:nonzero;stroke:none;stroke-width:10;marker:none;visibility:visible;display:inline;overflow:visible;enable-background:accumulate" />
      <path
         inkscape:connector-curvature="0"
         id="path11049"
         d="m 266.71692,835.8317 c -0.19985,-0.39624 0.62166,-0.1683 3e-5,0 l -3e-5,0 z"
         style="color:#000000;fill:#000000;fill-opacity:1;fill-rule:nonzero;stroke:none;stroke-width:10;marker:none;visibility:visible;display:inline;overflow:visible;enable-background:accumulate" />
      <path
         inkscape:connector-curvature="0"
         id="path11051"
         d="m 265.92523,834.11928 c -0.0313,-0.64972 0.76139,0.19061 0,0 z"
         style="color:#000000;fill:#000000;fill-opacity:1;fill-rule:nonzero;stroke:none;stroke-width:10;marker:none;visibility:visible;display:inline;overflow:visible;enable-background:accumulate" />
      <path
         inkscape:connector-curvature="0"
         id="path11053"
         d="m 265.84257,832.62598 c -0.12231,-0.8599 0.93634,0.17876 0,0 z"
         style="color:#000000;fill:#000000;fill-opacity:1;fill-rule:nonzero;stroke:none;stroke-width:10;marker:none;visibility:visible;display:inline;overflow:visible;enable-background:accumulate" />
      <path
         inkscape:connector-curvature="0"
         id="path11055"
         d="m 265.967,831.79935 c -0.75224,0.15296 -1.34602,-0.74852 -0.28264,-0.44686 0.29771,0.0897 0.59853,0.0932 0.28264,0.44686 z"
         style="color:#000000;fill:#000000;fill-opacity:1;fill-rule:nonzero;stroke:none;stroke-width:10;marker:none;visibility:visible;display:inline;overflow:visible;enable-background:accumulate" />
      <path
         inkscape:connector-curvature="0"
         id="path11057"
         d="m 266.49808,832.68357 c 0.80022,-0.23908 0.83542,0.90094 0.23287,0.38225 0.43993,-1.14685 1.22634,1.02083 0.45335,0.11547 -0.24768,-0.51034 -0.23247,0.2297 -0.88063,-0.28233 l 0.19431,-0.21573 1e-4,3.4e-4 z"
         style="color:#000000;fill:#000000;fill-opacity:1;fill-rule:nonzero;stroke:none;stroke-width:10;marker:none;visibility:visible;display:inline;overflow:visible;enable-background:accumulate" />
      <path
         inkscape:connector-curvature="0"
         id="path11059"
         d="m 267.73204,833.46916 c 0.35038,-1.09225 1.38282,0.51027 0.25264,0.27123 0.011,-0.19947 0.7504,-0.52992 -0.25264,-0.27123 z"
         style="color:#000000;fill:#000000;fill-opacity:1;fill-rule:nonzero;stroke:none;stroke-width:10;marker:none;visibility:visible;display:inline;overflow:visible;enable-background:accumulate" />
      <path
         inkscape:connector-curvature="0"
         id="path11063"
         d="m 268.98745,833.56197 c 0.40264,-1.37816 1.7498,-1.08336 1.87016,0.26222 0.93582,2.14734 -2.91921,1.01652 -1.58317,-0.28975 -0.11867,0.74724 1.09629,1.72822 1.29402,0.87356 -0.29959,-0.81716 -0.46466,-2.4228 -1.21058,-0.93236 l -0.19871,0.18099 -0.17201,-0.0946 2.9e-4,-6e-5 z"
         style="color:#000000;fill:#000000;fill-opacity:1;fill-rule:nonzero;stroke:none;stroke-width:10;marker:none;visibility:visible;display:inline;overflow:visible;enable-background:accumulate" />
      <path
         inkscape:connector-curvature="0"
         id="path11065"
         d="m 269.42317,832.86443 c -1.1765,0.23158 0.26053,-1.44486 -0.0461,-0.22888 -1.08302,0.36852 -0.34604,-0.46513 -0.10573,-0.19844 -0.17917,0.36262 0.0792,0.0914 0.15187,0.42732 z"
         style="color:#000000;fill:#000000;fill-opacity:1;fill-rule:nonzero;stroke:none;stroke-width:10;marker:none;visibility:visible;display:inline;overflow:visible;enable-background:accumulate" />
      <path
         inkscape:connector-curvature="0"
         id="path11067"
         d="m 268.22986,832.03953 c -0.9008,0.47159 -0.66575,-1.24845 -0.4995,-0.41176 -0.9578,0.051 0.25931,-0.70906 0.19987,0.0843 0.12328,0.0548 0.37759,-0.0529 0.29963,0.3275 z"
         style="color:#000000;fill:#000000;fill-opacity:1;fill-rule:nonzero;stroke:none;stroke-width:10;marker:none;visibility:visible;display:inline;overflow:visible;enable-background:accumulate" />
      <path
         inkscape:connector-curvature="0"
         id="path11069"
         d="m 256.61778,831.04027 c 0.6602,0.0769 2.18271,-0.19126 2.23235,0.52624 -0.50198,-0.0296 -2.44558,0.12514 -2.23235,-0.52624 z"
         style="color:#000000;fill:#000000;fill-opacity:1;fill-rule:nonzero;stroke:none;stroke-width:10;marker:none;visibility:visible;display:inline;overflow:visible;enable-background:accumulate" />
      <path
         inkscape:connector-curvature="0"
         id="path11071"
         d="m 261.30049,831.39501 c 1.10698,0.002 2.55757,-0.42632 3.44764,-0.003 -0.87742,0.39145 -3.03621,0.67318 -3.44764,0.003 z"
         style="color:#000000;fill:#000000;fill-opacity:1;fill-rule:nonzero;stroke:none;stroke-width:10;marker:none;visibility:visible;display:inline;overflow:visible;enable-background:accumulate" />
      <path
         inkscape:connector-curvature="0"
         id="path11075"
         d="m 269.24432,838.50291 c 1.56829,-0.63057 0.99799,1.76694 0.78834,2.52432 -1.25582,0.49807 -1.00447,-2.52869 -0.46461,-1.68573 0.015,0.54709 -0.12483,1.46943 0.32819,1.38143 -0.50765,-0.20417 0.7492,-2.54004 -0.5394,-1.96182 l -0.11325,-0.25811 7.3e-4,-9e-5 z"
         style="color:#000000;fill:#000000;fill-opacity:1;fill-rule:nonzero;stroke:none;stroke-width:10;marker:none;visibility:visible;display:inline;overflow:visible;enable-background:accumulate" />
      <path
         inkscape:connector-curvature="0"
         id="path11077"
         d="m 269.34714,839.95729 c -0.54093,0.34047 -2.14871,0.90389 -2.32148,0.23345 0.71106,-0.0492 1.75875,-0.55574 2.32148,-0.23345 z"
         style="color:#000000;fill:#000000;fill-opacity:1;fill-rule:nonzero;stroke:none;stroke-width:10;marker:none;visibility:visible;display:inline;overflow:visible;enable-background:accumulate" />
      <path
         inkscape:connector-curvature="0"
         id="path11085"
         d="m 255.52035,833.23067 c 1.84356,0.35346 0.31453,3.29395 -0.64333,2.39544 0.96955,-0.18753 1.72878,-1.63828 0.54604,-2.21176 l 0.0978,-0.1837 -5.1e-4,2e-5 z"
         style="color:#000000;fill:#000000;fill-opacity:1;fill-rule:nonzero;stroke:none;stroke-width:10;marker:none;visibility:visible;display:inline;overflow:visible;enable-background:accumulate" />
      <path
         inkscape:connector-curvature="0"
         id="path11087"
         d="m 254.86473,834.36542 c -0.0873,-1.33829 1.45903,0.26447 0.0588,0.19424 -0.59616,-0.93603 1.44297,-0.58225 0.26444,8.9e-4 -1.19053,-0.20937 0.67866,-0.4163 -0.12359,-0.30952 0.4047,-0.20702 0.15892,-0.30361 -0.19961,0.11439 z"
         style="color:#000000;fill:#000000;fill-opacity:1;fill-rule:nonzero;stroke:none;stroke-width:10;marker:none;visibility:visible;display:inline;overflow:visible;enable-background:accumulate" />
      <path
         inkscape:connector-curvature="0"
         id="path11089"
         d="m 255.10467,835.01498 c -2.2e-4,0.83363 -1.56003,2.55709 -0.84659,0.92483 0.25953,-0.27028 0.35883,-1.12204 0.84659,-0.92483 z"
         style="color:#000000;fill:#000000;fill-opacity:1;fill-rule:nonzero;stroke:none;stroke-width:10;marker:none;visibility:visible;display:inline;overflow:visible;enable-background:accumulate" />
      <path
         inkscape:connector-curvature="0"
         id="path11091"
         d="m 254.34989,835.26388 c -0.0101,0.7916 -1.02924,0.95106 -0.40246,0.0556 0.0294,-0.28903 0.27858,-0.10711 0.40246,-0.0556 z"
         style="color:#000000;fill:#000000;fill-opacity:1;fill-rule:nonzero;stroke:none;stroke-width:10;marker:none;visibility:visible;display:inline;overflow:visible;enable-background:accumulate" />
      <path
         inkscape:connector-curvature="0"
         id="path11135"
         d="m 265.11044,848.20001 c 1.4699,-1.32155 2.93863,1.34569 1.22496,2.15795 -1.84063,1.12666 -4.14189,1.18099 -6.23051,0.93114 -1.46358,0.16672 -2.6973,-1.70623 -0.91753,-2.28379 0.40779,0.43263 -1.42803,1.32856 0.0223,1.52009 2.19683,0.42123 4.56846,0.38867 6.66739,-0.44544 1.39543,-0.428 0.76562,-2.40168 -0.58741,-1.75968 l -0.17921,-0.12019 -2e-5,-8e-5 z"
         style="color:#000000;fill:#000000;fill-opacity:1;fill-rule:nonzero;stroke:none;stroke-width:10;marker:none;visibility:visible;display:inline;overflow:visible;enable-background:accumulate" />
      <path
         inkscape:connector-curvature="0"
         id="path11213"
         d="m 266.20896,826.10509 c -0.14213,1.25201 -2.05883,0.75611 -1.84457,2.30058 0.16516,0.62363 -2.38024,1.00574 -0.85883,0.13059 0.74951,-0.53029 0.6239,0.43515 0.62721,-0.40049 -10e-4,-1.34235 1.5206,-1.26322 2.07619,-2.03068 z"
         style="color:#000000;fill:#000000;fill-opacity:1;fill-rule:nonzero;stroke:none;stroke-width:10;marker:none;visibility:visible;display:inline;overflow:visible;enable-background:accumulate" />
      <path
         inkscape:connector-curvature="0"
         id="path11215"
         d="m 262.86115,828.78992 c 0.25716,-0.89636 -1.43863,-1.22177 -1.02552,-1.7161 0.65044,-0.10542 1.90111,1.64434 1.02552,1.7161 z"
         style="color:#000000;fill:#000000;fill-opacity:1;fill-rule:nonzero;stroke:none;stroke-width:10;marker:none;visibility:visible;display:inline;overflow:visible;enable-background:accumulate" />
      <path
         inkscape:connector-curvature="0"
         id="path11235"
         d="m 255.36185,828.66196 c 0.55538,0.65107 2.35176,0.39019 2.25634,1.03128 -0.69338,0.22448 -2.58408,-0.30202 -2.25634,-1.03128 z"
         style="color:#000000;fill:#000000;fill-opacity:1;fill-rule:nonzero;stroke:none;stroke-width:10;marker:none;visibility:visible;display:inline;overflow:visible;enable-background:accumulate" />
      <path
         inkscape:connector-curvature="0"
         id="path11243"
         d="m 257.66777,829.27189 c 0.77151,-0.14333 1.76876,-0.20104 1.71614,-0.0217 -0.14433,0.31717 -2.11339,0.71519 -1.71614,0.0217 z"
         style="color:#000000;fill:#000000;fill-opacity:1;fill-rule:nonzero;stroke:none;stroke-width:10;marker:none;visibility:visible;display:inline;overflow:visible;enable-background:accumulate" />
      <path
         inkscape:connector-curvature="0"
         id="path11247"
         d="m 258.60453,829.31064 c 0.19113,0.0377 -0.002,0.40874 0,0 z"
         style="color:#000000;fill:#000000;fill-opacity:1;fill-rule:nonzero;stroke:none;stroke-width:10;marker:none;visibility:visible;display:inline;overflow:visible;enable-background:accumulate" />
      <path
         inkscape:connector-curvature="0"
         id="path11249"
         d="m 259.01978,829.23491 c 0.0696,-0.59022 1.69169,-1.95956 0.97017,-0.6836 -0.27308,0.19731 -0.57366,1.25363 -0.97017,0.6836 z"
         style="color:#000000;fill:#000000;fill-opacity:1;fill-rule:nonzero;stroke:none;stroke-width:10;marker:none;visibility:visible;display:inline;overflow:visible;enable-background:accumulate" />
      <path
         inkscape:connector-curvature="0"
         id="path11251"
         d="m 259.46618,828.54768 c -0.27617,-1.06857 1.8998,-2.21575 2.00036,-1.15498 -1.20539,-0.38815 -1.27806,1.11236 -2.00036,1.15498 z"
         style="color:#000000;fill:#000000;fill-opacity:1;fill-rule:nonzero;stroke:none;stroke-width:10;marker:none;visibility:visible;display:inline;overflow:visible;enable-background:accumulate" />
      <path
         inkscape:connector-curvature="0"
         id="path11305"
         d="m 269.45666,833.65625 c -0.30281,-1.00566 1.22712,-0.6471 0.47736,-0.14554 -0.92614,-0.0543 0.34291,-0.63104 -0.022,0.0269 -0.0553,0.19074 -0.3266,0.0927 -0.45537,0.11867 z"
         style="color:#000000;fill:#ffffff;fill-opacity:1;fill-rule:nonzero;stroke:none;stroke-width:10;marker:none;visibility:visible;display:inline;overflow:visible;enable-background:accumulate" />
      <path
         inkscape:connector-curvature="0"
         id="path11311"
         d="m 268.95788,835.18716 c -0.17415,-0.72597 -0.8872,-1.14989 -0.54629,-0.095 0.14671,0.70599 1.68589,1.30812 0.38353,0.9761 -0.93932,-0.30018 -0.78079,-2.7312 0.13854,-1.37246 -0.007,0.13043 0.36387,0.48554 0.0242,0.49132 z"
         style="color:#000000;fill:#ffffff;fill-opacity:1;fill-rule:nonzero;stroke:none;stroke-width:10;marker:none;visibility:visible;display:inline;overflow:visible;enable-background:accumulate" />
      <path
         inkscape:connector-curvature="0"
         id="path11313"
         d="m 268.8431,835.62923 c 0.7484,-1.26035 1.18367,1.39455 0.62107,0.21293 0.0289,-0.79282 -0.35151,0.20698 -0.62107,-0.21293 z"
         style="color:#000000;fill:#ffffff;fill-opacity:1;fill-rule:nonzero;stroke:none;stroke-width:10;marker:none;visibility:visible;display:inline;overflow:visible;enable-background:accumulate" />
    </g>
  </g>
</svg>
