<?xml version="1.0" encoding="UTF-8" standalone="no"?>
<!-- Created with Inkscape (http://www.inkscape.org/) -->

<svg
   xmlns:dc="http://purl.org/dc/elements/1.1/"
   xmlns:cc="http://creativecommons.org/ns#"
   xmlns:rdf="http://www.w3.org/1999/02/22-rdf-syntax-ns#"
   xmlns:svg="http://www.w3.org/2000/svg"
   xmlns="http://www.w3.org/2000/svg"
   xmlns:sodipodi="http://sodipodi.sourceforge.net/DTD/sodipodi-0.dtd"
   xmlns:inkscape="http://www.inkscape.org/namespaces/inkscape"
   width="20.250103"
   height="31.640881"
   id="svg13872"
   version="1.1"
   inkscape:version="0.48.2 r9819"
   sodipodi:docname="walk_left3.svg">
  <defs
     id="defs13874" />
  <sodipodi:namedview
     id="base"
     pagecolor="#ffffff"
     bordercolor="#666666"
     borderopacity="1.0"
     inkscape:pageopacity="0.0"
     inkscape:pageshadow="2"
     inkscape:zoom="0.35"
     inkscape:cx="-101.86825"
     inkscape:cy="-25.504303"
     inkscape:document-units="px"
     inkscape:current-layer="layer1"
     showgrid="false"
     fit-margin-top="0"
     fit-margin-left="0"
     fit-margin-right="0"
     fit-margin-bottom="0"
     inkscape:window-width="511"
     inkscape:window-height="434"
     inkscape:window-x="1"
     inkscape:window-y="55"
     inkscape:window-maximized="0" />
  <g
     inkscape:label="Layer 1"
     inkscape:groupmode="layer"
     id="layer1"
     transform="translate(-476.86825,-475.21701)">
    <g
       transform="translate(54.757099,-259.70043)"
       id="g9950">
      <path
         inkscape:connector-curvature="0"
         id="path11865"
         d="m 424.33243,748.12486 c -0.77157,0.69611 -0.21365,2.44321 0.82706,1.63759 0.37439,-0.88672 0.72749,-2.30482 -0.82706,-1.63759 z"
         style="color:#000000;fill:#cccccc;fill-opacity:1;fill-rule:nonzero;stroke:none;stroke-width:10;marker:none;visibility:visible;display:inline;overflow:visible;enable-background:accumulate" />
      <path
         inkscape:connector-curvature="0"
         id="path11867"
         d="m 430.78462,746.38513 c -1.56316,-0.31489 -2.85432,0.82319 -2.39344,2.4255 -1.20241,0.83241 -1.65651,2.29851 -2.55384,3.41178 -1.06266,1.39324 -0.0225,2.8193 1.50004,3.11607 1.47021,0.55433 3.12623,0.68343 4.64369,0.31754 1.69252,0.21063 3.45029,0.20514 5.085,-0.33324 0.32668,0.68041 1.3638,0.42693 1.31315,0.12668 1.11761,-0.62699 3.11441,-0.73676 3.7436,-2.13913 -0.56427,-1.17879 -0.65001,-2.58502 -1.61173,-3.58774 -0.91079,-0.7713 -0.8703,-2.18871 -2.00329,-2.80489 -0.93919,-0.61396 -2.1418,-0.34228 -3.20157,-0.42409 -1.51027,0.056 -3.01493,-0.0945 -4.52161,-0.10848 z m 7.71875,9.15625 c -0.11284,0.0306 0.0754,0.065 0,0 z m -11.03125,-4.71875 c 0.24679,-0.0331 0.2038,0.21572 0,0 z m 9.1875,4.28125 c 0.35494,0.007 -0.31408,0.0825 0,0 z"
         style="color:#000000;fill:#373e48;fill-opacity:1;fill-rule:nonzero;stroke:none;stroke-width:10;marker:none;visibility:visible;display:inline;overflow:visible;enable-background:accumulate" />
      <path
         inkscape:connector-curvature="0"
         id="path11869"
         d="m 440.26733,751.21381 c 0.98339,0.61411 -0.92206,-2.71569 -0.32695,-0.81094 0.15777,0.63868 1.02462,1.70663 0.68635,0.39328 0.0225,-0.75164 -1.30263,-1.90878 -0.56582,-0.58234 0.24829,0.45531 1.01466,1.89652 0.73891,0.56677 -0.14514,-0.46576 -0.92295,-2.43715 -1.09319,-1.55194 0.14726,0.52113 1.26564,2.54082 0.84797,1.01229 -0.13141,-0.53494 -1.56192,-2.67641 -1.40115,-1.11483 -0.0765,0.63171 1.24361,2.37971 0.921,0.88672 -0.004,-0.90016 -1.32312,-1.93056 -1.22763,-0.41971 0.1014,1.27131 1.7496,0.86825 0.69554,-0.15976 -1.31595,-0.81147 -0.10648,1.99136 0.58999,0.86052 -0.0592,-1.03441 -1.77987,-0.38116 -0.68292,0.12246 1.41675,0.10095 -1.00692,-1.53211 -0.39344,-0.26467 0.77165,0.62943 0.70791,-0.1674 0.002,-0.40723 -0.66884,-0.6811 0.74699,1.50194 0.95527,0.59538 -1.39417,0.12997 -0.30478,-2.49294 -1.23178,-1.06878 -0.35166,0.88394 0.58569,1.02322 0.3008,0.036 -0.0815,-1.34938 -0.89156,1.18433 0.28066,1.16047 0.71266,0.55065 0.51917,-0.61591 0.12259,0.0156 1.50899,0.0893 -1.06153,-0.29587 -0.36209,-1.27308 0.194,-0.80499 1.18038,1.0614 0.84205,-0.077 -1.04169,-1.26767 0.31205,0.92721 0.30566,1.47203 -0.15623,0.63258 0.81909,1.33692 0.57209,0.34116 -0.74227,-0.81966 0.12786,1.11122 -0.0441,0.1948 -0.66699,-1.03168 -0.25408,0.93159 -0.12491,0.0421 -0.70802,-0.77047 0.0764,0.92915 0.0381,-0.0321 -0.7406,-0.88059 0.21499,0.98599 0.19392,0.0368 -0.0813,-0.93753 -0.69981,0.0721 -0.12633,0.0883 -0.39284,-0.72941 -0.28578,-2.54347 -1.3956,-2.68696 -0.21879,0.54969 1.2062,1.42679 0.47448,0.41305 -1.72733,-1.19765 -1.02405,2.66988 0.28497,1.43899 -0.57333,-0.54032 -0.95101,0.34685 -0.13421,0.17144 -0.23847,-0.47626 -1.44365,-0.75448 -0.90132,-1.64694 -0.74911,-0.32222 -0.0675,1.95125 -0.0324,0.40341 0.75782,-1.03917 -0.68863,-0.46804 -0.19357,0.3798 4e-4,0.97984 2.086,0.98006 0.70742,0.33889 -0.26829,-0.31804 -1.01025,-1.23584 -0.80433,-0.22217 0.6411,1.01218 1.17496,0.12765 0.36968,0.0402 0.86915,0.48583 0.28665,0.19775 0.2715,0.1042 1.09921,0.63562 -0.34704,-0.12516 -0.28005,-0.54145 0.34756,0.51069 0.78883,1.13818 0.12055,0.34705 -0.21547,-0.72853 -0.0196,-1.1485 0.23527,-0.25218 0.16194,0.79883 0.87971,1.3443 0.25836,0.2799 -0.10015,-0.52184 -0.89776,-1.85264 -0.19305,-0.63262 0.18928,0.59748 1.56025,2.46248 0.91394,0.86803 -0.12667,-0.69322 -1.18306,-1.64438 -0.547,-0.47151 0.12906,0.49237 1.22672,2.70905 0.79633,1.09932 -0.15275,-0.63762 -1.30504,-1.78796 -0.70311,-0.47809 0.16601,0.57632 0.94003,1.94271 0.46575,0.55222 -0.1507,-0.75362 -1.10916,-1.31291 -0.49752,-0.22383 -0.0138,0.50474 0.78313,0.80329 0.27159,0.657 z"
         style="color:#000000;fill:#ffffff;fill-opacity:1;fill-rule:nonzero;stroke:none;stroke-width:10;marker:none;visibility:visible;display:inline;overflow:visible;enable-background:accumulate" />
      <path
         inkscape:connector-curvature="0"
         id="path11871"
         d="m 434.96865,764.69121 c -0.77728,-0.46236 -3.33848,-0.63504 -2.52066,0.87193 0.52898,0.43291 2.39571,0.10608 2.14459,0.0845 0.64693,-0.0225 1.0973,0.15425 0.9929,-0.14275 0.46833,-0.27346 0.8158,-0.37928 0.57908,-0.18202 0.43446,-0.55746 -0.98259,-0.0381 -0.89341,-0.54278 -0.56808,0.0743 -0.57387,0.0622 -0.55464,0.0404 -1.52924,-0.23597 -3.12129,0.0342 -4.58915,-0.52994 -0.71999,-0.58935 -0.73975,-0.3261 -0.68339,0.30462 0.40555,0.0631 -0.70803,-0.0184 0.22108,0.0433 0.44551,1.24031 2.73812,0.99129 1.82,-0.45165 -0.73549,-0.84659 -2.5591,-1.59579 -3.26427,-0.37461 -0.73857,1.24696 1.23337,3.05377 2.1693,1.82264 1.04421,-0.85144 -1.13199,-1.68666 -1.26687,-1.80063 -0.29813,1.19172 -0.18363,-0.73334 -0.95754,-0.83112 -1.2459,0.97795 0.43731,2.57523 1.49215,2.88234 0.0588,-0.69079 1.61681,-1.2846 0.0773,-1.31134 -0.43007,0.10676 0.089,-0.51088 -0.39892,0.0273 -0.8358,-0.40622 1.37752,1.10063 0.98101,0.11944 0.0189,-0.99979 1.70191,-0.0511 0.67965,-0.89456 -0.65504,-1.14327 -3.41518,-0.95155 -2.81251,0.68961 0.67116,0.98549 2.03759,1.14657 3.11833,1.39973 1.49915,-0.059 3.03819,0.20339 4.51106,-0.1516 0.98272,-0.45305 0.42024,-1.147 -0.42597,-0.96965 0.54164,-0.86417 -0.75323,0.7528 0.20928,0.0875 1.21064,-0.37924 -1.48414,-0.28023 -0.54324,-0.20666 -1.02337,-0.13153 -1.03432,-0.3502 -2.16504,-0.0949 0.0482,0.71376 -0.0204,1.18258 0.45611,1.0888 0.44701,0.11175 1.72081,0.0579 1.62379,-0.97792 z"
         style="color:#000000;fill:#008000;fill-opacity:1;fill-rule:nonzero;stroke:none;stroke-width:10;marker:none;visibility:visible;display:inline;overflow:visible;enable-background:accumulate" />
      <path
         inkscape:connector-curvature="0"
         id="path11873"
         d="m 426.15962,754.22888 c -1.39759,0.55903 -0.4503,2.15195 -0.23789,3.16582 0.5537,1.30237 0.30009,2.58626 1.55773,3.57033 1.37479,0.89874 1.81534,2.88181 3.54547,3.29974 1.21249,0.45336 2.52565,0.30428 3.79094,0.33908 1.04128,0.3461 3.027,0.29575 3.53854,-0.82606 -0.036,-1.02717 1.47191,-1.29499 1.58885,-2.43004 0.60813,-1.35925 1.14294,-2.73652 1.64837,-4.14437 0.2329,-0.77214 0.64287,-2.85266 -0.75966,-2.34293 -0.75327,0.32803 -1.50995,-0.65361 -2.33057,0.16454 -1.26324,0.72235 -2.8622,0.40607 -4.13848,1.14802 -1.25175,0.3536 -2.50622,-0.74023 -3.8576,-0.53777 -1.28457,0.13368 -2.4654,-0.31742 -3.64163,-0.74828 -0.39148,-0.10916 -0.24961,-0.6861 -0.70407,-0.65808 z m 0.6875,0.78125 c 0.0996,0.0897 -0.0445,0.10603 0,0 z"
         style="color:#000000;fill:#214478;fill-opacity:1;fill-rule:nonzero;stroke:none;stroke-width:10;marker:none;visibility:visible;display:inline;overflow:visible;enable-background:accumulate" />
      <path
         inkscape:connector-curvature="0"
         id="path11875"
         d="m 434.75337,750.94763 c -1.22979,0.0257 -2.2225,0.58766 -3.37699,0.20195 -0.52516,1.07621 -0.86023,2.42837 -0.76776,3.65607 0.21743,1.31174 1.59345,2.01156 2.83204,1.8946 1.18203,0.10846 2.27742,-0.65634 3.11848,-1.40104 0.53942,-1.001 1.29782,-2.26782 0.83858,-3.39475 0.0463,-1.01403 -1.64752,-0.85785 -2.64435,-0.95683 z"
         style="color:#000000;fill:#ffe6d5;fill-opacity:1;fill-rule:nonzero;stroke:none;stroke-width:10;marker:none;visibility:visible;display:inline;overflow:visible;enable-background:accumulate" />
      <path
         inkscape:connector-curvature="0"
         id="path11877"
         d="m 433.97212,746.63513 c -1.87609,-0.12077 -3.69131,1.67015 -3.52474,3.55123 0.60996,1.5214 2.45624,1.55696 3.84385,1.69174 1.13764,-0.11163 2.69509,0.40488 3.43026,-0.7331 0.46224,-1.49831 -0.90641,-2.70742 -1.55338,-3.90844 -0.54535,-0.62444 -1.4343,-0.62358 -2.19599,-0.60143 z"
         style="color:#000000;fill:#800000;fill-opacity:1;fill-rule:nonzero;stroke:none;stroke-width:10;marker:none;visibility:visible;display:inline;overflow:visible;enable-background:accumulate" />
      <path
         inkscape:connector-curvature="0"
         id="path11879"
         d="m 428.03462,747.26013 c -1.36178,0.0894 -2.1626,1.21828 -2.90587,2.30974 -0.49679,1.14653 -0.69249,2.59094 -0.29203,3.7666 1.32971,0.98668 0.82083,-1.71284 1.80104,-2.16841 0.67026,-1.11626 2.06686,-2.11367 1.62377,-3.55497 0.0387,-0.14171 -0.1509,-0.25531 -0.22691,-0.35296 z"
         style="color:#000000;fill:#800000;fill-opacity:1;fill-rule:nonzero;stroke:none;stroke-width:10;marker:none;visibility:visible;display:inline;overflow:visible;enable-background:accumulate" />
      <path
         inkscape:connector-curvature="0"
         id="path11881"
         d="m 425.94087,739.60388 c -1.2362,0.81118 -1.16316,2.64071 -0.5631,3.82334 0.73086,1.40501 2.24612,2.02705 3.64857,2.50801 1.12659,0.74728 2.4755,0.29021 3.69568,0.60615 1.54417,0.0365 2.5524,0.2556 3.98098,-0.27401 0.86096,0.11144 2.26267,-0.82679 1.8842,-1.79594 -0.98967,-0.3626 -2.28078,0.15544 -2.80047,-1.07011 -0.77643,-0.5585 -1.58399,-1.27367 -2.57494,-1.33701 -1.01971,0.0747 -1.01637,0.80882 -2.01015,0.8453 -0.83885,0.64537 -1.08646,-1.66846 -2.32994,-1.44085 -0.78101,-0.75805 -1.92442,-1.4975 -2.93083,-1.86488 z m 11.625,6.6875 c -0.0221,0.1387 0.20643,0.10405 0,0 z"
         style="color:#000000;fill:#ffe6d5;fill-opacity:1;fill-rule:nonzero;stroke:none;stroke-width:10;marker:none;visibility:visible;display:inline;overflow:visible;enable-background:accumulate" />
      <path
         inkscape:connector-curvature="0"
         id="path11883"
         d="m 439.03462,738.19763 c -0.94284,0.71151 -0.66717,2.52489 -0.98421,3.07372 -1.30895,-0.0419 -2.53554,0.49354 -3.85148,0.14247 -1.09481,-0.41375 -2.04689,0.55864 -3.14092,0.0518 -0.68259,-0.27017 -3.17718,-1.04235 -2.03213,0.37099 1.28795,0.18275 1.15711,1.60527 2.02714,2.18254 1.19156,0.48753 0.69947,-2.01596 1.80992,-1.44893 0.80394,0.18489 1.50567,-0.7703 1.69762,0.32562 0.25636,1.02912 0.79711,1.53397 1.87732,1.67183 1.2554,0.33216 2.66376,-0.18992 3.60952,-0.98409 0.0212,-1.18309 0.60331,-2.79707 -0.18327,-4.09051 -0.27513,-0.39842 -0.15049,-1.32785 -0.82951,-1.29547 z"
         style="color:#000000;fill:#d4aa00;fill-opacity:1;fill-rule:nonzero;stroke:none;stroke-width:10;marker:none;visibility:visible;display:inline;overflow:visible;enable-background:accumulate" />
      <path
         inkscape:connector-curvature="0"
         id="path11885"
         d="m 432.62837,735.07263 c -0.59445,-0.007 -1.25066,0.5097 -0.6578,0.6231 0.36593,0.72544 0.1441,0.84635 -0.46078,0.38667 -1.15951,0.51339 -2.32242,0.42546 -3.65936,0.61617 -1.05406,0.49249 -2.29442,-0.11659 -3.44083,0.0725 -1.33747,-0.33512 -2.91137,1.24619 -1.33105,2.18468 1.43879,0.85206 3.29507,0.39212 4.65225,1.42602 1.32974,0.77771 2.65069,1.75205 4.28836,1.52578 1.58145,0.11982 3.16896,0.0566 4.74446,0.0195 1.7523,-0.21972 1.44845,-1.84957 1.59882,-3.16345 0.4966,-0.0856 1.66207,-0.0892 1.10461,-1.02948 -0.80061,-1.20974 -2.34992,-0.9369 -3.59218,-1.12525 -0.98932,0.10101 -1.50709,-0.45073 -1.76612,-1.33466 -0.44668,-0.25663 -0.98742,-0.18796 -1.48038,-0.20155 z m -0.71875,1.0625 c 0.42052,-0.0965 -0.42608,-0.72066 0,9e-5 0,0 0,-9e-5 0,-9e-5 z"
         style="color:#000000;fill:#333333;fill-opacity:1;fill-rule:nonzero;stroke:none;stroke-width:10;marker:none;visibility:visible;display:inline;overflow:visible;enable-background:accumulate" />
      <path
         inkscape:connector-curvature="0"
         id="path11887"
         d="m 426.57429,742.47367 c 1.65279,0.46956 1.32118,-2.35714 -0.031,-1.30861 -0.88862,1.14251 1.78824,1.54784 1.04781,0.53809 -0.73867,-0.0507 -0.0807,-0.11327 -0.72735,-0.11497 0.94716,0.17087 -1.22564,0.12858 -0.28942,0.88549 z"
         style="color:#000000;fill:#ffffff;fill-opacity:1;fill-rule:nonzero;stroke:none;stroke-width:10;marker:none;visibility:visible;display:inline;overflow:visible;enable-background:accumulate" />
      <path
         inkscape:connector-curvature="0"
         id="path11889"
         d="m 426.9525,742.07456 c 0.84637,-0.88309 -1.22875,-0.74354 -0.3014,0.009 0.72742,0.0889 0.47745,-0.56062 -0.0549,-0.36813 0.4864,-0.27564 0.20152,0.19318 -0.027,0.0583 0.0545,0.18567 0.28653,0.16955 0.38335,0.30127 z"
         style="color:#000000;fill:#00ccff;fill-opacity:1;fill-rule:nonzero;stroke:none;stroke-width:10;marker:none;visibility:visible;display:inline;overflow:visible;enable-background:accumulate" />
      <path
         inkscape:connector-curvature="0"
         id="path11891"
         d="m 438.62305,746.69214 c -0.15441,-0.439 -0.98526,-2.1886 -0.98016,-0.9466 0.18529,0.353 0.43505,1.31008 0.98016,0.9466 z"
         style="color:#000000;fill:#000000;fill-opacity:1;fill-rule:nonzero;stroke:none;stroke-width:10;marker:none;visibility:visible;display:inline;overflow:visible;enable-background:accumulate" />
      <path
         inkscape:connector-curvature="0"
         id="path11893"
         d="m 438.12662,745.90594 c 1.13522,-0.64749 2.22875,-1.80533 2.46745,-3.13354 0.28551,-1.79044 -0.0268,-3.66035 -1.04111,-5.18296 -0.14923,-0.76004 -1.5869,-1.50512 -0.88905,-0.26899 0.77337,1.35136 1.5296,2.81242 1.381,4.42199 0.33741,1.65849 -1.04105,2.80168 -2.12563,3.79143 l 0.0839,0.19705 0.12338,0.17502 4e-5,0 z"
         style="color:#000000;fill:#000000;fill-opacity:1;fill-rule:nonzero;stroke:none;stroke-width:10;marker:none;visibility:visible;display:inline;overflow:visible;enable-background:accumulate" />
      <path
         inkscape:connector-curvature="0"
         id="path11895"
         d="m 439.20604,737.27659 c -1.60939,-1.27375 -3.77737,-1.55121 -5.77358,-1.62696 -2.41135,0.0307 -4.90653,0.46595 -7.02002,1.67061 -0.63916,0.14539 -1.83873,2.10193 -0.6471,1.35321 1.30728,-1.3751 3.3269,-1.56757 5.07953,-1.98653 2.74069,-0.51895 5.58797,-0.16369 8.19837,0.77442 l 0.16285,-0.18434 -5e-5,-4.1e-4 z"
         style="color:#000000;fill:#000000;fill-opacity:1;fill-rule:nonzero;stroke:none;stroke-width:10;marker:none;visibility:visible;display:inline;overflow:visible;enable-background:accumulate" />
      <path
         inkscape:connector-curvature="0"
         id="path11897"
         d="m 426.05229,737.99368 c -0.98242,0.94745 -1.31253,2.399 -1.52889,3.70867 0.39553,1.0676 0.75811,-0.99425 0.93165,-1.45081 0.029,-0.7323 1.15142,-1.74422 0.59724,-2.25786 z"
         style="color:#000000;fill:#000000;fill-opacity:1;fill-rule:nonzero;stroke:none;stroke-width:10;marker:none;visibility:visible;display:inline;overflow:visible;enable-background:accumulate" />
      <path
         inkscape:connector-curvature="0"
         id="path11899"
         d="m 424.80843,741.95791 c -0.18566,1.38977 0.82646,2.60802 1.86029,3.39301 0.84502,-0.49666 -1.17045,-1.51459 -1.20672,-2.29935 -0.31054,-0.27958 -0.0235,-1.32602 -0.65357,-1.09366 z"
         style="color:#000000;fill:#000000;fill-opacity:1;fill-rule:nonzero;stroke:none;stroke-width:10;marker:none;visibility:visible;display:inline;overflow:visible;enable-background:accumulate" />
      <path
         inkscape:connector-curvature="0"
         id="path11901"
         d="m 426.60803,745.41178 c 0.70251,0.45729 2.4717,1.31877 2.79437,0.38401 -0.85566,0.01 -2.18758,-0.86788 -2.79437,-0.38401 z"
         style="color:#000000;fill:#000000;fill-opacity:1;fill-rule:nonzero;stroke:none;stroke-width:10;marker:none;visibility:visible;display:inline;overflow:visible;enable-background:accumulate" />
      <path
         inkscape:connector-curvature="0"
         id="path11903"
         d="m 427.81163,745.62757 c -1.41458,1.3655 1.40792,0.38045 0,0 z"
         style="color:#000000;fill:#000000;fill-opacity:1;fill-rule:nonzero;stroke:none;stroke-width:10;marker:none;visibility:visible;display:inline;overflow:visible;enable-background:accumulate" />
      <path
         inkscape:connector-curvature="0"
         id="path11905"
         d="m 440.41518,740.24973 c -2.09943,1.3255 -4.71313,1.30037 -7.11278,1.2852 -2.48514,-0.0881 -4.97934,-0.87373 -6.91732,-2.46125 -0.91967,0.46339 1.1617,1.60373 1.68438,1.97056 3.19454,1.72597 7.10169,1.75367 10.52046,0.7306 0.53557,-0.22285 2.48377,-0.90089 1.82526,-1.52511 z"
         style="color:#000000;fill:#000000;fill-opacity:1;fill-rule:nonzero;stroke:none;stroke-width:10;marker:none;visibility:visible;display:inline;overflow:visible;enable-background:accumulate" />
      <path
         inkscape:connector-curvature="0"
         id="path11907"
         d="m 434.59062,736.27347 c 0.007,-1.62006 -1.92658,-1.55567 -2.96235,-1.00337 -0.79176,0.73428 0.1699,0.87357 0.56356,0.26718 0.85651,-0.22588 1.89488,-0.31654 2.00441,0.82736 l 0.20186,-0.0247 0.19252,-0.0665 0,3e-5 z"
         style="color:#000000;fill:#000000;fill-opacity:1;fill-rule:nonzero;stroke:none;stroke-width:10;marker:none;visibility:visible;display:inline;overflow:visible;enable-background:accumulate" />
      <path
         inkscape:connector-curvature="0"
         id="path11909"
         d="m 427.24897,736.60574 c -1.47445,-0.18638 -3.07035,-0.17696 -4.45488,0.41653 -1.43237,0.62891 -0.33859,2.28548 0.78818,2.46676 1.09542,0.2454 3.14208,0.798 3.72739,-0.0902 -1.3557,-0.47377 -2.99095,0.10341 -4.24218,-0.78815 -1.42593,-1.16524 1.21393,-1.44991 2.00694,-1.43562 0.62941,-0.23406 2.04523,0.27718 2.17455,-0.56932 z"
         style="color:#000000;fill:#000000;fill-opacity:1;fill-rule:nonzero;stroke:none;stroke-width:10;marker:none;visibility:visible;display:inline;overflow:visible;enable-background:accumulate" />
      <path
         inkscape:connector-curvature="0"
         id="path11911"
         d="m 426.04325,744.55904 c 1.17434,1.30607 1.55704,-1.19835 0.19284,-1.17718 -0.75314,-0.28668 -1.95025,0.38534 -1.17965,1.1938 0.60027,0.987 1.96368,-0.19278 0.86774,-0.74849 -1.03334,0.8141 0.50936,0.28207 0.51493,1.02952 1.21615,0.78177 1.0278,-1.21776 -0.20213,-1.06759 -0.63719,-0.24058 -0.78178,0.55789 -0.34235,0.65086 0.38641,0.78939 0.50136,-0.30231 0.40646,-0.18232 -0.63573,-0.25435 -0.66592,1.14579 0.26626,0.67814 1.11995,-0.80342 -2.07589,-2.25718 -1.25071,-0.63895 0.63843,-0.003 1.61174,0.62154 1.45355,0.20516 0.68811,0.098 -0.55144,-1.04817 -0.94152,-0.62218 -0.76046,0.54239 0.20855,0.5556 -0.0487,0.39917 -0.61429,-0.25782 -0.14608,-0.38626 0.10415,-0.3002 0.71043,-0.20681 0.5078,0.79573 0.9674,0.44542 -0.38311,-0.30579 -0.52136,-0.31725 -0.80826,0.13484 z"
         style="color:#000000;fill:#ffaaaa;fill-opacity:1;fill-rule:nonzero;stroke:none;stroke-width:10;marker:none;visibility:visible;display:inline;overflow:visible;enable-background:accumulate" />
      <path
         inkscape:connector-curvature="0"
         id="path11913"
         d="m 426.65008,744.66949 c -0.6593,0.31796 -2.50278,-0.50048 -1.45161,-1.08262 0.77323,-0.53989 2.48222,0.74063 1.75537,1.30585 -0.69337,-0.57318 -1.59712,0.0512 -0.52157,0.18034 1.74836,0.85509 1.01671,-1.88507 -0.20446,-1.85758 -1.12239,-0.43945 -2.47318,0.74073 -1.10948,1.58682 0.29308,0.17559 1.76916,0.37061 1.53175,-0.13281 z"
         style="color:#000000;fill:#000000;fill-opacity:1;fill-rule:nonzero;stroke:none;stroke-width:10;marker:none;visibility:visible;display:inline;overflow:visible;enable-background:accumulate" />
      <path
         inkscape:connector-curvature="0"
         id="path11915"
         d="m 425.18534,744.14387 c 0.57888,-0.25655 2.18301,1.14507 1.28661,-0.0629 -0.26179,-0.18008 -1.33265,-0.54745 -1.28661,0.0629 z"
         style="color:#000000;fill:#000000;fill-opacity:1;fill-rule:nonzero;stroke:none;stroke-width:10;marker:none;visibility:visible;display:inline;overflow:visible;enable-background:accumulate" />
      <path
         inkscape:connector-curvature="0"
         id="path11917"
         d="m 426.59853,741.44368 c 0.76292,-1.15929 1.7495,1.30861 0.26131,0.76243 -2.0625,0.0747 1.84495,0.99952 1.14534,-0.53724 0.0363,-1.02859 -1.80455,-1.12145 -1.55847,-0.25413 l 0.1518,0.0298 2e-5,-9.1e-4 z"
         style="color:#000000;fill:#000000;fill-opacity:1;fill-rule:nonzero;stroke:none;stroke-width:10;marker:none;visibility:visible;display:inline;overflow:visible;enable-background:accumulate" />
      <path
         inkscape:connector-curvature="0"
         id="path11919"
         d="m 427.03857,742.07243 c 0.8357,-0.83764 -1.16204,-1.07227 -0.66968,-0.022 0.99802,0.39135 0.70491,-0.13553 0.19868,-0.31231 0.3318,-0.57117 0.41137,0.0938 0.471,0.33433 z"
         style="color:#000000;fill:#000000;fill-opacity:1;fill-rule:nonzero;stroke:none;stroke-width:10;marker:none;visibility:visible;display:inline;overflow:visible;enable-background:accumulate" />
      <path
         inkscape:connector-curvature="0"
         id="path11921"
         d="m 424.84116,741.56289 c 0.448,-1.11126 -1.50165,0.47425 -0.53443,1.05168 0.88034,0.64378 0.87752,-0.0198 0.43173,-0.43582 0.22134,-0.85559 -0.57661,0.7943 0.16878,0.30127 0.21942,-0.87025 -0.85623,-0.3588 -0.26727,-0.15603 0.7008,0.44247 0.26419,-1.48232 -0.27878,-0.21379 -0.41011,1.16971 1.78303,0.61808 0.38196,0.37152 -0.72347,-0.23323 0.42185,-1.47528 -0.10663,-1.02395 l 0.20427,0.10567 3.7e-4,-5.5e-4 z"
         style="color:#000000;fill:#000000;fill-opacity:1;fill-rule:nonzero;stroke:none;stroke-width:10;marker:none;visibility:visible;display:inline;overflow:visible;enable-background:accumulate" />
      <path
         inkscape:connector-curvature="0"
         id="path11923"
         d="m 439.38323,737.84027 c -1.25527,0.0798 -1.97229,2.31422 -1.0337,2.84159 -0.0544,-0.96974 0.0408,-2.21524 1.14074,-2.57738 l -0.10698,-0.26422 -6e-5,1e-5 z"
         style="color:#000000;fill:#000000;fill-opacity:1;fill-rule:nonzero;stroke:none;stroke-width:10;marker:none;visibility:visible;display:inline;overflow:visible;enable-background:accumulate" />
      <path
         inkscape:connector-curvature="0"
         id="path11925"
         d="m 436.35578,747.79664 c 0.7827,1.13242 1.04795,2.51827 1.47313,3.79245 0.57225,-0.88412 -0.28413,-2.32901 -0.74591,-3.26474 -0.16601,-0.15371 -0.47069,-0.91022 -0.72722,-0.52771 z"
         style="color:#000000;fill:#000000;fill-opacity:1;fill-rule:nonzero;stroke:none;stroke-width:10;marker:none;visibility:visible;display:inline;overflow:visible;enable-background:accumulate" />
      <path
         inkscape:connector-curvature="0"
         id="path11927"
         d="m 437.25543,751.38474 c -2.10998,0.14642 -4.35736,0.1221 -6.27891,-0.86256 0.061,1.02373 2.2344,1.31775 3.30212,1.41632 1.0261,0.037 2.11373,0.0516 3.06232,-0.38917 l -0.0856,-0.16506 7e-5,4.7e-4 z"
         style="color:#000000;fill:#000000;fill-opacity:1;fill-rule:nonzero;stroke:none;stroke-width:10;marker:none;visibility:visible;display:inline;overflow:visible;enable-background:accumulate" />
      <path
         inkscape:connector-curvature="0"
         id="path11929"
         d="m 436.73857,747.53019 c -0.90158,-1.03701 -2.61461,-1.06222 -3.88878,-0.82725 -1.57434,0.47714 -2.49362,2.21452 -2.53101,3.77421 0.75553,-0.18935 0.64291,-2.19886 1.64436,-2.74113 1.18301,-1.09685 2.98248,-0.68484 4.36583,-0.27486 l 0.23577,0.12866 0.17376,-0.06 7e-5,3.7e-4 z"
         style="color:#000000;fill:#000000;fill-opacity:1;fill-rule:nonzero;stroke:none;stroke-width:10;marker:none;visibility:visible;display:inline;overflow:visible;enable-background:accumulate" />
      <path
         inkscape:connector-curvature="0"
         id="path11931"
         d="m 437.12322,752.26724 c -0.12181,1.07634 -0.0669,2.31443 -0.91746,3.1463 -1.18337,1.24015 -3.61025,1.59485 -4.67788,0.0221 -0.76263,-1.25898 -0.0755,-2.72046 -0.0265,-4.0472 -0.93669,0.51246 -0.93814,2.43895 -0.73469,3.53381 0.44918,1.84085 2.73164,2.5336 4.34066,1.78918 1.67187,-0.541 2.70417,-2.45267 2.21991,-4.14766 l -0.0329,-0.25119 -0.17128,-0.0453 1.5e-4,-4e-5 z"
         style="color:#000000;fill:#000000;fill-opacity:1;fill-rule:nonzero;stroke:none;stroke-width:10;marker:none;visibility:visible;display:inline;overflow:visible;enable-background:accumulate" />
      <path
         inkscape:connector-curvature="0"
         id="path11933"
         d="m 438.51007,747.21405 c 1.27085,1.79302 2.56404,3.63166 3.15715,5.78126 0.5614,1.51656 0.51396,-0.71807 0.12545,-1.29641 -0.60034,-1.7793 -1.70077,-3.3839 -3.11223,-4.61708 l -0.17037,0.13224 0,-10e-6 z"
         style="color:#000000;fill:#000000;fill-opacity:1;fill-rule:nonzero;stroke:none;stroke-width:10;marker:none;visibility:visible;display:inline;overflow:visible;enable-background:accumulate" />
      <path
         inkscape:connector-curvature="0"
         id="path11935"
         d="m 442.14683,753.86678 c -0.22699,-0.2623 -2.01551,0.89583 -2.79194,1.16789 -0.67723,0.0995 -1.7209,1.30062 -0.47045,0.81158 1.1553,-0.64276 2.85333,-0.98693 3.47681,-2.16688 -0.0945,-0.1102 -0.49469,-0.0324 -0.21442,0.18741 z"
         style="color:#000000;fill:#000000;fill-opacity:1;fill-rule:nonzero;stroke:none;stroke-width:10;marker:none;visibility:visible;display:inline;overflow:visible;enable-background:accumulate" />
      <path
         inkscape:connector-curvature="0"
         id="path11937"
         d="m 430.34278,755.7015 c -1.54511,-0.25491 -3.03691,-0.80597 -4.42844,-1.50609 -0.17448,0.85259 1.92281,1.34887 2.76793,1.61349 0.33996,0.0265 1.8237,0.46918 1.66051,-0.1074 z"
         style="color:#000000;fill:#000000;fill-opacity:1;fill-rule:nonzero;stroke:none;stroke-width:10;marker:none;visibility:visible;display:inline;overflow:visible;enable-background:accumulate" />
      <path
         inkscape:connector-curvature="0"
         id="path11939"
         d="m 425.44803,754.29688 c 0.13586,-1.89312 1.57954,-3.24725 2.59447,-4.7167 -0.53415,-0.54989 -1.5194,1.23153 -2.00639,1.75764 -0.42188,0.69459 -1.38906,2.47622 -0.58808,2.95906 z"
         style="color:#000000;fill:#000000;fill-opacity:1;fill-rule:nonzero;stroke:none;stroke-width:10;marker:none;visibility:visible;display:inline;overflow:visible;enable-background:accumulate" />
      <path
         inkscape:connector-curvature="0"
         id="path11941"
         d="m 428.27956,749.40759 c 0.32131,-0.81328 0.71107,-2.32051 0.10439,-2.88631 -0.23277,0.85241 -0.42144,2.22791 -0.10439,2.88631 z"
         style="color:#000000;fill:#000000;fill-opacity:1;fill-rule:nonzero;stroke:none;stroke-width:10;marker:none;visibility:visible;display:inline;overflow:visible;enable-background:accumulate" />
      <path
         inkscape:connector-curvature="0"
         id="path11943"
         d="m 428.19759,746.86531 c -1.93887,0.41725 -3.51212,2.07662 -3.72946,4.06535 -0.0904,0.69464 -0.29833,2.68317 0.47671,2.51027 -0.17472,-1.97707 0.15339,-4.35752 1.9897,-5.50369 0.25736,-0.36318 1.5828,-0.61992 1.26305,-1.07193 z"
         style="color:#000000;fill:#000000;fill-opacity:1;fill-rule:nonzero;stroke:none;stroke-width:10;marker:none;visibility:visible;display:inline;overflow:visible;enable-background:accumulate" />
      <path
         inkscape:connector-curvature="0"
         id="path11945"
         d="m 441.68113,755.48392 c -0.46289,1.69297 -0.62711,3.50359 -1.51692,5.06199 -0.72921,1.59729 -2.16248,2.65053 -3.52926,3.6628 0.0334,0.87176 1.5672,-0.4689 2.10301,-0.78781 2.35691,-1.83462 3.39641,-5.00477 3.12813,-7.91346 l -0.18478,-0.0235 -1.8e-4,-2e-5 z"
         style="color:#000000;fill:#000000;fill-opacity:1;fill-rule:nonzero;stroke:none;stroke-width:10;marker:none;visibility:visible;display:inline;overflow:visible;enable-background:accumulate" />
      <path
         inkscape:connector-curvature="0"
         id="path11947"
         d="m 436.4213,764.39364 c -1.84101,0.34949 -3.69486,-0.26293 -5.52878,-0.1053 -0.15938,0.70844 1.76846,0.51161 2.45691,0.69529 0.84145,-0.0202 3.04031,0.2445 3.07187,-0.58999 z"
         style="color:#000000;fill:#000000;fill-opacity:1;fill-rule:nonzero;stroke:none;stroke-width:10;marker:none;visibility:visible;display:inline;overflow:visible;enable-background:accumulate" />
      <path
         inkscape:connector-curvature="0"
         id="path11949"
         d="m 430.321,763.53848 c -1.77452,-1.58272 -3.58655,-3.41481 -4.12873,-5.81424 -0.42289,-1.07269 -0.24043,-2.53831 -0.61861,-3.42554 -0.64643,1.0503 -0.14408,2.42314 0.0507,3.56733 0.59137,2.40214 2.25684,4.49658 4.36275,5.75995 l 0.23949,0.0859 0.0944,-0.1734 -1e-5,4e-5 z"
         style="color:#000000;fill:#000000;fill-opacity:1;fill-rule:nonzero;stroke:none;stroke-width:10;marker:none;visibility:visible;display:inline;overflow:visible;enable-background:accumulate" />
      <path
         inkscape:connector-curvature="0"
         id="path11951"
         d="m 434.30216,759.49608 c -2.11977,-1.17599 -4.26238,-2.4839 -5.75234,-4.43677 -0.48092,1.00977 1.39093,2.28122 2.19302,2.99322 0.96695,0.57841 2.57647,1.78803 3.55932,1.44355 z"
         style="color:#000000;fill:#000000;fill-opacity:1;fill-rule:nonzero;stroke:none;stroke-width:10;marker:none;visibility:visible;display:inline;overflow:visible;enable-background:accumulate" />
      <path
         inkscape:connector-curvature="0"
         id="path11953"
         d="m 434.29428,756.69032 c -0.44754,2.28885 -0.33468,4.68018 -1.0933,6.91091 0.6533,0.329 1.00616,-1.67639 1.15224,-2.38154 0.17091,-1.49747 0.31014,-3.03743 0.10181,-4.5345 l -0.16078,0.005 3e-5,1.3e-4 z"
         style="color:#000000;fill:#000000;fill-opacity:1;fill-rule:nonzero;stroke:none;stroke-width:10;marker:none;visibility:visible;display:inline;overflow:visible;enable-background:accumulate" />
      <path
         inkscape:connector-curvature="0"
         id="path11955"
         d="m 440.43344,755.23248 c -0.40265,0.9976 -0.87296,2.38312 -0.23607,2.96271 0.28449,0.64536 1.39133,0.78817 0.52358,-0.0218 -0.20525,-0.41929 -1.07625,-0.65721 -0.54699,-0.57289 0.0792,-0.68572 0.72272,-1.93563 0.25948,-2.36798 z"
         style="color:#000000;fill:#000000;fill-opacity:1;fill-rule:nonzero;stroke:none;stroke-width:10;marker:none;visibility:visible;display:inline;overflow:visible;enable-background:accumulate" />
      <path
         inkscape:connector-curvature="0"
         id="path11957"
         d="m 441.41199,753.17039 c -1.07957,0.28064 0.58056,0.72773 0,0 z"
         style="color:#000000;fill:#000000;fill-opacity:1;fill-rule:nonzero;stroke:none;stroke-width:10;marker:none;visibility:visible;display:inline;overflow:visible;enable-background:accumulate" />
      <path
         inkscape:connector-curvature="0"
         id="path11959"
         d="m 440.39071,753.64022 c -1.0554,0.0676 0.47706,0.76007 0,4.6e-4 l 0,-4.6e-4 z"
         style="color:#000000;fill:#000000;fill-opacity:1;fill-rule:nonzero;stroke:none;stroke-width:10;marker:none;visibility:visible;display:inline;overflow:visible;enable-background:accumulate" />
      <path
         inkscape:connector-curvature="0"
         id="path11961"
         d="m 439.52651,754.18073 c -1.11575,0.0814 0.50942,0.76006 -4e-5,-1e-5 l 4e-5,1e-5 z"
         style="color:#000000;fill:#000000;fill-opacity:1;fill-rule:nonzero;stroke:none;stroke-width:10;marker:none;visibility:visible;display:inline;overflow:visible;enable-background:accumulate" />
      <path
         inkscape:connector-curvature="0"
         id="path11963"
         d="m 438.61076,754.38307 c -0.98206,0.14826 0.58825,0.70829 10e-6,-2e-5 l -10e-6,2e-5 z"
         style="color:#000000;fill:#000000;fill-opacity:1;fill-rule:nonzero;stroke:none;stroke-width:10;marker:none;visibility:visible;display:inline;overflow:visible;enable-background:accumulate" />
      <path
         inkscape:connector-curvature="0"
         id="path11965"
         d="m 429.86659,754.87153 c -1.13621,-0.7271 -0.55,0.76595 0,0 z"
         style="color:#000000;fill:#000000;fill-opacity:1;fill-rule:nonzero;stroke:none;stroke-width:10;marker:none;visibility:visible;display:inline;overflow:visible;enable-background:accumulate" />
      <path
         inkscape:connector-curvature="0"
         id="path11967"
         d="m 428.18187,754.34031 c -0.6895,-0.44418 -0.28656,0.76292 0,0 z"
         style="color:#000000;fill:#000000;fill-opacity:1;fill-rule:nonzero;stroke:none;stroke-width:10;marker:none;visibility:visible;display:inline;overflow:visible;enable-background:accumulate" />
      <path
         inkscape:connector-curvature="0"
         id="path11969"
         d="m 427.31045,753.78206 c -1.1302,-0.67559 -0.35765,0.84913 0,0 z"
         style="color:#000000;fill:#000000;fill-opacity:1;fill-rule:nonzero;stroke:none;stroke-width:10;marker:none;visibility:visible;display:inline;overflow:visible;enable-background:accumulate" />
      <path
         inkscape:connector-curvature="0"
         id="path11971"
         d="m 426.75993,753.54143 c -0.49778,-0.47222 -0.44364,0.68975 0,0 z"
         style="color:#000000;fill:#000000;fill-opacity:1;fill-rule:nonzero;stroke:none;stroke-width:10;marker:none;visibility:visible;display:inline;overflow:visible;enable-background:accumulate" />
      <path
         inkscape:connector-curvature="0"
         id="path11973"
         d="m 426.81697,752.82374 c 0.43541,-0.8708 -0.85823,-0.0272 -8e-5,-7e-5 l 8e-5,7e-5 z"
         style="color:#000000;fill:#000000;fill-opacity:1;fill-rule:nonzero;stroke:none;stroke-width:10;marker:none;visibility:visible;display:inline;overflow:visible;enable-background:accumulate" />
      <path
         inkscape:connector-curvature="0"
         id="path11975"
         d="m 427.26136,751.84994 c 0.34464,-0.5282 -0.74397,-0.14966 0,-3.4e-4 l 0,3.4e-4 z"
         style="color:#000000;fill:#000000;fill-opacity:1;fill-rule:nonzero;stroke:none;stroke-width:10;marker:none;visibility:visible;display:inline;overflow:visible;enable-background:accumulate" />
      <path
         inkscape:connector-curvature="0"
         id="path11977"
         d="m 428.03575,750.97891 c 0.19979,-0.39629 -0.62162,-0.16826 -3e-5,0 l 3e-5,0 z"
         style="color:#000000;fill:#000000;fill-opacity:1;fill-rule:nonzero;stroke:none;stroke-width:10;marker:none;visibility:visible;display:inline;overflow:visible;enable-background:accumulate" />
      <path
         inkscape:connector-curvature="0"
         id="path11979"
         d="m 428.82744,749.26649 c 0.0313,-0.64972 -0.76139,0.19061 0,0 z"
         style="color:#000000;fill:#000000;fill-opacity:1;fill-rule:nonzero;stroke:none;stroke-width:10;marker:none;visibility:visible;display:inline;overflow:visible;enable-background:accumulate" />
      <path
         inkscape:connector-curvature="0"
         id="path11981"
         d="m 428.9101,747.77319 c 0.12234,-0.8599 -0.93635,0.17874 0,0 z"
         style="color:#000000;fill:#000000;fill-opacity:1;fill-rule:nonzero;stroke:none;stroke-width:10;marker:none;visibility:visible;display:inline;overflow:visible;enable-background:accumulate" />
      <path
         inkscape:connector-curvature="0"
         id="path11983"
         d="m 428.78567,746.94656 c 0.75224,0.15296 1.34602,-0.74852 0.28264,-0.44686 -0.2977,0.0897 -0.59853,0.0932 -0.28264,0.44686 z"
         style="color:#000000;fill:#000000;fill-opacity:1;fill-rule:nonzero;stroke:none;stroke-width:10;marker:none;visibility:visible;display:inline;overflow:visible;enable-background:accumulate" />
      <path
         inkscape:connector-curvature="0"
         id="path11985"
         d="m 428.25459,747.83078 c -0.80022,-0.23908 -0.83542,0.90094 -0.23287,0.38225 -0.43993,-1.14686 -1.22634,1.02084 -0.45336,0.11548 0.24771,-0.51033 0.23236,0.22968 0.88053,-0.28233 l -0.19431,-0.21573 1e-5,3.3e-4 z"
         style="color:#000000;fill:#000000;fill-opacity:1;fill-rule:nonzero;stroke:none;stroke-width:10;marker:none;visibility:visible;display:inline;overflow:visible;enable-background:accumulate" />
      <path
         inkscape:connector-curvature="0"
         id="path11987"
         d="m 427.02063,748.61637 c -0.35038,-1.09225 -1.38282,0.51027 -0.25264,0.27123 -0.0107,-0.19941 -0.75072,-0.52993 0.25264,-0.27123 z"
         style="color:#000000;fill:#000000;fill-opacity:1;fill-rule:nonzero;stroke:none;stroke-width:10;marker:none;visibility:visible;display:inline;overflow:visible;enable-background:accumulate" />
      <path
         inkscape:connector-curvature="0"
         id="path11989"
         d="m 425.76522,748.70918 c -0.40263,-1.37816 -1.74981,-1.08336 -1.87017,0.26222 -0.93584,2.14734 2.91923,1.01651 1.58318,-0.28976 0.11866,0.74724 -1.09627,1.72823 -1.29403,0.87356 0.29948,-0.81711 0.46478,-2.4228 1.21068,-0.93236 l 0.19871,0.18099 0.17201,-0.0946 -3.8e-4,-5e-5 z"
         style="color:#000000;fill:#000000;fill-opacity:1;fill-rule:nonzero;stroke:none;stroke-width:10;marker:none;visibility:visible;display:inline;overflow:visible;enable-background:accumulate" />
      <path
         inkscape:connector-curvature="0"
         id="path11991"
         d="m 425.3295,748.01164 c 1.17647,0.2316 -0.26047,-1.44487 0.0461,-0.22888 1.08302,0.36922 0.34611,-0.46586 0.10576,-0.19934 0.17902,0.36283 -0.0786,0.0906 -0.15187,0.42822 z"
         style="color:#000000;fill:#000000;fill-opacity:1;fill-rule:nonzero;stroke:none;stroke-width:10;marker:none;visibility:visible;display:inline;overflow:visible;enable-background:accumulate" />
      <path
         inkscape:connector-curvature="0"
         id="path11993"
         d="m 426.52281,747.18674 c 0.9008,0.47159 0.66575,-1.24845 0.4995,-0.41176 0.95783,0.051 -0.25935,-0.70906 -0.19988,0.0843 -0.12329,0.0548 -0.37763,-0.0528 -0.29962,0.3275 z"
         style="color:#000000;fill:#000000;fill-opacity:1;fill-rule:nonzero;stroke:none;stroke-width:10;marker:none;visibility:visible;display:inline;overflow:visible;enable-background:accumulate" />
      <path
         inkscape:connector-curvature="0"
         id="path11995"
         d="m 438.1349,746.18748 c -0.6602,0.0769 -2.18271,-0.19129 -2.23235,0.52624 0.50198,-0.0296 2.44558,0.12514 2.23235,-0.52624 z"
         style="color:#000000;fill:#000000;fill-opacity:1;fill-rule:nonzero;stroke:none;stroke-width:10;marker:none;visibility:visible;display:inline;overflow:visible;enable-background:accumulate" />
      <path
         inkscape:connector-curvature="0"
         id="path11997"
         d="m 433.45218,746.54222 c -1.10697,0.002 -2.55757,-0.42625 -3.44764,-0.003 0.87744,0.39147 3.03618,0.67315 3.44764,0.003 z"
         style="color:#000000;fill:#000000;fill-opacity:1;fill-rule:nonzero;stroke:none;stroke-width:10;marker:none;visibility:visible;display:inline;overflow:visible;enable-background:accumulate" />
      <path
         inkscape:connector-curvature="0"
         id="path11999"
         d="m 425.50835,753.65012 c -1.56829,-0.63057 -0.99799,1.76694 -0.78834,2.52432 1.25582,0.49809 1.00446,-2.5287 0.46461,-1.68573 -0.015,0.54707 0.12481,1.46941 -0.32818,1.38143 0.50796,-0.20368 -0.74933,-2.53966 0.5384,-1.96182 l 0.11325,-0.2581 2.6e-4,-10e-5 z"
         style="color:#000000;fill:#000000;fill-opacity:1;fill-rule:nonzero;stroke:none;stroke-width:10;marker:none;visibility:visible;display:inline;overflow:visible;enable-background:accumulate" />
      <path
         inkscape:connector-curvature="0"
         id="path12001"
         d="m 425.40553,755.1045 c 0.54093,0.34047 2.14872,0.90389 2.32148,0.23345 -0.71106,-0.0492 -1.75875,-0.55574 -2.32148,-0.23345 z"
         style="color:#000000;fill:#000000;fill-opacity:1;fill-rule:nonzero;stroke:none;stroke-width:10;marker:none;visibility:visible;display:inline;overflow:visible;enable-background:accumulate" />
      <path
         inkscape:connector-curvature="0"
         id="path12003"
         d="m 439.23232,748.37788 c -1.84356,0.35346 -0.31452,3.29398 0.64333,2.39544 -0.96955,-0.18754 -1.72877,-1.63828 -0.54604,-2.21176 l -0.0977,-0.1837 4.1e-4,2e-5 z"
         style="color:#000000;fill:#000000;fill-opacity:1;fill-rule:nonzero;stroke:none;stroke-width:10;marker:none;visibility:visible;display:inline;overflow:visible;enable-background:accumulate" />
      <path
         inkscape:connector-curvature="0"
         id="path12005"
         d="m 439.88794,749.51263 c 0.0873,-1.33829 -1.45903,0.26448 -0.0588,0.19424 0.59615,-0.93603 -1.443,-0.58225 -0.26445,8.9e-4 1.19051,-0.20935 -0.67864,-0.41649 0.12357,-0.30952 -0.40468,-0.20702 -0.1589,-0.30361 0.19963,0.11439 z"
         style="color:#000000;fill:#000000;fill-opacity:1;fill-rule:nonzero;stroke:none;stroke-width:10;marker:none;visibility:visible;display:inline;overflow:visible;enable-background:accumulate" />
      <path
         inkscape:connector-curvature="0"
         id="path12007"
         d="m 439.648,750.16219 c 2.2e-4,0.83363 1.56002,2.55709 0.84659,0.92483 -0.25955,-0.27027 -0.35879,-1.12206 -0.84659,-0.92483 z"
         style="color:#000000;fill:#000000;fill-opacity:1;fill-rule:nonzero;stroke:none;stroke-width:10;marker:none;visibility:visible;display:inline;overflow:visible;enable-background:accumulate" />
      <path
         inkscape:connector-curvature="0"
         id="path12009"
         d="m 440.40278,750.41109 c 0.0101,0.79161 1.02927,0.95105 0.40247,0.0556 -0.0294,-0.28903 -0.27859,-0.10711 -0.40247,-0.0556 z"
         style="color:#000000;fill:#000000;fill-opacity:1;fill-rule:nonzero;stroke:none;stroke-width:10;marker:none;visibility:visible;display:inline;overflow:visible;enable-background:accumulate" />
      <path
         inkscape:connector-curvature="0"
         id="path12011"
         d="m 429.64223,763.34722 c -1.4699,-1.32155 -2.93862,1.34569 -1.22495,2.15795 1.84063,1.12665 4.1419,1.18104 6.23051,0.9311 1.46359,0.16678 2.69729,-1.7062 0.91753,-2.28375 -0.4078,0.43262 1.42803,1.32857 -0.0223,1.52009 -2.19683,0.42123 -4.56845,0.38867 -6.66739,-0.44544 -1.39542,-0.428 -0.76562,-2.40168 0.58741,-1.75968 l 0.17921,-0.12019 1e-5,-8e-5 z"
         style="color:#000000;fill:#000000;fill-opacity:1;fill-rule:nonzero;stroke:none;stroke-width:10;marker:none;visibility:visible;display:inline;overflow:visible;enable-background:accumulate" />
      <path
         inkscape:connector-curvature="0"
         id="path12013"
         d="m 428.54371,741.2523 c 0.14214,1.25195 2.05882,0.75628 1.84457,2.30068 -0.16516,0.62363 2.38024,1.00574 0.85883,0.13059 -0.74951,-0.53029 -0.6239,0.43515 -0.62721,-0.40049 0.001,-1.3424 -1.52073,-1.26316 -2.07619,-2.03078 z"
         style="color:#000000;fill:#000000;fill-opacity:1;fill-rule:nonzero;stroke:none;stroke-width:10;marker:none;visibility:visible;display:inline;overflow:visible;enable-background:accumulate" />
      <path
         inkscape:connector-curvature="0"
         id="path12015"
         d="m 431.89153,743.93713 c -0.25716,-0.89636 1.43863,-1.22177 1.02552,-1.7161 -0.65044,-0.10542 -1.90111,1.64434 -1.02552,1.7161 z"
         style="color:#000000;fill:#000000;fill-opacity:1;fill-rule:nonzero;stroke:none;stroke-width:10;marker:none;visibility:visible;display:inline;overflow:visible;enable-background:accumulate" />
      <path
         inkscape:connector-curvature="0"
         id="path12017"
         d="m 439.39082,743.80917 c -0.55538,0.65107 -2.35175,0.39019 -2.25634,1.03128 0.69338,0.22448 2.5841,-0.30204 2.25634,-1.03128 z"
         style="color:#000000;fill:#000000;fill-opacity:1;fill-rule:nonzero;stroke:none;stroke-width:10;marker:none;visibility:visible;display:inline;overflow:visible;enable-background:accumulate" />
      <path
         inkscape:connector-curvature="0"
         id="path12019"
         d="m 437.0849,744.4191 c -0.7715,-0.14334 -1.76875,-0.20103 -1.71613,-0.0217 0.14434,0.31716 2.1134,0.7152 1.71613,0.0217 z"
         style="color:#000000;fill:#000000;fill-opacity:1;fill-rule:nonzero;stroke:none;stroke-width:10;marker:none;visibility:visible;display:inline;overflow:visible;enable-background:accumulate" />
      <path
         inkscape:connector-curvature="0"
         id="path12021"
         d="m 436.14814,744.45785 c -0.19113,0.0377 0.002,0.40874 0,0 z"
         style="color:#000000;fill:#000000;fill-opacity:1;fill-rule:nonzero;stroke:none;stroke-width:10;marker:none;visibility:visible;display:inline;overflow:visible;enable-background:accumulate" />
      <path
         inkscape:connector-curvature="0"
         id="path12023"
         d="m 435.73289,744.38212 c -0.0697,-0.5902 -1.69167,-1.95956 -0.97017,-0.6836 0.27307,0.19731 0.57367,1.25363 0.97017,0.6836 z"
         style="color:#000000;fill:#000000;fill-opacity:1;fill-rule:nonzero;stroke:none;stroke-width:10;marker:none;visibility:visible;display:inline;overflow:visible;enable-background:accumulate" />
      <path
         inkscape:connector-curvature="0"
         id="path12025"
         d="m 435.28649,743.69489 c 0.27617,-1.06857 -1.8998,-2.21575 -2.00036,-1.15498 1.20539,-0.38815 1.27807,1.11235 2.00036,1.15498 z"
         style="color:#000000;fill:#000000;fill-opacity:1;fill-rule:nonzero;stroke:none;stroke-width:10;marker:none;visibility:visible;display:inline;overflow:visible;enable-background:accumulate" />
      <path
         inkscape:connector-curvature="0"
         id="path12027"
         d="m 425.29601,748.80346 c 0.30281,-1.00566 -1.22714,-0.64711 -0.47737,-0.14554 0.9262,-0.0542 -0.34303,-0.63111 0.0219,0.0269 0.0553,0.19073 0.32642,0.0927 0.45548,0.11867 z"
         style="color:#000000;fill:#ffffff;fill-opacity:1;fill-rule:nonzero;stroke:none;stroke-width:10;marker:none;visibility:visible;display:inline;overflow:visible;enable-background:accumulate" />
      <path
         inkscape:connector-curvature="0"
         id="path12422"
         d="m 425.17085,751.22076 c -0.11364,-0.5071 0.54934,-2.09592 0.89134,-1.77293 -0.44324,0.48551 -0.53761,1.33112 -0.89134,1.77293 z"
         style="color:#000000;fill:#ffffff;fill-opacity:1;fill-rule:nonzero;stroke:none;stroke-width:10;marker:none;visibility:visible;display:inline;overflow:visible;enable-background:accumulate" />
      <path
         inkscape:connector-curvature="0"
         id="path12424"
         d="m 425.43515,750.36214 c 0.32885,-0.5465 1.90756,-0.89597 0.66163,-0.19023 -0.20079,0.0341 -0.48518,0.44077 -0.66163,0.19023 z"
         style="color:#000000;fill:#ffffff;fill-opacity:1;fill-rule:nonzero;stroke:none;stroke-width:10;marker:none;visibility:visible;display:inline;overflow:visible;enable-background:accumulate" />
      <path
         inkscape:connector-curvature="0"
         id="path12426"
         d="m 425.89709,750.28816 c -5.5e-4,0.48503 -0.16289,1.88059 -0.27938,0.61799 0.0416,-0.11917 -0.0151,-0.82961 0.27938,-0.61799 z"
         style="color:#000000;fill:#ffffff;fill-opacity:1;fill-rule:nonzero;stroke:none;stroke-width:10;marker:none;visibility:visible;display:inline;overflow:visible;enable-background:accumulate" />
    </g>
  </g>
</svg>
