<?xml version="1.0" encoding="UTF-8" standalone="no"?>
<!-- Created with Inkscape (http://www.inkscape.org/) -->

<svg
   xmlns:dc="http://purl.org/dc/elements/1.1/"
   xmlns:cc="http://creativecommons.org/ns#"
   xmlns:rdf="http://www.w3.org/1999/02/22-rdf-syntax-ns#"
   xmlns:svg="http://www.w3.org/2000/svg"
   xmlns="http://www.w3.org/2000/svg"
   xmlns:sodipodi="http://sodipodi.sourceforge.net/DTD/sodipodi-0.dtd"
   xmlns:inkscape="http://www.inkscape.org/namespaces/inkscape"
   width="21.546413"
   height="32.763035"
   id="svg13133"
   version="1.1"
   inkscape:version="0.48.2 r9819"
   sodipodi:docname="walk_left1.svg">
  <defs
     id="defs13135" />
  <sodipodi:namedview
     id="base"
     pagecolor="#ffffff"
     bordercolor="#666666"
     borderopacity="1.0"
     inkscape:pageopacity="0.0"
     inkscape:pageshadow="2"
     inkscape:zoom="0.35"
     inkscape:cx="133.70378"
     inkscape:cy="-41.515449"
     inkscape:document-units="px"
     inkscape:current-layer="layer1"
     showgrid="false"
     fit-margin-top="0"
     fit-margin-left="0"
     fit-margin-right="0"
     fit-margin-bottom="0"
     inkscape:window-width="511"
     inkscape:window-height="434"
     inkscape:window-x="1"
     inkscape:window-y="55"
     inkscape:window-maximized="0" />
  <g
     inkscape:label="Layer 1"
     inkscape:groupmode="layer"
     id="layer1"
     transform="translate(-241.29621,-458.08371)">
    <g
       transform="translate(-10.471162,-276.26309)"
       id="g9736">
      <path
         inkscape:connector-curvature="0"
         id="path12185"
         d="m 253.53462,758.72888 c -1.37519,0.51453 -1.12435,3.38551 0.41348,3.53479 1.03491,0.43471 2.30274,1.56721 3.51237,2.12596 0.42192,0.72886 2.95818,0.93073 1.8444,-0.16112 0.2813,-0.39716 -1.45937,-1.29509 -2.23846,-1.79722 -1.60374,0.0638 -0.92308,-1.67917 -1.80237,-2.51862 -0.55692,-0.5889 -1.31096,-0.6821 -1.72942,-1.18379 z"
         style="color:#000000;fill:#008000;fill-opacity:1;fill-rule:nonzero;stroke:none;stroke-width:10;marker:none;visibility:visible;display:inline;overflow:visible;enable-background:accumulate" />
      <path
         inkscape:connector-curvature="0"
         id="path12187"
         d="m 256.28462,750.10388 c -1.49927,0.19525 -1.36143,2.1887 -1.74897,3.32893 -0.91349,1.49118 -0.41265,3.12285 0.0287,4.69285 -0.0616,1.4193 0.40118,2.89413 1.56411,3.78686 1.21507,0.82287 2.33649,1.65703 3.51304,2.42679 0.95874,0.571 2.23408,0.92996 2.87898,-0.13703 1.24319,-0.0474 2.3046,-0.87817 3.24858,-1.63146 1.20557,-0.97789 2.68542,-1.80827 3.49002,-3.20771 0.75904,-1.28997 -1.31611,-0.88708 -1.49829,-1.92157 -1.69364,-0.17506 -3.20503,-0.92779 -4.85314,-1.3609 -1.54321,0.11473 -2.00104,-1.95717 -3.41598,-2.47773 -1.18957,-0.58732 -2.10011,-1.59441 -2.77161,-2.64238 -0.007,-0.33296 0.0382,-0.83048 -0.43543,-0.85665 z"
         style="color:#000000;fill:#214478;fill-opacity:1;fill-rule:nonzero;stroke:none;stroke-width:10;marker:none;visibility:visible;display:inline;overflow:visible;enable-background:accumulate" />
      <path
         inkscape:connector-curvature="0"
         id="path12189"
         d="m 259.33065,753.59114 c -1.19462,-1.01253 -2.19137,-2.25173 -3.0255,-3.56731 -0.56355,0.72082 1.05385,2.27475 1.71867,2.96996 0.27907,0.16619 1.16145,1.15616 1.30683,0.59735 z"
         style="color:#000000;fill:#000000;fill-opacity:1;fill-rule:nonzero;stroke:none;stroke-width:10;marker:none;visibility:visible;display:inline;overflow:visible;enable-background:accumulate" />
      <path
         inkscape:connector-curvature="0"
         id="path12191"
         d="m 269.16994,759.22976 c -1.32767,1.29066 -2.47544,2.83304 -4.15655,3.7148 -1.44401,0.97681 -3.22876,0.92305 -4.85167,1.26236 0.67481,0.76075 2.3052,0.28899 3.34119,0.14203 2.56356,-0.66576 4.68151,-2.64847 5.81347,-5.00411 l -0.14644,-0.11513 0,5e-5 z"
         style="color:#000000;fill:#000000;fill-opacity:1;fill-rule:nonzero;stroke:none;stroke-width:10;marker:none;visibility:visible;display:inline;overflow:visible;enable-background:accumulate" />
      <path
         inkscape:connector-curvature="0"
         id="path12193"
         d="m 260.07985,764.17133 c -1.75816,-0.64628 -3.03341,-2.1285 -4.6892,-2.93086 -0.56791,0.54193 1.4078,1.42989 1.87578,1.94526 0.6749,0.36478 2.43025,1.69766 2.81342,0.9856 z"
         style="color:#000000;fill:#000000;fill-opacity:1;fill-rule:nonzero;stroke:none;stroke-width:10;marker:none;visibility:visible;display:inline;overflow:visible;enable-background:accumulate" />
      <path
         inkscape:connector-curvature="0"
         id="path12195"
         d="m 255.28557,760.30352 c -0.75222,-2.36947 -1.35506,-5.00381 -0.45853,-7.42257 0.17118,-1.03091 1.06843,-2.07752 1.13282,-2.94348 -1.09411,0.56908 -1.36861,2.00484 -1.78929,3.08658 -0.72677,2.3647 -0.37403,5.01725 0.78364,7.18308 l 0.16135,0.1967 0.17003,-0.10029 -2e-5,-2e-5 z"
         style="color:#000000;fill:#000000;fill-opacity:1;fill-rule:nonzero;stroke:none;stroke-width:10;marker:none;visibility:visible;display:inline;overflow:visible;enable-background:accumulate" />
      <path
         inkscape:connector-curvature="0"
         id="path12197"
         d="m 260.77799,758.88083 c -1.21447,-2.09796 -2.38057,-4.3209 -2.65569,-6.76174 -0.93137,0.61896 0.0211,2.67175 0.34355,3.6946 0.53249,0.99302 1.29165,2.85777 2.31214,3.06714 z"
         style="color:#000000;fill:#000000;fill-opacity:1;fill-rule:nonzero;stroke:none;stroke-width:10;marker:none;visibility:visible;display:inline;overflow:visible;enable-background:accumulate" />
      <path
         inkscape:connector-curvature="0"
         id="path12199"
         d="m 262.21273,756.46964 c -1.56951,1.78501 -2.77173,3.88849 -4.56267,5.4803 1.25418,0.0904 2.33106,-1.68414 3.11049,-2.66481 0.4179,-0.83921 1.6053,-1.99236 1.45218,-2.81549 z"
         style="color:#000000;fill:#000000;fill-opacity:1;fill-rule:nonzero;stroke:none;stroke-width:10;marker:none;visibility:visible;display:inline;overflow:visible;enable-background:accumulate" />
      <path
         inkscape:connector-curvature="0"
         id="path12201"
         d="m 268.22869,758.37301 c -1.17093,0.91121 -2.28398,1.81156 -1.52069,3.21589 0.91952,0.46465 -0.40618,-1.98576 0.0812,-1.3176 0.36942,-0.54116 1.64633,-1.2921 1.43948,-1.89829 z"
         style="color:#000000;fill:#000000;fill-opacity:1;fill-rule:nonzero;stroke:none;stroke-width:10;marker:none;visibility:visible;display:inline;overflow:visible;enable-background:accumulate" />
      <path
         inkscape:connector-curvature="0"
         id="path12203"
         d="m 267.99097,757.00474 c -0.97478,-0.53878 0.009,0.96687 0,0 z"
         style="color:#000000;fill:#000000;fill-opacity:1;fill-rule:nonzero;stroke:none;stroke-width:10;marker:none;visibility:visible;display:inline;overflow:visible;enable-background:accumulate" />
      <path
         inkscape:connector-curvature="0"
         id="path12205"
         d="m 267.10136,756.70785 c -0.91832,-0.37732 0.13938,0.91006 1.3e-4,1.2e-4 l -1.3e-4,-1.2e-4 z"
         style="color:#000000;fill:#000000;fill-opacity:1;fill-rule:nonzero;stroke:none;stroke-width:10;marker:none;visibility:visible;display:inline;overflow:visible;enable-background:accumulate" />
      <path
         inkscape:connector-curvature="0"
         id="path12207"
         d="m 259.34852,752.63444 c -0.23191,-0.70473 -0.94701,-0.32133 -0.24909,0.13906 l 0.24913,-0.13906 -4e-5,0 z"
         style="color:#000000;fill:#000000;fill-opacity:1;fill-rule:nonzero;stroke:none;stroke-width:10;marker:none;visibility:visible;display:inline;overflow:visible;enable-background:accumulate" />
      <path
         inkscape:connector-curvature="0"
         id="path12209"
         d="m 258.17609,751.31313 c -0.35623,-0.70599 -0.65418,0.4647 0,0 z"
         style="color:#000000;fill:#000000;fill-opacity:1;fill-rule:nonzero;stroke:none;stroke-width:10;marker:none;visibility:visible;display:inline;overflow:visible;enable-background:accumulate" />
      <path
         inkscape:connector-curvature="0"
         id="path12211"
         d="m 255.40156,750.54235 c 0.13564,0.56076 1.81042,2.09994 1.76949,1.268 -0.61582,-0.32779 -1.11597,-1.29211 -1.76949,-1.268 z"
         style="color:#000000;fill:#000000;fill-opacity:1;fill-rule:nonzero;stroke:none;stroke-width:10;marker:none;visibility:visible;display:inline;overflow:visible;enable-background:accumulate" />
      <path
         inkscape:connector-curvature="0"
         id="path12213"
         d="m 254.8015,759.7907 c -0.5821,-1.88898 -3.21247,-0.35524 -2.1596,1.22205 1.00032,1.91222 2.94669,3.14121 4.86696,3.9999 1.16999,0.895 3.19065,-0.078 1.9605,-1.48792 -0.57215,0.16169 0.54263,1.87351 -0.80013,1.29264 -2.10158,-0.76643 -4.12357,-2.01049 -5.49151,-3.80731 -0.96947,-1.04845 0.56572,-2.5033 1.4083,-1.20838 l 0.2155,-0.011 -2e-5,2e-5 z"
         style="color:#000000;fill:#000000;fill-opacity:1;fill-rule:nonzero;stroke:none;stroke-width:10;marker:none;visibility:visible;display:inline;overflow:visible;enable-background:accumulate" />
      <path
         inkscape:connector-curvature="0"
         id="path12215"
         d="m 269.94087,763.22888 c -1.15765,0.47403 -2.45443,0.96191 -3.50457,1.63388 -0.89142,-0.76336 -2.55631,-0.92811 -3.35925,0.07 -1.39457,-0.2658 -0.33021,1.6035 0.4518,1.8388 1.35442,1.03229 2.32736,-0.61042 3.6378,-0.79173 1.19166,-0.5315 2.47743,-0.92086 3.52422,-1.71964 0.49414,-0.4377 0.23653,-1.27057 -0.43193,-0.85551 0.41415,-0.43555 -0.36396,0.0606 -0.31807,-0.17575 z"
         style="color:#000000;fill:#008000;fill-opacity:1;fill-rule:nonzero;stroke:none;stroke-width:10;marker:none;visibility:visible;display:inline;overflow:visible;enable-background:accumulate" />
      <path
         inkscape:connector-curvature="0"
         id="path12217"
         d="m 271.47212,751.91638 c -0.68639,0.32216 -1.07996,0.90411 -1.91682,0.70689 -1.05483,1.34721 -2.61128,2.06436 -3.8674,3.19918 -0.99913,1.30496 -3.2359,0.54092 -4.62335,1.59164 -1.24016,0.67191 -2.85266,0.49624 -4.02911,0.32335 -0.78893,1.67263 1.51875,2.78006 2.2381,4.08355 0.42301,1.05051 1.71685,1.39171 2.71289,1.69534 1.26812,0.62075 2.51801,1.6889 4.04347,1.27899 1.16942,-0.12887 2.1817,-0.76597 3.25472,-1.19159 1.1132,-0.10838 2.8519,-0.91033 2.93575,-2.18652 -0.11659,-1.10517 0.71148,-2.26788 0.48084,-3.53249 -0.14083,-1.29988 -0.009,-2.6022 -0.2412,-3.91606 -0.14604,-0.69615 -0.28511,-1.71222 -0.98789,-2.05228 z"
         style="color:#000000;fill:#214478;fill-opacity:1;fill-rule:nonzero;stroke:none;stroke-width:10;marker:none;visibility:visible;display:inline;overflow:visible;enable-background:accumulate" />
      <path
         inkscape:connector-curvature="0"
         id="path12219"
         d="m 271.8838,752.49095 c 0.28893,1.82872 0.8893,3.65551 0.64108,5.53757 -0.0335,1.74303 -1.10571,3.17083 -1.7634,4.69282 1.01065,-0.11324 1.56434,-1.71766 2.04109,-2.64911 0.93281,-2.47891 0.53231,-5.35229 -0.74083,-7.6347 l -0.17847,0.0534 5.3e-4,2e-5 z"
         style="color:#000000;fill:#000000;fill-opacity:1;fill-rule:nonzero;stroke:none;stroke-width:10;marker:none;visibility:visible;display:inline;overflow:visible;enable-background:accumulate" />
      <path
         inkscape:connector-curvature="0"
         id="path12221"
         d="m 270.68574,762.7678 c -1.54118,1.06468 -3.48739,1.25308 -5.09716,2.14417 0.11494,0.77684 1.97963,-0.32675 2.67031,-0.41226 0.68734,-0.34177 2.78674,-1.00755 2.42685,-1.73191 z"
         style="color:#000000;fill:#000000;fill-opacity:1;fill-rule:nonzero;stroke:none;stroke-width:10;marker:none;visibility:visible;display:inline;overflow:visible;enable-background:accumulate" />
      <path
         inkscape:connector-curvature="0"
         id="path12223"
         d="m 264.76222,764.45806 c -2.37008,-0.7503 -4.87061,-1.77527 -6.33107,-3.90159 -0.75624,-0.66296 -1.11504,-2.31696 -1.78286,-2.549 -0.0701,1.14627 0.81401,2.11968 1.41753,3.03357 1.51176,2.03187 3.93289,3.32454 6.42708,3.63239 l 0.25374,-0.0186 0.016,-0.19676 -4.2e-4,-6e-5 z"
         style="color:#000000;fill:#000000;fill-opacity:1;fill-rule:nonzero;stroke:none;stroke-width:10;marker:none;visibility:visible;display:inline;overflow:visible;enable-background:accumulate" />
      <path
         inkscape:connector-curvature="0"
         id="path12225"
         d="m 266.76373,759.14914 c -2.41448,-0.21604 -4.90325,-0.54363 -7.05679,-1.72499 -0.0307,1.11803 2.19599,1.52184 3.21773,1.84772 1.11839,0.13694 3.08032,0.59061 3.83906,-0.12273 z"
         style="color:#000000;fill:#000000;fill-opacity:1;fill-rule:nonzero;stroke:none;stroke-width:10;marker:none;visibility:visible;display:inline;overflow:visible;enable-background:accumulate" />
      <path
         inkscape:connector-curvature="0"
         id="path12227"
         d="m 265.61953,756.58728 c 0.55476,2.31125 1.58136,4.50579 1.85069,6.8867 0.79637,-0.97186 -0.0335,-2.87551 -0.38604,-4.0772 -0.44509,-0.8254 -0.70396,-2.45995 -1.46465,-2.8095 z"
         style="color:#000000;fill:#000000;fill-opacity:1;fill-rule:nonzero;stroke:none;stroke-width:10;marker:none;visibility:visible;display:inline;overflow:visible;enable-background:accumulate" />
      <path
         inkscape:connector-curvature="0"
         id="path12229"
         d="m 270.64125,752.76669 c 0.0702,1.48201 0.16485,2.91066 1.75262,3.0957 0.90969,-0.48395 -1.85707,-0.81211 -1.03012,-0.82547 -0.22954,-0.6136 -0.10742,-2.09073 -0.7225,-2.27023 z"
         style="color:#000000;fill:#000000;fill-opacity:1;fill-rule:nonzero;stroke:none;stroke-width:10;marker:none;visibility:visible;display:inline;overflow:visible;enable-background:accumulate" />
      <path
         inkscape:connector-curvature="0"
         id="path12231"
         d="m 269.38592,752.17269 c -1.00196,0.48597 0.79513,0.54998 0,0 z"
         style="color:#000000;fill:#000000;fill-opacity:1;fill-rule:nonzero;stroke:none;stroke-width:10;marker:none;visibility:visible;display:inline;overflow:visible;enable-background:accumulate" />
      <path
         inkscape:connector-curvature="0"
         id="path12233"
         d="m 268.63073,752.72877 c -0.83767,0.53377 0.82455,0.4087 -1.4e-4,-2.8e-4 l 1.4e-4,2.8e-4 z"
         style="color:#000000;fill:#000000;fill-opacity:1;fill-rule:nonzero;stroke:none;stroke-width:10;marker:none;visibility:visible;display:inline;overflow:visible;enable-background:accumulate" />
      <path
         inkscape:connector-curvature="0"
         id="path12235"
         d="m 260.83464,756.71878 c -0.70956,-0.21673 -0.8083,0.58831 -0.0299,0.2834 l 0.0299,-0.28374 -4e-5,3.4e-4 z"
         style="color:#000000;fill:#000000;fill-opacity:1;fill-rule:nonzero;stroke:none;stroke-width:10;marker:none;visibility:visible;display:inline;overflow:visible;enable-background:accumulate" />
      <path
         inkscape:connector-curvature="0"
         id="path12237"
         d="m 259.07918,756.91583 c -0.78235,-0.11552 0.003,0.80222 0,0 z"
         style="color:#000000;fill:#000000;fill-opacity:1;fill-rule:nonzero;stroke:none;stroke-width:10;marker:none;visibility:visible;display:inline;overflow:visible;enable-background:accumulate" />
      <path
         inkscape:connector-curvature="0"
         id="path12239"
         d="m 264.06418,764.55827 c -1.87936,-0.6126 -2.14113,2.42105 -0.24534,2.46917 2.13928,0.28416 4.26516,-0.59869 6.07335,-1.67351 1.4056,-0.44061 1.77447,-2.65298 -0.0867,-2.4596 -0.19738,0.56081 1.8439,0.63588 0.59563,1.39874 -1.83722,1.27618 -4.01901,2.21212 -6.27576,2.295 -1.41541,0.18824 -1.72017,-1.90465 -0.1763,-1.84729 l 0.11514,-0.1825 -6e-5,-10e-6 z"
         style="color:#000000;fill:#000000;fill-opacity:1;fill-rule:nonzero;stroke:none;stroke-width:10;marker:none;visibility:visible;display:inline;overflow:visible;enable-background:accumulate" />
      <path
         inkscape:connector-curvature="0"
         id="path12241"
         d="m 267.04277,754.14258 c -0.7865,0.0661 -3.1919,0.0644 -2.72902,1.16271 0.74686,0.04 2.97479,0.52331 2.9774,-0.13247 -0.45622,-0.48072 -2.10836,10e-4 -2.96895,0.21183 0.11348,1.31335 2.28448,0.33646 3.0616,-0.006 0.9558,-1.32256 -1.36425,-0.66524 -2.0082,-0.33267 -0.51387,0.37974 -2.266,0.0255 -1.58035,0.63375 -0.35632,0.42172 2.93034,0.05 1.65959,-0.74454 -0.73526,0.0738 -2.30692,0.45865 -2.53035,0.54526 0.0559,0.76412 0.65745,0.44159 1.28359,0.37493 -0.50278,-0.99766 -2.25824,-0.14506 -3.40286,-0.77267 -0.98961,-0.21208 -2.64316,-0.88055 -2.60821,-0.0182 1.5943,0.93303 3.5115,1.75167 5.38404,1.35278 0.37262,-1.27205 -2.21144,-0.67566 -3.10474,-1.2159 -0.92482,0.0218 -2.63823,-1.41965 -2.99058,-0.26629 1.53331,1.10121 3.52717,1.35186 5.37928,1.36486 1.82007,-0.0654 3.78544,-0.28018 5.29341,-1.38034 -0.38177,-1.15328 -1.84948,0.70267 -2.80639,0.43831 -2.28552,0.35798 -4.66813,0.25747 -6.83812,-0.5955 -0.57028,-0.48992 -1.28045,0.57711 -0.28819,0.47259 1.6297,0.71038 3.39432,1.19321 5.18419,1.12774 0.0921,-1.02963 -1.60585,-0.20571 -2.42428,-0.86349 -0.95717,0.0672 -2.64101,-1.7794 -3.00224,-0.54972 1.09216,0.62511 2.40966,0.6512 3.583,1.0715 0.78042,0.15356 3.22025,0.37692 2.67579,-0.77588 -0.68521,-0.35592 -2.61494,0.54844 -1.17277,0.85959 0.77546,-0.22903 2.87996,0.0184 2.31145,-1.1372 -0.67819,-0.13522 -3.23888,0.35455 -1.79132,1.09022 1.30254,0.12659 2.53632,-0.38256 3.69807,-0.89757 -0.2912,-0.75312 -2.02477,0.3385 -2.65238,0.20246 -0.11456,1.24458 2.06381,0.21947 2.83912,0.17303 1.18088,-0.97828 -1.35267,-0.81336 -1.9606,-0.83519 -0.77453,-0.47356 -1.348,0.84311 -0.42793,0.31502 0.42721,-0.29928 2.46579,-0.0671 1.95695,-0.87347 z"
         style="color:#000000;fill:#373e48;fill-opacity:1;fill-rule:nonzero;stroke:none;stroke-width:10;marker:none;visibility:visible;display:inline;overflow:visible;enable-background:accumulate" />
      <path
         inkscape:connector-curvature="0"
         id="path12243"
         d="m 253.98866,747.55422 c -1.0016,0.72495 0.0733,2.64181 0.89891,1.49052 0.37341,-0.88215 0.47481,-2.13877 -0.89891,-1.49052 z"
         style="color:#000000;fill:#cccccc;fill-opacity:1;fill-rule:nonzero;stroke:none;stroke-width:10;marker:none;visibility:visible;display:inline;overflow:visible;enable-background:accumulate" />
      <path
         inkscape:connector-curvature="0"
         id="path12245"
         d="m 259.65962,745.82263 c -1.71008,-0.13591 -1.57066,1.54468 -1.75154,2.64908 -1.34469,0.96541 -1.88946,2.54277 -2.7205,3.87952 -0.74837,1.8848 1.79314,2.42938 3.09907,2.78957 1.29397,0.34598 2.57748,-0.0199 3.838,-0.0284 1.53495,0.13837 3.13227,0.16263 4.59747,-0.3835 0.31412,0.69253 1.361,0.47392 1.31307,0.15793 1.11326,-0.62939 3.11387,-0.73986 3.74368,-2.13923 -0.55295,-1.20993 -0.66193,-2.62685 -1.63392,-3.63286 -0.94335,-0.8011 -0.88753,-2.34926 -2.16644,-2.88216 -1.54713,-0.54378 -3.25514,-0.23397 -4.86975,-0.31058 -1.15123,-0.007 -2.29675,-0.16847 -3.44914,-0.0994 z m 8.5,9.15625 c -0.11271,0.0307 0.0755,0.0649 0,0 z m -11.03125,-4.71875 c 0.40883,-0.11182 0.13354,0.23198 0,0 z m 9.3125,4.28125 -0.12393,0.0315 0.12393,-0.0315 z"
         style="color:#000000;fill:#373e48;fill-opacity:1;fill-rule:nonzero;stroke:none;stroke-width:10;marker:none;visibility:visible;display:inline;overflow:visible;enable-background:accumulate" />
      <path
         inkscape:connector-curvature="0"
         id="path12247"
         d="m 269.92357,750.64317 c 0.98542,0.63665 -0.92335,-2.72834 -0.32693,-0.81094 0.15777,0.63868 1.02462,1.70663 0.68634,0.39328 0.0226,-0.76238 -1.29859,-1.86577 -0.56583,-0.58234 0.27609,0.66409 1.1342,1.78297 0.68027,0.39831 -0.042,-0.6812 -1.45208,-2.63588 -0.84063,-0.96618 0.11441,0.56153 1.11651,1.94445 0.65407,0.59499 -0.187,-1.04524 -2.04015,-2.67002 -1.23936,-0.6049 0.0482,0.87683 1.3186,1.48327 0.69019,0.18296 -0.0122,-0.92492 -1.32733,-1.56664 -1.1585,-0.22578 0.10136,1.27135 1.74949,0.8682 0.69544,-0.15976 -1.31595,-0.81147 -0.10648,1.99137 0.59,0.86052 -0.21811,-1.22907 -1.85135,-0.0756 -0.48059,0.16313 1.0458,-0.56709 -1.60648,-1.24784 -0.42196,-0.16048 1.2934,0.56023 -0.93633,-1.52247 -0.22202,-0.33004 0.48489,0.81987 1.59282,0.5461 0.38899,0.0473 -0.51031,-0.46904 0.1911,-1.90749 -0.61558,-0.74269 -0.35165,0.88394 0.58571,1.02322 0.30082,0.036 -0.50378,-1.37945 -0.44361,1.91015 0.70903,1.23529 0.3408,-0.5252 -0.86932,0.0524 0.19225,0.0691 -0.16113,-0.33747 -1.59668,-1.11372 -0.58906,-1.60162 0.44876,0.70124 1.01328,0.53006 0.34135,-0.18951 -0.62175,-0.39976 0.64,1.30488 0.53541,1.78472 -0.13899,0.94197 1.03242,1.13896 0.47649,0.12092 -0.77614,0.0694 0.5567,1.21898 -0.0341,0.2879 -0.80657,-0.62109 0.20982,1.16091 -0.11866,0.017 -0.78178,-0.17275 0.50543,0.9964 0.0666,-0.0275 -0.86014,-0.29024 0.77858,1.162 0.14897,-0.0884 -0.61885,-0.48824 0.15746,1.03023 -0.14052,0.003 -0.20366,-0.64614 -0.54628,-2.7021 -1.32285,-2.17168 0.18777,0.796 1.25388,0.98712 0.35477,0.11106 -1.85702,-0.63928 -0.3983,2.85728 0.39271,1.52275 -0.8985,-0.49978 -0.54009,0.62771 -0.0547,0.13108 -0.53903,-0.31953 -1.35537,-0.7483 -0.93252,-1.54517 -0.74913,-0.32221 -0.0675,1.95124 -0.0325,0.40341 0.79623,-1.10244 -0.7165,-0.4222 -0.19357,0.3798 -0.0361,0.94211 2.13122,1.0268 0.70743,0.33889 -0.26829,-0.31804 -1.01025,-1.23584 -0.80433,-0.22217 0.64108,1.01218 1.17497,0.12766 0.36969,0.0402 0.86915,0.48583 0.28663,0.19775 0.27149,0.1042 1.09921,0.63562 -0.34711,-0.12517 -0.27996,-0.54145 0.34756,0.51069 0.78881,1.13818 0.12053,0.34705 -0.19697,-0.62048 -0.0415,-1.27441 0.23537,-0.25228 0.0448,0.56645 0.9096,1.4743 0.32003,0.42073 -0.0989,-0.48503 -0.982,-2.06944 -0.25483,-0.77345 0.18248,0.554 1.56801,2.51794 0.91494,0.86803 -0.12667,-0.69322 -1.18307,-1.64438 -0.54701,-0.47151 0.12908,0.49235 1.22672,2.70905 0.79634,1.09932 -0.15276,-0.6376 -1.30502,-1.78796 -0.7031,-0.47809 0.166,0.57633 0.94004,1.9427 0.46575,0.55222 -0.15069,-0.75363 -1.10918,-1.31291 -0.49753,-0.22383 -0.0138,0.50484 0.78335,0.80329 0.27137,0.657 z"
         style="color:#000000;fill:#ffffff;fill-opacity:1;fill-rule:nonzero;stroke:none;stroke-width:10;marker:none;visibility:visible;display:inline;overflow:visible;enable-background:accumulate" />
      <path
         inkscape:connector-curvature="0"
         id="path12249"
         d="m 257.68503,746.67411 c -1.43409,0.32155 -2.04536,1.86214 -2.63998,3.04865 -0.2503,0.6452 -0.68474,2.97544 0.46474,2.27963 -0.022,-1.46921 0.27884,-3.23904 1.609,-4.09914 -0.66965,-0.54277 -1.43355,1.5114 -1.73129,2.31305 -0.43301,1.83991 1.52594,-0.0186 1.78587,-0.84044 0.78427,-0.37874 1.30442,-2.83021 0.0438,-2.22358 -0.3546,0.63627 -1.36143,2.22569 -0.30474,1.66376 0.60938,-0.77405 0.19808,-2.69937 -0.86769,-1.4289 -1.01971,1.32789 -1.87461,2.99496 -1.4747,4.71477 0.69268,0.78335 2.28953,-1.91515 1.17839,-2.04566 -0.76906,0.14605 -1.15655,2.4635 -1.02162,2.52022 1.10782,0.17831 0.1468,-1.51133 -0.37381,-0.55182 -0.213,1.27885 1.32085,0.60816 0.83062,-0.38979 -0.16261,-1.29591 0.19658,-2.69218 1.33685,-3.4507 0.93699,-0.85836 -0.86896,-1.02641 -1.05372,-0.0891 -1.22154,1.17368 -1.3458,3.0562 -1.04465,4.6265 1.11219,0.38196 0.86525,-1.20902 -0.0313,-0.78775 -0.3164,1.10055 1.24957,1.56435 1.03882,0.27506 0.18151,-0.69524 1.44272,-2.37314 0.0992,-2.17381 -0.4094,0.71328 -1.39776,1.93858 -0.29166,1.86006 -0.0513,-1.2306 0.24472,-2.45236 0.99629,-3.44496 0.44858,-0.36308 0.88078,-1.2193 0.2395,-0.9581 -0.3758,0.62442 -0.52267,2.72778 0.60824,1.52843 0.44072,-0.52598 1.14008,-2.13201 0.16357,-1.5998 -0.057,1.29335 -1.61404,1.99246 -1.94495,3.26304 1.0845,0.89215 1.01972,-1.31589 1.66836,-1.87343 0.67385,-0.57897 0.57839,-2.06674 -0.52812,-1.29924 -1.30823,0.88128 -1.77303,2.61423 -1.74692,4.1133 0.23708,1.53551 1.37651,0.35761 0.80859,-0.65128 0.076,-1.30102 0.92362,-2.45078 1.81414,-3.34949 0.27005,-0.31356 1.00232,-0.50677 0.36914,-0.94946 z"
         style="color:#000000;fill:#800000;fill-opacity:1;fill-rule:nonzero;stroke:none;stroke-width:10;marker:none;visibility:visible;display:inline;overflow:visible;enable-background:accumulate" />
      <path
         inkscape:connector-curvature="0"
         id="path12251"
         d="m 255.78462,739.01013 c -1.10688,0.36021 -1.28977,1.80157 -1.09566,2.80491 0.2471,1.58802 1.68678,2.75292 3.13829,3.22117 1.02537,0.35128 2.07057,0.96639 3.22221,0.77681 1.15226,0.13033 2.30767,0.26923 3.47512,0.1929 1.24727,-0.14064 2.60443,-0.0998 3.40818,-1.02874 1.41319,-1.43354 -1.06465,-1.19606 -1.818,-1.3731 -0.86218,-1.07655 -2.13649,-2.15464 -3.5783,-2.08171 -0.71359,0.42906 -1.34805,0.80428 -2.17819,0.97338 -0.59162,-1.44892 -2.07575,-1.62183 -3.09619,-2.56554 -0.53018,-0.23685 -0.96459,-0.69878 -1.47746,-0.92008 z m 11.4375,6.71875 c -0.0223,0.13879 0.20652,0.10395 0,0 z"
         style="color:#000000;fill:#ffe6d5;fill-opacity:1;fill-rule:nonzero;stroke:none;stroke-width:10;marker:none;visibility:visible;display:inline;overflow:visible;enable-background:accumulate" />
      <path
         inkscape:connector-curvature="0"
         id="path12253"
         d="m 268.69087,737.63513 c -1.0031,0.67681 -0.59466,2.64245 -1.03487,3.05763 -1.63577,0.19723 -3.23339,0.30508 -4.87939,0.0514 -0.96579,0.54812 -2.11283,0.18179 -3.1167,-0.13505 -0.77049,-0.68616 -2.00755,0.18722 -0.80315,0.75962 1.43059,0.087 0.97241,2.57614 2.48931,1.98289 0.27596,-1.05236 0.80088,-1.6644 1.93958,-1.37436 1.06211,-0.93263 0.94215,1.35595 1.64617,1.68361 1.3247,0.55698 2.66094,0.53459 3.96173,-0.0279 1.26368,-0.56736 0.81922,-1.85332 1.04085,-3.03585 -0.14025,-0.82696 -0.39916,-2.67966 -1.24353,-2.96197 z"
         style="color:#000000;fill:#d4aa00;fill-opacity:1;fill-rule:nonzero;stroke:none;stroke-width:10;marker:none;visibility:visible;display:inline;overflow:visible;enable-background:accumulate" />
      <path
         inkscape:connector-curvature="0"
         id="path12255"
         d="m 262.28462,734.47888 c -1.61053,-0.22539 0.30389,2.11114 -0.92602,1.06703 -1.13781,0.0902 -1.87603,0.60822 -3.13661,0.47016 -1.4395,0.51528 -2.92302,0.10304 -4.42774,0.20244 -1.80015,-0.41737 -2.36065,2.12474 -0.51575,2.42641 1.50976,0.4865 3.21094,0.34026 4.50427,1.39999 1.35465,1.00251 2.92827,1.42759 4.60363,1.34064 1.65868,-0.15495 3.71423,0.52465 5.0545,-0.65662 1.18367,-0.4228 -0.40603,-3.1603 1.52403,-2.6805 0.94755,-1.50207 -1.84369,-2.07753 -2.9736,-1.96803 -0.89985,-0.10586 -2.04882,0.028 -2.06839,-1.16344 -0.39953,-0.53092 -1.0723,-0.38794 -1.63832,-0.43808 z m -0.71875,1.09375 c 0.40207,-0.15769 -0.42589,-0.68567 0,-2e-5 l 0,2e-5 z m -0.15625,-0.46875 c 0.17579,-0.39063 -0.2277,-0.15576 0,5e-5 l 0,-5e-5 z"
         style="color:#000000;fill:#333333;fill-opacity:1;fill-rule:nonzero;stroke:none;stroke-width:10;marker:none;visibility:visible;display:inline;overflow:visible;enable-background:accumulate" />
      <path
         inkscape:connector-curvature="0"
         id="path12257"
         d="m 256.23053,741.90303 c 1.6528,0.46955 1.32116,-2.35713 -0.031,-1.30871 -0.88862,1.14251 1.78825,1.54784 1.04782,0.53809 -0.73869,-0.0507 -0.0807,-0.11327 -0.72736,-0.11497 0.94712,0.17089 -1.22566,0.12855 -0.28941,0.88559 z"
         style="color:#000000;fill:#ffffff;fill-opacity:1;fill-rule:nonzero;stroke:none;stroke-width:10;marker:none;visibility:visible;display:inline;overflow:visible;enable-background:accumulate" />
      <path
         inkscape:connector-curvature="0"
         id="path12259"
         d="m 256.60873,741.50392 c 0.84637,-0.8831 -1.22875,-0.74352 -0.30138,0.009 0.72742,0.0889 0.47745,-0.56062 -0.0549,-0.36813 0.48638,-0.27564 0.20153,0.19318 -0.027,0.0583 0.0474,0.19062 0.29365,0.16458 0.38333,0.30127 z"
         style="color:#000000;fill:#00ccff;fill-opacity:1;fill-rule:nonzero;stroke:none;stroke-width:10;marker:none;visibility:visible;display:inline;overflow:visible;enable-background:accumulate" />
      <path
         inkscape:connector-curvature="0"
         id="path12261"
         d="m 268.27928,746.1215 c -0.1057,-0.62745 -1.24717,-2.23212 -0.90482,-0.74574 0.19214,0.29971 0.43076,1.12205 0.90482,0.74574 z"
         style="color:#000000;fill:#000000;fill-opacity:1;fill-rule:nonzero;stroke:none;stroke-width:10;marker:none;visibility:visible;display:inline;overflow:visible;enable-background:accumulate" />
      <path
         inkscape:connector-curvature="0"
         id="path12263"
         d="m 267.78286,745.3353 c 1.13522,-0.6475 2.22876,-1.80533 2.46745,-3.13354 0.30784,-1.86401 -0.0729,-3.80286 -1.15315,-5.36493 -0.18132,-0.77841 -1.47158,-1.15782 -0.77693,-0.087 0.82558,1.4054 1.56245,2.9523 1.37701,4.63013 0.44257,1.69116 -1.56146,2.65373 -2.0377,3.78034 l 0.12338,0.17502 -6e-5,0 z"
         style="color:#000000;fill:#000000;fill-opacity:1;fill-rule:nonzero;stroke:none;stroke-width:10;marker:none;visibility:visible;display:inline;overflow:visible;enable-background:accumulate" />
      <path
         inkscape:connector-curvature="0"
         id="path12265"
         d="m 268.86228,736.70595 c -1.65817,-1.3039 -3.89145,-1.57471 -5.94336,-1.62814 -2.35248,0.0676 -4.78921,0.48532 -6.85025,1.67179 -0.79616,0.17667 -1.78912,2.33558 -0.51131,1.21252 1.38928,-1.28525 3.39358,-1.48193 5.166,-1.88377 2.67331,-0.46589 5.43579,-0.0978 7.97612,0.81235 l 0.16284,-0.18434 -4e-5,-4.1e-4 z"
         style="color:#000000;fill:#000000;fill-opacity:1;fill-rule:nonzero;stroke:none;stroke-width:10;marker:none;visibility:visible;display:inline;overflow:visible;enable-background:accumulate" />
      <path
         inkscape:connector-curvature="0"
         id="path12267"
         d="m 255.70853,737.42304 c -1.01766,0.99547 -1.35379,2.51482 -1.54859,3.88613 0.86516,0.48143 0.70506,-1.80937 1.22659,-2.36743 0.0251,-0.47622 0.95926,-1.25561 0.322,-1.5187 z"
         style="color:#000000;fill:#000000;fill-opacity:1;fill-rule:nonzero;stroke:none;stroke-width:10;marker:none;visibility:visible;display:inline;overflow:visible;enable-background:accumulate" />
      <path
         inkscape:connector-curvature="0"
         id="path12269"
         d="m 254.46466,741.38727 c -0.18565,1.38976 0.82645,2.60803 1.86029,3.39301 0.82561,-0.57197 -1.33258,-1.62131 -1.30459,-2.53923 -0.20469,-0.27165 0.0171,-1.10086 -0.5557,-0.85378 z"
         style="color:#000000;fill:#000000;fill-opacity:1;fill-rule:nonzero;stroke:none;stroke-width:10;marker:none;visibility:visible;display:inline;overflow:visible;enable-background:accumulate" />
      <path
         inkscape:connector-curvature="0"
         id="path12271"
         d="m 256.26427,744.84114 c 0.70251,0.45729 2.47169,1.31877 2.79437,0.384 -0.85566,0.01 -2.18758,-0.86786 -2.79437,-0.384 z"
         style="color:#000000;fill:#000000;fill-opacity:1;fill-rule:nonzero;stroke:none;stroke-width:10;marker:none;visibility:visible;display:inline;overflow:visible;enable-background:accumulate" />
      <path
         inkscape:connector-curvature="0"
         id="path12273"
         d="m 257.46786,745.05693 c -1.41458,1.36545 1.40796,0.38049 0,0 z"
         style="color:#000000;fill:#000000;fill-opacity:1;fill-rule:nonzero;stroke:none;stroke-width:10;marker:none;visibility:visible;display:inline;overflow:visible;enable-background:accumulate" />
      <path
         inkscape:connector-curvature="0"
         id="path12275"
         d="m 270.07141,739.67909 c -2.09942,1.32549 -4.71313,1.3004 -7.11277,1.28517 -2.43466,-0.0997 -4.91069,-0.82137 -6.80661,-2.39891 -1.21088,0.11748 1.0467,1.63421 1.57367,1.90825 3.19454,1.72596 7.10169,1.75367 10.52046,0.7306 0.53556,-0.22284 2.4838,-0.9009 1.82525,-1.52511 z"
         style="color:#000000;fill:#000000;fill-opacity:1;fill-rule:nonzero;stroke:none;stroke-width:10;marker:none;visibility:visible;display:inline;overflow:visible;enable-background:accumulate" />
      <path
         inkscape:connector-curvature="0"
         id="path12277"
         d="m 264.24685,735.70283 c 0.007,-1.62006 -1.92658,-1.55567 -2.96235,-1.00337 -0.82468,0.59785 0.1319,1.0128 0.40994,0.30488 0.87499,-0.2265 2.04545,-0.43803 2.15804,0.78966 l 0.20186,-0.0247 0.19252,-0.0665 -1e-5,3e-5 z"
         style="color:#000000;fill:#000000;fill-opacity:1;fill-rule:nonzero;stroke:none;stroke-width:10;marker:none;visibility:visible;display:inline;overflow:visible;enable-background:accumulate" />
      <path
         inkscape:connector-curvature="0"
         id="path12279"
         d="m 256.90521,736.0351 c -1.47445,-0.18638 -3.07035,-0.17696 -4.45489,0.41653 -1.43237,0.6289 -0.3386,2.28549 0.78817,2.46676 1.09542,0.2454 3.14208,0.798 3.72739,-0.0902 -1.3557,-0.47377 -2.99095,0.10341 -4.24217,-0.78815 -1.42397,-1.25603 1.43371,-1.44756 2.25504,-1.45578 0.54711,-0.20069 1.87901,0.25641 1.92646,-0.54916 z"
         style="color:#000000;fill:#000000;fill-opacity:1;fill-rule:nonzero;stroke:none;stroke-width:10;marker:none;visibility:visible;display:inline;overflow:visible;enable-background:accumulate" />
      <path
         inkscape:connector-curvature="0"
         id="path12281"
         d="m 255.69949,743.9884 c 1.17442,1.30606 1.55694,-1.19835 0.19275,-1.17718 -0.75319,-0.28468 -1.95021,0.38603 -1.17945,1.1948 0.60021,0.98691 1.9636,-0.19259 0.86784,-0.74849 -0.97863,0.81361 0.4912,0.28388 0.51493,1.02952 1.21613,0.78176 1.02777,-1.21776 -0.20214,-1.06759 -0.67145,-0.21348 -0.79862,0.56663 -0.26716,0.71696 0.30978,0.6332 0.61765,-0.55799 0.12294,-0.31346 -1.23952,0.99997 1.64759,0.89979 0.48603,-0.0249 -0.24905,-0.95207 -2.18313,-0.65679 -1.1296,0.19051 0.82424,-0.0436 1.32913,0.59338 1.43601,0.0946 0.40857,0.11573 -0.89354,-1.24939 -1.1599,-0.41397 -0.55736,0.57463 0.67955,0.30677 -0.27326,-0.008 0.1812,-0.11045 0.42707,-0.0666 0.81964,-0.0293 0.15253,0.5743 0.89517,0.56675 0.16125,0.17155 -0.17934,-0.1885 -0.26507,0.52244 -0.38988,0.38489 z"
         style="color:#000000;fill:#ffaaaa;fill-opacity:1;fill-rule:nonzero;stroke:none;stroke-width:10;marker:none;visibility:visible;display:inline;overflow:visible;enable-background:accumulate" />
      <path
         inkscape:connector-curvature="0"
         id="path12283"
         d="m 256.30632,744.09885 c -0.65928,0.31795 -2.50279,-0.50046 -1.45173,-1.08262 0.77324,-0.53988 2.4822,0.74061 1.75538,1.30585 -0.69467,-0.57336 -1.59658,0.0516 -0.52058,0.18034 1.83205,0.86061 0.93357,-2.06461 -0.35732,-1.88007 -1.32202,-0.46002 -2.21601,1.16517 -0.73006,1.72085 0.20499,-0.006 1.70188,0.26031 1.30431,-0.24435 z"
         style="color:#000000;fill:#000000;fill-opacity:1;fill-rule:nonzero;stroke:none;stroke-width:10;marker:none;visibility:visible;display:inline;overflow:visible;enable-background:accumulate" />
      <path
         inkscape:connector-curvature="0"
         id="path12285"
         d="m 254.84158,743.57323 c 0.58808,-0.24609 2.18592,1.14743 1.2866,-0.0629 -0.2866,-0.18069 -1.29714,-0.55306 -1.2866,0.0629 z"
         style="color:#000000;fill:#000000;fill-opacity:1;fill-rule:nonzero;stroke:none;stroke-width:10;marker:none;visibility:visible;display:inline;overflow:visible;enable-background:accumulate" />
      <path
         inkscape:connector-curvature="0"
         id="path12287"
         d="m 256.25476,740.87304 c 0.76294,-1.15929 1.74951,1.30861 0.26131,0.76243 -2.08227,0.13669 2.10905,0.96655 1.09496,-0.69099 -0.0402,-1.09821 -2.1949,-0.70512 -1.35627,-0.0714 z"
         style="color:#000000;fill:#000000;fill-opacity:1;fill-rule:nonzero;stroke:none;stroke-width:10;marker:none;visibility:visible;display:inline;overflow:visible;enable-background:accumulate" />
      <path
         inkscape:connector-curvature="0"
         id="path12289"
         d="m 256.69481,741.50179 c 0.89249,-1.05457 -1.51264,-0.78479 -0.49681,0.0956 0.78578,0.25648 0.66422,-0.41663 0.007,-0.30938 0.21944,-0.74592 0.46648,-0.11877 0.48993,0.21373 z"
         style="color:#000000;fill:#000000;fill-opacity:1;fill-rule:nonzero;stroke:none;stroke-width:10;marker:none;visibility:visible;display:inline;overflow:visible;enable-background:accumulate" />
      <path
         inkscape:connector-curvature="0"
         id="path12291"
         d="m 254.4974,740.99225 c 0.44796,-1.11126 -1.50159,0.47423 -0.53453,1.05168 0.6379,0.66979 1.11168,-0.027 0.40636,-0.30612 0.35673,-1.08041 -0.60945,0.59275 0.19425,0.17157 -0.10682,-1.05855 -0.7652,-0.0583 -0.0413,-0.085 0.51656,-0.20043 -0.18143,-1.32395 -0.50469,-0.28479 -0.41012,1.16972 1.78304,0.61807 0.38195,0.37152 -0.51849,-0.33017 0.14375,-1.65792 0.0976,-0.91828 l 4.5e-4,-5.5e-4 z"
         style="color:#000000;fill:#000000;fill-opacity:1;fill-rule:nonzero;stroke:none;stroke-width:10;marker:none;visibility:visible;display:inline;overflow:visible;enable-background:accumulate" />
      <path
         inkscape:connector-curvature="0"
         id="path12293"
         d="m 269.03947,737.26963 c -1.25527,0.0798 -1.9723,2.31422 -1.03371,2.84159 -0.0544,-0.96974 0.0408,-2.21524 1.14074,-2.57738 l -0.10698,-0.26422 -5e-5,10e-6 z"
         style="color:#000000;fill:#000000;fill-opacity:1;fill-rule:nonzero;stroke:none;stroke-width:10;marker:none;visibility:visible;display:inline;overflow:visible;enable-background:accumulate" />
      <path
         inkscape:connector-curvature="0"
         id="path12297"
         d="m 260.22211,749.47888 c -0.89041,0.82827 -1.83707,2.0193 -2.06879,3.29759 -0.17843,1.24484 0.82888,2.30102 1.96053,2.62647 1.14632,0.54728 2.66527,0.24405 3.70994,-0.39125 1.0015,-0.7989 1.77935,-1.90365 1.87352,-3.14357 -0.88995,-0.84172 -2.16315,-1.44317 -3.46612,-1.69618 -0.89013,0.22813 -1.28865,-0.36597 -2.00908,-0.69306 z"
         style="color:#000000;fill:#ffe6d5;fill-opacity:1;fill-rule:nonzero;stroke:none;stroke-width:10;marker:none;visibility:visible;display:inline;overflow:visible;enable-background:accumulate" />
      <path
         inkscape:connector-curvature="0"
         id="path12299"
         d="m 262.78461,745.94763 c -1.53775,0.0403 -3.77052,1.5684 -2.8537,3.28443 0.81421,1.38697 2.54966,1.87776 3.95458,2.46825 1.26915,0.89093 3.08587,0.0602 2.6756,-1.62312 -0.29024,-1.47311 -0.30839,-3.51415 -2.19344,-3.82844 -0.50672,-0.2079 -1.02866,-0.36291 -1.58304,-0.30112 z"
         style="color:#000000;fill:#800000;fill-opacity:1;fill-rule:nonzero;stroke:none;stroke-width:10;marker:none;visibility:visible;display:inline;overflow:visible;enable-background:accumulate" />
      <path
         inkscape:connector-curvature="0"
         id="path12301"
         d="m 266.03196,748.13323 c 0.3286,1.33762 0.0829,2.72586 0.0269,4.06842 0.84952,-0.62275 0.56344,-2.27765 0.46492,-3.31651 -0.10042,-0.20271 -0.11598,-1.01831 -0.49179,-0.75191 z"
         style="color:#000000;fill:#000000;fill-opacity:1;fill-rule:nonzero;stroke:none;stroke-width:10;marker:none;visibility:visible;display:inline;overflow:visible;enable-background:accumulate" />
      <path
         inkscape:connector-curvature="0"
         id="path12303"
         d="m 265.59566,751.80658 c -2.02405,-0.61389 -4.11567,-1.43619 -5.56098,-3.04033 -0.2822,1.02617 1.70555,2.08781 2.72225,2.55977 0.76706,0.23861 2.33984,1.0598 2.83873,0.48056 z"
         style="color:#000000;fill:#000000;fill-opacity:1;fill-rule:nonzero;stroke:none;stroke-width:10;marker:none;visibility:visible;display:inline;overflow:visible;enable-background:accumulate" />
      <path
         inkscape:connector-curvature="0"
         id="path12305"
         d="m 266.48452,748.02047 c -0.47349,-1.29 -2.06535,-1.92323 -3.33972,-2.15712 -1.64104,-0.11442 -3.11857,1.18195 -3.70851,2.62626 0.77305,0.0928 1.38337,-1.826 2.51215,-1.9761 1.48897,-0.60655 3.03188,0.41772 4.1778,1.29694 l 0.17454,0.20415 0.18372,0.006 2e-5,-1.3e-4 z"
         style="color:#000000;fill:#000000;fill-opacity:1;fill-rule:nonzero;stroke:none;stroke-width:10;marker:none;visibility:visible;display:inline;overflow:visible;enable-background:accumulate" />
      <path
         inkscape:connector-curvature="0"
         id="path12307"
         d="m 265.15801,752.58424 c -0.52746,1.19731 -1.21366,2.62379 -2.67789,2.85249 -1.55081,0.37331 -3.64134,-0.4467 -3.71682,-2.2379 -0.0276,-1.31419 0.97406,-2.30542 1.45387,-3.4367 -1.05774,0.14542 -1.74474,1.94535 -1.94424,3.0409 -0.23541,1.88004 1.65101,3.34019 3.41962,3.21673 1.87198,0.10323 3.49935,-1.49199 3.6094,-3.33255 l -0.14393,-0.10332 -1e-5,3.5e-4 z"
         style="color:#000000;fill:#000000;fill-opacity:1;fill-rule:nonzero;stroke:none;stroke-width:10;marker:none;visibility:visible;display:inline;overflow:visible;enable-background:accumulate" />
      <path
         inkscape:connector-curvature="0"
         id="path12309"
         d="m 268.1663,746.64341 c 1.30904,1.83285 2.61374,3.73056 3.20641,5.93611 0.66597,1.22455 0.32188,-1.16483 0.004,-1.65905 -0.61595,-1.69568 -1.68315,-3.2246 -3.04024,-4.40929 l -0.17037,0.13224 0,-10e-6 z"
         style="color:#000000;fill:#000000;fill-opacity:1;fill-rule:nonzero;stroke:none;stroke-width:10;marker:none;visibility:visible;display:inline;overflow:visible;enable-background:accumulate" />
      <path
         inkscape:connector-curvature="0"
         id="path12311"
         d="m 271.80307,753.29614 c -0.227,-0.2623 -2.01551,0.89584 -2.79194,1.16789 -0.67723,0.0995 -1.72091,1.30062 -0.47046,0.81158 1.1553,-0.64276 2.85334,-0.98693 3.47682,-2.16688 -0.10815,-0.12494 -0.48698,-0.0257 -0.21442,0.18741 z"
         style="color:#000000;fill:#000000;fill-opacity:1;fill-rule:nonzero;stroke:none;stroke-width:10;marker:none;visibility:visible;display:inline;overflow:visible;enable-background:accumulate" />
      <path
         inkscape:connector-curvature="0"
         id="path12313"
         d="m 255.10427,753.72624 c 0.13581,-1.89313 1.57957,-3.24723 2.59446,-4.7167 -0.60447,-0.50566 -1.64336,1.37358 -2.15068,1.98369 -0.35925,0.6913 -1.21348,2.28739 -0.44378,2.73301 z"
         style="color:#000000;fill:#000000;fill-opacity:1;fill-rule:nonzero;stroke:none;stroke-width:10;marker:none;visibility:visible;display:inline;overflow:visible;enable-background:accumulate" />
      <path
         inkscape:connector-curvature="0"
         id="path12315"
         d="m 257.93579,748.83695 c 0.32133,-0.81327 0.71107,-2.32049 0.10441,-2.88631 -0.23278,0.85242 -0.4214,2.22789 -0.10441,2.88631 z"
         style="color:#000000;fill:#000000;fill-opacity:1;fill-rule:nonzero;stroke:none;stroke-width:10;marker:none;visibility:visible;display:inline;overflow:visible;enable-background:accumulate" />
      <path
         inkscape:connector-curvature="0"
         id="path12317"
         d="m 257.85383,746.29467 c -1.93887,0.41725 -3.51212,2.07661 -3.72946,4.06535 -0.0959,0.71266 -0.30244,2.69765 0.4767,2.51027 -0.17466,-1.97707 0.15339,-4.35752 1.98972,-5.50369 0.25735,-0.36318 1.5828,-0.61991 1.26304,-1.07193 z"
         style="color:#000000;fill:#000000;fill-opacity:1;fill-rule:nonzero;stroke:none;stroke-width:10;marker:none;visibility:visible;display:inline;overflow:visible;enable-background:accumulate" />
      <path
         inkscape:connector-curvature="0"
         id="path12319"
         d="m 271.06823,752.59975 c -1.07957,0.28064 0.58056,0.72774 0,0 z"
         style="color:#000000;fill:#000000;fill-opacity:1;fill-rule:nonzero;stroke:none;stroke-width:10;marker:none;visibility:visible;display:inline;overflow:visible;enable-background:accumulate" />
      <path
         inkscape:connector-curvature="0"
         id="path12321"
         d="m 270.04694,753.06958 c -1.05449,0.0249 0.47488,0.82165 0,0 z"
         style="color:#000000;fill:#000000;fill-opacity:1;fill-rule:nonzero;stroke:none;stroke-width:10;marker:none;visibility:visible;display:inline;overflow:visible;enable-background:accumulate" />
      <path
         inkscape:connector-curvature="0"
         id="path12323"
         d="m 256.96668,753.21142 c -1.1302,-0.67559 -0.35765,0.84913 0,0 z"
         style="color:#000000;fill:#000000;fill-opacity:1;fill-rule:nonzero;stroke:none;stroke-width:10;marker:none;visibility:visible;display:inline;overflow:visible;enable-background:accumulate" />
      <path
         inkscape:connector-curvature="0"
         id="path12325"
         d="m 256.41616,752.97079 c -0.49778,-0.47222 -0.44362,0.68976 0,0 z"
         style="color:#000000;fill:#000000;fill-opacity:1;fill-rule:nonzero;stroke:none;stroke-width:10;marker:none;visibility:visible;display:inline;overflow:visible;enable-background:accumulate" />
      <path
         inkscape:connector-curvature="0"
         id="path12327"
         d="m 256.47321,752.2531 c 0.43541,-0.8708 -0.85821,-0.0272 -7e-5,-7e-5 l 7e-5,7e-5 z"
         style="color:#000000;fill:#000000;fill-opacity:1;fill-rule:nonzero;stroke:none;stroke-width:10;marker:none;visibility:visible;display:inline;overflow:visible;enable-background:accumulate" />
      <path
         inkscape:connector-curvature="0"
         id="path12329"
         d="m 256.9176,751.2793 c 0.34383,-0.55871 -0.74471,-0.12494 0,0 z"
         style="color:#000000;fill:#000000;fill-opacity:1;fill-rule:nonzero;stroke:none;stroke-width:10;marker:none;visibility:visible;display:inline;overflow:visible;enable-background:accumulate" />
      <path
         inkscape:connector-curvature="0"
         id="path12331"
         d="m 257.69199,750.40827 c 0.2981,-0.41675 -0.74384,-0.195 0,0 z"
         style="color:#000000;fill:#000000;fill-opacity:1;fill-rule:nonzero;stroke:none;stroke-width:10;marker:none;visibility:visible;display:inline;overflow:visible;enable-background:accumulate" />
      <path
         inkscape:connector-curvature="0"
         id="path12333"
         d="m 258.48368,748.69585 c 0.0353,-0.66354 -0.74176,0.21577 0,0 z"
         style="color:#000000;fill:#000000;fill-opacity:1;fill-rule:nonzero;stroke:none;stroke-width:10;marker:none;visibility:visible;display:inline;overflow:visible;enable-background:accumulate" />
      <path
         inkscape:connector-curvature="0"
         id="path12335"
         d="m 258.56634,747.20255 c 0.12233,-0.85989 -0.93634,0.17874 0,0 z"
         style="color:#000000;fill:#000000;fill-opacity:1;fill-rule:nonzero;stroke:none;stroke-width:10;marker:none;visibility:visible;display:inline;overflow:visible;enable-background:accumulate" />
      <path
         inkscape:connector-curvature="0"
         id="path12337"
         d="m 258.44191,746.37592 c 0.75224,0.15296 1.34602,-0.74851 0.28264,-0.44686 -0.29771,0.0897 -0.59853,0.0932 -0.28264,0.44686 z"
         style="color:#000000;fill:#000000;fill-opacity:1;fill-rule:nonzero;stroke:none;stroke-width:10;marker:none;visibility:visible;display:inline;overflow:visible;enable-background:accumulate" />
      <path
         inkscape:connector-curvature="0"
         id="path12339"
         d="m 257.91082,747.26014 c -0.80022,-0.23907 -0.83541,0.90094 -0.23286,0.38225 -0.56466,-1.12984 -1.16673,1.14086 -0.37038,0.0215 -0.10973,-0.28996 0.93728,0.33362 0.60325,-0.40403 l -10e-6,3.3e-4 z"
         style="color:#000000;fill:#000000;fill-opacity:1;fill-rule:nonzero;stroke:none;stroke-width:10;marker:none;visibility:visible;display:inline;overflow:visible;enable-background:accumulate" />
      <path
         inkscape:connector-curvature="0"
         id="path12341"
         d="m 256.67686,748.04573 c -0.3724,-1.11437 -1.33907,0.54158 -0.25264,0.27123 -0.0104,-0.19935 -0.75127,-0.52993 0.25264,-0.27123 z"
         style="color:#000000;fill:#000000;fill-opacity:1;fill-rule:nonzero;stroke:none;stroke-width:10;marker:none;visibility:visible;display:inline;overflow:visible;enable-background:accumulate" />
      <path
         inkscape:connector-curvature="0"
         id="path12343"
         d="m 255.42146,748.13854 c -0.41966,-1.46335 -1.74156,-1.03512 -1.87017,0.26222 -0.93586,2.14736 2.91924,1.01648 1.58316,-0.28976 0.11863,0.74724 -1.09626,1.72823 -1.29404,0.87356 0.29955,-0.81711 0.46475,-2.42281 1.21069,-0.93236 l 0.19871,0.18099 0.17201,-0.0946 -3.6e-4,-5e-5 z"
         style="color:#000000;fill:#000000;fill-opacity:1;fill-rule:nonzero;stroke:none;stroke-width:10;marker:none;visibility:visible;display:inline;overflow:visible;enable-background:accumulate" />
      <path
         inkscape:connector-curvature="0"
         id="path12345"
         d="m 254.98574,747.441 c 1.19937,0.1973 -0.27297,-1.42859 0.0461,-0.22888 0.8741,0.38126 0.62472,-0.39805 0.11746,-0.22681 0.0718,0.0956 0.0306,0.31283 -0.1636,0.45569 z"
         style="color:#000000;fill:#000000;fill-opacity:1;fill-rule:nonzero;stroke:none;stroke-width:10;marker:none;visibility:visible;display:inline;overflow:visible;enable-background:accumulate" />
      <path
         inkscape:connector-curvature="0"
         id="path12347"
         d="m 256.17905,746.6161 c 0.90069,0.47161 0.66585,-1.24845 0.49959,-0.41176 0.95787,0.051 -0.25946,-0.70903 -0.19978,0.0843 -0.12331,0.0548 -0.37752,-0.0528 -0.29981,0.3275 z"
         style="color:#000000;fill:#000000;fill-opacity:1;fill-rule:nonzero;stroke:none;stroke-width:10;marker:none;visibility:visible;display:inline;overflow:visible;enable-background:accumulate" />
      <path
         inkscape:connector-curvature="0"
         id="path12349"
         d="m 267.79113,745.61684 c -0.54869,-0.0426 -2.87578,0.0165 -1.9499,0.56094 0.5018,-0.14012 2.14532,0.1033 1.9499,-0.56094 z"
         style="color:#000000;fill:#000000;fill-opacity:1;fill-rule:nonzero;stroke:none;stroke-width:10;marker:none;visibility:visible;display:inline;overflow:visible;enable-background:accumulate" />
      <path
         inkscape:connector-curvature="0"
         id="path12351"
         d="m 263.10842,745.97158 c -1.10697,0.002 -2.55758,-0.42625 -3.44764,-0.003 0.87744,0.39147 3.03617,0.67314 3.44764,0.003 z"
         style="color:#000000;fill:#000000;fill-opacity:1;fill-rule:nonzero;stroke:none;stroke-width:10;marker:none;visibility:visible;display:inline;overflow:visible;enable-background:accumulate" />
      <path
         inkscape:connector-curvature="0"
         id="path12353"
         d="m 255.16459,753.07948 c -1.5683,-0.63057 -0.99798,1.76692 -0.78835,2.52432 1.50029,0.52277 0.74172,-3.15371 0.44154,-1.36522 0.45152,0.80027 -0.70548,1.63667 -0.23691,0.56481 0.20404,-0.60269 -0.63996,-1.93033 0.47131,-1.46571 l 0.11325,-0.2581 -8.4e-4,-10e-5 z"
         style="color:#000000;fill:#000000;fill-opacity:1;fill-rule:nonzero;stroke:none;stroke-width:10;marker:none;visibility:visible;display:inline;overflow:visible;enable-background:accumulate" />
      <path
         inkscape:connector-curvature="0"
         id="path12355"
         d="m 268.88855,747.80724 c -1.84355,0.35348 -0.31452,3.29395 0.64334,2.39544 -0.96955,-0.18753 -1.72878,-1.63829 -0.54604,-2.21176 l -0.0978,-0.1837 5e-4,2e-5 z"
         style="color:#000000;fill:#000000;fill-opacity:1;fill-rule:nonzero;stroke:none;stroke-width:10;marker:none;visibility:visible;display:inline;overflow:visible;enable-background:accumulate" />
      <path
         inkscape:connector-curvature="0"
         id="path12357"
         d="m 269.54418,748.94199 c -0.0275,-1.44002 -1.35561,0.5501 0.037,0.11659 0.21757,-1.01685 -1.4397,-0.34869 -0.36019,0.0785 1.19052,-0.20934 -0.67862,-0.41649 0.1236,-0.30952 -0.40462,-0.20696 -0.15897,-0.30367 0.19961,0.11439 z"
         style="color:#000000;fill:#000000;fill-opacity:1;fill-rule:nonzero;stroke:none;stroke-width:10;marker:none;visibility:visible;display:inline;overflow:visible;enable-background:accumulate" />
      <path
         inkscape:connector-curvature="0"
         id="path12359"
         d="m 269.30424,749.59155 c 2.2e-4,0.83364 1.56001,2.55709 0.8466,0.92483 -0.25953,-0.27028 -0.35883,-1.12203 -0.8466,-0.92483 z"
         style="color:#000000;fill:#000000;fill-opacity:1;fill-rule:nonzero;stroke:none;stroke-width:10;marker:none;visibility:visible;display:inline;overflow:visible;enable-background:accumulate" />
      <path
         inkscape:connector-curvature="0"
         id="path12361"
         d="m 270.05902,749.84045 c 0.0101,0.79168 1.02926,0.95085 0.40246,0.0555 l -0.11237,-0.15877 -0.29007,0.10314 -2e-5,1.2e-4 z"
         style="color:#000000;fill:#000000;fill-opacity:1;fill-rule:nonzero;stroke:none;stroke-width:10;marker:none;visibility:visible;display:inline;overflow:visible;enable-background:accumulate" />
      <path
         inkscape:connector-curvature="0"
         id="path12363"
         d="m 258.19995,740.68166 c 0.14213,1.25196 2.05882,0.75627 1.84457,2.30068 -0.1883,0.6458 2.39228,0.99425 0.85883,0.13059 -0.92301,-0.38365 -0.49764,0.40602 -0.671,-0.64176 -0.15294,-1.16746 -1.52958,-1.03053 -2.0324,-1.78951 z"
         style="color:#000000;fill:#000000;fill-opacity:1;fill-rule:nonzero;stroke:none;stroke-width:10;marker:none;visibility:visible;display:inline;overflow:visible;enable-background:accumulate" />
      <path
         inkscape:connector-curvature="0"
         id="path12365"
         d="m 261.54776,743.36649 c -0.30848,-0.84513 2.16383,-1.83352 0.58031,-1.57595 -0.39513,0.11502 -1.40484,1.64881 -0.58031,1.57595 z"
         style="color:#000000;fill:#000000;fill-opacity:1;fill-rule:nonzero;stroke:none;stroke-width:10;marker:none;visibility:visible;display:inline;overflow:visible;enable-background:accumulate" />
      <path
         inkscape:connector-curvature="0"
         id="path12367"
         d="m 269.04705,743.23853 c -0.55537,0.65107 -2.35176,0.39019 -2.25634,1.03128 0.69339,0.22446 2.5841,-0.30201 2.25634,-1.03128 z"
         style="color:#000000;fill:#000000;fill-opacity:1;fill-rule:nonzero;stroke:none;stroke-width:10;marker:none;visibility:visible;display:inline;overflow:visible;enable-background:accumulate" />
      <path
         inkscape:connector-curvature="0"
         id="path12369"
         d="m 266.74114,743.84846 c -0.81434,-0.0974 -1.85081,-0.31458 -1.69195,0.0734 0.31858,0.16365 2.05483,0.64534 1.69195,-0.0734 z"
         style="color:#000000;fill:#000000;fill-opacity:1;fill-rule:nonzero;stroke:none;stroke-width:10;marker:none;visibility:visible;display:inline;overflow:visible;enable-background:accumulate" />
      <path
         inkscape:connector-curvature="0"
         id="path12371"
         d="m 265.80438,743.88721 c -0.19113,0.0377 0.002,0.40874 0,0 z"
         style="color:#000000;fill:#000000;fill-opacity:1;fill-rule:nonzero;stroke:none;stroke-width:10;marker:none;visibility:visible;display:inline;overflow:visible;enable-background:accumulate" />
      <path
         inkscape:connector-curvature="0"
         id="path12373"
         d="m 265.38913,743.81148 c -0.0697,-0.59021 -1.69169,-1.95957 -0.97017,-0.6836 0.27308,0.19731 0.57366,1.25363 0.97017,0.6836 z"
         style="color:#000000;fill:#000000;fill-opacity:1;fill-rule:nonzero;stroke:none;stroke-width:10;marker:none;visibility:visible;display:inline;overflow:visible;enable-background:accumulate" />
      <path
         inkscape:connector-curvature="0"
         id="path12375"
         d="m 264.94273,743.12425 c 0.27617,-1.06857 -1.89981,-2.21575 -2.00037,-1.15498 1.2054,-0.38815 1.27805,1.11236 2.00037,1.15498 z"
         style="color:#000000;fill:#000000;fill-opacity:1;fill-rule:nonzero;stroke:none;stroke-width:10;marker:none;visibility:visible;display:inline;overflow:visible;enable-background:accumulate" />
      <path
         inkscape:connector-curvature="0"
         id="path12377"
         d="m 254.95225,748.23282 c 0.30281,-1.00566 -1.22714,-0.64711 -0.47737,-0.14554 0.92623,-0.0543 -0.34303,-0.6312 0.0219,0.0268 0.0553,0.19077 0.32654,0.0926 0.45549,0.11877 z"
         style="color:#000000;fill:#ffffff;fill-opacity:1;fill-rule:nonzero;stroke:none;stroke-width:10;marker:none;visibility:visible;display:inline;overflow:visible;enable-background:accumulate" />
      <path
         inkscape:connector-curvature="0"
         id="path12383"
         d="m 267.61688,755.37432 c -2.83208,0.79292 -5.93813,1.16374 -8.75152,0.0813 -1.3153,-0.42351 -2.48737,-1.17771 -3.58896,-1.98377 -0.76293,0.64895 1.26155,1.61812 1.88577,2.01587 3.09123,1.66576 6.93645,1.80687 10.16969,0.47501 0.26207,-0.17558 0.74195,-0.23363 0.28502,-0.58839 z"
         style="color:#000000;fill:#000000;fill-opacity:1;fill-rule:nonzero;stroke:none;stroke-width:10;marker:none;visibility:visible;display:inline;overflow:visible;enable-background:accumulate" />
      <path
         inkscape:connector-curvature="0"
         id="path12385"
         d="m 268.97999,753.72735 c -1.542,0.20644 0.68807,0.86349 0,0 z"
         style="color:#000000;fill:#000000;fill-opacity:1;fill-rule:nonzero;stroke:none;stroke-width:10;marker:none;visibility:visible;display:inline;overflow:visible;enable-background:accumulate" />
      <path
         inkscape:connector-curvature="0"
         id="path12387"
         d="m 267.59253,754.22283 c -2.06756,0.52711 0.96746,0.93198 0,0 z"
         style="color:#000000;fill:#000000;fill-opacity:1;fill-rule:nonzero;stroke:none;stroke-width:10;marker:none;visibility:visible;display:inline;overflow:visible;enable-background:accumulate" />
      <path
         inkscape:connector-curvature="0"
         id="path12389"
         d="m 265.83801,754.94964 c -1.38819,-0.43763 -0.24805,1.06488 0.072,0.19309 l -0.072,-0.19311 2e-5,2e-5 z"
         style="color:#000000;fill:#000000;fill-opacity:1;fill-rule:nonzero;stroke:none;stroke-width:10;marker:none;visibility:visible;display:inline;overflow:visible;enable-background:accumulate" />
      <path
         inkscape:connector-curvature="0"
         id="path12391"
         d="m 258.20751,754.52441 c -1.22405,-0.89724 -0.49728,0.89893 0,0 z"
         style="color:#000000;fill:#000000;fill-opacity:1;fill-rule:nonzero;stroke:none;stroke-width:10;marker:none;visibility:visible;display:inline;overflow:visible;enable-background:accumulate" />
      <path
         inkscape:connector-curvature="0"
         id="path12395"
         d="m 254.96325,750.64518 c -0.11364,-0.5071 0.54934,-2.09592 0.89134,-1.77293 -0.44332,0.48543 -0.53781,1.33109 -0.89134,1.77293 z"
         style="color:#000000;fill:#ffffff;fill-opacity:1;fill-rule:nonzero;stroke:none;stroke-width:10;marker:none;visibility:visible;display:inline;overflow:visible;enable-background:accumulate" />
      <path
         inkscape:connector-curvature="0"
         id="path12397"
         d="m 255.22755,749.78656 c 0.32885,-0.5465 1.90756,-0.89597 0.66163,-0.19023 -0.20079,0.0341 -0.48518,0.44077 -0.66163,0.19023 z"
         style="color:#000000;fill:#ffffff;fill-opacity:1;fill-rule:nonzero;stroke:none;stroke-width:10;marker:none;visibility:visible;display:inline;overflow:visible;enable-background:accumulate" />
      <path
         inkscape:connector-curvature="0"
         id="path12405"
         d="m 255.68949,749.71258 c -5.5e-4,0.48503 -0.16289,1.88059 -0.27938,0.61799 0.0416,-0.11917 -0.0151,-0.82961 0.27938,-0.61799 z"
         style="color:#000000;fill:#ffffff;fill-opacity:1;fill-rule:nonzero;stroke:none;stroke-width:10;marker:none;visibility:visible;display:inline;overflow:visible;enable-background:accumulate" />
    </g>
  </g>
</svg>
