<?xml version="1.0" encoding="UTF-8" standalone="no"?>
<!-- Created with Inkscape (http://www.inkscape.org/) -->

<svg
   xmlns:dc="http://purl.org/dc/elements/1.1/"
   xmlns:cc="http://creativecommons.org/ns#"
   xmlns:rdf="http://www.w3.org/1999/02/22-rdf-syntax-ns#"
   xmlns:svg="http://www.w3.org/2000/svg"
   xmlns="http://www.w3.org/2000/svg"
   xmlns:sodipodi="http://sodipodi.sourceforge.net/DTD/sodipodi-0.dtd"
   xmlns:inkscape="http://www.inkscape.org/namespaces/inkscape"
   width="32.201221"
   height="36.239311"
   id="svg10472"
   version="1.1"
   inkscape:version="0.48.2 r9819"
   sodipodi:docname="walk_up2.svg">
  <defs
     id="defs10474" />
  <sodipodi:namedview
     id="base"
     pagecolor="#ffffff"
     bordercolor="#666666"
     borderopacity="1.0"
     inkscape:pageopacity="0.0"
     inkscape:pageshadow="2"
     inkscape:zoom="0.35"
     inkscape:cx="16.100611"
     inkscape:cy="18.119654"
     inkscape:document-units="px"
     inkscape:current-layer="layer1"
     showgrid="false"
     fit-margin-top="0"
     fit-margin-left="0"
     fit-margin-right="0"
     fit-margin-bottom="0"
     inkscape:window-width="511"
     inkscape:window-height="434"
     inkscape:window-x="1"
     inkscape:window-y="55"
     inkscape:window-maximized="0" />
  <g
     inkscape:label="Layer 1"
     inkscape:groupmode="layer"
     id="layer1"
     transform="translate(-358.89939,-514.24252)">
    <g
       transform="translate(27.610562,-388.09609)"
       id="g10396">
      <path
         inkscape:connector-curvature="0"
         id="path8729"
         d="m 346.53131,931.31058 c -1.50572,0.11587 -2.34458,1.49081 -3.50476,2.17973 -0.69442,0.18241 -3.37386,-0.78079 -2.51233,0.58216 1.47812,0.62624 3.38794,0.92644 4.64438,-0.33261 0.90109,-1.05041 3.19727,-1.32641 3.39775,0.4256 -0.71882,1.12402 -1.02857,3.39223 0.70637,3.74482 1.42147,-0.46861 3.64927,0.49079 4.02183,-1.5399 1.51136,-1.2192 -1.85096,-1.92606 -2.71188,-1.09683 -0.99769,-0.39048 0.0863,-2.58814 -1.42592,-3.14129 -0.72977,-0.59599 -1.69002,-0.8251 -2.61544,-0.82168 z"
         style="color:#000000;fill:#008000;fill-opacity:1;fill-rule:nonzero;stroke:none;stroke-width:10;marker:none;visibility:visible;display:inline;overflow:visible;enable-background:accumulate" />
      <path
         inkscape:connector-curvature="0"
         id="path8731"
         d="m 352.28462,912.41637 c -0.80207,1.37595 -2.6181,1.30591 -3.96143,1.77214 -1.7077,0.49698 -3.61099,-0.27736 -5.21889,0.58447 -0.77335,1.28958 -2.46567,-1.04017 -3.31198,-1.13141 -1.3521,-1.35748 -1.93815,1.67457 -0.99961,2.53446 0.47729,1.17449 2.81369,1.60468 2.97873,2.10606 -1.39577,0.92084 -3.0747,1.47678 -4.28544,2.57715 -0.60396,0.64863 -1.39443,-0.28678 -2.17218,-0.0635 -0.29908,-1.68256 -2.66706,-1.0751 -3.21489,0.15291 -1.20121,1.41314 -0.62286,3.99134 1.47669,4.03771 1.67242,0.90394 3.3645,-0.0618 4.23028,-1.48919 1.5022,-0.0986 3.0681,-0.38814 3.13925,-2.20826 1.99927,-1.71556 4.77577,-1.59179 7.2484,-1.63102 1.53134,-0.1842 3.14919,-0.0606 4.6031,-0.49928 1.46499,1.24707 2.87866,2.55304 4.66001,3.46992 1.13024,1.07553 2.74536,0.72885 4.09962,0.3983 2.31767,-0.42985 1.69706,-3.48206 -0.1916,-4.09324 -1.45693,-1.05577 -3.30994,-1.06444 -4.94151,-1.6953 -1.23224,-0.69758 -3.09868,-0.32527 -3.95095,-1.29042 0.47095,-0.88292 1.97353,-2.70773 0.52002,-3.15324 -0.23435,-0.12881 -0.46409,-0.26691 -0.70762,-0.37821 z m -1.78125,3 c -0.49311,0.65909 -2.65268,0.6856 -0.82304,0.26124 0.27289,-0.0917 0.55047,-0.16853 0.82304,-0.26124 z m 5.9375,4 c 0.64396,-0.003 2.61753,0.94119 0.90969,0.57007 -0.30079,-0.19369 -0.58386,-0.41746 -0.90969,-0.57007 z m 1.125,0.84375 c 0.55969,-0.31319 0.0184,0.3689 0,0 z m -22.25,2.1875 c 0.55353,-0.082 0.62929,0.12059 0,0 z"
         style="color:#000000;fill:#ffe6d5;fill-opacity:1;fill-rule:nonzero;stroke:none;stroke-width:10;marker:none;visibility:visible;display:inline;overflow:visible;enable-background:accumulate" />
      <path
         inkscape:connector-curvature="0"
         id="path8733"
         d="m 340.44087,913.79137 c -1.10468,1.80966 1.79284,2.35439 2.46811,3.58962 1.66126,-0.0295 3.35431,-0.0344 5.01385,-0.24283 1.55942,0.35925 3.71513,-1.98422 2.54927,-3.2555 -1.81943,0.37793 -3.68,0.60891 -5.54647,0.80666 -1.60642,0.19054 -3.00502,-0.63153 -4.48476,-0.89795 z m 4.125,0.90625 0.0935,-3e-4 -0.0935,3e-4 z"
         style="color:#000000;fill:#d4aa00;fill-opacity:1;fill-rule:nonzero;stroke:none;stroke-width:10;marker:none;visibility:visible;display:inline;overflow:visible;enable-background:accumulate" />
      <path
         inkscape:connector-curvature="0"
         id="path8735"
         d="m 355.22212,916.07262 c -0.95919,0.93394 -2.40193,0.14447 -2.68172,1.55288 -0.33726,1.41395 -1.06343,2.59422 -2.7355,2.09694 -2.52787,0.0215 -5.06237,-0.13925 -7.58628,0.038 -1.75957,-0.77597 -3.57265,-2.01517 -5.67497,-1.27448 -1.16222,0.67459 -4.01151,2.01811 -2.45198,3.61762 1.43848,0.41732 2.73987,0.70191 3.78189,1.93142 1.86189,1.63801 1.71102,-2.94145 3.50286,-1.52277 3.19056,0.37594 6.41446,0.62067 9.62621,0.30399 1.60436,-0.0288 3.15634,-0.52266 4.56324,-1.27451 1.45792,-0.22782 3.20946,-0.70073 3.94637,-2.10153 0.91461,-2.58713 -2.54756,-1.74902 -3.45356,-3.2207 -0.24929,-0.14693 -0.55198,-0.20421 -0.83656,-0.14687 z m -20.625,3.59375 c -0.13447,-0.0698 -0.10068,0.22177 0,0 z m -0.0937,0.0313 -0.1243,0.0309 0.1243,-0.0309 z m 0.0313,-0.0313 c 0.1196,-0.0754 -0.12692,-0.008 0,0 z"
         style="color:#000000;fill:#800000;fill-opacity:1;fill-rule:nonzero;stroke:none;stroke-width:10;marker:none;visibility:visible;display:inline;overflow:visible;enable-background:accumulate" />
      <path
         inkscape:connector-curvature="0"
         id="path8737"
         d="m 347.37837,902.79137 c -1.48308,0.2992 -2.98232,0.51352 -4.35602,1.16799 -1.23907,0.90201 -1.06485,2.58323 -2.0891,3.65312 -1.75367,0.48388 -2.72724,2.23323 -2.77075,4.07881 -0.0314,2.08857 2.35709,2.73126 3.99408,3.15517 1.42812,0.3434 2.9062,0.16216 4.34941,0.0475 2.03358,-0.44723 4.56927,-0.65856 5.75155,-2.63469 0.8932,-1.17619 -0.67342,-2.57456 -0.20628,-3.32818 0.0778,-1.67526 -1.50088,-2.49679 -1.97036,-3.95216 -0.5918,-0.97169 -1.42077,-2.20606 -2.70253,-2.18751 z"
         style="color:#000000;fill:#333333;fill-opacity:1;fill-rule:nonzero;stroke:none;stroke-width:10;marker:none;visibility:visible;display:inline;overflow:visible;enable-background:accumulate" />
      <path
         inkscape:connector-curvature="0"
         id="path8739"
         d="m 337.40962,928.32262 c -1.24948,0.0209 -1.08705,0.8871 -0.12228,1.26809 0.88964,1.88222 2.51955,2.91751 4.20579,4.01113 1.64597,0.19235 3.37321,-0.11433 5.02782,0.2626 1.33186,1.33484 2.56487,3.17864 4.70233,3.15921 1.3758,0.38293 3.13056,-0.59273 2.9825,-2.08934 1.56168,-0.7836 0.23911,-2.49589 1.59533,-3.54811 1.38304,-1.4611 0.0915,-3.69595 -1.86045,-2.78725 -3.36998,0.5465 -6.78418,1.73137 -10.21411,0.85754 -2.10212,-0.39475 -4.19927,-0.83066 -6.31693,-1.13387 z"
         style="color:#000000;fill:#214478;fill-opacity:1;fill-rule:nonzero;stroke:none;stroke-width:10;marker:none;visibility:visible;display:inline;overflow:visible;enable-background:accumulate" />
      <path
         inkscape:connector-curvature="0"
         id="path8741"
         d="m 351.59712,916.32262 c -1.21751,0.94051 -2.17652,2.20776 -3.7813,2.5 -2.00336,0.0679 -4.15196,0.0639 -5.90935,-1.04998 -1.51685,-0.75202 -2.39894,1.19198 -2.1753,2.40974 0.45671,1.33261 -1.15333,1.97096 -1.3839,3.20284 -1.3,-1.41674 -2.31009,1.12888 -2.5625,2.1875 -0.32488,1.52222 0.88215,2.20578 1.75387,3.28753 0.96968,0.23673 1.70279,-0.1957 2.11957,0.9618 1.75125,1.54119 4.25993,0.98255 6.39124,1.04971 2.33586,-0.10708 4.57774,-0.79489 6.84748,-1.28201 2.4883,-0.83174 5.13931,-2.53166 5.57529,-5.32943 0.2914,-1.55623 -0.50966,-3.17496 -2.09187,-3.53421 -1.44146,-0.7389 -2.71495,-1.74993 -2.23306,-3.52998 -0.0273,-0.98983 -1.88242,-0.5108 -2.55017,-0.87351 z"
         style="color:#000000;fill:#373e48;fill-opacity:1;fill-rule:nonzero;stroke:none;stroke-width:10;marker:none;visibility:visible;display:inline;overflow:visible;enable-background:accumulate" />
      <path
         inkscape:connector-curvature="0"
         id="path8743"
         d="m 339.89053,908.59009 c -0.46766,2.38714 -1.61252,4.91741 -0.69455,7.32897 1.16265,2.07385 3.87884,2.38058 6.02872,2.32846 2.34885,-0.20525 5.00581,-0.56844 6.69648,-2.37752 1.07686,-1.62696 1.26537,-4.0154 0.013,-5.60768 -0.70168,-1.6497 -2.79596,-1.84439 -4.33567,-2.20596 -2.3989,-0.33227 -4.80405,0.11625 -7.1212,0.69587 -0.60558,0.86035 -2.25066,0.43193 -1.02567,-0.44742 1.58788,-0.86324 3.49339,-0.94637 5.25248,-1.23151 2.53122,-0.0978 5.31477,0.14347 7.36905,1.76666 1.21232,1.52112 2.04329,3.45967 1.41234,5.41612 -0.41129,2.27925 -2.51613,3.69848 -4.62541,4.23437 -3.09582,0.83663 -6.83757,1.05236 -9.48559,-1.05538 -1.92432,-1.7767 -1.30918,-4.69113 -0.71053,-6.92183 0.35582,-0.49528 0.34516,-2.43866 1.22655,-1.92315 z"
         style="color:#000000;fill:#000000;fill-opacity:1;fill-rule:nonzero;stroke:none;stroke-width:10;marker:none;visibility:visible;display:inline;overflow:visible;enable-background:accumulate" />
      <path
         inkscape:connector-curvature="0"
         id="path8745"
         d="m 340.73986,908.11149 c 0.1714,-3.05953 3.04535,-5.88285 6.14621,-5.76958 2.20466,0.15453 3.80559,2.13329 4.16221,4.20906 0.36811,0.75234 0.44214,3.62223 -0.5868,2.04379 -0.27525,-2.02171 -0.7642,-4.53238 -2.98588,-5.24076 -2.19792,-0.64912 -4.32366,1.17533 -5.35616,2.96291 -0.57236,0.58411 -0.20089,2.32778 -1.37958,1.79458 z"
         style="color:#000000;fill:#000000;fill-opacity:1;fill-rule:nonzero;stroke:none;stroke-width:10;marker:none;visibility:visible;display:inline;overflow:visible;enable-background:accumulate" />
      <path
         inkscape:connector-curvature="0"
         id="path8747"
         d="m 345.44087,912.13512 c -1.19484,-0.17463 -3.9464,1.22823 -3.06912,2.3277 1.34899,0.91158 3.10551,1.15185 4.72029,0.41121 2.12474,-0.41607 0.0286,-3.37045 -1.6512,-2.73887 l 3e-5,-4e-5 z"
         style="color:#000000;fill:#d4aa00;fill-opacity:1;fill-rule:nonzero;stroke:none;stroke-width:10;marker:none;visibility:visible;display:inline;overflow:visible;enable-background:accumulate" />
      <path
         inkscape:connector-curvature="0"
         id="path8749"
         d="m 339.32585,913.29456 c 2.25399,1.3449 5.06524,1.42529 7.6083,1.10097 2.20387,-0.41963 4.35257,-1.37936 5.93149,-3.00634 1.42838,-0.0921 -0.59472,1.7776 -1.2691,2.12093 -3.40623,2.24808 -7.9961,2.59964 -11.70747,0.91964 -0.32197,-0.25037 -1.62052,-0.86033 -0.56322,-1.1352 z"
         style="color:#000000;fill:#000000;fill-opacity:1;fill-rule:nonzero;stroke:none;stroke-width:10;marker:none;visibility:visible;display:inline;overflow:visible;enable-background:accumulate" />
      <path
         inkscape:connector-curvature="0"
         id="path8751"
         d="m 343.5859,908.66709 c 1.0771,-1.1709 4.39426,-0.0485 2.35277,1.32663 -1.438,1.12265 -2.88053,-1.98167 -0.83574,-1.51073 -0.41286,0.64941 0.0819,1.32406 0.89451,0.6419 -0.51279,-0.92266 -2.09386,0.63419 -2.41154,-0.4578 z"
         style="color:#000000;fill:#000000;fill-opacity:1;fill-rule:nonzero;stroke:none;stroke-width:10;marker:none;visibility:visible;display:inline;overflow:visible;enable-background:accumulate" />
      <path
         inkscape:connector-curvature="0"
         id="path8753"
         d="m 339.99285,914.52386 c 1.55307,0.23384 2.56427,1.65966 3.15472,2.9915 -1.27612,0.23398 -1.67,-2.54197 -3.37862,-2.48316 l 0.085,-0.26603 0.13893,-0.24231 z"
         style="color:#000000;fill:#000000;fill-opacity:1;fill-rule:nonzero;stroke:none;stroke-width:10;marker:none;visibility:visible;display:inline;overflow:visible;enable-background:accumulate" />
      <path
         inkscape:connector-curvature="0"
         id="path8755"
         d="m 342.76831,917.11089 c 2.24633,-0.33223 4.55716,-0.40771 6.80898,-0.24959 -0.91425,1.18781 -3.74442,0.28685 -5.3894,0.69088 -0.47879,-0.1033 -1.49036,0.40581 -1.41958,-0.44129 z"
         style="color:#000000;fill:#000000;fill-opacity:1;fill-rule:nonzero;stroke:none;stroke-width:10;marker:none;visibility:visible;display:inline;overflow:visible;enable-background:accumulate" />
      <path
         inkscape:connector-curvature="0"
         id="path8757"
         d="m 349.07072,916.65009 c 0.57255,-0.84527 1.01991,-3.26022 2.14931,-2.75685 -0.43634,0.71037 -1.15467,3.74915 -2.14931,2.75685 z"
         style="color:#000000;fill:#000000;fill-opacity:1;fill-rule:nonzero;stroke:none;stroke-width:10;marker:none;visibility:visible;display:inline;overflow:visible;enable-background:accumulate" />
      <path
         inkscape:connector-curvature="0"
         id="path8759"
         d="m 337.88367,918.92352 c -2.06681,0.27443 -4.01965,1.16707 -5.63392,2.47719 -0.78974,-1.01012 1.68245,-1.94176 2.57498,-2.40197 0.65374,-0.17204 3.56874,-1.30617 3.05894,-0.0752 z"
         style="color:#000000;fill:#000000;fill-opacity:1;fill-rule:nonzero;stroke:none;stroke-width:10;marker:none;visibility:visible;display:inline;overflow:visible;enable-background:accumulate" />
      <path
         inkscape:connector-curvature="0"
         id="path8761"
         d="m 338.18835,922.08923 c -1.21838,1.16927 -2.33455,2.76532 -1.91437,4.54185 -0.56008,1.28061 -1.27091,-1.5693 -0.65475,-2.21073 0.27035,-0.76449 1.68426,-3.23984 2.56912,-2.33112 z"
         style="color:#000000;fill:#000000;fill-opacity:1;fill-rule:nonzero;stroke:none;stroke-width:10;marker:none;visibility:visible;display:inline;overflow:visible;enable-background:accumulate" />
      <path
         inkscape:connector-curvature="0"
         id="path8763"
         d="m 336.15742,927.00577 c 1.70525,1.94254 4.32612,2.80464 6.8648,2.68312 3.90367,0.10035 7.85413,-0.10868 11.62946,-1.17235 2.1469,-0.12749 3.05622,-2.3483 3.43898,-4.1529 -0.0237,-0.68884 0.68566,-2.6135 1.09724,-1.11824 -0.38823,2.07998 -0.9618,4.57769 -3.02137,5.62711 -2.42774,0.76132 -4.92515,1.46112 -7.49325,1.54168 -3.02569,0.0881 -6.12494,0.33217 -9.09795,-0.35865 -1.34384,-0.47481 -3.81471,-1.55771 -3.70071,-2.91757 l 0.2828,-0.13257 0,3.7e-4 z"
         style="color:#000000;fill:#000000;fill-opacity:1;fill-rule:nonzero;stroke:none;stroke-width:10;marker:none;visibility:visible;display:inline;overflow:visible;enable-background:accumulate" />
      <path
         inkscape:connector-curvature="0"
         id="path8765"
         d="m 346.75337,921.76012 c -1.52723,0.26797 -3.62721,0.68578 -4.01707,2.47042 -0.27638,1.25218 1.49233,1.16606 0.89212,2.43578 1.16982,1.19898 3.37076,1.8451 5.01898,1.25233 1.29494,-1.01739 -0.0998,-2.87721 0.8456,-4.02336 0.29666,-1.54715 -1.42032,-2.3985 -2.73963,-2.13517 z m 0.71875,1.625 0.18052,0.023 -0.18052,-0.023 z m 0.25,0 c 0.1901,-0.0783 0.0631,0.0969 0,0 z m 0.0313,0.0937 c 0.13443,0.0813 -6.9e-4,0.18264 0,0 z m -3.75,0.6875 c 0.40055,0.0115 -0.37981,0.12815 0,0 z m 1.9375,0.8125 c -0.14809,0.16096 -0.27507,-0.0233 0,0 z"
         style="color:#000000;fill:#f2f2f2;fill-opacity:1;fill-rule:nonzero;stroke:none;stroke-width:10;marker:none;visibility:visible;display:inline;overflow:visible;enable-background:accumulate" />
      <path
         inkscape:connector-curvature="0"
         id="path8767"
         d="m 333.352,919.72855 c 0.74476,1.59686 2.39947,2.4443 3.90291,3.14588 -1.20231,0.9749 -3.36231,-1.0812 -4.08936,-2.30948 -0.12093,-0.33502 -0.53553,-0.95325 0.18645,-0.8364 z"
         style="color:#000000;fill:#000000;fill-opacity:1;fill-rule:nonzero;stroke:none;stroke-width:10;marker:none;visibility:visible;display:inline;overflow:visible;enable-background:accumulate" />
      <path
         inkscape:connector-curvature="0"
         id="path8769"
         d="m 353.98257,916.0877 c 2.97481,-0.0841 5.71618,1.41254 8.28088,2.75606 1.26018,0.30874 0.97485,1.73614 -0.23888,0.8825 -2.49612,-1.25727 -5.09655,-2.47126 -7.84387,-2.99696 l -0.13312,-0.31026 -0.065,-0.33128 4e-5,-6e-5 z"
         style="color:#000000;fill:#000000;fill-opacity:1;fill-rule:nonzero;stroke:none;stroke-width:10;marker:none;visibility:visible;display:inline;overflow:visible;enable-background:accumulate" />
      <path
         inkscape:connector-curvature="0"
         id="path8771"
         d="m 360.44394,918.1352 c 0.0468,1.89964 -1.85037,3.17609 -3.45324,3.7442 -1.6243,-0.49037 1.5734,-1.4099 2.02328,-2.21165 0.76975,-0.35638 0.46151,-1.82647 1.42996,-1.53255 z"
         style="color:#000000;fill:#000000;fill-opacity:1;fill-rule:nonzero;stroke:none;stroke-width:10;marker:none;visibility:visible;display:inline;overflow:visible;enable-background:accumulate" />
      <path
         inkscape:connector-curvature="0"
         id="path8773"
         d="m 358.89273,922.56288 c 1.43215,0.45593 3.77004,-0.0404 3.73308,-1.88194 0.33502,-1.85067 1.45212,0.75789 0.46753,1.42829 -0.84205,1.31511 -3.76593,1.7971 -4.37981,0.68795 l 0.17921,-0.2343 -1e-5,0 z"
         style="color:#000000;fill:#000000;fill-opacity:1;fill-rule:nonzero;stroke:none;stroke-width:10;marker:none;visibility:visible;display:inline;overflow:visible;enable-background:accumulate" />
      <path
         inkscape:connector-curvature="0"
         id="path8775"
         d="m 332.15224,922.02786 c -0.71974,1.91348 1.57372,2.97817 3.13839,2.82472 0.74496,-0.0185 3.33325,-1.03064 2.12031,0.39568 -1.94311,0.8833 -4.822,0.63659 -5.94717,-1.39973 -0.26722,-0.52295 -0.35581,-2.56404 0.68847,-1.82067 z"
         style="color:#000000;fill:#000000;fill-opacity:1;fill-rule:nonzero;stroke:none;stroke-width:10;marker:none;visibility:visible;display:inline;overflow:visible;enable-background:accumulate" />
      <path
         inkscape:connector-curvature="0"
         id="path8777"
         d="m 336.13824,927.28403 c 1.0187,1.92848 2.32643,3.79512 4.32293,4.81013 0.77977,1.16552 -1.80177,-0.01 -2.20606,-0.56625 -1.11356,-0.9577 -2.90505,-2.98057 -2.41141,-4.21795 l 0.29454,-0.0259 0,0 z"
         style="color:#000000;fill:#000000;fill-opacity:1;fill-rule:nonzero;stroke:none;stroke-width:10;marker:none;visibility:visible;display:inline;overflow:visible;enable-background:accumulate" />
      <path
         inkscape:connector-curvature="0"
         id="path8779"
         d="m 345.86995,933.87811 c 0.34394,-1.25032 2.22768,-1.31257 2.05034,0.0924 -0.96343,0.69121 -0.72841,-1.22672 -0.97698,-0.18673 -0.37593,0.57372 -0.56181,0.72119 -1.07336,0.0943 z"
         style="color:#000000;fill:#000000;fill-opacity:1;fill-rule:nonzero;stroke:none;stroke-width:10;marker:none;visibility:visible;display:inline;overflow:visible;enable-background:accumulate" />
      <path
         inkscape:connector-curvature="0"
         id="path8781"
         d="m 357.03532,928.69572 c -0.28142,2.66472 -1.47565,5.19694 -3.04201,7.34286 -1.42538,0.95769 -0.21915,-1.65759 0.26993,-2.16543 0.94301,-1.67142 1.5537,-3.49189 2.16386,-5.30239 l 0.31004,0.0259 0.2982,0.0991 -2e-5,0 z"
         style="color:#000000;fill:#000000;fill-opacity:1;fill-rule:nonzero;stroke:none;stroke-width:10;marker:none;visibility:visible;display:inline;overflow:visible;enable-background:accumulate" />
      <path
         inkscape:connector-curvature="0"
         id="path8783"
         d="m 340.61388,932.73115 c 1.59918,0.62119 3.38316,0.2044 5.01739,0.43051 -0.56625,0.97844 -2.89125,0.32519 -4.15209,0.34721 -0.35068,-0.0871 -2.04046,-0.41165 -0.8653,-0.77772 z"
         style="color:#000000;fill:#000000;fill-opacity:1;fill-rule:nonzero;stroke:none;stroke-width:10;marker:none;visibility:visible;display:inline;overflow:visible;enable-background:accumulate" />
      <path
         inkscape:connector-curvature="0"
         id="path8785"
         d="m 340.46338,932.86346 c 0.24524,2.10386 2.88836,1.24375 4.28432,0.99447 0.51516,-0.30165 2.43486,-0.43007 1.13062,-0.0258 -1.38691,-0.0953 -0.80353,-1.32868 0.2572,-0.60837 2.09846,0.76955 -1.17812,1.16679 -1.93335,1.43693 -1.53069,0.3717 -4.51795,0.52839 -4.41008,-1.76077 l 0.3332,-0.0447 0.33805,0.008 4e-5,9e-5 z"
         style="color:#000000;fill:#000000;fill-opacity:1;fill-rule:nonzero;stroke:none;stroke-width:10;marker:none;visibility:visible;display:inline;overflow:visible;enable-background:accumulate" />
      <path
         inkscape:connector-curvature="0"
         id="path8787"
         d="m 347.84216,935.6937 c 2.30037,1.06415 4.98296,0.665 7.23455,-0.31997 1.7659,0.78039 -1.87261,1.95731 -2.91559,1.98015 -1.65019,0.21857 -3.4846,0.0198 -4.85297,-0.99126 0.11812,-0.25389 0.31017,-0.50013 0.53401,-0.66892 z"
         style="color:#000000;fill:#000000;fill-opacity:1;fill-rule:nonzero;stroke:none;stroke-width:10;marker:none;visibility:visible;display:inline;overflow:visible;enable-background:accumulate" />
      <path
         inkscape:connector-curvature="0"
         id="path8789"
         d="m 348.13899,936.25752 c 0.4016,1.95948 2.97352,1.3642 4.33148,0.89487 0.59027,-0.3584 3.0935,-1.37995 2.29769,-0.0235 -1.93679,1.00811 -4.43,2.15607 -6.51374,0.89425 -0.52019,-0.30145 -1.55577,-2.22612 -0.11543,-1.76562 z"
         style="color:#000000;fill:#000000;fill-opacity:1;fill-rule:nonzero;stroke:none;stroke-width:10;marker:none;visibility:visible;display:inline;overflow:visible;enable-background:accumulate" />
      <path
         inkscape:connector-curvature="0"
         id="path8791"
         d="m 344.05435,918.98308 c 1.17571,0.25694 3.04337,-0.73706 3.75492,0.24717 -0.92633,0.23167 -3.97581,0.90323 -3.75492,-0.24717 z"
         style="color:#000000;fill:#000000;fill-opacity:1;fill-rule:nonzero;stroke:none;stroke-width:10;marker:none;visibility:visible;display:inline;overflow:visible;enable-background:accumulate" />
      <path
         inkscape:connector-curvature="0"
         id="path8793"
         d="m 340.08243,929.97612 c 1.03902,-0.21911 3.29409,-0.8411 2.67083,1.07497 -0.50505,0.71057 -2.20852,0.67731 -2.14264,-0.7698 0.74343,-0.57428 1.05772,1.51538 0.83103,0.9354 0.36877,-0.53301 1.5876,0.005 0.78858,-0.16633 -0.11468,-1.22974 0.56118,-1.00227 -0.8327,-0.8807 -0.44158,-0.0605 -1.14368,0.44086 -1.3151,-0.19354 z"
         style="color:#000000;fill:#000000;fill-opacity:1;fill-rule:nonzero;stroke:none;stroke-width:10;marker:none;visibility:visible;display:inline;overflow:visible;enable-background:accumulate" />
      <path
         inkscape:connector-curvature="0"
         id="path8795"
         d="m 350.19335,931.24342 c 1.1816,0.0708 4.2656,-1.15018 2.67789,1.04516 0.0887,1.05203 -1.13444,1.38608 -1.7114,1.67156 -1.3008,-0.38385 -1.77179,-1.8217 -0.8618,-2.8194 1.16917,0.38353 -0.83222,1.96043 0.45323,1.74809 0.60132,0.20132 0.75721,1.20885 0.21895,0.81017 0.36509,-1.19726 1.66197,-0.28423 1.38629,-1.29589 -0.20111,-0.9944 1.73399,-1.56963 0.2233,-0.88357 -0.47488,-0.005 -2.89712,0.75394 -2.38646,-0.27612 z"
         style="color:#000000;fill:#000000;fill-opacity:1;fill-rule:nonzero;stroke:none;stroke-width:10;marker:none;visibility:visible;display:inline;overflow:visible;enable-background:accumulate" />
      <path
         inkscape:connector-curvature="0"
         id="path8797"
         d="m 344.73244,923.34944 c 1.52754,0.84339 -0.85744,2.3045 -0.83165,0.5827 0.70815,-2.1119 3.23355,0.75933 0.82015,0.83913 -1.43821,-0.28755 0.20033,-1.75491 0.003,-0.63463 1.31588,-0.22926 -0.46931,-0.48222 -0.14801,0.0634 -0.42212,-0.40465 -0.33583,-0.54163 0.15683,-0.85063 z"
         style="color:#000000;fill:#000000;fill-opacity:1;fill-rule:nonzero;stroke:none;stroke-width:10;marker:none;visibility:visible;display:inline;overflow:visible;enable-background:accumulate" />
      <path
         inkscape:connector-curvature="0"
         id="path8799"
         d="m 347.31878,923.38655 c 1.36722,-1.68765 1.66326,1.80959 -0.12892,0.86181 -1.56232,-1.60268 2.48293,-1.66322 1.0644,0.0122 -1.90964,0.44431 -0.65339,-1.66677 -0.37897,-0.57086 -0.53678,-0.2558 -0.0718,0.17182 0.19674,-0.2412 -0.24442,0.34486 -0.4817,0.15673 -0.75325,-0.062 z"
         style="color:#000000;fill:#000000;fill-opacity:1;fill-rule:nonzero;stroke:none;stroke-width:10;marker:none;visibility:visible;display:inline;overflow:visible;enable-background:accumulate" />
      <path
         inkscape:connector-curvature="0"
         id="path8801"
         d="m 345.88484,925.76576 c 0.50523,1.1244 -0.83805,2.07902 -0.67219,0.44689 -0.15471,-0.57562 0.24526,-0.513 0.67219,-0.44689 z"
         style="color:#000000;fill:#000000;fill-opacity:1;fill-rule:nonzero;stroke:none;stroke-width:10;marker:none;visibility:visible;display:inline;overflow:visible;enable-background:accumulate" />
      <path
         inkscape:connector-curvature="0"
         id="path8803"
         d="m 346.9732,925.51981 c 0.28379,0.67716 -0.33722,2.67766 -0.75589,1.30856 0.14365,-0.55236 -0.30579,-1.78066 0.75589,-1.30856 z"
         style="color:#000000;fill:#000000;fill-opacity:1;fill-rule:nonzero;stroke:none;stroke-width:10;marker:none;visibility:visible;display:inline;overflow:visible;enable-background:accumulate" />
      <path
         inkscape:connector-curvature="0"
         id="path8805"
         d="m 347.97484,925.78705 c 0.69342,0.7595 -0.34031,2.29307 -0.59978,0.84007 -0.15367,-0.65052 -0.23463,-0.86379 0.59978,-0.84007 z"
         style="color:#000000;fill:#000000;fill-opacity:1;fill-rule:nonzero;stroke:none;stroke-width:10;marker:none;visibility:visible;display:inline;overflow:visible;enable-background:accumulate" />
      <path
         inkscape:connector-curvature="0"
         id="path8807"
         d="m 337.44243,921.55764 c 0.8332,-0.72601 1.889,-0.0672 0.78772,0.74151 -0.15237,0.83474 -1.37396,1.43115 -0.92214,0.47323 0.16783,-1.04046 2.0688,-2.10164 1.58847,-0.28954 0.22486,0.80707 -1.03126,2.63432 -0.95442,1.0642 0.86561,-0.64084 0.72695,1.1885 -0.13927,0.45608 -0.15202,-0.70436 0.94558,-2.97738 0.59345,-1.6015 -0.085,0.93594 -1.92595,2.02957 -1.35891,0.43603 0.13207,-0.63835 1.5507,-1.9584 1.51382,-1.10449 -0.45472,0.18026 -0.96563,0.60744 -1.10872,-0.17552 z"
         style="color:#000000;fill:#000000;fill-opacity:1;fill-rule:nonzero;stroke:none;stroke-width:10;marker:none;visibility:visible;display:inline;overflow:visible;enable-background:accumulate" />
      <path
         inkscape:connector-curvature="0"
         id="path8809"
         d="m 356.33394,920.34561 c 0.72631,0.28899 2.56514,2.59352 0.74525,1.99663 -0.64096,-0.31107 -2.81857,-2.276 -1.31478,-1.90611 0.37088,0.70514 1.24588,1.88853 0.82834,1.87833 -0.0598,1.19321 -2.52623,-2.64717 -0.84067,-2.05036 0.41716,0.60956 2.85318,2.08693 1.45297,1.97962 -0.23487,-0.68395 -2.05283,-1.3299 -0.87111,-1.89811 z"
         style="color:#000000;fill:#000000;fill-opacity:1;fill-rule:nonzero;stroke:none;stroke-width:10;marker:none;visibility:visible;display:inline;overflow:visible;enable-background:accumulate" />
      <path
         inkscape:connector-curvature="0"
         id="path8811"
         d="m 343.63887,927.1382 c -0.28441,-0.79274 0.68916,-1.88985 -0.13852,-1.40874 -2.33189,-1.03995 -0.31898,-3.89332 1.59624,-3.93213 1.50536,-0.1447 4.42928,-0.8818 4.60061,1.39385 0.54909,1.31134 -1.34301,1.09387 -0.81204,1.85302 0.0176,0.63805 0.18357,3.38722 -0.4804,2.23259 0.0588,-1.25897 -0.44709,-2.89805 0.83654,-3.53587 0.22188,-2.47544 -3.10601,-1.5754 -4.56059,-1.27476 -1.65455,0.15545 -2.42014,2.81929 -0.55311,2.88695 0.0317,0.43297 0.34586,2.15933 -0.48873,1.78509 z"
         style="color:#000000;fill:#000000;fill-opacity:1;fill-rule:nonzero;stroke:none;stroke-width:10;marker:none;visibility:visible;display:inline;overflow:visible;enable-background:accumulate" />
      <path
         inkscape:connector-curvature="0"
         id="path8813"
         d="m 339.83864,918.0194 c 0.42922,1.17562 0.2975,4.35878 -1.11891,4.10542 0.73681,-1.22801 0.50799,-3.00331 0.8775,-4.07998 l 0.2414,-0.0254 10e-6,0 z"
         style="color:#000000;fill:#000000;fill-opacity:1;fill-rule:nonzero;stroke:none;stroke-width:10;marker:none;visibility:visible;display:inline;overflow:visible;enable-background:accumulate" />
      <path
         inkscape:connector-curvature="0"
         id="path8815"
         d="m 354.38845,916.23956 c -1.07403,1.70443 0.0415,3.70735 1.20019,5.03556 -1.47524,0.62277 -2.57763,-2.39594 -2.38092,-3.74844 0.0603,-0.422 0.59233,-2.33659 1.18073,-1.28712 z"
         style="color:#000000;fill:#000000;fill-opacity:1;fill-rule:nonzero;stroke:none;stroke-width:10;marker:none;visibility:visible;display:inline;overflow:visible;enable-background:accumulate" />
      <path
         inkscape:connector-curvature="0"
         id="path8817"
         d="m 340.90712,918.71129 c -0.1255,0.78745 -0.94389,-0.21713 0,0 z"
         style="color:#000000;fill:#000000;fill-opacity:1;fill-rule:nonzero;stroke:none;stroke-width:10;marker:none;visibility:visible;display:inline;overflow:visible;enable-background:accumulate" />
      <path
         inkscape:connector-curvature="0"
         id="path8819"
         d="m 340.89199,920.42695 c 0.49019,1.20536 -0.90966,1.27198 -0.48377,0.0397 l 0.2399,-0.0455 0.24425,0.006 -3.8e-4,-1.1e-4 z"
         style="color:#000000;fill:#000000;fill-opacity:1;fill-rule:nonzero;stroke:none;stroke-width:10;marker:none;visibility:visible;display:inline;overflow:visible;enable-background:accumulate" />
      <path
         inkscape:connector-curvature="0"
         id="path8821"
         d="m 340.54117,922.14741 c -0.622,1.12871 -0.86727,-0.80539 0,0 z"
         style="color:#000000;fill:#000000;fill-opacity:1;fill-rule:nonzero;stroke:none;stroke-width:10;marker:none;visibility:visible;display:inline;overflow:visible;enable-background:accumulate" />
      <path
         inkscape:connector-curvature="0"
         id="path8823"
         d="m 352.51748,917.85497 c 0.27445,1.31691 -1.08929,1.59404 -0.58125,0.12327 -0.0699,-0.42841 0.41508,-0.14188 0.58125,-0.12327 z"
         style="color:#000000;fill:#000000;fill-opacity:1;fill-rule:nonzero;stroke:none;stroke-width:10;marker:none;visibility:visible;display:inline;overflow:visible;enable-background:accumulate" />
      <path
         inkscape:connector-curvature="0"
         id="path8825"
         d="m 352.451,919.92153 c 0.85681,0.66549 0.0817,1.91898 -0.38774,0.60244 -0.35832,-0.41466 0.0193,-0.49739 0.38774,-0.60244 z"
         style="color:#000000;fill:#000000;fill-opacity:1;fill-rule:nonzero;stroke:none;stroke-width:10;marker:none;visibility:visible;display:inline;overflow:visible;enable-background:accumulate" />
      <path
         inkscape:connector-curvature="0"
         id="path8827"
         d="m 353.74053,921.2628 c 1.78106,0.93779 -1.56447,0.98244 0,0 z"
         style="color:#000000;fill:#000000;fill-opacity:1;fill-rule:nonzero;stroke:none;stroke-width:10;marker:none;visibility:visible;display:inline;overflow:visible;enable-background:accumulate" />
      <path
         inkscape:connector-curvature="0"
         id="path8829"
         d="m 354.71784,922.36524 c 1.24134,-0.41357 1.40489,1.06964 0.17767,0.57537 -0.64271,0.18735 -0.26906,-0.37956 -0.17767,-0.57537 z"
         style="color:#000000;fill:#000000;fill-opacity:1;fill-rule:nonzero;stroke:none;stroke-width:10;marker:none;visibility:visible;display:inline;overflow:visible;enable-background:accumulate" />
      <path
         inkscape:connector-curvature="0"
         id="path8831"
         d="m 336.74005,927.21778 c 0.81319,0.51649 -1.05634,0.44886 0,3e-5 l 0,-3e-5 z"
         style="color:#000000;fill:#000000;fill-opacity:1;fill-rule:nonzero;stroke:none;stroke-width:10;marker:none;visibility:visible;display:inline;overflow:visible;enable-background:accumulate" />
      <path
         inkscape:connector-curvature="0"
         id="path8833"
         d="m 338.33434,927.62487 c 1.83136,-0.0957 0.0212,1.19124 -0.16611,0.20965 l 0.16611,-0.20961 0,-4e-5 z"
         style="color:#000000;fill:#000000;fill-opacity:1;fill-rule:nonzero;stroke:none;stroke-width:10;marker:none;visibility:visible;display:inline;overflow:visible;enable-background:accumulate" />
      <path
         inkscape:connector-curvature="0"
         id="path8835"
         d="m 341.66482,928.04284 c 0.94896,-0.11455 1.78613,0.75999 0.3176,0.55855 -0.4398,-0.12965 -1.00921,-0.002 -0.3176,-0.55855 z"
         style="color:#000000;fill:#000000;fill-opacity:1;fill-rule:nonzero;stroke:none;stroke-width:10;marker:none;visibility:visible;display:inline;overflow:visible;enable-background:accumulate" />
      <path
         inkscape:connector-curvature="0"
         id="path8837"
         d="m 345.17021,928.57195 c 0.93858,-0.49945 1.5651,0.61426 0.229,0.39764 l -0.14284,-0.18973 -0.0862,-0.20784 0,-7e-5 z"
         style="color:#000000;fill:#000000;fill-opacity:1;fill-rule:nonzero;stroke:none;stroke-width:10;marker:none;visibility:visible;display:inline;overflow:visible;enable-background:accumulate" />
      <path
         inkscape:connector-curvature="0"
         id="path8839"
         d="m 348.33516,928.88089 c 0.9895,-0.4964 1.70779,0.91109 0.36652,0.68468 -0.65503,0.0768 -0.63304,-0.18242 -0.36652,-0.68468 z"
         style="color:#000000;fill:#000000;fill-opacity:1;fill-rule:nonzero;stroke:none;stroke-width:10;marker:none;visibility:visible;display:inline;overflow:visible;enable-background:accumulate" />
      <path
         inkscape:connector-curvature="0"
         id="path8841"
         d="m 352.64625,928.2277 c 1.36922,-0.59584 0.77798,1.50696 0.0624,0.36223 l -0.0625,-0.36228 7e-5,5e-5 z"
         style="color:#000000;fill:#000000;fill-opacity:1;fill-rule:nonzero;stroke:none;stroke-width:10;marker:none;visibility:visible;display:inline;overflow:visible;enable-background:accumulate" />
      <path
         inkscape:connector-curvature="0"
         id="path8843"
         d="m 354.9927,927.72426 c 1.00272,-0.92781 1.54166,0.49524 0.29375,0.56879 l -0.17344,-0.26669 -0.12031,-0.30208 0,-2e-5 z"
         style="color:#000000;fill:#000000;fill-opacity:1;fill-rule:nonzero;stroke:none;stroke-width:10;marker:none;visibility:visible;display:inline;overflow:visible;enable-background:accumulate" />
      <path
         inkscape:connector-curvature="0"
         id="path8845"
         d="m 341.78034,913.97209 c 1.31394,-2.04612 4.75783,-2.9657 6.43343,-0.86492 0.92909,0.53896 0.51981,2.51306 -0.23291,1.07542 -0.82186,-2.12172 -3.74434,-2.0007 -5.1275,-0.52777 -0.42554,0.26754 -0.54317,0.92071 -1.07302,0.31727 z"
         style="color:#000000;fill:#000000;fill-opacity:1;fill-rule:nonzero;stroke:none;stroke-width:10;marker:none;visibility:visible;display:inline;overflow:visible;enable-background:accumulate" />
    </g>
  </g>
</svg>
