<?xml version="1.0" encoding="UTF-8" standalone="no"?>
<!-- Created with Inkscape (http://www.inkscape.org/) -->

<svg
   xmlns:dc="http://purl.org/dc/elements/1.1/"
   xmlns:cc="http://creativecommons.org/ns#"
   xmlns:rdf="http://www.w3.org/1999/02/22-rdf-syntax-ns#"
   xmlns:svg="http://www.w3.org/2000/svg"
   xmlns="http://www.w3.org/2000/svg"
   xmlns:sodipodi="http://sodipodi.sourceforge.net/DTD/sodipodi-0.dtd"
   xmlns:inkscape="http://www.inkscape.org/namespaces/inkscape"
   width="21.546434"
   height="32.799091"
   id="svg12771"
   version="1.1"
   inkscape:version="0.48.2 r9819"
   sodipodi:docname="walk_right3.svg">
  <defs
     id="defs12773" />
  <sodipodi:namedview
     id="base"
     pagecolor="#ffffff"
     bordercolor="#666666"
     borderopacity="1.0"
     inkscape:pageopacity="0.0"
     inkscape:pageshadow="2"
     inkscape:zoom="0.35"
     inkscape:cx="-157.72478"
     inkscape:cy="78.502556"
     inkscape:document-units="px"
     inkscape:current-layer="layer1"
     showgrid="false"
     fit-margin-top="0"
     fit-margin-left="0"
     fit-margin-right="0"
     fit-margin-bottom="0"
     inkscape:window-width="511"
     inkscape:window-height="434"
     inkscape:window-x="1"
     inkscape:window-y="55"
     inkscape:window-maximized="0" />
  <g
     inkscape:label="Layer 1"
     inkscape:groupmode="layer"
     id="layer1"
     transform="translate(-532.72478,-578.06565)">
    <g
       transform="translate(111.28592,-241.13396)"
       id="g10230">
      <path
         inkscape:connector-curvature="0"
         id="path11570"
         d="m 441.00337,843.60389 c -0.35218,0.86343 -1.97575,0.88236 -2.078,2.20928 0.23713,1.54496 -1.45879,1.30804 -2.36663,2.13071 -0.71505,0.73488 -1.30852,0.87957 -1.48844,1.60579 1.30843,0.9612 2.82741,-0.8826 4.05641,-1.42164 0.88154,-0.67423 1.70928,-0.9638 2.56454,-1.49531 0.55493,-0.75629 0.66209,-3.07703 -0.68788,-3.02883 z m -5.46875,5.09375 c -0.0661,-0.0858 -0.1552,0.0453 0,0 z"
         style="color:#000000;fill:#008000;fill-opacity:1;fill-rule:nonzero;stroke:none;stroke-width:10;marker:none;visibility:visible;display:inline;overflow:visible;enable-background:accumulate" />
      <path
         inkscape:connector-curvature="0"
         id="path11572"
         d="m 438.47212,834.94764 c -0.81725,0.19238 -0.0145,1.29709 -0.93124,1.49005 -0.72053,1.42365 -2.28167,1.79479 -3.38795,2.84504 -0.87799,0.85542 -1.4038,1.94675 -2.81739,1.73802 -1.06896,0.20247 -1.97969,1.02518 -3.06672,1.00834 -1.05797,-0.16226 -1.50899,0.61662 -2.12032,1.11482 -1.822,0.1387 0.0564,2.25047 0.86517,2.78283 1.5328,1.0437 2.84964,2.48048 4.641,3.08387 1.07868,-0.16875 1.41701,1.45138 2.59201,0.57265 1.49866,-0.50298 2.44294,-1.71232 3.8515,-2.40522 1.3348,-0.84163 2.17517,-2.35362 2.06606,-3.93912 0.064,-1.35196 1.06833,-2.74789 0.36897,-4.05922 -0.44124,-0.99369 -0.54701,-2.35242 -1.00083,-3.45113 -0.18756,-0.41583 -0.57071,-0.80313 -1.06026,-0.78093 z"
         style="color:#000000;fill:#214478;fill-opacity:1;fill-rule:nonzero;stroke:none;stroke-width:10;marker:none;visibility:visible;display:inline;overflow:visible;enable-background:accumulate" />
      <path
         inkscape:connector-curvature="0"
         id="path11574"
         d="m 435.42202,838.44396 c 1.19462,-1.01253 2.19137,-2.25173 3.0255,-3.56731 0.56355,0.72082 -1.05385,2.27475 -1.71867,2.96996 -0.27907,0.16619 -1.16145,1.15616 -1.30683,0.59735 z"
         style="color:#000000;fill:#000000;fill-opacity:1;fill-rule:nonzero;stroke:none;stroke-width:10;marker:none;visibility:visible;display:inline;overflow:visible;enable-background:accumulate" />
      <path
         inkscape:connector-curvature="0"
         id="path11576"
         d="m 425.58273,844.08258 c 1.32767,1.29066 2.47544,2.83304 4.15655,3.7148 1.44401,0.97681 3.22876,0.92305 4.85167,1.26236 -0.67481,0.76075 -2.3052,0.28899 -3.34119,0.14203 -2.56356,-0.66576 -4.68151,-2.64847 -5.81347,-5.00411 l 0.14644,-0.11513 0,5e-5 z"
         style="color:#000000;fill:#000000;fill-opacity:1;fill-rule:nonzero;stroke:none;stroke-width:10;marker:none;visibility:visible;display:inline;overflow:visible;enable-background:accumulate" />
      <path
         inkscape:connector-curvature="0"
         id="path11578"
         d="m 434.67282,849.02415 c 1.75816,-0.64628 3.03341,-2.1285 4.6892,-2.93086 0.56791,0.54193 -1.4078,1.42989 -1.87578,1.94526 -0.6749,0.36478 -2.43025,1.69766 -2.81342,0.9856 z"
         style="color:#000000;fill:#000000;fill-opacity:1;fill-rule:nonzero;stroke:none;stroke-width:10;marker:none;visibility:visible;display:inline;overflow:visible;enable-background:accumulate" />
      <path
         inkscape:connector-curvature="0"
         id="path11580"
         d="m 439.4671,845.15634 c 0.75222,-2.36947 1.35506,-5.00381 0.45853,-7.42257 -0.17118,-1.03091 -1.06843,-2.07752 -1.13282,-2.94348 1.09411,0.56908 1.36861,2.00484 1.78929,3.08658 0.72674,2.3647 0.37404,5.01725 -0.78364,7.18308 l -0.16135,0.1967 -0.17003,-0.10029 2e-5,-2e-5 z"
         style="color:#000000;fill:#000000;fill-opacity:1;fill-rule:nonzero;stroke:none;stroke-width:10;marker:none;visibility:visible;display:inline;overflow:visible;enable-background:accumulate" />
      <path
         inkscape:connector-curvature="0"
         id="path11582"
         d="m 433.97468,843.73365 c 1.21447,-2.09796 2.38057,-4.3209 2.65569,-6.76174 0.93116,0.61909 -0.0212,2.67174 -0.34365,3.6946 -0.53246,0.99303 -1.29165,2.85762 -2.31204,3.06714 z"
         style="color:#000000;fill:#000000;fill-opacity:1;fill-rule:nonzero;stroke:none;stroke-width:10;marker:none;visibility:visible;display:inline;overflow:visible;enable-background:accumulate" />
      <path
         inkscape:connector-curvature="0"
         id="path11584"
         d="m 432.53994,841.32246 c 1.56951,1.78501 2.77173,3.88849 4.56267,5.4803 -1.2542,0.0904 -2.33106,-1.68414 -3.11049,-2.66481 -0.4179,-0.83921 -1.6053,-1.99236 -1.45218,-2.81549 z"
         style="color:#000000;fill:#000000;fill-opacity:1;fill-rule:nonzero;stroke:none;stroke-width:10;marker:none;visibility:visible;display:inline;overflow:visible;enable-background:accumulate" />
      <path
         inkscape:connector-curvature="0"
         id="path11586"
         d="m 426.52398,843.22583 c 1.17093,0.91121 2.28398,1.81156 1.52069,3.21589 -0.91952,0.46465 0.40618,-1.98576 -0.0812,-1.3176 -0.36942,-0.54116 -1.64633,-1.2921 -1.43948,-1.89829 z"
         style="color:#000000;fill:#000000;fill-opacity:1;fill-rule:nonzero;stroke:none;stroke-width:10;marker:none;visibility:visible;display:inline;overflow:visible;enable-background:accumulate" />
      <path
         inkscape:connector-curvature="0"
         id="path11588"
         d="m 426.7617,841.85756 c 0.97478,-0.53878 -0.009,0.96687 0,0 z"
         style="color:#000000;fill:#000000;fill-opacity:1;fill-rule:nonzero;stroke:none;stroke-width:10;marker:none;visibility:visible;display:inline;overflow:visible;enable-background:accumulate" />
      <path
         inkscape:connector-curvature="0"
         id="path11590"
         d="m 427.65131,841.56067 c 0.91892,-0.37722 -0.14068,0.90996 8.7e-4,1.2e-4 l -8.7e-4,-1.2e-4 z"
         style="color:#000000;fill:#000000;fill-opacity:1;fill-rule:nonzero;stroke:none;stroke-width:10;marker:none;visibility:visible;display:inline;overflow:visible;enable-background:accumulate" />
      <path
         inkscape:connector-curvature="0"
         id="path11592"
         d="m 435.40415,837.48726 c 0.23191,-0.70473 0.94701,-0.32133 0.24909,0.13906 l -0.24913,-0.13906 4e-5,0 z"
         style="color:#000000;fill:#000000;fill-opacity:1;fill-rule:nonzero;stroke:none;stroke-width:10;marker:none;visibility:visible;display:inline;overflow:visible;enable-background:accumulate" />
      <path
         inkscape:connector-curvature="0"
         id="path11594"
         d="m 436.57658,836.16595 c 0.35623,-0.70599 0.65418,0.4647 0,0 z"
         style="color:#000000;fill:#000000;fill-opacity:1;fill-rule:nonzero;stroke:none;stroke-width:10;marker:none;visibility:visible;display:inline;overflow:visible;enable-background:accumulate" />
      <path
         inkscape:connector-curvature="0"
         id="path11596"
         d="m 439.35111,835.39517 c -0.13564,0.56076 -1.81042,2.09994 -1.76949,1.268 0.61582,-0.32779 1.11597,-1.29211 1.76949,-1.268 z"
         style="color:#000000;fill:#000000;fill-opacity:1;fill-rule:nonzero;stroke:none;stroke-width:10;marker:none;visibility:visible;display:inline;overflow:visible;enable-background:accumulate" />
      <path
         inkscape:connector-curvature="0"
         id="path11598"
         d="m 439.95117,844.64352 c 0.5821,-1.88898 3.21247,-0.35524 2.1596,1.22205 -1.00032,1.91222 -2.94669,3.14121 -4.86696,3.9999 -1.16999,0.895 -3.19065,-0.078 -1.9605,-1.48792 0.57215,0.16169 -0.54263,1.87351 0.80013,1.29264 2.10158,-0.76643 4.12357,-2.01049 5.49151,-3.80731 0.96947,-1.04845 -0.56572,-2.5033 -1.4083,-1.20838 l -0.2155,-0.011 2e-5,2e-5 z"
         style="color:#000000;fill:#000000;fill-opacity:1;fill-rule:nonzero;stroke:none;stroke-width:10;marker:none;visibility:visible;display:inline;overflow:visible;enable-background:accumulate" />
      <path
         inkscape:connector-curvature="0"
         id="path11602"
         d="m 424.34712,848.07264 c 0.53274,0.51387 -1.09139,-0.28401 -0.50619,0.71 1.02518,1.29704 2.876,1.54437 4.28729,2.2899 1.06658,0.13584 1.75622,1.51416 2.98855,0.63471 0.66651,-0.25056 1.91465,-1.78238 0.79683,-1.97871 -0.97429,-0.53292 -2.63801,-1.06877 -3.62893,0.0316 -1.00548,-0.58132 -2.03219,-1.30952 -3.25698,-1.49307 -0.48303,-0.27025 0.0717,0.006 -0.68057,-0.19446 z m 0.84375,0.34375 c 0.17168,-0.0224 -0.0155,0.0967 0,0 z"
         style="color:#000000;fill:#008000;fill-opacity:1;fill-rule:nonzero;stroke:none;stroke-width:10;marker:none;visibility:visible;display:inline;overflow:visible;enable-background:accumulate" />
      <path
         inkscape:connector-curvature="0"
         id="path11604"
         d="m 423.28462,836.76014 c -1.38072,1.05503 -0.97897,3.15038 -1.18203,4.69371 -0.0342,1.53543 -0.15058,3.17662 0.61457,4.54632 -0.66706,1.45358 1.79942,2.38621 2.98546,2.56365 1.69761,0.80639 3.82155,1.75745 5.59557,0.61754 1.15358,-0.87014 2.63576,-1.01442 3.8012,-1.86095 0.53999,-1.0472 1.48143,-1.82272 2.20867,-2.82189 1.14903,-0.60163 0.54975,-2.82288 -0.65812,-1.65479 -1.20702,-0.1828 -2.48807,-0.18204 -3.61165,-0.82826 -1.17717,-0.81324 -3.03143,-0.14634 -3.87297,-1.1974 -0.91606,-1.1847 -2.55213,-1.50947 -3.34748,-2.8013 -0.58728,-1.02758 -1.79485,-0.20309 -2.33232,-1.23199 l -0.2009,-0.0246 0,0 z"
         style="color:#000000;fill:#214478;fill-opacity:1;fill-rule:nonzero;stroke:none;stroke-width:10;marker:none;visibility:visible;display:inline;overflow:visible;enable-background:accumulate" />
      <path
         inkscape:connector-curvature="0"
         id="path11608"
         d="m 422.86887,837.34377 c -0.28894,1.82872 -0.88931,3.65551 -0.64109,5.53757 0.0335,1.74303 1.10571,3.17083 1.7634,4.69282 -1.01065,-0.11324 -1.56434,-1.71766 -2.04109,-2.64911 -0.9328,-2.47892 -0.53237,-5.3523 0.74083,-7.6347 l 0.17847,0.0534 -5.2e-4,2e-5 z"
         style="color:#000000;fill:#000000;fill-opacity:1;fill-rule:nonzero;stroke:none;stroke-width:10;marker:none;visibility:visible;display:inline;overflow:visible;enable-background:accumulate" />
      <path
         inkscape:connector-curvature="0"
         id="path11610"
         d="m 424.06693,847.62062 c 1.54119,1.06468 3.48739,1.25308 5.09716,2.14417 -0.11494,0.77688 -1.97965,-0.3266 -2.67031,-0.41215 -0.68733,-0.34187 -2.78661,-1.00732 -2.42685,-1.73202 z"
         style="color:#000000;fill:#000000;fill-opacity:1;fill-rule:nonzero;stroke:none;stroke-width:10;marker:none;visibility:visible;display:inline;overflow:visible;enable-background:accumulate" />
      <path
         inkscape:connector-curvature="0"
         id="path11612"
         d="m 429.99045,849.31088 c 2.37008,-0.7503 4.87061,-1.77527 6.33107,-3.90159 0.75625,-0.66303 1.11502,-2.31679 1.78287,-2.54911 0.0702,1.14628 -0.81401,2.11969 -1.41752,3.03358 -1.51177,2.03187 -3.9329,3.32454 -6.42709,3.63239 l -0.25374,-0.0186 -0.016,-0.19676 4.1e-4,4e-5 z"
         style="color:#000000;fill:#000000;fill-opacity:1;fill-rule:nonzero;stroke:none;stroke-width:10;marker:none;visibility:visible;display:inline;overflow:visible;enable-background:accumulate" />
      <path
         inkscape:connector-curvature="0"
         id="path11614"
         d="m 427.98894,844.00196 c 2.41448,-0.21603 4.90325,-0.54364 7.05679,-1.72499 0.0305,1.11801 -2.19602,1.52185 -3.21783,1.84772 -1.11833,0.13692 -3.08029,0.59064 -3.83896,-0.12273 z"
         style="color:#000000;fill:#000000;fill-opacity:1;fill-rule:nonzero;stroke:none;stroke-width:10;marker:none;visibility:visible;display:inline;overflow:visible;enable-background:accumulate" />
      <path
         inkscape:connector-curvature="0"
         id="path11616"
         d="m 429.13314,841.4401 c -0.55476,2.31125 -1.58136,4.50579 -1.85069,6.8867 -0.7964,-0.97184 0.0335,-2.87551 0.38603,-4.0772 0.4451,-0.8254 0.70395,-2.45996 1.46466,-2.8095 z"
         style="color:#000000;fill:#000000;fill-opacity:1;fill-rule:nonzero;stroke:none;stroke-width:10;marker:none;visibility:visible;display:inline;overflow:visible;enable-background:accumulate" />
      <path
         inkscape:connector-curvature="0"
         id="path11618"
         d="m 424.11142,837.61951 c -0.0702,1.48201 -0.16485,2.91067 -1.75262,3.0957 -0.90972,-0.48371 1.85708,-0.81208 1.03011,-0.82537 0.22953,-0.61368 0.10746,-2.09072 0.72251,-2.27033 z"
         style="color:#000000;fill:#000000;fill-opacity:1;fill-rule:nonzero;stroke:none;stroke-width:10;marker:none;visibility:visible;display:inline;overflow:visible;enable-background:accumulate" />
      <path
         inkscape:connector-curvature="0"
         id="path11620"
         d="m 425.36675,837.02551 c 1.002,0.48595 -0.79514,0.55 0,0 z"
         style="color:#000000;fill:#000000;fill-opacity:1;fill-rule:nonzero;stroke:none;stroke-width:10;marker:none;visibility:visible;display:inline;overflow:visible;enable-background:accumulate" />
      <path
         inkscape:connector-curvature="0"
         id="path11622"
         d="m 426.12194,837.58159 c 0.83767,0.53378 -0.82455,0.4087 1.4e-4,-2.9e-4 l -1.4e-4,2.9e-4 z"
         style="color:#000000;fill:#000000;fill-opacity:1;fill-rule:nonzero;stroke:none;stroke-width:10;marker:none;visibility:visible;display:inline;overflow:visible;enable-background:accumulate" />
      <path
         inkscape:connector-curvature="0"
         id="path11624"
         d="m 433.91803,841.5716 c 0.70956,-0.21673 0.80831,0.58834 0.0299,0.2834 l -0.0299,-0.28374 4e-5,3.4e-4 z"
         style="color:#000000;fill:#000000;fill-opacity:1;fill-rule:nonzero;stroke:none;stroke-width:10;marker:none;visibility:visible;display:inline;overflow:visible;enable-background:accumulate" />
      <path
         inkscape:connector-curvature="0"
         id="path11626"
         d="m 435.67349,841.76865 c 0.78235,-0.11552 -0.003,0.80222 0,0 z"
         style="color:#000000;fill:#000000;fill-opacity:1;fill-rule:nonzero;stroke:none;stroke-width:10;marker:none;visibility:visible;display:inline;overflow:visible;enable-background:accumulate" />
      <path
         inkscape:connector-curvature="0"
         id="path11630"
         d="m 430.68849,849.41109 c 1.87938,-0.61256 2.14111,2.42104 0.24534,2.46917 -2.13928,0.28413 -4.26516,-0.59871 -6.07335,-1.67353 -1.40559,-0.44062 -1.77447,-2.65298 0.0867,-2.4596 0.19738,0.56081 -1.8439,0.63589 -0.59562,1.39874 1.83722,1.27618 4.01901,2.21213 6.27576,2.295 1.4154,0.18823 1.72015,-1.90466 0.17629,-1.84729 l -0.11514,-0.1825 6e-5,10e-6 z"
         style="color:#000000;fill:#000000;fill-opacity:1;fill-rule:nonzero;stroke:none;stroke-width:10;marker:none;visibility:visible;display:inline;overflow:visible;enable-background:accumulate" />
      <path
         inkscape:connector-curvature="0"
         id="path11632"
         d="m 427.70991,838.9954 c 0.7865,0.0661 3.19189,0.0644 2.72902,1.16271 -0.74686,0.04 -2.97477,0.52331 -2.9774,-0.13247 0.45622,-0.48072 2.10836,0.001 2.96895,0.21183 -0.11348,1.31335 -2.28448,0.33646 -3.0616,-0.006 -0.95578,-1.32254 1.36426,-0.66522 2.00821,-0.33267 0.51387,0.37974 2.266,0.0256 1.58035,0.63375 0.35632,0.42171 -2.93032,0.05 -1.65959,-0.74455 0.73527,0.0738 2.30687,0.45867 2.53035,0.54527 -0.0559,0.76411 -0.65749,0.44159 -1.2836,0.37493 0.50278,-0.99768 2.25824,-0.14507 3.40286,-0.77267 0.98961,-0.21212 2.64315,-0.88052 2.60821,-0.0182 -1.5943,0.93303 -3.51151,1.75168 -5.38405,1.35278 -0.37262,-1.27206 2.21145,-0.67566 3.10475,-1.2159 0.92481,0.0218 2.63823,-1.41964 2.99057,-0.26629 -1.53331,1.10121 -3.52717,1.35186 -5.37928,1.36486 -1.82007,-0.0654 -3.78544,-0.28017 -5.29341,-1.38034 0.38178,-1.15325 1.84949,0.70266 2.80639,0.43831 2.28552,0.35798 4.66813,0.25747 6.83812,-0.5955 0.57028,-0.48994 1.28044,0.57714 0.28818,0.47259 -1.62969,0.71038 -3.39431,1.19321 -5.18418,1.12774 -0.0921,-1.02957 1.60585,-0.20555 2.42429,-0.86339 0.95717,0.0672 2.64101,-1.7794 3.00224,-0.54972 -1.09216,0.62511 -2.40966,0.6512 -3.583,1.0715 -0.78041,0.15356 -3.22024,0.37692 -2.67578,-0.77588 0.68521,-0.35592 2.61493,0.54845 1.17276,0.85959 -0.77545,-0.22903 -2.87994,0.0184 -2.31146,-1.1372 0.67819,-0.13521 3.23888,0.35454 1.79132,1.09022 -1.30254,0.12659 -2.53632,-0.38256 -3.69807,-0.89757 0.2912,-0.75312 2.02477,0.3385 2.65238,0.20246 0.11456,1.24458 -2.06381,0.21947 -2.83912,0.17303 -1.18087,-0.97814 1.35272,-0.81327 1.96059,-0.83509 0.77453,-0.47356 1.348,0.84311 0.42793,0.31502 -0.42727,-0.29935 -2.46593,-0.0669 -1.95693,-0.87367 z"
         style="color:#000000;fill:#373e48;fill-opacity:1;fill-rule:nonzero;stroke:none;stroke-width:10;marker:none;visibility:visible;display:inline;overflow:visible;enable-background:accumulate" />
      <path
         inkscape:connector-curvature="0"
         id="path11634"
         d="m 440.76401,832.40704 c 1.0016,0.72495 -0.0733,2.64181 -0.89892,1.49052 -0.3734,-0.88215 -0.4748,-2.13877 0.89892,-1.49052 z"
         style="color:#000000;fill:#cccccc;fill-opacity:1;fill-rule:nonzero;stroke:none;stroke-width:10;marker:none;visibility:visible;display:inline;overflow:visible;enable-background:accumulate" />
      <path
         inkscape:connector-curvature="0"
         id="path11636"
         d="m 433.34712,830.66639 c -2.08832,0.26496 -4.22402,-0.0843 -6.29467,0.2804 -1.33838,0.4468 -1.52397,1.95772 -2.31059,2.91216 -0.95725,0.77303 -1.05007,2.06422 -1.5364,3.05235 -0.8451,1.8918 2.08096,1.89701 3.02566,2.70833 0.80913,0.0622 0.24179,0.17874 0.91434,0.47334 1.46368,-0.94006 3.21393,0.38659 4.90346,-0.0561 1.50975,-0.20976 2.98531,0.3754 4.50521,-0.0593 1.40574,-0.32071 3.97285,-1.13121 2.89341,-3.04769 -0.87061,-1.20109 -1.29653,-2.80137 -2.61811,-3.62932 0.0543,-1.31803 -0.4337,-2.92491 -2.13813,-2.62766 -0.4479,-0.0162 -0.89633,5.1e-4 -1.34418,-0.007 z m -6.75,9.15625 c -0.0754,0.0648 0.11301,0.0306 0,0 z m 10.90625,-4.71875 c 0.38002,0.0302 -0.34861,0.14791 0,0 z m -9.1875,4.28125 c 0.35453,-0.0274 0.17795,0.12823 0,0 z"
         style="color:#000000;fill:#373e48;fill-opacity:1;fill-rule:nonzero;stroke:none;stroke-width:10;marker:none;visibility:visible;display:inline;overflow:visible;enable-background:accumulate" />
      <path
         inkscape:connector-curvature="0"
         id="path11638"
         d="m 424.8291,835.49599 c -0.98539,0.63667 0.92315,-2.728 0.32693,-0.81094 -0.15777,0.63868 -1.02462,1.70663 -0.68634,0.39328 -0.0226,-0.76238 1.29859,-1.86577 0.56583,-0.58234 -0.27608,0.6641 -1.1342,1.78297 -0.68026,0.39831 0.042,-0.6812 1.45207,-2.63588 0.84062,-0.96618 -0.11441,0.56153 -1.11651,1.94445 -0.65407,0.59499 0.187,-1.04524 2.04016,-2.67001 1.23936,-0.6049 -0.0482,0.8768 -1.31847,1.48326 -0.6901,0.18296 0.0122,-0.9249 1.32741,-1.56681 1.15841,-0.22588 -0.10136,1.27135 -1.74949,0.8682 -0.69544,-0.15976 1.31595,-0.81147 0.10648,1.99137 -0.59,0.86052 0.21811,-1.22908 1.85134,-0.0756 0.48057,0.16314 -1.04577,-0.56705 1.60638,-1.24784 0.42188,-0.16048 -1.29341,0.56023 0.93632,-1.52247 0.22201,-0.33004 -0.48488,0.81987 -1.59282,0.5461 -0.38899,0.0473 0.5103,-0.46902 -0.19107,-1.9075 0.61554,-0.74269 0.35152,0.88393 -0.58524,1.02322 -0.30114,0.036 0.50473,-1.37944 0.44366,1.91016 -0.70867,1.23529 -0.3408,-0.5252 0.86932,0.0524 -0.19225,0.0691 0.16112,-0.33747 1.59665,-1.11374 0.58904,-1.60162 -0.44876,0.70125 -1.01328,0.53005 -0.34134,-0.18951 0.62166,-0.40053 -0.64009,1.30371 -0.53542,1.78372 0.13898,0.94196 -1.03241,1.13898 -0.47648,0.12092 0.77614,0.0694 -0.5567,1.21898 0.0341,0.2879 0.80657,-0.62109 -0.20982,1.16091 0.11866,0.017 0.7818,-0.17268 -0.50543,0.99627 -0.0665,-0.0276 0.86012,-0.29024 -0.77859,1.16199 -0.14898,-0.0884 0.61887,-0.48825 -0.15745,1.03023 0.14053,0.003 0.20366,-0.64614 0.54628,-2.7021 1.32285,-2.17168 -0.18777,0.796 -1.25387,0.98711 -0.35477,0.11106 1.85702,-0.63928 0.39831,2.85726 -0.39271,1.52275 0.8985,-0.49977 0.5401,0.62771 0.0547,0.13108 0.53901,-0.31955 1.35538,-0.74829 0.93253,-1.54517 0.74911,-0.32222 0.0675,1.95125 0.0324,0.40341 -0.79622,-1.10244 0.7165,-0.42219 0.19357,0.3798 0.0361,0.94211 -2.1312,1.0268 -0.70742,0.33889 0.26828,-0.31805 1.01026,-1.23584 0.80434,-0.22217 -0.6411,1.01218 -1.17494,0.12766 -0.36967,0.0402 -0.86917,0.48584 -0.2866,0.19757 -0.27149,0.1041 -1.09916,0.63563 0.347,-0.12517 0.28005,-0.54145 -0.34748,0.51076 -0.78896,1.13817 -0.12064,0.34705 0.19699,-0.62054 0.0414,-1.27421 -0.23537,-0.25218 -0.0449,0.56642 -0.9094,1.47431 -0.31992,0.42073 0.0989,-0.48502 0.982,-2.06944 0.25483,-0.77345 -0.18276,0.55409 -1.56803,2.51793 -0.91394,0.86803 0.12667,-0.69322 1.18307,-1.64438 0.54701,-0.47151 -0.12906,0.49236 -1.22673,2.70905 -0.79635,1.09932 0.15275,-0.63761 1.30506,-1.78796 0.70312,-0.47809 -0.16602,0.57631 -0.94003,1.94271 -0.46575,0.55222 0.15069,-0.75362 1.10917,-1.31291 0.49753,-0.22383 0.0139,0.50428 -0.78203,0.80214 -0.27241,0.65819 z"
         style="color:#000000;fill:#ffffff;fill-opacity:1;fill-rule:nonzero;stroke:none;stroke-width:10;marker:none;visibility:visible;display:inline;overflow:visible;enable-background:accumulate" />
      <path
         inkscape:connector-curvature="0"
         id="path11640"
         d="m 437.06587,831.54139 c -0.73845,0.97421 0.009,2.25899 0.78492,3.04763 0.80679,0.94529 1.41231,2.03606 1.59049,3.17884 1.32323,0.44804 1.06185,-1.73816 0.92346,-2.5731 -0.18055,-1.38721 -1.23463,-2.9639 -2.51758,-3.37187 -0.25208,-0.11261 -0.49225,-0.28795 -0.78129,-0.2815 z"
         style="color:#000000;fill:#800000;fill-opacity:1;fill-rule:nonzero;stroke:none;stroke-width:10;marker:none;visibility:visible;display:inline;overflow:visible;enable-background:accumulate" />
      <path
         inkscape:connector-curvature="0"
         id="path11642"
         d="m 438.97212,823.88514 c -1.10237,0.55818 -2.10698,1.39889 -3.12504,1.95757 -1.16914,0.22619 -1.22776,2.24249 -2.45265,1.15166 -0.64514,-0.0708 -1.31551,-1.13836 -2.34957,-0.46509 -1.59011,0.59784 -2.25227,2.54911 -4.1529,2.07346 -1.35509,0.33277 0.49145,2.26143 1.18736,1.82706 1.12847,0.55928 2.23632,0.42065 3.4149,0.4604 1.51536,-0.34426 3.07783,0.088 4.50701,-0.63357 1.17144,-0.47838 2.48431,-0.85017 3.2877,-1.92887 1.03637,-1.16621 1.22729,-3.22323 0.0505,-4.34888 l -0.17575,-0.0858 -0.19151,-0.008 0,5e-5 z"
         style="color:#000000;fill:#ffe6d5;fill-opacity:1;fill-rule:nonzero;stroke:none;stroke-width:10;marker:none;visibility:visible;display:inline;overflow:visible;enable-background:accumulate" />
      <path
         inkscape:connector-curvature="0"
         id="path11644"
         d="m 426.06587,822.47889 c -0.92219,0.5667 -1.25557,2.17479 -1.21606,3.27028 0.0281,1.22499 -0.0269,2.72232 1.55841,2.85193 1.14323,0.61361 3.62193,0.5119 3.88423,-0.97441 0.43087,-0.7396 0.48897,-1.42871 1.37888,-0.77502 1.40631,-0.55926 1.13931,0.69038 1.94664,1.4944 1.39824,0.0324 0.8856,-2.04474 2.32348,-2.136 1.39761,-1.28404 -1.10326,-0.90301 -1.81245,-0.47602 -1.31225,0.42165 -2.50206,-0.45627 -3.83882,0.014 -1.12262,0.1838 -2.58349,-0.15501 -3.4214,-0.38913 0.14154,-0.98057 -0.1223,-2.18083 -0.80291,-2.88006 z"
         style="color:#000000;fill:#d4aa00;fill-opacity:1;fill-rule:nonzero;stroke:none;stroke-width:10;marker:none;visibility:visible;display:inline;overflow:visible;enable-background:accumulate" />
      <path
         inkscape:connector-curvature="0"
         id="path11646"
         d="m 431.97212,819.35389 c -1.51192,-0.24961 -1.20441,2.07139 -2.86809,1.53079 -1.2391,0.0514 -4.05138,0.19421 -3.3931,2.01714 2.00174,-0.49477 0.45229,2.12024 1.57152,2.77931 1.30451,0.96901 3.05673,0.4271 4.58011,0.56923 1.577,-0.0888 3.26864,0.0732 4.5485,-1.04749 1.13153,-0.69667 2.30093,-1.34122 3.66009,-1.3795 1.00504,-0.17932 2.55766,-0.40622 2.62002,-1.68778 -0.32659,-1.45958 -2.24697,-1.02164 -3.37403,-1.06216 -1.42423,0.3945 -2.72178,-0.44047 -4.16992,-0.25056 -0.58767,-0.0308 -1.57545,-0.91124 -2.14255,-0.0997 -0.31094,-0.88228 0.99461,-0.85222 -0.0948,-1.29371 -0.30495,-0.0814 -0.62429,-0.0866 -0.9377,-0.0756 z m 1.375,0.59375 c -0.40982,0.11663 -0.26689,0.87124 -0.0689,0.19872 l 0.0689,-0.19872 z"
         style="color:#000000;fill:#333333;fill-opacity:1;fill-rule:nonzero;stroke:none;stroke-width:10;marker:none;visibility:visible;display:inline;overflow:visible;enable-background:accumulate" />
      <path
         inkscape:connector-curvature="0"
         id="path11648"
         d="m 438.52214,826.75585 c -1.65279,0.46955 -1.32117,-2.35714 0.031,-1.30861 0.88863,1.14249 -1.78824,1.54786 -1.04782,0.53809 0.73862,-0.0507 0.0806,-0.11328 0.72725,-0.11497 -0.94731,0.17085 1.22525,0.12853 0.28952,0.88549 z"
         style="color:#000000;fill:#ffffff;fill-opacity:1;fill-rule:nonzero;stroke:none;stroke-width:10;marker:none;visibility:visible;display:inline;overflow:visible;enable-background:accumulate" />
      <path
         inkscape:connector-curvature="0"
         id="path11650"
         d="m 438.14394,826.35674 c -0.84637,-0.8831 1.22875,-0.74352 0.30138,0.009 -0.72738,0.089 -0.47744,-0.56076 0.0548,-0.36823 -0.48638,-0.27564 -0.20153,0.19318 0.027,0.0583 -0.009,0.20908 -0.33183,0.14608 -0.38324,0.30137 z"
         style="color:#000000;fill:#00ccff;fill-opacity:1;fill-rule:nonzero;stroke:none;stroke-width:10;marker:none;visibility:visible;display:inline;overflow:visible;enable-background:accumulate" />
      <path
         inkscape:connector-curvature="0"
         id="path11652"
         d="m 426.47339,830.97432 c 0.1057,-0.62745 1.24717,-2.23212 0.90482,-0.74574 -0.19215,0.2997 -0.43077,1.12205 -0.90482,0.74574 z"
         style="color:#000000;fill:#000000;fill-opacity:1;fill-rule:nonzero;stroke:none;stroke-width:10;marker:none;visibility:visible;display:inline;overflow:visible;enable-background:accumulate" />
      <path
         inkscape:connector-curvature="0"
         id="path11654"
         d="m 426.96981,830.18812 c -1.13522,-0.6475 -2.22875,-1.80533 -2.46745,-3.13354 -0.30785,-1.86401 0.0729,-3.80285 1.15315,-5.36493 0.18132,-0.77841 1.47157,-1.1578 0.77693,-0.087 -0.82558,1.40541 -1.56245,2.9523 -1.37701,4.63013 -0.44257,1.69116 1.56146,2.65373 2.0377,3.78034 l -0.12338,0.17502 6e-5,0 z"
         style="color:#000000;fill:#000000;fill-opacity:1;fill-rule:nonzero;stroke:none;stroke-width:10;marker:none;visibility:visible;display:inline;overflow:visible;enable-background:accumulate" />
      <path
         inkscape:connector-curvature="0"
         id="path11656"
         d="m 425.89039,821.55877 c 1.65818,-1.3039 3.89145,-1.57471 5.94336,-1.62814 2.35248,0.0676 4.78921,0.48532 6.85025,1.67179 0.79616,0.17667 1.78912,2.33558 0.51131,1.21251 -1.38928,-1.28524 -3.39357,-1.48192 -5.16599,-1.88376 -2.67331,-0.46589 -5.4358,-0.0978 -7.97613,0.81235 l -0.16284,-0.18434 4e-5,-4.1e-4 z"
         style="color:#000000;fill:#000000;fill-opacity:1;fill-rule:nonzero;stroke:none;stroke-width:10;marker:none;visibility:visible;display:inline;overflow:visible;enable-background:accumulate" />
      <path
         inkscape:connector-curvature="0"
         id="path11658"
         d="m 439.04414,822.27586 c 1.01766,0.99547 1.35379,2.51482 1.54859,3.88613 -0.86511,0.48139 -0.7049,-1.80938 -1.22649,-2.36743 -0.0251,-0.47623 -0.95914,-1.25552 -0.3221,-1.5187 z"
         style="color:#000000;fill:#000000;fill-opacity:1;fill-rule:nonzero;stroke:none;stroke-width:10;marker:none;visibility:visible;display:inline;overflow:visible;enable-background:accumulate" />
      <path
         inkscape:connector-curvature="0"
         id="path11660"
         d="m 440.28801,826.24009 c 0.18565,1.38975 -0.82643,2.60804 -1.86028,3.39298 -0.82562,-0.57185 1.33257,-1.62131 1.30458,-2.53919 0.20472,-0.27164 -0.0171,-1.10084 0.5557,-0.85379 z"
         style="color:#000000;fill:#000000;fill-opacity:1;fill-rule:nonzero;stroke:none;stroke-width:10;marker:none;visibility:visible;display:inline;overflow:visible;enable-background:accumulate" />
      <path
         inkscape:connector-curvature="0"
         id="path11662"
         d="m 438.48841,829.69396 c -0.70252,0.45728 -2.47169,1.31877 -2.79438,0.384 0.85566,0.01 2.1876,-0.86787 2.79438,-0.384 z"
         style="color:#000000;fill:#000000;fill-opacity:1;fill-rule:nonzero;stroke:none;stroke-width:10;marker:none;visibility:visible;display:inline;overflow:visible;enable-background:accumulate" />
      <path
         inkscape:connector-curvature="0"
         id="path11664"
         d="m 437.28481,829.90975 c 1.41446,1.36536 -1.40815,0.38053 0,0 z"
         style="color:#000000;fill:#000000;fill-opacity:1;fill-rule:nonzero;stroke:none;stroke-width:10;marker:none;visibility:visible;display:inline;overflow:visible;enable-background:accumulate" />
      <path
         inkscape:connector-curvature="0"
         id="path11666"
         d="m 424.68126,824.53191 c 2.09943,1.3255 4.71313,1.30038 7.11278,1.2852 2.43467,-0.0997 4.91068,-0.82145 6.80664,-2.39894 1.21079,0.11752 -1.04674,1.6342 -1.57371,1.90825 -3.19455,1.72596 -7.10169,1.75367 -10.52046,0.7306 -0.53556,-0.22284 -2.4838,-0.9009 -1.82525,-1.52511 z"
         style="color:#000000;fill:#000000;fill-opacity:1;fill-rule:nonzero;stroke:none;stroke-width:10;marker:none;visibility:visible;display:inline;overflow:visible;enable-background:accumulate" />
      <path
         inkscape:connector-curvature="0"
         id="path11668"
         d="m 430.50582,820.55565 c -0.007,-1.62006 1.92659,-1.55568 2.96235,-1.00337 0.82469,0.59784 -0.13189,1.0128 -0.40993,0.30488 -0.87498,-0.22649 -2.04547,-0.43804 -2.15804,0.78966 l -0.20186,-0.0247 -0.19252,-0.0665 0,3e-5 z"
         style="color:#000000;fill:#000000;fill-opacity:1;fill-rule:nonzero;stroke:none;stroke-width:10;marker:none;visibility:visible;display:inline;overflow:visible;enable-background:accumulate" />
      <path
         inkscape:connector-curvature="0"
         id="path11670"
         d="m 437.84746,820.88792 c 1.47445,-0.18638 3.07035,-0.17696 4.45489,0.41653 1.43237,0.62891 0.3386,2.28549 -0.78817,2.46676 -1.09542,0.24539 -3.14208,0.798 -3.72739,-0.0902 1.3557,-0.47377 2.99095,0.10341 4.24217,-0.78815 1.42397,-1.25603 -1.43371,-1.44756 -2.25504,-1.45578 -0.54708,-0.20069 -1.87906,0.25641 -1.92646,-0.54916 z"
         style="color:#000000;fill:#000000;fill-opacity:1;fill-rule:nonzero;stroke:none;stroke-width:10;marker:none;visibility:visible;display:inline;overflow:visible;enable-background:accumulate" />
      <path
         inkscape:connector-curvature="0"
         id="path11672"
         d="m 439.05319,828.84122 c -1.17434,1.30607 -1.55708,-1.19835 -0.19286,-1.17718 0.75319,-0.2846 1.95024,0.38584 1.17965,1.1948 -0.60021,0.9869 -1.9636,-0.19258 -0.86784,-0.74849 0.97853,0.81364 -0.49119,0.28401 -0.51483,1.02962 -1.21613,0.78176 -1.02777,-1.21776 0.20214,-1.06759 0.67145,-0.21346 0.79881,0.56669 0.26725,0.71696 -0.30981,0.63321 -0.61747,-0.55798 -0.12285,-0.31346 1.23952,0.99994 -1.64756,0.89998 -0.48603,-0.0248 0.24904,-0.95207 2.18313,-0.65679 1.12959,0.19051 -0.82428,-0.0435 -1.32916,0.59335 -1.43611,0.0947 -0.40859,0.11569 0.89357,-1.24924 1.1599,-0.41387 0.55735,0.57464 -0.67956,0.30677 0.27325,-0.008 -0.18119,-0.11033 -0.42709,-0.0665 -0.81963,-0.0292 -0.15244,0.57436 -0.89501,0.56692 -0.16114,0.17165 0.11478,-0.22656 0.33044,0.56159 0.38951,0.38429 z"
         style="color:#000000;fill:#ffaaaa;fill-opacity:1;fill-rule:nonzero;stroke:none;stroke-width:10;marker:none;visibility:visible;display:inline;overflow:visible;enable-background:accumulate" />
      <path
         inkscape:connector-curvature="0"
         id="path11674"
         d="m 438.44635,828.95167 c 0.65935,0.31798 2.50282,-0.50053 1.45173,-1.08272 -0.77323,-0.53989 -2.48221,0.74063 -1.75536,1.30585 0.69464,-0.57336 1.59657,0.0516 0.52057,0.18034 -1.83205,0.8606 -0.93355,-2.0646 0.35734,-1.88007 1.32201,-0.46001 2.21601,1.16516 0.73007,1.72085 -0.20506,-0.006 -1.70184,0.26021 -1.30435,-0.24425 z"
         style="color:#000000;fill:#000000;fill-opacity:1;fill-rule:nonzero;stroke:none;stroke-width:10;marker:none;visibility:visible;display:inline;overflow:visible;enable-background:accumulate" />
      <path
         inkscape:connector-curvature="0"
         id="path11676"
         d="m 439.91109,828.42605 c -0.58807,-0.24607 -2.18592,1.14742 -1.2866,-0.0629 0.2866,-0.18069 1.29714,-0.55306 1.2866,0.0629 z"
         style="color:#000000;fill:#000000;fill-opacity:1;fill-rule:nonzero;stroke:none;stroke-width:10;marker:none;visibility:visible;display:inline;overflow:visible;enable-background:accumulate" />
      <path
         inkscape:connector-curvature="0"
         id="path11678"
         d="m 438.49791,825.72586 c -0.76292,-1.15927 -1.7495,1.30862 -0.2613,0.76243 2.08228,0.1367 -2.10908,0.96654 -1.09496,-0.69099 0.0402,-1.09823 2.19493,-0.70509 1.35626,-0.0714 z"
         style="color:#000000;fill:#000000;fill-opacity:1;fill-rule:nonzero;stroke:none;stroke-width:10;marker:none;visibility:visible;display:inline;overflow:visible;enable-background:accumulate" />
      <path
         inkscape:connector-curvature="0"
         id="path11680"
         d="m 438.05786,826.35461 c -0.89249,-1.05457 1.51264,-0.78479 0.49681,0.0956 -0.78578,0.25648 -0.66423,-0.41663 -0.007,-0.30938 -0.21943,-0.74592 -0.46653,-0.11879 -0.48993,0.21373 z"
         style="color:#000000;fill:#000000;fill-opacity:1;fill-rule:nonzero;stroke:none;stroke-width:10;marker:none;visibility:visible;display:inline;overflow:visible;enable-background:accumulate" />
      <path
         inkscape:connector-curvature="0"
         id="path11682"
         d="m 440.25528,825.84507 c -0.44799,-1.11126 1.50164,0.47425 0.53442,1.05168 -0.63801,0.6698 -1.11164,-0.027 -0.40626,-0.30612 -0.35674,-1.08039 0.60946,0.59268 -0.19425,0.1716 0.10674,-1.05858 0.76519,-0.0584 0.0414,-0.0851 -0.51661,-0.20051 0.18148,-1.32391 0.50469,-0.28479 0.41012,1.16972 -1.78304,0.61807 -0.38195,0.37152 0.51861,-0.33008 -0.14384,-1.65792 -0.0976,-0.91828 l -3.5e-4,-5.5e-4 z"
         style="color:#000000;fill:#000000;fill-opacity:1;fill-rule:nonzero;stroke:none;stroke-width:10;marker:none;visibility:visible;display:inline;overflow:visible;enable-background:accumulate" />
      <path
         inkscape:connector-curvature="0"
         id="path11684"
         d="m 425.7132,822.12245 c 1.25527,0.0798 1.97231,2.31424 1.0337,2.84159 0.0544,-0.96974 -0.0408,-2.21525 -1.14074,-2.57738 l 0.10698,-0.26422 6e-5,10e-6 z"
         style="color:#000000;fill:#000000;fill-opacity:1;fill-rule:nonzero;stroke:none;stroke-width:10;marker:none;visibility:visible;display:inline;overflow:visible;enable-background:accumulate" />
      <path
         inkscape:connector-curvature="0"
         id="path11700"
         d="m 426.58637,831.49623 c -1.30904,1.83285 -2.61374,3.73056 -3.20641,5.93611 -0.66597,1.22455 -0.32188,-1.16483 -0.004,-1.65905 0.61595,-1.69568 1.68315,-3.2246 3.04024,-4.40929 l 0.17037,0.13224 0,-10e-6 z"
         style="color:#000000;fill:#000000;fill-opacity:1;fill-rule:nonzero;stroke:none;stroke-width:10;marker:none;visibility:visible;display:inline;overflow:visible;enable-background:accumulate" />
      <path
         inkscape:connector-curvature="0"
         id="path11702"
         d="m 422.9496,838.14896 c 0.227,-0.2623 2.01552,0.89583 2.79195,1.16789 0.67722,0.0994 1.7209,1.30062 0.47045,0.81158 -1.1553,-0.64276 -2.85333,-0.98693 -3.47682,-2.16688 0.10815,-0.12494 0.48698,-0.0257 0.21442,0.18741 z"
         style="color:#000000;fill:#000000;fill-opacity:1;fill-rule:nonzero;stroke:none;stroke-width:10;marker:none;visibility:visible;display:inline;overflow:visible;enable-background:accumulate" />
      <path
         inkscape:connector-curvature="0"
         id="path11704"
         d="m 439.6484,838.57906 c -0.13561,-1.89315 -1.57953,-3.24723 -2.59437,-4.7167 0.60448,-0.50567 1.64336,1.37358 2.15068,1.98369 0.3592,0.69128 1.2136,2.28742 0.44369,2.73301 z"
         style="color:#000000;fill:#000000;fill-opacity:1;fill-rule:nonzero;stroke:none;stroke-width:10;marker:none;visibility:visible;display:inline;overflow:visible;enable-background:accumulate" />
      <path
         inkscape:connector-curvature="0"
         id="path11706"
         d="m 436.81688,833.68977 c -0.32131,-0.81328 -0.71108,-2.32051 -0.1044,-2.88631 0.23277,0.85241 0.42141,2.22791 0.1044,2.88631 z"
         style="color:#000000;fill:#000000;fill-opacity:1;fill-rule:nonzero;stroke:none;stroke-width:10;marker:none;visibility:visible;display:inline;overflow:visible;enable-background:accumulate" />
      <path
         inkscape:connector-curvature="0"
         id="path11708"
         d="m 436.89884,831.14749 c 1.93888,0.41725 3.51212,2.07662 3.72947,4.06535 0.0958,0.71266 0.30247,2.69766 -0.47671,2.51027 0.17472,-1.97707 -0.15339,-4.35752 -1.9897,-5.50369 -0.25737,-0.36318 -1.58282,-0.61991 -1.26306,-1.07193 z"
         style="color:#000000;fill:#000000;fill-opacity:1;fill-rule:nonzero;stroke:none;stroke-width:10;marker:none;visibility:visible;display:inline;overflow:visible;enable-background:accumulate" />
      <path
         inkscape:connector-curvature="0"
         id="path11710"
         d="m 423.68444,837.45257 c 1.07957,0.28063 -0.58056,0.72777 0,0 z"
         style="color:#000000;fill:#000000;fill-opacity:1;fill-rule:nonzero;stroke:none;stroke-width:10;marker:none;visibility:visible;display:inline;overflow:visible;enable-background:accumulate" />
      <path
         inkscape:connector-curvature="0"
         id="path11712"
         d="m 424.70573,837.9224 c 1.05446,0.0247 -0.47477,0.82158 0,0 z"
         style="color:#000000;fill:#000000;fill-opacity:1;fill-rule:nonzero;stroke:none;stroke-width:10;marker:none;visibility:visible;display:inline;overflow:visible;enable-background:accumulate" />
      <path
         inkscape:connector-curvature="0"
         id="path11714"
         d="m 437.78599,838.06424 c 1.13019,-0.67559 0.35766,0.84913 0,0 z"
         style="color:#000000;fill:#000000;fill-opacity:1;fill-rule:nonzero;stroke:none;stroke-width:10;marker:none;visibility:visible;display:inline;overflow:visible;enable-background:accumulate" />
      <path
         inkscape:connector-curvature="0"
         id="path11716"
         d="m 438.33651,837.82361 c 0.49778,-0.4722 0.44364,0.68975 0,0 z"
         style="color:#000000;fill:#000000;fill-opacity:1;fill-rule:nonzero;stroke:none;stroke-width:10;marker:none;visibility:visible;display:inline;overflow:visible;enable-background:accumulate" />
      <path
         inkscape:connector-curvature="0"
         id="path11718"
         d="m 438.27946,837.10592 c -0.43541,-0.87081 0.85823,-0.0271 7e-5,-7e-5 l -7e-5,7e-5 z"
         style="color:#000000;fill:#000000;fill-opacity:1;fill-rule:nonzero;stroke:none;stroke-width:10;marker:none;visibility:visible;display:inline;overflow:visible;enable-background:accumulate" />
      <path
         inkscape:connector-curvature="0"
         id="path11720"
         d="m 437.83507,836.13212 c -0.34384,-0.55871 0.74474,-0.12494 0,0 z"
         style="color:#000000;fill:#000000;fill-opacity:1;fill-rule:nonzero;stroke:none;stroke-width:10;marker:none;visibility:visible;display:inline;overflow:visible;enable-background:accumulate" />
      <path
         inkscape:connector-curvature="0"
         id="path11722"
         d="m 437.06068,835.26109 c -0.29805,-0.41684 0.74382,-0.19492 0,0 z"
         style="color:#000000;fill:#000000;fill-opacity:1;fill-rule:nonzero;stroke:none;stroke-width:10;marker:none;visibility:visible;display:inline;overflow:visible;enable-background:accumulate" />
      <path
         inkscape:connector-curvature="0"
         id="path11724"
         d="m 436.269,833.54867 c -0.0353,-0.66353 0.74176,0.21576 0,0 z"
         style="color:#000000;fill:#000000;fill-opacity:1;fill-rule:nonzero;stroke:none;stroke-width:10;marker:none;visibility:visible;display:inline;overflow:visible;enable-background:accumulate" />
      <path
         inkscape:connector-curvature="0"
         id="path11726"
         d="m 436.18633,832.05537 c -0.12233,-0.85989 0.93634,0.17874 0,0 z"
         style="color:#000000;fill:#000000;fill-opacity:1;fill-rule:nonzero;stroke:none;stroke-width:10;marker:none;visibility:visible;display:inline;overflow:visible;enable-background:accumulate" />
      <path
         inkscape:connector-curvature="0"
         id="path11728"
         d="m 436.31076,831.22874 c -0.75225,0.15296 -1.346,-0.74852 -0.28262,-0.44686 0.29773,0.0897 0.59849,0.0932 0.28262,0.44686 z"
         style="color:#000000;fill:#000000;fill-opacity:1;fill-rule:nonzero;stroke:none;stroke-width:10;marker:none;visibility:visible;display:inline;overflow:visible;enable-background:accumulate" />
      <path
         inkscape:connector-curvature="0"
         id="path11730"
         d="m 436.84185,832.11296 c 0.80023,-0.23908 0.8354,0.90094 0.23286,0.38225 0.56467,-1.12981 1.16658,1.14086 0.37029,0.0214 0.10974,-0.28996 -0.93727,0.33363 -0.60326,-0.40403 l 1.1e-4,3.4e-4 z"
         style="color:#000000;fill:#000000;fill-opacity:1;fill-rule:nonzero;stroke:none;stroke-width:10;marker:none;visibility:visible;display:inline;overflow:visible;enable-background:accumulate" />
      <path
         inkscape:connector-curvature="0"
         id="path11732"
         d="m 438.07581,832.89855 c 0.3724,-1.11437 1.33907,0.54158 0.25264,0.27123 0.0107,-0.19942 0.75086,-0.52993 -0.25264,-0.27123 z"
         style="color:#000000;fill:#000000;fill-opacity:1;fill-rule:nonzero;stroke:none;stroke-width:10;marker:none;visibility:visible;display:inline;overflow:visible;enable-background:accumulate" />
      <path
         inkscape:connector-curvature="0"
         id="path11734"
         d="m 439.33121,832.99136 c 0.41966,-1.46335 1.74156,-1.03512 1.87017,0.26222 0.93585,2.14735 -2.91924,1.01651 -1.58316,-0.28975 -0.11866,0.74725 1.09629,1.72822 1.29404,0.87356 -0.29954,-0.81711 -0.46475,-2.42281 -1.21069,-0.93236 l -0.1987,0.18099 -0.17201,-0.0946 3.5e-4,-6e-5 z"
         style="color:#000000;fill:#000000;fill-opacity:1;fill-rule:nonzero;stroke:none;stroke-width:10;marker:none;visibility:visible;display:inline;overflow:visible;enable-background:accumulate" />
      <path
         inkscape:connector-curvature="0"
         id="path11736"
         d="m 439.76694,832.29382 c -1.19936,0.19732 0.27291,-1.4286 -0.0461,-0.22888 -0.87436,0.38066 -0.6245,-0.39759 -0.1175,-0.22591 -0.0721,0.0955 -0.0301,0.31403 0.16361,0.45479 z"
         style="color:#000000;fill:#000000;fill-opacity:1;fill-rule:nonzero;stroke:none;stroke-width:10;marker:none;visibility:visible;display:inline;overflow:visible;enable-background:accumulate" />
      <path
         inkscape:connector-curvature="0"
         id="path11738"
         d="m 438.57362,831.46892 c -0.90068,0.47162 -0.66588,-1.24845 -0.49958,-0.41176 -0.95785,0.0511 0.25936,-0.70915 0.19987,0.0844 0.12332,0.0548 0.37765,-0.0527 0.29971,0.3274 z"
         style="color:#000000;fill:#000000;fill-opacity:1;fill-rule:nonzero;stroke:none;stroke-width:10;marker:none;visibility:visible;display:inline;overflow:visible;enable-background:accumulate" />
      <path
         inkscape:connector-curvature="0"
         id="path11740"
         d="m 426.96154,830.46966 c 0.54869,-0.0426 2.87578,0.0165 1.9499,0.56094 -0.5018,-0.14012 -2.14532,0.1033 -1.9499,-0.56094 z"
         style="color:#000000;fill:#000000;fill-opacity:1;fill-rule:nonzero;stroke:none;stroke-width:10;marker:none;visibility:visible;display:inline;overflow:visible;enable-background:accumulate" />
      <path
         inkscape:connector-curvature="0"
         id="path11742"
         d="m 431.64425,830.8244 c 1.10697,0.002 2.55757,-0.4263 3.44764,-0.003 -0.87744,0.39147 -3.03617,0.67314 -3.44764,0.003 z"
         style="color:#000000;fill:#000000;fill-opacity:1;fill-rule:nonzero;stroke:none;stroke-width:10;marker:none;visibility:visible;display:inline;overflow:visible;enable-background:accumulate" />
      <path
         inkscape:connector-curvature="0"
         id="path11744"
         d="m 439.58809,837.9323 c 1.56829,-0.63057 0.99798,1.76694 0.78833,2.52432 -1.50029,0.52277 -0.74172,-3.15371 -0.44154,-1.36522 -0.45141,0.80027 0.7056,1.63667 0.23701,0.56481 -0.20451,-0.60209 0.64049,-1.93024 -0.47031,-1.46571 l -0.11325,-0.25811 -2.4e-4,-9e-5 z"
         style="color:#000000;fill:#000000;fill-opacity:1;fill-rule:nonzero;stroke:none;stroke-width:10;marker:none;visibility:visible;display:inline;overflow:visible;enable-background:accumulate" />
      <path
         inkscape:connector-curvature="0"
         id="path11746"
         d="m 425.86412,832.66006 c 1.84356,0.35348 0.31452,3.29395 -0.64334,2.39544 0.96955,-0.18754 1.72876,-1.63828 0.54604,-2.21176 l 0.0978,-0.1837 -5e-4,2e-5 z"
         style="color:#000000;fill:#000000;fill-opacity:1;fill-rule:nonzero;stroke:none;stroke-width:10;marker:none;visibility:visible;display:inline;overflow:visible;enable-background:accumulate" />
      <path
         inkscape:connector-curvature="0"
         id="path11748"
         d="m 425.20849,833.79481 c 0.0276,-1.44002 1.3556,0.5501 -0.037,0.11659 -0.21757,-1.01686 1.43971,-0.34868 0.36018,0.0785 -1.19052,-0.20934 0.67866,-0.41648 -0.12359,-0.30962 0.40458,-0.20683 0.159,-0.30385 -0.19961,0.11449 z"
         style="color:#000000;fill:#000000;fill-opacity:1;fill-rule:nonzero;stroke:none;stroke-width:10;marker:none;visibility:visible;display:inline;overflow:visible;enable-background:accumulate" />
      <path
         inkscape:connector-curvature="0"
         id="path11750"
         d="m 425.44844,834.44437 c -2.4e-4,0.83362 -1.56001,2.55709 -0.8466,0.92483 0.25953,-0.27028 0.35884,-1.12203 0.8466,-0.92483 z"
         style="color:#000000;fill:#000000;fill-opacity:1;fill-rule:nonzero;stroke:none;stroke-width:10;marker:none;visibility:visible;display:inline;overflow:visible;enable-background:accumulate" />
      <path
         inkscape:connector-curvature="0"
         id="path11752"
         d="m 424.69365,834.69327 c -0.0101,0.79161 -1.02925,0.95105 -0.40246,0.0556 l 0.11237,-0.15877 0.29007,0.10314 2e-5,2e-5 z"
         style="color:#000000;fill:#000000;fill-opacity:1;fill-rule:nonzero;stroke:none;stroke-width:10;marker:none;visibility:visible;display:inline;overflow:visible;enable-background:accumulate" />
      <path
         inkscape:connector-curvature="0"
         id="path11754"
         d="m 436.55272,825.53448 c -0.14213,1.25194 -2.05882,0.75628 -1.84457,2.30068 0.18827,0.64582 -2.39228,0.99424 -0.85883,0.13059 0.92289,-0.38366 0.49776,0.40602 0.6711,-0.64176 0.15293,-1.16745 1.52948,-1.03055 2.0323,-1.78951 z"
         style="color:#000000;fill:#000000;fill-opacity:1;fill-rule:nonzero;stroke:none;stroke-width:10;marker:none;visibility:visible;display:inline;overflow:visible;enable-background:accumulate" />
      <path
         inkscape:connector-curvature="0"
         id="path11756"
         d="m 433.20491,828.21931 c 0.30847,-0.84512 -2.16384,-1.83352 -0.58031,-1.57595 0.39513,0.11503 1.40484,1.64881 0.58031,1.57595 z"
         style="color:#000000;fill:#000000;fill-opacity:1;fill-rule:nonzero;stroke:none;stroke-width:10;marker:none;visibility:visible;display:inline;overflow:visible;enable-background:accumulate" />
      <path
         inkscape:connector-curvature="0"
         id="path11758"
         d="m 425.70562,828.09135 c 0.55537,0.65107 2.35176,0.39019 2.25634,1.03128 -0.69338,0.22448 -2.58411,-0.30203 -2.25634,-1.03128 z"
         style="color:#000000;fill:#000000;fill-opacity:1;fill-rule:nonzero;stroke:none;stroke-width:10;marker:none;visibility:visible;display:inline;overflow:visible;enable-background:accumulate" />
      <path
         inkscape:connector-curvature="0"
         id="path11760"
         d="m 428.01153,828.70128 c 0.81434,-0.0974 1.85081,-0.31458 1.69195,0.0734 -0.31858,0.16365 -2.05483,0.64534 -1.69195,-0.0734 z"
         style="color:#000000;fill:#000000;fill-opacity:1;fill-rule:nonzero;stroke:none;stroke-width:10;marker:none;visibility:visible;display:inline;overflow:visible;enable-background:accumulate" />
      <path
         inkscape:connector-curvature="0"
         id="path11762"
         d="m 428.94829,828.74003 c 0.19116,0.0377 -0.003,0.40881 0,0 z"
         style="color:#000000;fill:#000000;fill-opacity:1;fill-rule:nonzero;stroke:none;stroke-width:10;marker:none;visibility:visible;display:inline;overflow:visible;enable-background:accumulate" />
      <path
         inkscape:connector-curvature="0"
         id="path11764"
         d="m 429.36354,828.6643 c 0.0697,-0.5902 1.69167,-1.95957 0.97019,-0.6836 -0.27309,0.19731 -0.57361,1.25362 -0.97019,0.6836 z"
         style="color:#000000;fill:#000000;fill-opacity:1;fill-rule:nonzero;stroke:none;stroke-width:10;marker:none;visibility:visible;display:inline;overflow:visible;enable-background:accumulate" />
      <path
         inkscape:connector-curvature="0"
         id="path11766"
         d="m 429.80995,827.97707 c -0.27619,-1.06858 1.89982,-2.21574 2.00035,-1.15498 -1.20538,-0.38814 -1.27806,1.11234 -2.00035,1.15498 z"
         style="color:#000000;fill:#000000;fill-opacity:1;fill-rule:nonzero;stroke:none;stroke-width:10;marker:none;visibility:visible;display:inline;overflow:visible;enable-background:accumulate" />
      <path
         inkscape:connector-curvature="0"
         id="path11768"
         d="m 439.80042,833.08564 c -0.30281,-1.00566 1.22714,-0.64711 0.47737,-0.14554 -0.92622,-0.0543 0.34305,-0.63103 -0.0219,0.0269 -0.0553,0.19073 -0.32644,0.0927 -0.45547,0.11867 z"
         style="color:#000000;fill:#ffffff;fill-opacity:1;fill-rule:nonzero;stroke:none;stroke-width:10;marker:none;visibility:visible;display:inline;overflow:visible;enable-background:accumulate" />
      <path
         inkscape:connector-curvature="0"
         id="path11770"
         d="m 439.30164,834.61655 c -0.22635,-0.93643 -0.95036,-0.98185 -0.48223,0.042 0.22781,0.63715 1.56277,1.15362 0.31938,0.83911 -0.93933,-0.30018 -0.7808,-2.73121 0.13854,-1.37246 -0.006,0.13045 0.36367,0.48567 0.0243,0.49132 z"
         style="color:#000000;fill:#ffffff;fill-opacity:1;fill-rule:nonzero;stroke:none;stroke-width:10;marker:none;visibility:visible;display:inline;overflow:visible;enable-background:accumulate" />
      <path
         inkscape:connector-curvature="0"
         id="path11772"
         d="m 439.18686,835.05862 c 0.74604,-1.24054 1.18334,1.39757 0.62118,0.21293 0.0294,-0.7929 -0.35001,0.20719 -0.62118,-0.21293 z"
         style="color:#000000;fill:#ffffff;fill-opacity:1;fill-rule:nonzero;stroke:none;stroke-width:10;marker:none;visibility:visible;display:inline;overflow:visible;enable-background:accumulate" />
      <path
         inkscape:connector-curvature="0"
         id="path11774"
         d="m 427.13579,840.22714 c 2.83208,0.79292 5.93813,1.16374 8.75152,0.0813 1.31531,-0.42351 2.48736,-1.17772 3.58896,-1.98376 0.76292,0.64895 -1.26155,1.61811 -1.88577,2.01587 -3.09123,1.66575 -6.93646,1.80687 -10.16969,0.47501 -0.26207,-0.17559 -0.74198,-0.23361 -0.28502,-0.5884 z"
         style="color:#000000;fill:#000000;fill-opacity:1;fill-rule:nonzero;stroke:none;stroke-width:10;marker:none;visibility:visible;display:inline;overflow:visible;enable-background:accumulate" />
      <path
         inkscape:connector-curvature="0"
         id="path11776"
         d="m 425.77268,838.58017 c 1.54199,0.20644 -0.68806,0.86349 0,0 z"
         style="color:#000000;fill:#000000;fill-opacity:1;fill-rule:nonzero;stroke:none;stroke-width:10;marker:none;visibility:visible;display:inline;overflow:visible;enable-background:accumulate" />
      <path
         inkscape:connector-curvature="0"
         id="path11778"
         d="m 427.16014,839.07565 c 2.06757,0.52711 -0.96746,0.93199 0,0 z"
         style="color:#000000;fill:#000000;fill-opacity:1;fill-rule:nonzero;stroke:none;stroke-width:10;marker:none;visibility:visible;display:inline;overflow:visible;enable-background:accumulate" />
      <path
         inkscape:connector-curvature="0"
         id="path11780"
         d="m 428.91466,839.80246 c 1.3882,-0.43763 0.24804,1.06488 -0.072,0.19309 l 0.072,-0.19311 -1e-5,2e-5 z"
         style="color:#000000;fill:#000000;fill-opacity:1;fill-rule:nonzero;stroke:none;stroke-width:10;marker:none;visibility:visible;display:inline;overflow:visible;enable-background:accumulate" />
      <path
         inkscape:connector-curvature="0"
         id="path11782"
         d="m 436.54516,839.37723 c 1.22405,-0.89724 0.49731,0.89892 0,0 z"
         style="color:#000000;fill:#000000;fill-opacity:1;fill-rule:nonzero;stroke:none;stroke-width:10;marker:none;visibility:visible;display:inline;overflow:visible;enable-background:accumulate" />
      <path
         inkscape:connector-curvature="0"
         id="path11688"
         d="m 434.78463,833.38512 c -0.76425,1.17052 -2.2402,1.10132 -3.31088,2.03469 -1.08266,0.82349 -1.88023,1.46201 -0.90359,2.76096 0.90757,0.8221 1.96934,1.82497 3.30145,1.65294 1.49664,0.0837 2.98409,-0.75679 3.63134,-2.11057 0.51048,-1.27184 -0.33287,-2.60179 -1.38031,-3.30335 -0.43538,-0.32844 -0.75245,-0.9665 -1.33801,-1.03467 z"
         style="color:#000000;fill:#ffe6d5;fill-opacity:1;fill-rule:nonzero;stroke:none;stroke-width:10;marker:none;visibility:visible;display:inline;overflow:visible;enable-background:accumulate" />
      <path
         inkscape:connector-curvature="0"
         id="path11690"
         d="m 431.94088,830.47887 c -1.30821,0.0797 -2.57117,0.91858 -3.22895,2.02458 0.0206,1.45054 -0.45213,3.39806 0.84685,4.44785 1.39868,0.43367 2.58508,-0.939 3.6674,-1.66125 0.99332,-0.77032 2.21582,-1.88429 1.7647,-3.29274 -0.60223,-1.04951 -1.89514,-1.50873 -3.05,-1.51844 z"
         style="color:#000000;fill:#800000;fill-opacity:1;fill-rule:nonzero;stroke:none;stroke-width:10;marker:none;visibility:visible;display:inline;overflow:visible;enable-background:accumulate" />
      <path
         inkscape:connector-curvature="0"
         id="path11692"
         d="m 428.8044,833.40239 c -0.0181,1.37726 0.53535,2.67412 0.89241,3.96935 -0.96821,-0.41482 -1.06328,-2.09151 -1.20197,-3.12578 0.0521,-0.22025 -0.11713,-1.01842 0.30956,-0.84357 z"
         style="color:#000000;fill:#000000;fill-opacity:1;fill-rule:nonzero;stroke:none;stroke-width:10;marker:none;visibility:visible;display:inline;overflow:visible;enable-background:accumulate" />
      <path
         inkscape:connector-curvature="0"
         id="path11694"
         d="m 430.05912,836.88227 c 1.83305,-1.05523 3.68501,-2.32862 4.73051,-4.21787 0.5069,0.93568 -1.18986,2.41905 -2.07364,3.10838 -0.69339,0.40591 -2.04006,1.56065 -2.65687,1.10949 z"
         style="color:#000000;fill:#000000;fill-opacity:1;fill-rule:nonzero;stroke:none;stroke-width:10;marker:none;visibility:visible;display:inline;overflow:visible;enable-background:accumulate" />
      <path
         inkscape:connector-curvature="0"
         id="path11696"
         d="m 428.33807,833.39476 c 0.16986,-1.3636 1.57759,-2.34003 2.7662,-2.85571 1.5728,-0.48213 3.30492,0.44708 4.20586,1.72079 -0.67822,0.36307 -1.66117,-1.41311 -2.70783,-1.31757 -1.64638,-0.41037 -3.0177,1.00885 -3.96269,2.16733 l -0.12392,0.2383 -0.17768,0.0471 6e-5,-2.4e-4 z"
         style="color:#000000;fill:#000000;fill-opacity:1;fill-rule:nonzero;stroke:none;stroke-width:10;marker:none;visibility:visible;display:inline;overflow:visible;enable-background:accumulate" />
      <path
         inkscape:connector-curvature="0"
         id="path11698"
         d="m 430.6611,837.54099 c 0.78428,1.04721 1.77494,2.28185 3.25297,2.17397 1.59505,0.0134 3.44637,-1.25758 3.11525,-3.01955 -0.2699,-1.28647 -1.46961,-2.02583 -2.1925,-3.01951 1.06324,-0.0972 2.13905,1.50099 2.58085,2.52319 0.654,1.77843 -0.854,3.6265 -2.60466,3.9062 -1.80023,0.52374 -3.74591,-0.66302 -4.26882,-2.43105 l 0.11687,-0.13316 4e-5,-9e-5 z"
         style="color:#000000;fill:#000000;fill-opacity:1;fill-rule:nonzero;stroke:none;stroke-width:10;marker:none;visibility:visible;display:inline;overflow:visible;enable-background:accumulate" />
    </g>
  </g>
</svg>
