<?xml version="1.0" encoding="UTF-8" standalone="no"?>
<!-- Created with Inkscape (http://www.inkscape.org/) -->

<svg
   xmlns:dc="http://purl.org/dc/elements/1.1/"
   xmlns:cc="http://creativecommons.org/ns#"
   xmlns:rdf="http://www.w3.org/1999/02/22-rdf-syntax-ns#"
   xmlns:svg="http://www.w3.org/2000/svg"
   xmlns="http://www.w3.org/2000/svg"
   xmlns:sodipodi="http://sodipodi.sourceforge.net/DTD/sodipodi-0.dtd"
   xmlns:inkscape="http://www.inkscape.org/namespaces/inkscape"
   width="29.494329"
   height="32.218975"
   id="svg11630"
   version="1.1"
   inkscape:version="0.48.2 r9819"
   sodipodi:docname="walk_down3.svg">
  <defs
     id="defs11632" />
  <sodipodi:namedview
     id="base"
     pagecolor="#ffffff"
     bordercolor="#666666"
     borderopacity="1.0"
     inkscape:pageopacity="0.0"
     inkscape:pageshadow="2"
     inkscape:zoom="0.35"
     inkscape:cx="-215.45534"
     inkscape:cy="286.50403"
     inkscape:document-units="px"
     inkscape:current-layer="layer1"
     showgrid="false"
     fit-margin-top="0"
     fit-margin-left="0"
     fit-margin-right="0"
     fit-margin-bottom="0"
     inkscape:window-width="511"
     inkscape:window-height="434"
     inkscape:window-x="1"
     inkscape:window-y="55"
     inkscape:window-maximized="0" />
  <g
     inkscape:label="Layer 1"
     inkscape:groupmode="layer"
     id="layer1"
     transform="translate(-590.45534,-786.64723)">
    <g
       transform="translate(173.03127,136.86402)"
       id="g9636">
      <path
         inkscape:connector-curvature="0"
         id="path9796"
         d="m 434.77536,650.20151 c 1.32339,0.17529 2.74686,-0.0319 3.98902,0.50724 1.25665,1.071 0.98206,2.9238 1.60386,4.34182 0.17881,1.68786 0.5299,3.81623 -1.08719,4.97334 -0.31348,0.45704 -2.61889,0.8935 -0.95608,0.94906 1.75318,0.57702 3.62977,0.74293 5.36293,1.39777 0.71178,0.68836 2.53485,-0.0108 1.73704,1.40607 0.29345,0.70004 0.88916,0.67767 0.72524,1.53507 1.69649,0.52677 0.20801,2.15136 -0.87174,2.39369 -1.69996,0.3038 -3.56002,-0.16889 -4.74581,-1.47599 -0.57745,-1.34694 -2.5635,-1.44137 -3.82744,-1.99603 -1.6909,-0.2267 -3.52514,-0.54136 -5.08114,0.33951 -1.75086,0.18967 -3.45585,0.48499 -5.19245,0.81103 -1.77922,0.211 -3.61616,-0.52212 -5.21463,0.46645 -1.54095,0.37029 -4.27568,-0.3276 -3.71941,-2.40655 0.35946,-1.60112 2.12724,-2.1018 3.48678,-2.57452 1.714,-0.36642 3.49673,0.007 5.2329,-0.2174 1.29105,0.0161 2.71982,-1.06694 1.30288,-2.13916 -1.21021,-1.78487 -0.88951,-4.19872 -0.0228,-6.05651 1.27328,-1.81032 3.69678,-2.12268 5.7466,-2.25292 0.51031,-0.008 1.02137,-0.0126 1.53141,-0.002 z m -2.20457,5.97715 c -0.0858,0.0845 0.15754,-0.01 0,0 z m 0.20772,0.0737 0.0635,0.003 -0.0635,-0.003 z m -0.41545,1.08554 c -0.10894,0.0737 0.15096,-0.003 0,0 z m -1.80253,3.82618 c -0.27702,0.25184 0.45281,0.24669 0,0 z m -4.7911,1.34017 c 0.3656,0.0136 0.71048,-0.007 0,0 z"
         style="color:#000000;fill:#ffe6d5;fill-opacity:1;fill-rule:nonzero;stroke:none;stroke-width:10;marker:none;visibility:visible;display:inline;overflow:visible;enable-background:accumulate" />
      <path
         inkscape:connector-curvature="0"
         id="path9798"
         d="m 440.60092,656.66795 c 0.31604,-0.95686 -0.78724,-1.71836 -0.49578,-0.31485 -0.0231,1.50809 0.96438,0.0262 0.41653,-0.70128 -0.67207,-1.55579 -0.81132,2.67988 0.0513,0.93636 0.55523,-1.00113 -1.3163,-2.28 -0.60838,-0.89877 1.57846,1.28768 -0.14481,-2.22622 -0.89469,-1.52186 0.0258,0.54579 1.09673,0.92303 1.39327,1.53541 1.2283,-0.54741 -2.02731,-3.28046 -0.89653,-1.4029 0.25585,0.89341 1.56058,1.03491 0.80394,0.005 -0.0627,-0.87408 -1.65601,-1.34175 -0.67979,-0.27885 1.08884,1.29487 0.87731,-0.80942 -0.19947,-0.84449 -2.36393,-1.02397 -4.99816,-0.97016 -7.51779,-0.81086 -1.41852,0.11738 -2.90513,0.12177 -4.16769,0.83204 -1.13268,0.63219 -0.8406,2.12269 -0.98859,3.2276 0.98135,0.15702 0.12579,-1.67365 0.22172,-2.04015 -1.05901,-0.53618 -0.73806,2.5788 -0.0136,1.31631 -0.2669,-0.94224 1.69054,-3.0427 0.33662,-2.92469 -0.45605,0.65375 -0.73625,2.11807 0.0357,1.56931 0.48559,-0.59954 0.81298,-1.98478 0.0607,-1.24793 -0.3357,0.52083 -0.87575,2.29922 0.22772,1.37457 0.47569,-0.61869 0.86454,-1.38236 0.0831,-1.07173 -1.48598,1.25611 1.68819,0.59001 0.95813,-0.37564 -0.85186,-0.12131 -2.16233,1.46917 -1.22504,1.55821 0.35239,-0.65109 0.49424,-2.60663 -0.50279,-1.41659 -0.002,0.88875 1.21507,-0.42101 1.27959,-0.33928 0.62448,0.34624 3.16018,0.10705 1.67506,-0.48141 -0.90276,0.14006 -2.31947,-0.56555 -2.89523,0.73323 -0.37111,1.23488 1.42788,-0.0453 0.18102,-0.21469 -0.53228,0.6838 -0.36911,3.07882 0.58234,1.44634 0.0479,-0.69453 1.32202,-0.49515 0.53868,-1.03052 0.0976,-0.70336 -2.1868,1.43923 -0.59117,1.03642 1.09451,-0.44291 0.54957,-2.23867 -0.24145,-0.82701 -0.87052,0.72491 0.1295,1.61274 0.2914,0.3883 0.8739,-0.85608 -0.15632,-2.06343 -0.62641,-0.69952 -0.82537,0.60888 -0.18406,2.55505 0.33695,1.05613 0.55395,-0.60762 0.48461,-2.68624 -0.33436,-1.32822 -0.27328,0.91615 -1.57667,2.99068 -0.2289,3.27108 0.50934,-0.5892 -0.0532,-2.9905 -0.51912,-1.63466 -0.29709,0.72793 0.60243,3.18806 0.95898,1.59092 0.005,-1.1931 0.0718,-2.66014 1.45837,-2.8335 1.52099,-0.41563 3.1493,-0.35065 4.7198,-0.43086 1.79001,0.0764 3.64065,-0.0626 5.33128,0.64859 0.65346,0.23368 2.07082,1.24343 1.02595,0.0208 -1.6969,-0.63554 1.12001,2.63668 0.41837,0.88134 -0.23473,-0.96288 -1.782,-0.83439 -0.72747,0.0587 0.1625,0.85286 1.75788,1.38225 0.68701,0.27257 -0.47824,-1.02058 -2.23004,-0.6006 -0.80285,0.10944 0.25078,0.77525 1.60588,1.37327 0.64204,0.25861 -1.08406,-0.46029 0.17151,1.1781 -0.0891,1.56487 1.06703,0.67127 0.1338,-2.22226 -0.0476,-0.9861 -0.18333,1.10285 0.91495,1.63994 0.49954,0.25669 -0.43008,-1.22497 -0.66385,1.1217 0.0788,0.70793 z"
         style="color:#000000;fill:#d4aa00;fill-opacity:1;fill-rule:nonzero;stroke:none;stroke-width:10;marker:none;visibility:visible;display:inline;overflow:visible;enable-background:accumulate" />
      <path
         inkscape:connector-curvature="0"
         id="path9800"
         d="m 432.25337,652.85388 c -1.68927,-0.0457 -3.30029,0.57986 -4.88018,1.01865 -1.5823,1.29439 1.21813,1.39905 1.94306,0.75082 1.43188,-0.74675 3.04297,-0.20713 4.58788,-0.26876 1.67969,-0.0214 3.30924,0.4482 4.95421,0.69691 1.28907,1.44627 1.64897,-1.3341 -0.0585,-1.11509 -2.0552,-0.5264 -4.16332,-0.93486 -6.28088,-1.08078 l -0.26561,-0.002 0,7e-5 z"
         style="color:#000000;fill:#d4aa00;fill-opacity:1;fill-rule:nonzero;stroke:none;stroke-width:10;marker:none;visibility:visible;display:inline;overflow:visible;enable-background:accumulate" />
      <path
         inkscape:connector-curvature="0"
         id="path9802"
         d="m 432.84712,650.13513 c -1.80746,0.11929 -3.83351,0.25302 -5.25889,1.48205 -1.26211,1.65609 1.84206,1.76038 1.75033,2.92551 -0.11351,1.19546 2.10352,1.49468 3.11688,1.91017 1.73039,0.60301 3.64499,0.33915 5.20557,-0.53753 1.02923,-0.32203 0.91244,-1.46254 1.97388,-1.62846 0.43664,-0.50329 1.21997,-1.49793 0.29016,-2.21224 -0.55143,-0.49833 -0.89503,-1.42568 -1.9415,-1.29765 -1.58738,-0.77169 -3.43226,-0.50271 -5.13643,-0.64185 z"
         style="color:#000000;fill:#333333;fill-opacity:1;fill-rule:nonzero;stroke:none;stroke-width:10;marker:none;visibility:visible;display:inline;overflow:visible;enable-background:accumulate" />
      <path
         inkscape:connector-curvature="0"
         id="path9804"
         d="m 432.97284,675.20235 c 1.76661,0.2676 2.87089,1.79231 3.58221,3.29426 0.84912,0.37243 3.25384,-0.0813 2.26762,1.68447 -0.73758,1.21869 -2.57304,1.56441 -3.90915,1.12768 -1.50833,-0.61104 -1.81125,-2.01216 -0.20918,-2.55835 -0.26899,-1.32284 -1.78502,-2.48772 -3.12539,-1.81352 -0.006,0.99873 -0.3739,1.93086 -1.62153,1.65642 -1.28459,0.48775 -2.59015,-0.20291 -3.85588,-0.40327 -1.75247,-0.35063 0.62988,-1.27091 1.40543,-0.81513 1.89159,0.60221 2.41436,-1.69649 4.05905,-2.00905 0.46172,-0.0965 0.93299,-0.18392 1.40682,-0.16351 z m -7.78638,3.20971 -0.009,6.8e-4 0.009,-6.8e-4 z m 10.50692,1.15924 c -0.95378,0.52132 -1.04538,0.70367 0,0 z m -0.98503,0.73039 c -0.002,0.0976 0.096,-0.2319 0,0 z m -0.0603,0.30153 c 0.0101,0.14698 0.0145,-0.1251 0,0 z m 0.18762,0.44895 c 1.06753,0.57097 0.81566,0.32614 -0.0469,-0.0536 l 0.0258,0.0295 0.0211,0.0241 -3e-5,10e-6 z"
         style="color:#000000;fill:#008000;fill-opacity:1;fill-rule:nonzero;stroke:none;stroke-width:10;marker:none;visibility:visible;display:inline;overflow:visible;enable-background:accumulate" />
      <path
         inkscape:connector-curvature="0"
         id="path9806"
         d="m 426.78462,658.97888 c -2.03686,0.0674 -3.86949,1.09866 -5.83258,1.54163 -1.90936,0.34934 -1.33183,2.71223 0.39038,2.91733 0.75265,0.0789 2.05646,0.92047 0.63215,1.21416 -2.00035,0.24263 -1.22929,2.38883 -0.74341,3.60934 0.77995,1.1891 1.36239,2.70748 2.85337,3.1369 2.63781,1.03999 5.51985,1.26502 8.32509,1.48694 2.62503,-0.27004 5.36712,-0.17086 7.86353,-1.12046 1.11258,-0.72537 2.79332,-0.94056 3.28426,-2.33275 0.81748,-1.48896 -1.26159,-2.55454 -0.22461,-3.80484 0.43975,-1.28251 2.50254,-1.15123 2.56802,-2.57336 -0.24094,-1.43444 -1.94881,-1.02723 -2.9228,-1.56031 -1.30462,-0.67873 -2.80032,-1.03143 -4.24933,-0.61082 -1.52109,0.43535 -3.09793,0.6029 -4.6061,1.12371 -1.25417,0.0702 -2.31545,-0.85699 -3.60018,-0.94091 -1.09509,-0.8396 -2.36682,-1.45137 -3.62125,-2.04851 l -0.0832,-0.0271 -0.0333,-0.0109 c 0,0 0,-6e-5 0,-6e-5 z m 11.53125,10.1875 0.0313,0 -0.0313,0 z"
         style="color:#000000;fill:#800000;fill-opacity:1;fill-rule:nonzero;stroke:none;stroke-width:10;marker:none;visibility:visible;display:inline;overflow:visible;enable-background:accumulate" />
      <path
         inkscape:connector-curvature="0"
         id="path9808"
         d="m 434.11241,665.36586 c 0.91745,-0.97681 -1.24297,-1.66973 -0.7497,-0.88225 2.0205,0.14818 -1.33339,-1.60443 -1.2797,0.15125 -0.0359,1.20852 3.53,0.99318 1.37237,0.0376 -0.72403,-0.63001 -1.56957,0.10538 -0.4008,0.35801 1.6043,1.10404 0.68867,-1.22226 -0.29003,-0.81169 0.0985,0.95762 2.25169,0.78046 0.71475,0.009 -1.54389,-0.48665 0.49513,1.10618 0.34449,0.0403 -0.43156,-0.7729 -2.31695,0.0468 -1.09472,0.37032 0.26199,-0.91603 2.12289,0.5006 1.21111,-0.58409 -0.8136,-0.74543 -2.12219,1.14735 -1.09698,0.45285 0.3683,-0.63503 1.95599,0.58865 1.13965,-0.38094 -0.81816,-0.60829 -2.18163,0.525 -0.63866,0.31644 1.1648,-0.2339 -1.36067,-0.44567 -0.11142,0.12221 1.27285,0.71817 0.0968,-0.81446 -0.36813,-0.1051 0.41711,0.66415 1.5958,0.76151 0.4397,0.24248 -0.76011,-0.64117 -1.1406,0.23336 -0.10827,0.33546 0.69191,0.68063 1.19448,-0.16436 0.12503,0.0332 -1.53022,0.16183 -0.66172,-1.57619 0.273,-0.72422 1.13937,0.0639 -1.00976,-0.49952 -0.25783,0.12408 1.02645,-0.29441 0.0705,0.91083 0.77614,0.89489 z"
         style="color:#000000;fill:#cccccc;fill-opacity:1;fill-rule:nonzero;stroke:none;stroke-width:10;marker:none;visibility:visible;display:inline;overflow:visible;enable-background:accumulate" />
      <path
         inkscape:connector-curvature="0"
         id="path9810"
         d="m 441.84712,670.94763 c -2.97654,0.41284 -5.85755,1.40881 -8.84598,1.70768 -2.85359,-0.0681 -5.54751,-1.14242 -8.35195,-1.5246 -2.32901,-0.0803 -1.81354,2.62839 -0.65824,3.73913 0.8376,1.14017 1.75446,3.36636 3.44657,2.34614 1.46933,0.25774 2.93705,0.23915 4.23076,-0.53807 2.10426,0.0231 0.67628,4.06856 3.12722,3.12653 1.36301,0.0814 2.55518,0.18964 3.61237,-0.81505 1.51546,-1.03985 2.2206,-3.18043 3.49323,-4.59941 0.90281,-0.8794 2.6029,-2.53804 0.54255,-3.23541 -0.18771,-0.0957 -0.38572,-0.1795 -0.59653,-0.20694 z m -12.28125,4.75 0.28909,0.002 -0.28909,-0.002 z"
         style="color:#000000;fill:#214478;fill-opacity:1;fill-rule:nonzero;stroke:none;stroke-width:10;marker:none;visibility:visible;display:inline;overflow:visible;enable-background:accumulate" />
      <path
         inkscape:connector-curvature="0"
         id="path9812"
         d="m 439.54167,651.31842 c 0.46767,2.38714 1.61252,4.91741 0.69455,7.32897 -1.09799,1.98965 -3.67312,2.3423 -5.73624,2.33734 -2.3979,-0.14796 -5.03894,-0.51936 -6.86504,-2.22573 -1.01204,-1.32213 -1.27114,-3.24148 -0.70286,-4.79311 0.58061,-1.61182 1.9059,-2.65459 3.60517,-2.91252 2.36032,-0.62599 4.84229,-0.39421 7.19435,0.14063 0.83634,-0.24325 2.87597,1.7307 2.57295,0.12742 -1.40422,-1.22183 -3.45048,-1.05683 -5.16677,-1.492 -2.66318,-0.16296 -5.60162,0.0357 -7.77875,1.73887 -0.93025,1.29423 -1.90877,2.78205 -1.56243,4.46734 0.10391,1.93001 1.26097,3.74667 3.05452,4.5196 2.98734,1.35639 6.57211,1.73935 9.67958,0.55439 1.80299,-0.64448 3.01496,-2.48897 2.81809,-4.40685 -0.0484,-1.90338 -0.5926,-3.75862 -1.31755,-5.5073 l -0.25161,0.0355 -0.23835,0.0874 3.9e-4,3e-5 z"
         style="color:#000000;fill:#000000;fill-opacity:1;fill-rule:nonzero;stroke:none;stroke-width:10;marker:none;visibility:visible;display:inline;overflow:visible;enable-background:accumulate" />
      <path
         inkscape:connector-curvature="0"
         id="path9814"
         d="m 440.64122,653.1707 c -2.0955,1.4152 -4.78308,1.63702 -7.24736,1.51508 -2.36679,-0.24518 -4.67783,-1.17256 -6.44753,-2.77849 -1.27245,-0.015 0.43199,1.48711 0.95558,1.77671 3.55775,2.38844 8.44085,2.59849 12.23401,0.6491 0.30923,-0.26651 1.57487,-0.94066 0.5053,-1.1624 z"
         style="color:#000000;fill:#000000;fill-opacity:1;fill-rule:nonzero;stroke:none;stroke-width:10;marker:none;visibility:visible;display:inline;overflow:visible;enable-background:accumulate" />
      <path
         inkscape:connector-curvature="0"
         id="path9816"
         d="m 434.22212,650.91638 c -2.16086,-0.34902 -1.38652,2.65031 0.39456,1.8739 0.89561,-0.53622 1.79741,-1.82381 0.0678,-1.79448 -0.15473,-0.0207 -0.30672,-0.0707 -0.46234,-0.0794 z m -0.28125,0.65625 c 1.53126,-0.0421 -0.41118,1.2129 -0.4424,0.13768 l 0.18255,-0.0893 0.25985,-0.0485 0,1.4e-4 z"
         style="color:#000000;fill:#000000;fill-opacity:1;fill-rule:nonzero;stroke:none;stroke-width:10;marker:none;visibility:visible;display:inline;overflow:visible;enable-background:accumulate" />
      <path
         inkscape:connector-curvature="0"
         id="path9818"
         d="m 441.21227,661.75711 c 1.855,0.32757 3.49239,1.40249 4.75985,2.76562 0.7104,-0.95543 -1.11541,-1.94473 -1.86312,-2.50687 -0.6724,-0.34225 -3.27602,-1.63625 -2.89673,-0.25875 z"
         style="color:#000000;fill:#000000;fill-opacity:1;fill-rule:nonzero;stroke:none;stroke-width:10;marker:none;visibility:visible;display:inline;overflow:visible;enable-background:accumulate" />
      <path
         inkscape:connector-curvature="0"
         id="path9820"
         d="m 441.24385,664.81756 c 1.14486,1.13384 2.30098,2.63085 1.92819,4.34751 0.15271,1.70358 1.37097,-1.00065 0.7292,-1.70444 -0.26036,-0.94878 -1.59038,-3.46099 -2.65739,-2.64307 z"
         style="color:#000000;fill:#000000;fill-opacity:1;fill-rule:nonzero;stroke:none;stroke-width:10;marker:none;visibility:visible;display:inline;overflow:visible;enable-background:accumulate" />
      <path
         inkscape:connector-curvature="0"
         id="path9822"
         d="m 437.51719,672.24499 c -0.99491,-0.37994 -2.50575,-0.20908 -3.60743,-0.1091 -0.10678,1.16258 2.33252,0.48434 3.2583,0.49193 -0.282,-1.17427 -2.44675,-0.46101 -3.51225,-0.79565 -1.67349,0.0811 -3.34929,0.046 -5.02144,0.0422 -0.54598,0.664 0.95715,0.62724 1.73138,0.53563 1.97408,-0.37786 -0.68639,-1.17627 -1.52573,-0.7981 -0.262,0.22448 -1.26079,-0.2642 -0.71123,0.14539 -0.31405,-0.18006 -0.85745,0.0259 -0.32047,0.30044 0.89823,0.29437 2.06413,0.38578 3.05722,0.1852 0.0587,-1.03504 -1.76064,-0.35494 -2.50353,-0.36872 -0.0837,0.97627 1.60006,0.43648 2.47785,0.77224 2.12702,0.10789 4.28442,0.30442 6.3995,0.018 0.32459,-1.14558 -2.12758,-0.48499 -2.92379,-0.58656 -1.64821,0.29772 0.71886,0.9091 1.38594,0.65452 0.49151,-0.14731 2.0081,0.21695 1.81568,-0.48742 z"
         style="color:#000000;fill:#666666;fill-opacity:1;fill-rule:nonzero;stroke:none;stroke-width:10;marker:none;visibility:visible;display:inline;overflow:visible;enable-background:accumulate" />
      <path
         inkscape:connector-curvature="0"
         id="path9824"
         d="m 443.27478,669.7341 c -1.70525,1.94254 -4.32612,2.80464 -6.8648,2.68312 -3.81634,0.0866 -7.68793,-0.0749 -11.37907,-1.125 -1.80369,-0.0486 -3.11391,-1.62061 -3.41285,-3.30236 -0.50961,-0.69709 -0.18303,-3.13709 -1.35679,-2.33921 0.0295,1.41314 0.58071,2.78517 1.1201,4.07935 0.70282,1.32721 2.05361,2.21151 3.547,2.344 4.10909,1.36244 8.51025,1.23908 12.78168,1.0743 2.31556,-0.14481 4.76823,-1.10936 6.09625,-3.09311 l -0.24872,-0.18897 -0.2828,-0.13257 0,4.5e-4 z"
         style="color:#000000;fill:#000000;fill-opacity:1;fill-rule:nonzero;stroke:none;stroke-width:10;marker:none;visibility:visible;display:inline;overflow:visible;enable-background:accumulate" />
      <path
         inkscape:connector-curvature="0"
         id="path9826"
         d="m 426.47212,658.76013 c -1.41375,0.69703 -0.19005,2.34914 -1.41126,3.47607 -0.98937,1.64451 -2.84575,2.2265 -4.29418,3.32329 -0.66289,1.05109 -0.38913,2.4227 -0.3271,3.60722 -0.11389,1.81758 0.92908,3.26316 2.79561,3.38215 1.31678,0.12791 3.10129,1.05647 4.15434,0.0565 -0.1455,-1.48859 0.60381,-2.77461 1.29179,-4.04104 0.44632,-1.38901 1.65405,-2.46437 1.71825,-3.93892 0.17902,-1.55771 -0.38667,-3.18936 -1.58502,-4.216 -0.83102,-0.46316 -1.4274,-1.34911 -2.34243,-1.64923 z m 3.96875,6.5625 0.31187,0.052 -0.31187,-0.052 z m -6.90625,0.125 c 0.30375,0.39152 0.008,0.50337 0,0 z m -0.1875,1 c -0.3115,0.53697 -0.29147,0.27241 0,0 z"
         style="color:#000000;fill:#373e48;fill-opacity:1;fill-rule:nonzero;stroke:none;stroke-width:10;marker:none;visibility:visible;display:inline;overflow:visible;enable-background:accumulate" />
      <path
         inkscape:connector-curvature="0"
         id="path9828"
         d="m 438.90962,660.32263 c -0.45412,1.00828 -1.40218,1.08129 -2.3438,1.5001 -0.96771,0.9431 -0.54338,2.47396 -0.84476,3.68099 -0.42823,1.7658 1.50388,2.77718 1.73272,4.45069 0.84928,0.94496 0.0671,2.63673 0.62097,3.30329 1.55024,0.50682 2.83352,-1.61755 4.18739,-2.32445 1.29945,-1.08697 1.41881,-2.93495 0.59974,-4.36062 -0.37088,-0.88455 -0.97652,-1.1933 -1.8133,-1.01933 -0.96693,-0.67465 -1.36144,-1.66505 -1.52398,-2.87885 -0.37551,-0.79249 0.8792,-2.3348 -0.61498,-2.35182 z m -2,2.40625 c 0.32853,0.13372 -0.0978,0.37048 0,0 z m 0.1875,0.34375 0.0175,0.15552 -0.0175,-0.15552 z"
         style="color:#000000;fill:#373e48;fill-opacity:1;fill-rule:nonzero;stroke:none;stroke-width:10;marker:none;visibility:visible;display:inline;overflow:visible;enable-background:accumulate" />
      <path
         inkscape:connector-curvature="0"
         id="path9830"
         d="m 441.09712,664.44763 c -0.95337,0.53042 -0.35193,2.87626 0.2678,3.72436 0.8579,-0.3736 1.03416,1.41755 2.02118,0.54853 0.63377,-0.3548 0.71674,-0.73329 1.50082,-0.31773 1.27806,-0.15156 1.33995,-2.7209 -0.2839,-1.87008 -0.57307,0.1965 -1.00264,-1.19492 -1.64263,-0.30959 -0.10584,-1.01582 -1.10375,-0.97402 -1.52082,-1.76094 l -0.34245,-0.0146 0,5e-5 z"
         style="color:#000000;fill:#ffe6d5;fill-opacity:1;fill-rule:nonzero;stroke:none;stroke-width:10;marker:none;visibility:visible;display:inline;overflow:visible;enable-background:accumulate" />
      <path
         inkscape:connector-curvature="0"
         id="path9832"
         d="m 445.04088,662.65588 c -0.52971,1.59285 -1.91906,2.69784 -3.29739,3.51215 0.66954,1.18591 2.33045,-0.87879 2.92102,-1.5729 0.19956,-0.39166 1.24728,-1.90141 0.37637,-1.93925 z"
         style="color:#000000;fill:#000000;fill-opacity:1;fill-rule:nonzero;stroke:none;stroke-width:10;marker:none;visibility:visible;display:inline;overflow:visible;enable-background:accumulate" />
      <path
         inkscape:connector-curvature="0"
         id="path9834"
         d="m 425.76763,658.63727 c -2.18363,-0.10411 -4.18266,1.08717 -6.0057,2.1583 -0.70025,0.1908 -2.82523,1.99695 -1.1112,1.70598 2.20162,-1.27712 4.45392,-2.63887 6.94819,-3.20692 l 0.11332,-0.31788 0.0554,-0.33945 -2e-5,-3e-5 z"
         style="color:#000000;fill:#000000;fill-opacity:1;fill-rule:nonzero;stroke:none;stroke-width:10;marker:none;visibility:visible;display:inline;overflow:visible;enable-background:accumulate" />
      <path
         inkscape:connector-curvature="0"
         id="path9836"
         d="m 420.26621,660.73516 c -0.0831,1.76386 1.43106,3.19919 2.9402,3.83636 1.40758,-0.42385 -1.1645,-1.38755 -1.55047,-2.07648 -0.77886,-0.36915 -0.51497,-1.90484 -1.38973,-1.75988 z"
         style="color:#000000;fill:#000000;fill-opacity:1;fill-rule:nonzero;stroke:none;stroke-width:10;marker:none;visibility:visible;display:inline;overflow:visible;enable-background:accumulate" />
      <path
         inkscape:connector-curvature="0"
         id="path9838"
         d="m 421.58696,665.27182 c -1.34313,0.54979 -3.34362,-0.28803 -3.17846,-1.92826 -0.12998,-1.71145 -1.24411,0.49553 -0.51035,1.23239 0.45031,1.46532 3.3245,2.14775 3.84137,0.93596 l -0.15261,-0.24009 5e-5,0 z"
         style="color:#000000;fill:#000000;fill-opacity:1;fill-rule:nonzero;stroke:none;stroke-width:10;marker:none;visibility:visible;display:inline;overflow:visible;enable-background:accumulate" />
      <path
         inkscape:connector-curvature="0"
         id="path9840"
         d="m 446.05451,665.22289 c 0.62842,1.705 -0.96027,3.32687 -2.65146,3.15361 -0.749,-0.11275 -2.89464,-1.07173 -1.7913,0.44178 1.86008,1.27152 4.94359,0.20393 5.16338,-2.18172 -0.039,-0.44426 0.12764,-2.14996 -0.72062,-1.41367 z"
         style="color:#000000;fill:#000000;fill-opacity:1;fill-rule:nonzero;stroke:none;stroke-width:10;marker:none;visibility:visible;display:inline;overflow:visible;enable-background:accumulate" />
      <path
         inkscape:connector-curvature="0"
         id="path9842"
         d="m 443.29396,670.16531 c -0.9557,2.73375 -2.03257,5.59523 -4.32293,7.5112 -0.93516,1.38694 1.17939,0.59513 1.56197,-0.17475 1.88119,-1.92722 2.91405,-4.5588 3.33637,-7.18451 l -0.28087,-0.11144 -0.29454,-0.0405 z"
         style="color:#000000;fill:#000000;fill-opacity:1;fill-rule:nonzero;stroke:none;stroke-width:10;marker:none;visibility:visible;display:inline;overflow:visible;enable-background:accumulate" />
      <path
         inkscape:connector-curvature="0"
         id="path9844"
         d="m 433.56225,676.60644 c -0.34958,-1.27479 -2.21643,-1.27209 -2.05034,0.0924 0.67545,0.69281 1.02394,-0.94684 0.83346,-0.38197 0.35631,0.5322 0.71145,1.0885 1.21688,0.28958 z"
         style="color:#000000;fill:#000000;fill-opacity:1;fill-rule:nonzero;stroke:none;stroke-width:10;marker:none;visibility:visible;display:inline;overflow:visible;enable-background:accumulate" />
      <path
         inkscape:connector-curvature="0"
         id="path9846"
         d="m 422.39688,671.27065 c 0.28974,2.40097 1.51796,4.63049 3.04201,6.47014 1.74047,0.60105 -0.4015,-1.94767 -0.74175,-2.72204 -0.72197,-1.21317 -1.16244,-2.55758 -1.69204,-3.8582 l -0.31004,0.0228 -0.2982,0.0873 2e-5,0 z"
         style="color:#000000;fill:#000000;fill-opacity:1;fill-rule:nonzero;stroke:none;stroke-width:10;marker:none;visibility:visible;display:inline;overflow:visible;enable-background:accumulate" />
      <path
         inkscape:connector-curvature="0"
         id="path9848"
         d="m 438.81832,678.6712 c -1.50361,0.95061 -3.42527,0.33093 -5.01738,0.6723 0.1356,1.38449 2.53923,0.519 3.66025,0.66204 0.52422,-0.10271 2.60955,-0.69685 1.35713,-1.33434 z"
         style="color:#000000;fill:#000000;fill-opacity:1;fill-rule:nonzero;stroke:none;stroke-width:10;marker:none;visibility:visible;display:inline;overflow:visible;enable-background:accumulate" />
      <path
         inkscape:connector-curvature="0"
         id="path9850"
         d="m 438.96882,678.8778 c 0.16996,1.64317 -1.37222,2.62899 -2.8667,1.97664 -0.93083,0.0945 -2.59766,-1.39168 -3.02489,-0.70457 0.32212,1.14225 2.40794,-1.23045 0.71916,-0.99666 -1.09243,0.31444 -1.93375,1.53332 -0.32158,1.77148 1.58103,0.82394 3.69179,1.64812 5.33665,0.5443 0.58641,-0.38814 1.52618,-2.88741 0.15736,-2.59119 z"
         style="color:#000000;fill:#000000;fill-opacity:1;fill-rule:nonzero;stroke:none;stroke-width:10;marker:none;visibility:visible;display:inline;overflow:visible;enable-background:accumulate" />
      <path
         inkscape:connector-curvature="0"
         id="path9852"
         d="m 431.59004,676.78321 c -2.3446,0.81253 -4.9189,0.51459 -7.23454,-0.24459 -1.7218,0.3178 1.02279,1.29483 1.71079,1.33314 2.00389,0.37814 4.21941,0.40842 6.05776,-0.57726 -0.12618,-0.20647 -0.32442,-0.39126 -0.53401,-0.51129 z"
         style="color:#000000;fill:#000000;fill-opacity:1;fill-rule:nonzero;stroke:none;stroke-width:10;marker:none;visibility:visible;display:inline;overflow:visible;enable-background:accumulate" />
      <path
         inkscape:connector-curvature="0"
         id="path9854"
         d="m 431.29321,677.21419 c -0.67257,1.64944 -2.98417,0.94219 -4.33148,0.68405 -0.75269,-0.069 -2.34585,-1.14951 -2.52318,-0.12898 2.08846,0.86898 4.52795,1.77083 6.73924,0.79456 0.59786,-0.24627 1.47732,-1.77791 0.11542,-1.34963 z"
         style="color:#000000;fill:#000000;fill-opacity:1;fill-rule:nonzero;stroke:none;stroke-width:10;marker:none;visibility:visible;display:inline;overflow:visible;enable-background:accumulate" />
      <path
         inkscape:connector-curvature="0"
         id="path9856"
         d="m 441.58505,664.69793 c -0.84533,-0.8651 -1.53999,0.0607 -0.66551,0.82784 0.31909,0.62268 0.68288,1.60917 0.90266,0.79555 -0.0769,-0.86737 -1.64689,-2.82061 -1.49784,-0.85061 0.15322,0.55752 0.2118,2.96622 0.93554,1.78191 -0.35817,-1.52775 -1.12178,0.98364 0.0208,0.17555 -0.12523,-0.63441 -0.23259,-2.69838 -0.67407,-2.10753 0.18717,0.68182 1.39389,2.80529 1.40307,1.05144 -0.0683,-0.65666 -1.27057,-2.48196 -1.36126,-1.47886 0.44653,0.26462 0.83273,0.61947 0.9366,-0.19529 z"
         style="color:#000000;fill:#000000;fill-opacity:1;fill-rule:nonzero;stroke:none;stroke-width:10;marker:none;visibility:visible;display:inline;overflow:visible;enable-background:accumulate" />
      <path
         inkscape:connector-curvature="0"
         id="path9858"
         d="m 423.76559,662.99998 c -0.61196,0.33085 -2.19569,2.60177 -0.63453,2.04578 0.56689,-0.34702 2.38883,-2.30992 1.11976,-1.95302 -0.28202,0.69414 -1.06144,1.87613 -0.70561,1.92455 0.11961,0.94829 1.07488,-1.14522 1.2315,-1.66872 -0.23838,-1.51733 -1.34171,0.89651 -2.06236,1.17918 -0.23215,1.41427 1.03203,-0.62539 1.4568,-1.02509 l -0.18065,-0.27721 -0.22492,-0.22546 10e-6,-10e-6 z"
         style="color:#000000;fill:#000000;fill-opacity:1;fill-rule:nonzero;stroke:none;stroke-width:10;marker:none;visibility:visible;display:inline;overflow:visible;enable-background:accumulate" />
      <path
         inkscape:connector-curvature="0"
         id="path9860"
         d="m 439.5606,660.74773 c -0.32773,1.59301 -0.27995,3.41576 0.59545,4.82052 0.82369,-0.67253 -0.63442,-2.50953 -0.2219,-3.66194 -0.12904,-0.39964 0.37826,-1.23435 -0.37355,-1.15858 z"
         style="color:#000000;fill:#000000;fill-opacity:1;fill-rule:nonzero;stroke:none;stroke-width:10;marker:none;visibility:visible;display:inline;overflow:visible;enable-background:accumulate" />
      <path
         inkscape:connector-curvature="0"
         id="path9862"
         d="m 425.42205,658.79287 c 0.89846,1.73374 0.0137,3.70798 -1.02188,5.1595 1.09597,0.71415 1.88105,-1.91836 2.01122,-2.87593 0.15098,-0.49228 -0.1692,-3.30511 -0.98934,-2.28357 z"
         style="color:#000000;fill:#000000;fill-opacity:1;fill-rule:nonzero;stroke:none;stroke-width:10;marker:none;visibility:visible;display:inline;overflow:visible;enable-background:accumulate" />
      <path
         inkscape:connector-curvature="0"
         id="path9864"
         d="m 438.52508,661.43962 c 0.10319,0.74268 0.98654,-0.22356 2e-5,-5e-5 l -2e-5,5e-5 z"
         style="color:#000000;fill:#000000;fill-opacity:1;fill-rule:nonzero;stroke:none;stroke-width:10;marker:none;visibility:visible;display:inline;overflow:visible;enable-background:accumulate" />
      <path
         inkscape:connector-curvature="0"
         id="path9866"
         d="m 438.54021,663.15528 c -0.43303,1.09309 0.8692,1.3489 0.48377,0.0397 l -0.2399,-0.0455 -0.24425,0.006 3.8e-4,-10e-5 z"
         style="color:#000000;fill:#000000;fill-opacity:1;fill-rule:nonzero;stroke:none;stroke-width:10;marker:none;visibility:visible;display:inline;overflow:visible;enable-background:accumulate" />
      <path
         inkscape:connector-curvature="0"
         id="path9868"
         d="m 438.89103,664.87574 c 0.62197,1.12871 0.8673,-0.80538 0,0 z"
         style="color:#000000;fill:#000000;fill-opacity:1;fill-rule:nonzero;stroke:none;stroke-width:10;marker:none;visibility:visible;display:inline;overflow:visible;enable-background:accumulate" />
      <path
         inkscape:connector-curvature="0"
         id="path9870"
         d="m 427.01505,660.44804 c -0.2458,0.75539 0.63794,1.96589 0.55666,0.58993 -0.0937,-0.39187 0.0807,-0.95658 -0.55666,-0.58993 z"
         style="color:#000000;fill:#000000;fill-opacity:1;fill-rule:nonzero;stroke:none;stroke-width:10;marker:none;visibility:visible;display:inline;overflow:visible;enable-background:accumulate" />
      <path
         inkscape:connector-curvature="0"
         id="path9872"
         d="m 427.07165,662.56546 c -0.72654,0.65534 -0.0768,1.95928 0.33018,0.61728 0.27515,-0.37027 0.0406,-0.5156 -0.33018,-0.61728 z"
         style="color:#000000;fill:#000000;fill-opacity:1;fill-rule:nonzero;stroke:none;stroke-width:10;marker:none;visibility:visible;display:inline;overflow:visible;enable-background:accumulate" />
      <path
         inkscape:connector-curvature="0"
         id="path9874"
         d="m 425.97371,663.93974 c -1.49491,0.91727 1.30209,1.04699 0,0 z"
         style="color:#000000;fill:#000000;fill-opacity:1;fill-rule:nonzero;stroke:none;stroke-width:10;marker:none;visibility:visible;display:inline;overflow:visible;enable-background:accumulate" />
      <path
         inkscape:connector-curvature="0"
         id="path9876"
         d="m 425.1416,665.06931 c -1.08549,-0.38198 -1.20168,1.07724 -0.15126,0.58953 0.57116,0.13752 0.20589,-0.3975 0.15126,-0.58953 z"
         style="color:#000000;fill:#000000;fill-opacity:1;fill-rule:nonzero;stroke:none;stroke-width:10;marker:none;visibility:visible;display:inline;overflow:visible;enable-background:accumulate" />
      <path
         inkscape:connector-curvature="0"
         id="path9878"
         d="m 442.69215,670.06185 c -0.88307,0.8041 1.07402,0.69115 0,0 z"
         style="color:#000000;fill:#000000;fill-opacity:1;fill-rule:nonzero;stroke:none;stroke-width:10;marker:none;visibility:visible;display:inline;overflow:visible;enable-background:accumulate" />
      <path
         inkscape:connector-curvature="0"
         id="path9880"
         d="m 431.54887,657.92636 c -0.23928,0.62472 -2.1125,0.10994 -1.16034,-0.21543 1.0065,0.10437 0.75695,0.9487 -0.11104,0.33016 -0.49479,-0.27883 -0.33,-1.26087 0.318,-1.03923 0.85949,0.16437 1.39144,1.43391 0.0381,0.94288 -1.18925,-0.49487 0.37837,-1.50411 0.40918,-0.29096 -0.87635,0.47893 0.34228,-0.85458 0.56725,0.15101 -0.68586,1.26783 -1.4989,-0.32714 -0.44473,0.0916 -1.12124,-0.009 -0.75713,-0.91907 0.14112,-0.38274 0.89538,0.73818 -1.28825,0.76981 -0.38393,0.38786 0.96896,-0.44723 -0.50288,0.51839 -0.39389,-0.23417 -0.22795,-0.47434 0.4948,-0.14894 0.66319,0.0653 -0.0525,0.20595 -0.93325,-0.60521 -0.78595,-0.41421 -0.38678,0.29673 0.63394,0.62883 0.526,0.6445 -0.1113,1.05199 -1.43203,-0.84682 -0.34514,-0.11397 0.22245,0.1434 0.74772,-0.23099 0.96222,0.0773 z"
         style="color:#000000;fill:#ffffff;fill-opacity:1;fill-rule:nonzero;stroke:none;stroke-width:10;marker:none;visibility:visible;display:inline;overflow:visible;enable-background:accumulate" />
      <path
         inkscape:connector-curvature="0"
         id="path9882"
         d="m 430.83221,658.09536 c 1.23901,-0.30635 -0.92895,-1.10737 -0.10457,-0.0601 0.96577,0.046 -0.20668,-0.55796 0.14684,-0.19932 -0.0196,-0.0764 0.19383,0.0854 -0.0423,0.25938 z"
         style="color:#000000;fill:#00ccff;fill-opacity:1;fill-rule:nonzero;stroke:none;stroke-width:10;marker:none;visibility:visible;display:inline;overflow:visible;enable-background:accumulate" />
      <path
         inkscape:connector-curvature="0"
         id="path9884"
         d="m 435.35407,660.83231 c 0.73591,0.42353 1.56818,-0.85815 0.75251,-1.21849 -0.93251,-0.54171 -2.08216,-0.18108 -3.10408,-0.39319 -0.75655,-0.0815 -1.99292,-0.36604 -2.28135,0.59605 -0.25788,0.96964 1.14416,0.98515 1.71313,0.67979 0.34942,-0.31642 0.9839,-0.21807 1.18455,-0.20991 0.72202,0.19813 1.45763,0.38791 2.20909,0.45361 0.967,-1.39981 -1.98043,-1.21843 -2.84871,-1.29184 -0.47973,-0.1565 -2.7816,0.58176 -1.36274,0.54754 -0.15843,0.64471 1.01441,-0.0474 1.4126,0.10792 0.94692,-0.0895 2.13661,0.46499 2.80324,0.0197 -0.71152,-0.13645 -1.40636,-0.26053 -2.09866,-0.4716 -0.59747,-0.087 -1.34646,0.0189 -1.76446,0.3611 -0.086,-0.13567 -0.9116,0.23289 -0.61209,-0.0956 0.1918,-0.36895 0.71042,-0.14737 1.25111,-0.1513 0.99044,0.17751 2.02701,0.0464 3.001,0.21574 0.55537,0.002 0.0567,0.48101 0.0927,0.36943 -0.31402,-0.1223 -0.27955,0.32602 -0.34786,0.48097 z"
         style="color:#000000;fill:#ffaaaa;fill-opacity:1;fill-rule:nonzero;stroke:none;stroke-width:10;marker:none;visibility:visible;display:inline;overflow:visible;enable-background:accumulate" />
      <path
         inkscape:connector-curvature="0"
         id="path9886"
         d="m 436.145,660.35352 c -0.69676,-1.04321 -2.35112,-0.43356 -3.43619,-0.61127 -0.70319,-0.40387 -2.00349,0.82901 -0.75907,0.21694 1.00765,0.0475 2.38658,-0.0183 3.51427,0.11546 0.40305,-0.26279 0.32595,0.66268 0.68099,0.27887 z"
         style="color:#000000;fill:#000000;fill-opacity:1;fill-rule:nonzero;stroke:none;stroke-width:10;marker:none;visibility:visible;display:inline;overflow:visible;enable-background:accumulate" />
      <path
         inkscape:connector-curvature="0"
         id="path9888"
         d="m 436.73863,660.22177 c -0.58187,-1.46205 -2.27842,-0.91761 -3.47661,-1.07957 -0.88885,-0.0834 -2.36144,-0.39724 -2.60552,0.79492 0.0889,1.25217 1.83509,0.63649 2.6436,0.47171 1.01523,-0.0874 1.97298,0.78134 2.96167,0.3897 0.61234,-0.33109 0.19474,-1.39202 0.0234,-0.43419 -0.38222,0.67026 -1.24838,0.0716 -1.84292,-0.0331 -0.74132,-0.31862 -1.70464,-0.0933 -2.32781,0.0938 -1.03342,0.48076 -1.76171,-0.79831 -0.58622,-1.1007 0.93315,-0.17755 2.04661,0.23548 3.07594,0.0578 0.79762,-0.19046 1.64427,0.39057 2.13442,0.83961 z"
         style="color:#000000;fill:#000000;fill-opacity:1;fill-rule:nonzero;stroke:none;stroke-width:10;marker:none;visibility:visible;display:inline;overflow:visible;enable-background:accumulate" />
      <path
         inkscape:connector-curvature="0"
         id="path9890"
         d="m 430.01166,658.94891 c -0.39023,-0.64183 -2.33667,-0.75533 -0.76911,-0.20451 0.23879,-0.0582 0.58626,0.52337 0.76911,0.20451 z"
         style="color:#000000;fill:#000000;fill-opacity:1;fill-rule:nonzero;stroke:none;stroke-width:10;marker:none;visibility:visible;display:inline;overflow:visible;enable-background:accumulate" />
      <path
         inkscape:connector-curvature="0"
         id="path9892"
         d="m 429.69123,658.9886 c -0.71553,-0.54685 -1.65048,-0.10648 -0.31064,0.10331 l 0.19093,0.0585 0.11973,-0.16184 -2e-5,10e-6 z"
         style="color:#000000;fill:#000000;fill-opacity:1;fill-rule:nonzero;stroke:none;stroke-width:10;marker:none;visibility:visible;display:inline;overflow:visible;enable-background:accumulate" />
      <path
         inkscape:connector-curvature="0"
         id="path9894"
         d="m 439.11894,658.87117 c -0.70575,-0.19903 -2.07943,1.01119 -0.61501,0.35475 0.0769,-0.14523 0.93678,-0.0255 0.61501,-0.35475 z"
         style="color:#000000;fill:#000000;fill-opacity:1;fill-rule:nonzero;stroke:none;stroke-width:10;marker:none;visibility:visible;display:inline;overflow:visible;enable-background:accumulate" />
      <path
         inkscape:connector-curvature="0"
         id="path9896"
         d="m 438.80551,659.11933 c -0.87698,-0.057 -1.12654,0.69765 -0.0932,0.26232 l 0.19237,-0.0752 -0.0991,-0.18703 -5e-5,-4e-5 z"
         style="color:#000000;fill:#000000;fill-opacity:1;fill-rule:nonzero;stroke:none;stroke-width:10;marker:none;visibility:visible;display:inline;overflow:visible;enable-background:accumulate" />
      <path
         inkscape:connector-curvature="0"
         id="path9898"
         d="m 439.16427,673.25028 c -0.63972,1.27475 2.14995,3.97031 1.98991,1.87722 -1.11401,-0.17849 -0.9609,-2.02574 -1.98991,-1.87722 z"
         style="color:#000000;fill:#000000;fill-opacity:1;fill-rule:nonzero;stroke:none;stroke-width:10;marker:none;visibility:visible;display:inline;overflow:visible;enable-background:accumulate" />
      <path
         inkscape:connector-curvature="0"
         id="path9900"
         d="m 426.01476,672.50278 c -0.1235,1.19403 -2.83482,1.2446 -1.87192,2.27053 0.91574,0.23999 3.50643,-1.94314 1.87192,-2.27053 z"
         style="color:#000000;fill:#000000;fill-opacity:1;fill-rule:nonzero;stroke:none;stroke-width:10;marker:none;visibility:visible;display:inline;overflow:visible;enable-background:accumulate" />
      <path
         inkscape:connector-curvature="0"
         id="path9902"
         d="m 438.75519,654.62893 c -0.62897,1.58634 -2.63876,1.67623 -4.09082,1.82255 -1.89869,-0.0612 -4.06033,-0.32183 -5.4638,-1.72787 0.23448,-0.92381 -0.91565,-1.32999 -0.8081,-0.16741 0.66381,1.69884 2.7268,2.26847 4.36545,2.56655 1.97893,0.27964 4.24818,0.16954 5.86373,-1.12781 0.32766,-0.2156 1.12971,-1.63838 0.13354,-1.36601 z"
         style="color:#000000;fill:#000000;fill-opacity:1;fill-rule:nonzero;stroke:none;stroke-width:10;marker:none;visibility:visible;display:inline;overflow:visible;enable-background:accumulate" />
      <path
         inkscape:connector-curvature="0"
         id="path9904"
         d="m 431.17017,657.9282 c -0.041,-1.33186 -1.28458,0.54749 -0.0236,0.14963 -0.006,-0.0687 -0.86659,-0.37532 -0.19325,-0.4947 0.26461,0.038 -0.048,0.37388 0.21687,0.34507 z"
         style="color:#000000;fill:#000000;fill-opacity:1;fill-rule:nonzero;stroke:none;stroke-width:10;marker:none;visibility:visible;display:inline;overflow:visible;enable-background:accumulate" />
      <path
         inkscape:connector-curvature="0"
         id="path9906"
         d="m 430.37837,656.88513 c -1.55127,0.25952 0.62343,2.27384 0.69317,1.27334 -1.82415,0.0139 -0.67128,-1.97508 0.41919,-0.56544 1.03358,0.6048 -0.84625,-1.14092 -1.11236,-0.7079 z"
         style="color:#000000;fill:#000000;fill-opacity:1;fill-rule:nonzero;stroke:none;stroke-width:10;marker:none;visibility:visible;display:inline;overflow:visible;enable-background:accumulate" />
      <path
         inkscape:connector-curvature="0"
         id="path9908"
         d="m 435.68519,658.06859 c 0.23937,0.62456 2.11248,0.10986 1.16034,-0.21552 -1.0065,0.10438 -0.75695,0.94869 0.11104,0.33015 0.49479,-0.27883 0.33,-1.26087 -0.318,-1.03923 -0.8595,0.16437 -1.39143,1.43376 -0.0381,0.94278 1.18926,-0.49486 -0.37837,-1.5041 -0.40918,-0.29095 0.87634,0.47896 -0.34225,-0.85459 -0.56725,0.15091 0.68586,1.26784 1.4989,-0.32715 0.44473,0.0916 1.1213,-0.009 0.75708,-0.91952 -0.14112,-0.38285 -0.89538,0.73824 1.28825,0.76967 0.38393,0.38777 -0.96895,-0.44722 0.50287,0.51836 0.39389,-0.23417 0.22788,-0.47442 -0.49468,-0.14876 -0.66319,0.0654 0.0525,0.20603 0.93324,-0.6052 0.78595,-0.41307 0.38678,0.29673 -0.63394,0.62883 -0.526,0.6445 0.1113,1.05198 1.43202,-0.84682 0.34514,-0.11397 -0.22246,0.14323 -0.74721,-0.23039 -0.96222,0.0766 z"
         style="color:#000000;fill:#ffffff;fill-opacity:1;fill-rule:nonzero;stroke:none;stroke-width:10;marker:none;visibility:visible;display:inline;overflow:visible;enable-background:accumulate" />
      <path
         inkscape:connector-curvature="0"
         id="path9910"
         d="m 436.35307,658.24491 c 1.23902,-0.30635 -0.92896,-1.10737 -0.10455,-0.0601 0.96584,0.046 -0.20679,-0.55795 0.14683,-0.19932 -0.0196,-0.0764 0.19384,0.0854 -0.0423,0.25938 z"
         style="color:#000000;fill:#00ccff;fill-opacity:1;fill-rule:nonzero;stroke:none;stroke-width:10;marker:none;visibility:visible;display:inline;overflow:visible;enable-background:accumulate" />
      <path
         inkscape:connector-curvature="0"
         id="path9912"
         d="m 436.08684,658.1172 c 0.041,-1.33185 1.28457,0.54749 0.0236,0.14964 0.006,-0.0687 0.86644,-0.37538 0.19316,-0.49471 -0.26459,0.038 0.048,0.37379 -0.21678,0.34507 z"
         style="color:#000000;fill:#000000;fill-opacity:1;fill-rule:nonzero;stroke:none;stroke-width:10;marker:none;visibility:visible;display:inline;overflow:visible;enable-background:accumulate" />
      <path
         inkscape:connector-curvature="0"
         id="path9914"
         d="m 435.44176,657.93975 c 0.34841,-1.21606 2.81,-1.06621 1.68034,0.37111 -0.64625,0.64022 -1.65794,-0.0792 -0.3569,-0.004 1.40765,-1.5406 -0.74108,-0.98497 -1.32344,-0.36741 z"
         style="color:#000000;fill:#000000;fill-opacity:1;fill-rule:nonzero;stroke:none;stroke-width:10;marker:none;visibility:visible;display:inline;overflow:visible;enable-background:accumulate" />
      <path
         inkscape:connector-curvature="0"
         id="path9918"
         d="m 437.39068,666.23805 c -0.39346,-0.53364 -2.49455,-1.58995 -2.33183,-0.739 0.75399,0.11683 1.68698,1.00433 2.33183,0.739 z"
         style="color:#000000;fill:#000000;fill-opacity:1;fill-rule:nonzero;stroke:none;stroke-width:10;marker:none;visibility:visible;display:inline;overflow:visible;enable-background:accumulate" />
      <path
         inkscape:connector-curvature="0"
         id="path9920"
         d="m 431.5179,664.90921 c -0.77982,0.19811 -2.98719,0.73208 -2.67094,1.45419 0.72521,-0.47198 2.53957,-0.76534 2.67094,-1.45419 z"
         style="color:#000000;fill:#000000;fill-opacity:1;fill-rule:nonzero;stroke:none;stroke-width:10;marker:none;visibility:visible;display:inline;overflow:visible;enable-background:accumulate" />
      <path
         inkscape:connector-curvature="0"
         id="path9922"
         d="m 429.43784,661.34952 c 0.64736,1.30961 1.06242,2.77462 0.81259,4.24976 0.24682,1.6274 0.8513,-1.3285 0.55401,-1.94181 -0.16031,-0.70497 -0.53372,-2.43115 -1.3666,-2.30795 z"
         style="color:#000000;fill:#000000;fill-opacity:1;fill-rule:nonzero;stroke:none;stroke-width:10;marker:none;visibility:visible;display:inline;overflow:visible;enable-background:accumulate" />
      <path
         inkscape:connector-curvature="0"
         id="path9924"
         d="m 430.20567,665.95567 c -2.21812,1.68726 -3.00014,4.70918 -3.14026,7.30235 0.99853,-0.01 0.53639,-2.35747 1.16745,-3.19805 0.24343,-1.51354 1.89084,-2.94208 1.97363,-4.10434 l -8.2e-4,4e-5 z"
         style="color:#000000;fill:#000000;fill-opacity:1;fill-rule:nonzero;stroke:none;stroke-width:10;marker:none;visibility:visible;display:inline;overflow:visible;enable-background:accumulate" />
      <path
         inkscape:connector-curvature="0"
         id="path9926"
         d="m 427.02519,672.7402 c -2.00395,0.0476 -3.83406,-0.89613 -5.70166,-1.48 -0.7367,0.73384 1.61463,1.04331 2.18501,1.43188 1.0816,0.33279 3.05484,0.96963 3.66264,0.20739 l -0.14598,-0.15923 -10e-6,-4e-5 z"
         style="color:#000000;fill:#000000;fill-opacity:1;fill-rule:nonzero;stroke:none;stroke-width:10;marker:none;visibility:visible;display:inline;overflow:visible;enable-background:accumulate" />
      <path
         inkscape:connector-curvature="0"
         id="path9928"
         d="m 420.3663,666.29767 c -0.18147,1.82809 0.0756,3.67859 0.38476,5.47911 0.96474,0.53625 0.1885,-2.01618 0.29048,-2.68151 -0.28269,-0.80337 0.19931,-2.5911 -0.67524,-2.7976 z"
         style="color:#000000;fill:#000000;fill-opacity:1;fill-rule:nonzero;stroke:none;stroke-width:10;marker:none;visibility:visible;display:inline;overflow:visible;enable-background:accumulate" />
      <path
         inkscape:connector-curvature="0"
         id="path9930"
         d="m 435.86809,662.1945 c -0.29022,1.41607 -0.57648,3.03496 -0.58197,4.3814 1.72291,1.99361 2.24799,4.73797 2.22673,7.30814 1.02383,0.0558 0.44004,-2.13482 0.4347,-2.97082 -0.32384,-1.73511 -0.95441,-3.64391 -2.45806,-4.70042 0.61291,-0.329 0.66379,-2.77424 0.69898,-3.97616 l -0.32027,-0.042 -1.1e-4,-1.4e-4 z"
         style="color:#000000;fill:#000000;fill-opacity:1;fill-rule:nonzero;stroke:none;stroke-width:10;marker:none;visibility:visible;display:inline;overflow:visible;enable-background:accumulate" />
      <path
         inkscape:connector-curvature="0"
         id="path9932"
         d="m 437.74099,674.81235 c 1.97705,-0.65193 3.9152,-1.78547 5.05015,-3.59239 0.75755,-0.40976 0.91882,-2.71196 0.11435,-1.26944 -0.87457,1.47265 -2.11509,2.71266 -3.65957,3.47162 -0.32954,0.44753 -2.10989,0.68977 -1.50493,1.39021 z"
         style="color:#000000;fill:#000000;fill-opacity:1;fill-rule:nonzero;stroke:none;stroke-width:10;marker:none;visibility:visible;display:inline;overflow:visible;enable-background:accumulate" />
      <path
         inkscape:connector-curvature="0"
         id="path9934"
         d="m 432.3602,673.33892 c -0.12388,0.57601 -0.25812,2.47366 0.22723,1.00854 -0.009,-0.23384 0.28393,-1.20371 -0.22723,-1.00854 z"
         style="color:#000000;fill:#000000;fill-opacity:1;fill-rule:nonzero;stroke:none;stroke-width:10;marker:none;visibility:visible;display:inline;overflow:visible;enable-background:accumulate" />
      <path
         inkscape:connector-curvature="0"
         id="path9936"
         d="m 435.99496,661.98298 c -0.70652,-1.3202 -0.79387,1.08822 -0.0611,0.12075 -0.1423,-0.12907 -0.48281,0.0829 -0.33308,-0.318 0.15875,0.0392 0.18369,0.43289 0.39423,0.19725 z"
         style="color:#000000;fill:#000000;fill-opacity:1;fill-rule:nonzero;stroke:none;stroke-width:10;marker:none;visibility:visible;display:inline;overflow:visible;enable-background:accumulate" />
      <path
         inkscape:connector-curvature="0"
         id="path9938"
         d="m 434.90824,662.30377 c 1.08381,0.82145 0.0958,-0.76095 -0.38616,0.19497 -0.43706,1.22233 1.51024,0.37238 0.55719,0.25034 -0.4412,0.48558 -0.16413,-0.5564 0.23356,-0.35953 l -0.27592,-0.18032 -0.12907,0.0945 4e-4,4e-5 z"
         style="color:#000000;fill:#000000;fill-opacity:1;fill-rule:nonzero;stroke:none;stroke-width:10;marker:none;visibility:visible;display:inline;overflow:visible;enable-background:accumulate" />
      <path
         inkscape:connector-curvature="0"
         id="path9940"
         d="m 434.67143,663.48071 c -0.85029,-0.7825 -0.38426,1.13954 0.0531,0.21036 -0.29991,-0.85891 -0.45952,-0.0676 -0.31225,-0.0158 -0.2068,-0.45209 0.0908,0.10636 0.25917,-0.19455 z"
         style="color:#000000;fill:#000000;fill-opacity:1;fill-rule:nonzero;stroke:none;stroke-width:10;marker:none;visibility:visible;display:inline;overflow:visible;enable-background:accumulate" />
      <path
         inkscape:connector-curvature="0"
         id="path9942"
         d="m 434.0082,664.3864 c 1.10463,1.62925 -2.77373,0.8967 -1.3937,-0.0604 0.28127,-0.57466 2.22473,0.0424 0.87245,-0.59605 -1.41575,-0.37224 -2.2608,2.08159 -0.32862,1.77156 1.13783,0.93301 1.85169,-1.28639 0.84987,-1.11509 z"
         style="color:#000000;fill:#000000;fill-opacity:1;fill-rule:nonzero;stroke:none;stroke-width:10;marker:none;visibility:visible;display:inline;overflow:visible;enable-background:accumulate" />
      <path
         inkscape:connector-curvature="0"
         id="path9944"
         d="m 432.70749,663.34402 c -1.14221,-0.19707 -0.027,1.3172 0.12561,0.12197 -0.25953,-0.44102 -0.69109,0.60034 -0.20053,-0.025 l 0.0747,-0.0972 2.2e-4,2e-4 z"
         style="color:#000000;fill:#000000;fill-opacity:1;fill-rule:nonzero;stroke:none;stroke-width:10;marker:none;visibility:visible;display:inline;overflow:visible;enable-background:accumulate" />
      <path
         inkscape:connector-curvature="0"
         id="path9946"
         d="m 432.111,663.12197 c 0.0434,-1.26056 -1.6061,-0.33842 -0.35108,-0.0312 0.36105,-0.21439 -0.73199,-0.72349 0.056,-0.14115 -0.16643,0.14455 0.3059,0.31343 0.29506,0.17232 z"
         style="color:#000000;fill:#000000;fill-opacity:1;fill-rule:nonzero;stroke:none;stroke-width:10;marker:none;visibility:visible;display:inline;overflow:visible;enable-background:accumulate" />
      <path
         inkscape:connector-curvature="0"
         id="path9948"
         d="m 431.17284,662.00512 c -1.13562,-1.09239 -0.39728,0.85478 0.0412,-0.24971 -0.38309,-0.74136 -0.32857,0.32846 -0.56197,0.1397 0.19099,0.0345 0.31323,0.43223 0.52078,0.11001 z"
         style="color:#000000;fill:#000000;fill-opacity:1;fill-rule:nonzero;stroke:none;stroke-width:10;marker:none;visibility:visible;display:inline;overflow:visible;enable-background:accumulate" />
      <path
         inkscape:connector-curvature="0"
         id="path9950"
         d="m 435.01685,661.7418 c -1.15226,0.93757 -2.57957,0.11307 -3.28461,-0.48116 0.32597,1.45095 3.09254,1.541 3.28461,0.48116 z"
         style="color:#000000;fill:#000000;fill-opacity:1;fill-rule:nonzero;stroke:none;stroke-width:10;marker:none;visibility:visible;display:inline;overflow:visible;enable-background:accumulate" />
      <path
         inkscape:connector-curvature="0"
         id="path9952"
         d="m 434.73133,662.52436 c -1.33175,0.72587 -2.92258,-0.0868 -3.50987,-1.23592 0.0841,1.41507 1.93332,2.09816 3.16869,1.64849 0.094,-0.032 0.82459,-0.2793 0.34118,-0.41257 z"
         style="color:#000000;fill:#000000;fill-opacity:1;fill-rule:nonzero;stroke:none;stroke-width:10;marker:none;visibility:visible;display:inline;overflow:visible;enable-background:accumulate" />
      <path
         inkscape:connector-curvature="0"
         id="path9954"
         d="m 434.03682,665.00912 c -0.0807,-1.3123 -0.67737,-0.39152 -0.17916,0.11528 0.98411,-0.89572 -2.00519,-1.25785 -0.36313,-0.63953 0.40067,0.0205 0.37051,1.33514 0.55098,0.33154 0.10359,-0.56423 -1.21685,-0.88091 -1.10661,-0.39246 0.76391,-0.178 1.05976,1.47618 1.06646,0.12452 -0.0199,-0.83566 -1.62469,-0.46219 -0.44934,-0.0201 0.24671,0.69815 0.78203,0.87104 0.35885,-0.0329 -0.49616,-0.6173 -0.94449,-0.20756 -0.25106,-0.0877 -0.0376,0.81793 0.68488,0.88474 0.12915,0.0747 -0.56848,-0.60027 -1.4232,-0.0317 -0.37901,0.0162 0.45765,-0.0396 0.6236,1.21778 0.58651,0.20009 -0.13586,-0.91215 -1.9603,-0.40891 -0.42629,-0.21113 0.20423,0.40703 0.41848,1.24612 0.38472,0.10381 -0.37336,-0.92785 -0.44578,0.51799 0.0784,0.41686 l -5.2e-4,7.4e-4 z"
         style="color:#000000;fill:#ffffff;fill-opacity:1;fill-rule:nonzero;stroke:none;stroke-width:10;marker:none;visibility:visible;display:inline;overflow:visible;enable-background:accumulate" />
      <path
         inkscape:connector-curvature="0"
         id="path9956"
         d="m 431.56587,670.91638 c -1.76184,-0.0563 -1.08827,2.04055 0.30848,1.94821 1.38807,0.99221 3.39534,-1.34579 1.40065,-1.8161 -0.56178,-0.13152 -1.13841,-0.091 -1.70913,-0.13211 z"
         style="color:#000000;fill:#666666;fill-opacity:1;fill-rule:nonzero;stroke:none;stroke-width:10;marker:none;visibility:visible;display:inline;overflow:visible;enable-background:accumulate" />
      <path
         inkscape:connector-curvature="0"
         id="path9958"
         d="m 434.28195,673.17056 c 0.89645,-1.10411 0.17072,-2.72675 -1.311,-2.48517 -1.30312,-0.23997 -3.19008,0.30018 -2.73172,1.97638 0.763,0.89296 2.33543,0.49447 3.43653,0.58995 1.31179,-0.46769 -0.82479,-0.85119 -1.3741,-0.74114 -0.78362,-0.24004 -2.07967,0.59363 -1.43306,-0.62491 0.14843,-0.96374 2.29763,-0.1886 3.14217,-0.45229 0.29315,0.50259 -0.6562,1.81192 0.27118,1.73718 z"
         style="color:#000000;fill:#333333;fill-opacity:1;fill-rule:nonzero;stroke:none;stroke-width:10;marker:none;visibility:visible;display:inline;overflow:visible;enable-background:accumulate" />
      <path
         inkscape:connector-curvature="0"
         id="path9960"
         d="m 437.49147,672.15149 c -0.92925,-0.15819 -3.22013,-0.76377 -3.39605,0.3715 0.60626,0.33848 3.70159,0.7408 3.39605,-0.3715 z"
         style="color:#000000;fill:#000000;fill-opacity:1;fill-rule:nonzero;stroke:none;stroke-width:10;marker:none;visibility:visible;display:inline;overflow:visible;enable-background:accumulate" />
      <path
         inkscape:connector-curvature="0"
         id="path9962"
         d="m 430.41198,671.49254 c -0.79155,-0.12771 -2.54599,-0.81426 -2.88351,-0.0519 0.67983,0.2428 2.47704,0.90205 2.88351,0.0519 z"
         style="color:#000000;fill:#000000;fill-opacity:1;fill-rule:nonzero;stroke:none;stroke-width:10;marker:none;visibility:visible;display:inline;overflow:visible;enable-background:accumulate" />
      <path
         inkscape:connector-curvature="0"
         id="path9964"
         d="m 430.48763,667.60595 c -0.0894,-0.50045 -1.4522,1.82292 -0.4214,1.97657 0.67193,-0.10725 0.56988,-0.88637 -0.0334,-0.70917 0.22614,-1.09824 1.41523,1.08623 0.54773,0.55392 0.41008,-0.88328 -1.44577,-0.51494 -0.10373,-0.73939 1.32472,0.91477 -1.71629,1.80492 -0.98076,0.0368 -0.33978,-0.53371 1.61294,-2.27946 0.99152,-1.1187 z"
         style="color:#000000;fill:#ececec;fill-opacity:1;fill-rule:nonzero;stroke:none;stroke-width:10;marker:none;visibility:visible;display:inline;overflow:visible;enable-background:accumulate" />
      <path
         inkscape:connector-curvature="0"
         id="path9966"
         d="m 431.7141,667.44143 c -0.24388,0.42677 0.002,2.69767 -0.62111,2.16204 0.0931,-0.57825 -0.0305,-2.06995 0.62111,-2.16204 z"
         style="color:#000000;fill:#ececec;fill-opacity:1;fill-rule:nonzero;stroke:none;stroke-width:10;marker:none;visibility:visible;display:inline;overflow:visible;enable-background:accumulate" />
      <path
         inkscape:connector-curvature="0"
         id="path9968"
         d="m 431.44675,667.71469 c 1.0155,-0.53346 0.82032,0.82225 0,0 z"
         style="color:#000000;fill:#ececec;fill-opacity:1;fill-rule:nonzero;stroke:none;stroke-width:10;marker:none;visibility:visible;display:inline;overflow:visible;enable-background:accumulate" />
      <path
         inkscape:connector-curvature="0"
         id="path9970"
         d="m 431.23013,668.4241 c 0.62125,-0.52888 1.50664,0.21017 0.31016,0.22204 l -0.20162,0.003 -0.1085,-0.22515 -4e-5,-1.3e-4 z"
         style="color:#000000;fill:#ececec;fill-opacity:1;fill-rule:nonzero;stroke:none;stroke-width:10;marker:none;visibility:visible;display:inline;overflow:visible;enable-background:accumulate" />
      <path
         inkscape:connector-curvature="0"
         id="path9972"
         d="m 431.15871,669.55282 c 0.1826,-0.45306 1.93465,-0.30151 0.74071,0.20359 -0.18964,0.0409 -1.23314,0.43826 -0.74071,-0.20359 z"
         style="color:#000000;fill:#ececec;fill-opacity:1;fill-rule:nonzero;stroke:none;stroke-width:10;marker:none;visibility:visible;display:inline;overflow:visible;enable-background:accumulate" />
      <path
         inkscape:connector-curvature="0"
         id="path9974"
         d="m 433.00511,667.53294 c 0.54941,0.58583 0.24109,2.97928 -0.0751,1.17685 0.0776,-0.2589 -0.33919,-1.1509 0.0751,-1.17685 z"
         style="color:#000000;fill:#ececec;fill-opacity:1;fill-rule:nonzero;stroke:none;stroke-width:10;marker:none;visibility:visible;display:inline;overflow:visible;enable-background:accumulate" />
      <path
         inkscape:connector-curvature="0"
         id="path9976"
         d="m 432.91559,667.49996 c 0.82679,-0.36112 1.00462,0.44498 -0.0653,0.19094 l 0.0653,-0.19094 -3e-5,0 z"
         style="color:#000000;fill:#ececec;fill-opacity:1;fill-rule:nonzero;stroke:none;stroke-width:10;marker:none;visibility:visible;display:inline;overflow:visible;enable-background:accumulate" />
      <path
         inkscape:connector-curvature="0"
         id="path9978"
         d="m 432.97921,668.19886 c 0.62745,-0.31047 1.25651,0.34303 0.13714,0.2665 -0.37031,0.096 -0.15358,-0.11091 -0.13714,-0.2665 z"
         style="color:#000000;fill:#ececec;fill-opacity:1;fill-rule:nonzero;stroke:none;stroke-width:10;marker:none;visibility:visible;display:inline;overflow:visible;enable-background:accumulate" />
      <path
         inkscape:connector-curvature="0"
         id="path9980"
         d="m 432.98179,669.12398 c 0.69255,-0.4995 1.61667,0.30644 0.39421,0.25108 l -0.32239,0.0119 -0.0718,-0.26284 -2e-5,-1.4e-4 z"
         style="color:#000000;fill:#ececec;fill-opacity:1;fill-rule:nonzero;stroke:none;stroke-width:10;marker:none;visibility:visible;display:inline;overflow:visible;enable-background:accumulate" />
      <path
         inkscape:connector-curvature="0"
         id="path9982"
         d="m 434.56095,667.38622 c 0.46141,0.49827 0.88569,2.97265 0.15856,1.43771 -0.0338,-0.30361 -0.80381,-1.46415 -0.15856,-1.43771 z"
         style="color:#000000;fill:#ececec;fill-opacity:1;fill-rule:nonzero;stroke:none;stroke-width:10;marker:none;visibility:visible;display:inline;overflow:visible;enable-background:accumulate" />
      <path
         inkscape:connector-curvature="0"
         id="path9984"
         d="m 434.6724,668.52709 c 0.15278,-0.93021 1.16583,-1.61199 0.53548,-0.29435 -0.11264,0.15463 -0.29416,0.72294 -0.53548,0.29435 z"
         style="color:#000000;fill:#ececec;fill-opacity:1;fill-rule:nonzero;stroke:none;stroke-width:10;marker:none;visibility:visible;display:inline;overflow:visible;enable-background:accumulate" />
      <path
         inkscape:connector-curvature="0"
         id="path9986"
         d="m 434.86982,668.32407 c 0.80482,-0.002 2.23557,1.86516 0.75097,0.87986 -0.11259,-0.28751 -1.41339,-0.57388 -0.75097,-0.87986 z"
         style="color:#000000;fill:#ececec;fill-opacity:1;fill-rule:nonzero;stroke:none;stroke-width:10;marker:none;visibility:visible;display:inline;overflow:visible;enable-background:accumulate" />
      <path
         inkscape:connector-curvature="0"
         id="path9988"
         d="m 442.00653,665.98452 c 1.25519,0.18854 1.72259,-2.05659 0.25056,-1.33627 -0.77185,0.399 -0.55307,0.16464 -0.0454,0.5807 0.29889,-0.8562 -0.50392,-2.0371 -1.14895,-1.17803 -0.20581,0.91319 0.8073,1.68251 1.03158,0.64803 -0.49708,-0.61853 -0.56193,-1.02725 -0.85978,-0.19817 -0.99841,0.31542 1.27952,-0.79859 -0.1695,-0.87121 -1.76312,0.53463 1.6299,2.94399 1.11674,0.8564 -0.0516,-1.42816 -1.82052,-0.43992 -0.93045,0.58241 -0.40702,1.45622 2.63927,0.31478 1.17564,0.0937 0.36912,-0.79705 -1.7293,0.0165 -0.42044,0.82239 z"
         style="color:#000000;fill:#800000;fill-opacity:1;fill-rule:nonzero;stroke:none;stroke-width:10;marker:none;visibility:visible;display:inline;overflow:visible;enable-background:accumulate" />
      <path
         inkscape:connector-curvature="0"
         id="path11203"
         d="m 428.59071,655.05276 c -0.98538,0.12894 -1.28089,0.52073 -1.0852,1.5574 -0.19524,0.96896 -1.93057,-0.37665 -0.31024,-0.01 -0.0238,0.26306 -0.2869,-2.10344 0.9085,-1.65931 -0.11471,-0.39399 0.68367,0.13185 0.48694,0.11175 z"
         style="color:#000000;fill:#000000;fill-opacity:1;fill-rule:nonzero;stroke:none;stroke-width:10;marker:none;visibility:visible;display:inline;overflow:visible;enable-background:accumulate" />
      <path
         inkscape:connector-curvature="0"
         id="path11205"
         d="m 439.28646,655.33683 c 1.27034,-0.35441 0.0649,1.92713 1.24531,1.54679 0.93956,0.41811 -1.33087,0.66947 -0.86802,-0.42686 -0.47826,-0.65092 0.54728,-1.04491 -0.0784,-0.76343 -0.16521,-0.005 -0.8217,-0.11737 -0.29893,-0.3565 z"
         style="color:#000000;fill:#000000;fill-opacity:1;fill-rule:nonzero;stroke:none;stroke-width:10;marker:none;visibility:visible;display:inline;overflow:visible;enable-background:accumulate" />
    </g>
  </g>
</svg>
